<svg width="40" height="40" viewBox="0 0 40 40" fill="none" xmlns="http://www.w3.org/2000/svg">
<g clip-path="url(#clip0_1_158)">
<path d="M37.7945 11.7594C37.7945 11.0877 37.6541 10.4962 37.3634 9.98496C37.0827 9.48371 36.6516 9.06266 36.0802 8.73183C31.3383 6.00501 26.5965 3.2782 21.8647 0.541355C20.5915 -0.200499 19.3484 -0.170424 18.0852 0.581456C16.1804 1.68421 6.74686 7.09775 3.92982 8.72181C2.76691 9.39349 2.20551 10.4261 2.20551 11.7594C2.20551 17.2531 2.20551 22.7469 2.20551 28.2406C2.20551 28.9023 2.34586 29.4837 2.62656 29.985C2.91728 30.5063 3.34836 30.9373 3.92982 31.2782C6.74686 32.9123 16.1905 38.3158 18.0752 39.4286C19.3383 40.1805 20.5814 40.2005 21.8546 39.4687C26.5865 36.7318 31.3283 34.015 36.0702 31.2782C36.6616 30.9373 37.0927 30.5063 37.3734 29.995C37.6541 29.4937 37.7845 28.9123 37.7845 28.2506C37.7845 28.2506 37.7845 17.2632 37.7845 11.7694L37.7945 11.7594ZM20.2406 33.2231H20.0902C15.1779 33.2231 10.8972 30.5464 8.61152 26.5764C7.49874 24.6416 6.85713 22.386 6.85713 19.99C6.85713 12.6817 12.7819 6.76692 20.0802 6.76692C24.9624 6.76692 29.213 9.40351 31.5088 13.3333L25.7544 16.6516C24.6215 14.7268 22.5363 13.4336 20.1504 13.4035H20.0702C16.4311 13.4035 13.4837 16.3509 13.4837 19.99C13.4837 21.183 13.8045 22.2957 14.3559 23.2581C15.4887 25.2431 17.6241 26.5764 20.0702 26.5764C22.5163 26.5764 24.6416 25.2431 25.7845 23.2682L31.5388 26.5965C29.2732 30.5163 25.0626 33.1629 20.2205 33.213L20.2406 33.2231ZM35.0075 19.0075H33.1328V20.8822H35.0075V21.8246H33.1328V23.6992H32.1905V21.8246H30.3158V23.6992H29.3734V21.8246H27.4987V20.8822H29.3734V19.0075H27.4987V18.0652H29.3734V16.1905H30.3158V18.0652H32.1905V16.1905H33.1328V18.0652H35.0075V19.0075Z" fill="#38383A"/>
<path d="M32.1905 19.0075H30.3158V20.8822H32.1905V19.0075Z" fill="#38383A"/>
</g>
<defs>
<clipPath id="clip0_1_158">
<rect width="40" height="40" fill="white"/>
</clipPath>
</defs>
</svg>
