<svg width="40" height="40" viewBox="0 0 40 40" fill="none" xmlns="http://www.w3.org/2000/svg">
<path d="M37.9402 11.7295C37.9399 11.0587 37.7964 10.4659 37.5063 9.95714C37.2213 9.45686 36.7945 9.03755 36.222 8.70603C31.4963 5.98116 26.766 3.26464 22.0418 0.536997C20.7682 -0.198281 19.5333 -0.171476 18.2692 0.574358C16.3882 1.68366 6.97085 7.07908 4.1646 8.7045C3.0089 9.37352 2.44654 10.3974 2.44626 11.7282C2.44446 17.2081 2.44626 22.6878 2.44446 28.1678C2.44446 28.8239 2.5821 29.4052 2.85946 29.9063C3.1446 30.4217 3.57737 30.8526 4.16307 31.1916C6.96946 32.817 16.3881 38.212 18.2686 39.3216C19.5333 40.0678 20.7682 40.0945 22.0422 39.3589C26.7665 36.6312 31.4971 33.9148 36.2235 31.1899C36.8092 30.851 37.242 30.4199 37.5271 29.9049C37.804 29.4038 37.942 28.8226 37.942 28.1663C37.942 28.1663 37.942 17.2095 37.9402 11.7295Z" fill="#A179DC"/>
<path d="M20.2475 19.8946L2.85947 29.9063C3.14461 30.4217 3.57738 30.8525 4.16308 31.1916C6.96947 32.817 16.3881 38.212 18.2686 39.3216C19.5334 40.0678 20.7682 40.0945 22.0422 39.3589C26.7666 36.6311 31.4971 33.9148 36.2235 31.1899C36.8092 30.851 37.242 30.4199 37.5271 29.9049L20.2475 19.8946Z" fill="#280068"/>
<path d="M37.9402 11.7295C37.9399 11.0587 37.7964 10.4659 37.5063 9.95712L20.2475 19.8946L37.5271 29.9049C37.8041 29.4038 37.9417 28.8225 37.942 28.1663C37.942 28.1663 37.942 17.2095 37.9402 11.7295Z" fill="#390091"/>
<path d="M30.4851 16.1519V18.0233H32.3564V16.1519H33.2921V18.0233H35.1634V18.959H33.2921V20.8303H35.1634V21.766H33.2921V23.6373H32.3564V21.766H30.4851V23.6373H29.5494V21.766H27.678V20.8303H29.5494V18.959H27.678V18.0233H29.5494V16.1519H30.4851ZM32.3564 18.959H30.4851V20.8303H32.3564V18.959Z" fill="white"/>
<path d="M20.2857 6.7536C25.1668 6.7536 29.4283 9.40448 31.7109 13.3447L31.6887 13.3068L25.9458 16.6135C24.8143 14.6977 22.74 13.4049 20.3606 13.3783L20.2857 13.3778C16.6571 13.3778 13.7154 16.3194 13.7154 19.948C13.7154 21.1346 14.0317 22.2469 14.5819 23.2076C15.7144 25.1847 17.8434 26.5183 20.2857 26.5183C22.743 26.5183 24.8841 25.1678 26.0109 23.1695L25.9835 23.2175L31.7178 26.5394C29.4602 30.4463 25.257 33.089 20.4327 33.1417L20.2857 33.1425C15.3892 33.1425 11.1155 30.4753 8.83866 26.5142C7.72714 24.5805 7.09116 22.3386 7.09116 19.948C7.09116 12.661 12.9984 6.7536 20.2857 6.7536Z" fill="white"/>
</svg>
