<svg width="40" height="40" viewBox="0 0 40 40" fill="none" xmlns="http://www.w3.org/2000/svg">
<g clip-path="url(#clip0_1_48)">
<path d="M14.5275 30.925C14.5275 30.925 12.99 31.86 15.5962 32.1275C18.7337 32.5275 20.405 32.4612 23.8775 31.7937C24.5754 32.2211 25.3135 32.5791 26.0812 32.8625C18.2687 36.2025 8.3825 32.6625 14.5275 30.925ZM13.5275 26.5837C13.5275 26.5837 11.8575 27.8525 14.4625 28.1212C17.8687 28.455 20.54 28.5212 25.15 27.5875C25.5983 28.0422 26.1473 28.3852 26.7525 28.5887C17.335 31.3937 6.7825 28.855 13.5275 26.5837ZM31.9613 34.1962C31.9613 34.1962 33.0963 35.1312 30.6925 35.8662C26.2175 37.2037 11.925 37.6037 7.9175 35.8662C6.515 35.2662 9.18625 34.3975 10.0425 34.2637C10.9112 34.0637 11.38 34.0637 11.38 34.0637C9.8425 32.995 1.16125 36.2675 6.9725 37.2012C22.935 39.8062 36.0925 36.0662 31.9513 34.1962H31.9613ZM15.25 22.0412C15.25 22.0412 7.97 23.7787 12.645 24.3787C14.6487 24.6462 18.5887 24.5787 22.2625 24.3125C25.2675 24.045 28.275 23.5125 28.275 23.5125C28.275 23.5125 27.2062 23.98 26.4712 24.4475C19.0587 26.385 4.83125 25.5162 8.90625 23.5125C12.3787 21.8425 15.2512 22.0437 15.2512 22.0437L15.25 22.0412ZM28.275 29.3212C35.755 25.4462 32.2825 21.7087 29.8775 22.175C29.2775 22.3087 29.0088 22.4425 29.0088 22.4425C29.0088 22.4425 29.2087 22.0425 29.6762 21.9087C34.4187 20.2387 38.1587 26.9175 28.1387 29.5212C28.1387 29.5212 28.205 29.455 28.2725 29.3212H28.275ZM15.9875 39.8737C23.2 40.3412 34.2212 39.6062 34.4875 36.1987C34.4875 36.1987 33.9537 37.5362 28.5437 38.5362C22.3987 39.6712 14.785 39.5362 10.31 38.8037C10.31 38.8037 11.245 39.605 15.9875 39.8737Z" fill="#4E7896"/>
<path d="M23.745 0.00125122C23.745 0.00125122 27.8862 4.20875 19.805 10.5538C13.3262 15.6962 18.3362 18.635 19.805 21.975C15.9975 18.5688 13.26 15.5625 15.13 12.7588C17.8675 8.61625 25.415 6.625 23.745 0.00125122ZM21.62 19.17C23.5575 21.3738 21.0862 23.3775 21.0862 23.3775C21.0862 23.3775 26.0287 20.84 23.7575 17.7C21.6875 14.695 20.0825 13.225 28.7662 8.21625C28.7662 8.21625 15.075 11.6225 21.62 19.17Z" fill="#F58219"/>
</g>
<defs>
<clipPath id="clip0_1_48">
<rect width="40" height="40" fill="white"/>
</clipPath>
</defs>
</svg>
