<svg width="40" height="40" viewBox="0 0 40 40" fill="none" xmlns="http://www.w3.org/2000/svg">
<g clip-path="url(#clip0_1_99)">
<path fill-rule="evenodd" clip-rule="evenodd" d="M39.8423 9.93749C39.8535 10.3429 39.8579 10.7477 39.8603 11.1526C39.8632 11.6145 39.8632 12.0766 39.8631 12.5385L39.8631 12.5953V27.6695V27.7764C39.8631 28.2219 39.8631 28.667 39.8602 29.1126C39.8578 29.5176 39.8533 29.9223 39.8422 30.3271C39.8186 31.2094 39.7665 32.0995 39.6097 32.9716C39.4507 33.8574 39.1907 34.682 38.7809 35.4866C38.3788 36.2773 37.8529 37.0003 37.2256 37.6274C36.5985 38.2549 35.8752 38.7807 35.0844 39.1833C34.2802 39.5926 33.4562 39.8523 32.571 40.0113C31.698 40.1683 30.8081 40.2205 29.9255 40.2441C29.5203 40.2549 29.1155 40.2597 28.7104 40.262C28.2813 40.2651 27.8519 40.2651 27.4228 40.265L27.2678 40.265H12.1935L12.0384 40.265C11.6091 40.2651 11.1801 40.2651 10.7511 40.262C10.3459 40.2597 9.94058 40.2549 9.53597 40.2441C8.6536 40.2205 7.76302 40.1683 6.89061 40.0113C6.00519 39.8523 5.18126 39.5927 4.37699 39.1833C3.58614 38.7806 2.86261 38.2549 2.2357 37.6274C1.60831 37.0004 1.08248 36.2773 0.680242 35.4866C0.270479 34.682 0.0108178 33.8574 -0.148369 32.9716C-0.305047 32.0995 -0.357047 31.2094 -0.380775 30.3271C-0.391894 29.9223 -0.396572 29.5176 -0.399216 29.1126C-0.401971 28.6875 -0.401922 28.2629 -0.401873 27.8379C-0.401867 27.7818 -0.40186 27.7257 -0.40186 27.6695V19.1593V12.5953C-0.40186 12.5447 -0.401865 12.4941 -0.401869 12.4435C-0.401907 12.0132 -0.401946 11.5829 -0.399216 11.1525C-0.396572 10.7476 -0.391894 10.3428 -0.380775 9.93742C-0.357047 9.05553 -0.304979 8.16563 -0.148369 7.29315C0.0108178 6.40712 0.270479 5.58325 0.680242 4.77837C1.08248 3.98793 1.60831 3.26461 2.2357 2.63736C2.39245 2.48054 2.55522 2.3301 2.72356 2.18631C3.22858 1.75498 3.78383 1.3838 4.37692 1.08197C4.578 0.979661 4.78031 0.886644 4.98445 0.802305C5.59692 0.549085 6.22648 0.373085 6.89041 0.253763C7.54478 0.135864 8.20939 0.0772203 8.87299 0.0452203C9.09421 0.0345763 9.31529 0.0268475 9.5359 0.0208814C9.94051 0.0098983 10.3458 0.00528814 10.751 0.00277966C11.2317 0 11.7123 0 12.1935 0H16.6091H27.2678C27.7485 0 28.2297 0 28.7105 0.00271186C29.1156 0.00522034 29.5204 0.00983051 29.9256 0.0208136C30.8082 0.044678 31.6981 0.0964746 32.571 0.253695C33.4562 0.412746 34.2802 0.672678 35.0844 1.08197C35.8752 1.48441 36.5985 2.01017 37.2257 2.63742C37.8529 3.26468 38.3787 3.988 38.781 4.77844C39.1908 5.58332 39.4508 6.40719 39.6098 7.29322C39.7665 8.1657 39.8187 9.05559 39.8423 9.93749ZM31.5008 24.8515L31.5036 24.8547C34.9632 29.1115 34.0222 33.6745 33.5793 32.8135C31.7711 29.2953 28.4023 30.1934 26.6968 31.0787C26.5553 31.163 26.4106 31.2428 26.2648 31.3212C26.257 31.326 26.2484 31.331 26.2398 31.336C26.2298 31.3417 26.2199 31.3475 26.2112 31.353L26.214 31.3489C22.6641 33.2352 17.898 33.3749 13.1051 31.3151C9.08604 29.5877 5.78387 26.6288 3.6398 23.1993C4.73004 24.0042 5.9078 24.7126 7.16061 25.2997C12.2258 27.672 17.313 27.5007 20.9133 25.2974C15.7892 21.3568 11.5121 16.2249 8.23241 12.0656C7.60156 11.3197 7.02767 10.5448 6.54516 9.74015C10.4725 13.3347 16.6761 17.8484 18.9022 19.0976C14.1774 14.1058 10.0141 7.95852 10.2094 8.15533C17.6506 15.6533 24.5163 19.8924 24.5163 19.8924C24.7749 20.035 24.9675 20.149 25.1203 20.2494C25.2611 19.888 25.3885 19.5162 25.4944 19.1288C26.6827 14.7856 25.3453 9.81927 22.3207 5.71899C29.2227 9.86374 33.3014 17.7356 31.6302 24.3938C31.5978 24.523 31.5606 24.6489 31.5234 24.7748C31.5158 24.8003 31.5083 24.8259 31.5008 24.8515Z" fill="#38383A"/>
</g>
<defs>
<clipPath id="clip0_1_99">
<rect width="40" height="40" fill="white"/>
</clipPath>
</defs>
</svg>
