<svg width="40" height="40" viewBox="0 0 40 40" fill="none" xmlns="http://www.w3.org/2000/svg">
<g clip-path="url(#clip0_1_110)">
<path d="M39.8603 11.1526C39.8579 10.7477 39.8535 10.3429 39.8423 9.93749C39.8187 9.05559 39.7665 8.1657 39.6098 7.29322C39.4508 6.40719 39.1908 5.58332 38.781 4.77844C38.3787 3.988 37.8529 3.26468 37.2257 2.63742C36.5985 2.01017 35.8752 1.48441 35.0844 1.08197C34.2802 0.672678 33.4562 0.412746 32.571 0.253695C31.6981 0.0964746 30.8082 0.044678 29.9256 0.0208136C29.5204 0.00983051 29.1156 0.00522034 28.7105 0.00271186C28.2297 0 27.7485 0 27.2678 0H16.6091H12.1935C11.7123 0 11.2317 0 10.751 0.00277966C10.3458 0.00528814 9.94051 0.0098983 9.5359 0.0208814C9.31529 0.0268475 9.09421 0.0345763 8.87299 0.0452203C8.20939 0.0772203 7.54478 0.135864 6.89041 0.253763C6.22648 0.373085 5.59692 0.549085 4.98445 0.802305C4.78031 0.886644 4.578 0.979661 4.37692 1.08197C3.78383 1.3838 3.22858 1.75498 2.72356 2.18631C2.55522 2.3301 2.39245 2.48054 2.2357 2.63736C1.60831 3.26461 1.08248 3.98793 0.680242 4.77837C0.270479 5.58325 0.0108178 6.40712 -0.148369 7.29315C-0.304979 8.16563 -0.357047 9.05553 -0.380775 9.93742C-0.391894 10.3428 -0.396572 10.7476 -0.399216 11.1525C-0.402267 11.6335 -0.40186 12.1145 -0.40186 12.5953V19.1593V27.6695C-0.40186 28.1508 -0.402335 28.6313 -0.399216 29.1126C-0.396572 29.5176 -0.391894 29.9223 -0.380775 30.3271C-0.357047 31.2094 -0.305047 32.0995 -0.148369 32.9716C0.0108178 33.8574 0.270479 34.682 0.680242 35.4866C1.08248 36.2773 1.60831 37.0004 2.2357 37.6274C2.86261 38.2549 3.58614 38.7806 4.37699 39.1833C5.18126 39.5927 6.00519 39.8523 6.89061 40.0113C7.76302 40.1683 8.6536 40.2205 9.53597 40.2441C9.94058 40.2549 10.3459 40.2597 10.7511 40.262C11.2318 40.2655 11.7124 40.265 12.1935 40.265H27.2678C27.7485 40.265 28.2297 40.2655 28.7104 40.262C29.1155 40.2597 29.5203 40.2549 29.9255 40.2441C30.8081 40.2205 31.698 40.1683 32.571 40.0113C33.4562 39.8523 34.2802 39.5926 35.0844 39.1833C35.8752 38.7807 36.5985 38.2549 37.2256 37.6274C37.8529 37.0003 38.3788 36.2773 38.7809 35.4866C39.1907 34.682 39.4507 33.8574 39.6097 32.9716C39.7665 32.0995 39.8186 31.2094 39.8422 30.3271C39.8533 29.9223 39.8578 29.5176 39.8602 29.1126C39.8634 28.6313 39.8631 28.1508 39.8631 27.6695V12.5953C39.8632 12.1145 39.8634 11.6335 39.8603 11.1526Z" fill="#F05138"/>
<path d="M31.5036 24.8547C31.5026 24.8535 31.5018 24.8526 31.5008 24.8515C31.5453 24.6999 31.5913 24.5492 31.6302 24.3938C33.3014 17.7356 29.2227 9.86374 22.3207 5.71899C25.3453 9.81927 26.6827 14.7856 25.4944 19.1288C25.3885 19.5162 25.2611 19.888 25.1203 20.2494C24.9675 20.149 24.7749 20.035 24.5163 19.8924C24.5163 19.8924 17.6506 15.6533 10.2094 8.15533C10.0141 7.95852 14.1774 14.1058 18.9022 19.0976C16.6761 17.8484 10.4725 13.3347 6.54516 9.74015C7.02767 10.5448 7.60156 11.3197 8.23241 12.0656C11.5121 16.2249 15.7892 21.3568 20.9133 25.2974C17.313 27.5007 12.2258 27.672 7.16061 25.2997C5.9078 24.7126 4.73004 24.0042 3.6398 23.1993C5.78387 26.6288 9.08604 29.5877 13.1051 31.3151C17.898 33.3749 22.6641 33.2352 26.214 31.3489L26.2112 31.353C26.2274 31.3427 26.248 31.3315 26.2648 31.3212C26.4106 31.2428 26.5553 31.163 26.6968 31.0787C28.4023 30.1934 31.7711 29.2953 33.5793 32.8135C34.0222 33.6745 34.9632 29.1115 31.5036 24.8547Z" fill="white"/>
</g>
<defs>
<clipPath id="clip0_1_110">
<rect width="40" height="40" fill="white"/>
</clipPath>
</defs>
</svg>
