<svg width="40" height="40" viewBox="0 0 40 40" fill="none" xmlns="http://www.w3.org/2000/svg">
<path d="M21.5543 7.15645L27.9124 10.8112C28.1409 10.9396 28.1493 11.2955 27.9124 11.4239L20.3574 15.7699C20.1289 15.9023 19.8588 15.894 19.6468 15.7699L12.0919 11.4239C11.8592 11.2997 11.855 10.9354 12.0919 10.8112L18.4458 7.15645V0L2.22226 9.32947V27.9883L8.44324 24.4123V17.1027C8.43908 16.8418 8.74659 16.6556 8.97516 16.7963L16.5301 21.1423C16.7586 21.2748 16.8875 21.5108 16.8875 21.755V30.4428C16.8916 30.7037 16.5841 30.8898 16.3556 30.7492L9.99744 27.0943L3.77646 30.6705L20.0001 40L36.2236 30.6705L30.0026 27.0943L23.6446 30.7492C23.4201 30.8858 23.1043 30.7078 23.1126 30.4428V21.755C23.1126 21.4942 23.2581 21.2625 23.4699 21.1423L31.0249 16.7963C31.2493 16.6598 31.5651 16.8337 31.5568 17.1027V24.4123L37.7778 27.9883V9.32947L21.5543 0V7.15645Z" fill="#38383A"/>
</svg>
