<svg width="40" height="40" viewBox="0 0 40 40" fill="none" xmlns="http://www.w3.org/2000/svg">
<g clip-path="url(#clip0_3_2431)">
<path d="M4.82812 29.0156C5.17187 29.0156 5.48437 29.0937 5.65625 29.25C5.6875 29.5 5.45312 29.9062 5.3125 29.9062C5.14062 29.8437 4.98438 29.8125 4.78125 29.8125C3.96875 29.8125 3.5625 30.6562 3.5625 31.4844C3.5625 32 3.73438 32.3125 4.15625 32.3125C4.59375 32.3125 5.03125 32.0156 5.28125 31.7969C5.34375 31.8437 5.42188 31.9844 5.42188 32.1406C5.42188 32.3125 5.375 32.4844 5.20312 32.6562C4.92187 32.9375 4.4375 33.1875 3.73437 33.1875C2.9375 33.1875 2.375 32.7344 2.375 31.6719C2.40625 30.2656 3.3125 29.0156 4.82812 29.0156Z" fill="#373535"/>
<path d="M7.45313 32.2656C7.89063 32.2656 8.6875 31.5 8.90625 30.0313C8.92188 29.9375 8.92188 29.9219 8.9375 29.8281C8.84375 29.7969 8.70313 29.7656 8.57813 29.7656C8.25 29.7656 7.90625 29.8594 7.60938 30.2812C7.29688 30.7187 7.15625 31.2656 7.15625 31.7031C7.15625 32.0625 7.26563 32.2656 7.45313 32.2656ZM6.01562 31.8594C6.01562 31.3281 6.1875 30.4219 6.85937 29.75C7.4375 29.1562 8.125 29.0156 8.76562 29.0156C9.1875 29.0156 9.75 29.1563 10.1094 29.2188C10.0156 29.6094 9.8125 31.0937 9.70312 31.9531C9.65625 32.3125 9.64062 32.8281 9.65625 33.0156C9.35937 33.1406 8.8125 33.1719 8.65625 33.1719C8.57813 33.1719 8.5625 32.8125 8.57813 32.4531C8.59375 32.3437 8.60937 32.1719 8.60937 32.0937C8.26562 32.6719 7.57812 33.1562 6.85937 33.1562C6.34375 33.1719 6.01562 32.7344 6.01562 31.8594Z" fill="#373535"/>
<path d="M12.3281 29.0156C12.6875 29.0156 13.0469 29.1563 13.2031 29.3125C13.1875 29.5625 13 29.9844 12.6875 29.8594C12.5469 29.8125 12.4219 29.7813 12.2344 29.7813C12 29.7813 11.7812 29.8906 11.7812 30.1094C11.7812 30.2813 11.9062 30.4062 12.5 30.8281C12.9219 31.1406 13.0937 31.4219 13.0937 31.8125C13.0937 32.4687 12.4844 33.1719 11.4062 33.1719C10.9687 33.1719 10.5781 33 10.4687 32.8281C10.3125 32.5625 10.4375 32.0312 10.6094 32.125C10.8437 32.2344 11.2187 32.3594 11.5312 32.3594C11.8281 32.3594 12.0156 32.2187 12.0156 32.0469C12.0156 31.8906 11.875 31.7656 11.3437 31.375C10.8906 31.0312 10.75 30.7187 10.75 30.375C10.75 29.625 11.3906 29.0156 12.3281 29.0156Z" fill="#373535"/>
<path d="M15.4062 29.0156C15.7656 29.0156 16.125 29.1563 16.2812 29.3125C16.2656 29.5625 16.0781 29.9844 15.7656 29.8594C15.625 29.8125 15.5 29.7813 15.3125 29.7813C15.0781 29.7813 14.8594 29.8906 14.8594 30.1094C14.8594 30.2813 14.9844 30.4062 15.5781 30.8281C16 31.1406 16.1719 31.4219 16.1719 31.8125C16.1719 32.4687 15.5625 33.1719 14.4844 33.1719C14.0469 33.1719 13.6719 33 13.5469 32.8281C13.3906 32.5625 13.5156 32.0312 13.6875 32.125C13.9219 32.2344 14.2969 32.3594 14.6094 32.3594C14.9062 32.3594 15.0937 32.2187 15.0937 32.0469C15.0937 31.8906 14.9531 31.7656 14.4219 31.375C13.9687 31.0312 13.8281 30.7187 13.8281 30.375C13.8281 29.625 14.4687 29.0156 15.4062 29.0156Z" fill="#373535"/>
<path d="M18.2031 32.2656C18.6406 32.2656 19.4375 31.5 19.6562 30.0313C19.6719 29.9375 19.6719 29.9219 19.6875 29.8281C19.5937 29.7969 19.4531 29.7656 19.3281 29.7656C19 29.7656 18.6562 29.8594 18.3594 30.2812C18.0469 30.7187 17.9062 31.2656 17.9062 31.7031C17.9219 32.0625 18.0156 32.2656 18.2031 32.2656ZM16.7656 31.8594C16.7656 31.3281 16.9375 30.4219 17.6094 29.75C18.1875 29.1562 18.875 29.0156 19.5156 29.0156C19.9375 29.0156 20.5 29.1563 20.8594 29.2188C20.7656 29.6094 20.5625 31.0937 20.4531 31.9531C20.4062 32.3125 20.3906 32.8281 20.4062 33.0156C20.1094 33.1406 19.5625 33.1719 19.4062 33.1719C19.3281 33.1719 19.3125 32.8125 19.3281 32.4531C19.3437 32.3437 19.3594 32.1719 19.3594 32.0937C19.0156 32.6719 18.3281 33.1562 17.6094 33.1562C17.1094 33.1719 16.7656 32.7344 16.7656 31.8594Z" fill="#373535"/>
<path d="M22.875 30.1719C23.2812 29.5156 23.8125 29.0156 24.5625 29.0156C25.2031 29.0156 25.4063 29.6094 25.2813 30.4375C25.2188 30.8281 25.1094 31.3906 25.0469 31.9063C24.9844 32.3438 24.9375 32.7344 24.9531 33C24.7188 33.1094 24.0469 33.1563 23.8906 33.1563C23.8281 33.1563 23.8125 32.6719 23.9063 32.1562C23.9844 31.7344 24.125 30.9531 24.2031 30.5C24.25 30.2344 24.2344 29.9219 23.9844 29.9219C23.6563 29.9219 22.875 30.4531 22.4844 32.6094C22.4531 32.7813 22.3906 32.8906 22.2813 32.9531C22.1406 33.0313 21.8594 33.1094 21.2812 33.1094C21.3906 32.5625 21.5625 31.4531 21.6875 30.625C21.7969 29.875 21.8438 29.3906 21.8281 29.2031C21.9844 29.1562 22.7813 28.9844 22.8594 28.9844C22.9531 28.9844 22.9688 29.2656 22.8906 29.9219C22.875 29.9844 22.875 30.0781 22.8594 30.1406H22.875V30.1719Z" fill="#373535"/>
<path d="M27.4062 32.25C27.7969 32.25 28.5937 31.5156 28.8125 30.2188C28.8281 30.1406 28.8437 30.0156 28.8594 29.9375C28.75 29.8281 28.5937 29.7656 28.3437 29.7656C27.4375 29.7656 27.0469 30.8438 27.0469 31.625C27.0625 32.0312 27.2031 32.25 27.4062 32.25ZM26.8281 33.1719C26.25 33.1719 25.9062 32.6563 25.9062 31.7969C25.9062 30.3594 26.8125 29.0313 28.3281 29.0313C28.5937 29.0313 28.8437 29.1094 28.9844 29.1875C29.0625 28.7813 29.25 27.5156 29.2656 27.1406C29.5156 27.0938 30.0469 27.0156 30.2969 27.0156C30.3906 27.0156 30.4219 27.1094 30.3906 27.3437C30.1719 28.6875 29.7969 31.25 29.7187 31.8125C29.6719 32.2969 29.6562 32.7656 29.6719 33.0312C29.3906 33.1563 28.8125 33.1875 28.6562 33.1875C28.5937 33.1875 28.5625 32.7813 28.5781 32.4062C28.5937 32.2969 28.6094 32.125 28.6094 32.0938C28.125 32.8125 27.5156 33.1719 26.8281 33.1719Z" fill="#373535"/>
<path d="M32.0469 30.2969C32.5156 29.25 33.0781 29.0156 33.4531 29.0156C33.5625 29.0156 33.75 29.0937 33.8281 29.1719C33.8594 29.4687 33.625 30.0469 33.4219 30.2812C33.3125 30.2344 33.1875 30.1719 33.0312 30.1719C32.7344 30.1719 32.125 30.6406 31.75 32.6719C31.7187 32.8437 31.6719 32.9063 31.5781 32.9531C31.4219 33.0469 30.8281 33.1094 30.5469 33.125C30.6875 32.3906 30.9062 30.9063 31 30.0313C31.0312 29.8125 31.0313 29.3906 31.0156 29.2344C31.1875 29.1562 31.8594 29 32 29C32.0781 29 32.1406 29.4844 32.0156 30.2812H32.0469V30.2969Z" fill="#373535"/>
<path d="M35.1875 32.2656C35.625 32.2656 36.4219 31.5 36.6406 30.0313C36.6563 29.9375 36.6562 29.9219 36.6719 29.8281C36.5781 29.7969 36.4375 29.7656 36.3125 29.7656C35.9844 29.7656 35.6406 29.8594 35.3437 30.2812C35.0312 30.7187 34.8906 31.2656 34.8906 31.7031C34.9063 32.0625 35 32.2656 35.1875 32.2656ZM33.75 31.8594C33.75 31.3281 33.9219 30.4219 34.5937 29.75C35.1719 29.1562 35.8594 29.0156 36.5 29.0156C36.9219 29.0156 37.4844 29.1563 37.8437 29.2188C37.75 29.6094 37.5469 31.0937 37.4375 31.9531C37.3906 32.3125 37.375 32.8281 37.3906 33.0156C37.0938 33.1406 36.5469 33.1719 36.3906 33.1719C36.3125 33.1719 36.2969 32.8125 36.3125 32.4531C36.3281 32.3437 36.3438 32.1719 36.3438 32.0937C36 32.6719 35.3125 33.1562 34.5937 33.1562C34.0937 33.1719 33.75 32.7344 33.75 31.8594Z" fill="#373535"/>
<path d="M32.1094 13.9062C32.4062 17.3281 27.0156 20.5937 20.0625 21.1875C13.1094 21.7812 7.24998 19.4843 6.9531 16.0625C6.65623 12.6406 12.0469 9.37496 19 8.78121C25.9375 8.18746 31.8125 10.4687 32.1094 13.9062Z" fill="#BBE6FB"/>
<path d="M19.1875 9.17191C16.5312 9.12503 13.4375 10.1875 11.125 11.1719C10.8906 11.8594 10.75 12.5938 10.75 13.3594C10.75 17.4219 14.4219 20.7188 18.9531 20.7188C23.4844 20.7188 27.1719 17.4375 27.1719 13.3594C27.1719 12.0782 26.7969 10.8594 26.1562 9.81253C24.3125 9.53128 21.7656 9.21878 19.1875 9.17191Z" fill="white"/>
<path d="M18.9688 9.17188C17.5 9.07813 14.9688 9.84375 12.8594 10.6094C12.5313 11.3594 12.3594 12.1875 12.3594 13.0625C12.3594 16.625 15.5938 19.5156 19 19.5156C22.3906 19.5156 25.3906 16.625 25.6406 13.0625C25.7188 11.9063 25.3281 10.8125 24.7656 9.875C22.5938 9.5 20.2813 9.26563 18.9688 9.17188Z" fill="white"/>
<path d="M15.2031 12.6093C15.3906 12.2031 15.6562 12.0156 15.9219 11.6875C15.8906 11.6093 15.8281 11.3437 15.8281 11.2656C15.8281 10.8593 16.1562 10.5468 16.5469 10.5468C16.6406 10.5468 16.7344 10.5625 16.8125 10.5937C18.0156 9.67183 19.5938 9.2812 21.1875 9.64058C21.3281 9.67183 21.4688 9.7187 21.6094 9.74995C20.0469 9.5312 18.2656 10.0937 17.0625 11.0625C17.0937 11.1562 17.2031 11.3906 17.2031 11.5C17.2031 11.9062 16.9375 12 16.5469 12C16.4531 12 16.375 11.9843 16.2812 11.9531C16.0156 12.3125 15.6719 13.0156 15.5156 13.4531C16.1875 14.0468 16.7812 14.2656 17.5625 14.5625C17.5625 14.5312 17.5937 14.4843 17.5937 14.4531C17.5937 13.25 18.6562 12.2656 19.8594 12.2656C20.9375 12.2656 21.8437 13.0468 22.0156 14.0781C22.5625 13.7343 23.0781 13.4687 23.4687 12.9687C23.375 12.8593 23.2812 12.5312 23.2812 12.375C23.2812 12.0156 23.5781 11.7187 23.9375 11.7187C23.9844 11.7187 24.0312 11.7187 24.0937 11.7343C24.2969 11.3125 24.4531 10.875 24.5469 10.4218C22.6563 9.01558 19 9.2187 19 9.2187C19 9.2187 16.0938 9.06245 14.125 10.0312C14.2656 10.9375 14.6406 11.8437 15.2031 12.6093Z" fill="#373535"/>
<path d="M24.2344 12.0625C24.375 12.1875 24.4375 12.2812 24.5 12.3906C24.6719 12.7031 24.3281 13 23.9531 13C23.9219 13 23.875 13 23.8438 12.9844C23.4375 13.625 22.7187 14.4375 22.0781 14.8594C23.0625 15.0156 23.9844 15.4062 24.7031 16.0156C25.2344 15.0625 25.6406 13.6719 25.6406 12.5C25.6406 11.6094 25.25 10.9531 24.6562 10.4688C24.6406 10.9531 24.375 11.625 24.2344 12.0625Z" fill="#373535"/>
<path d="M16.2969 18.125C16.625 17.2188 17.4219 16.5313 18.1875 15.9219C18.0781 15.7656 17.9063 15.3906 17.8438 15.2188C16.9219 14.9375 16.1094 14.4063 15.4688 13.7188C15.4688 13.7344 15.4531 13.7656 15.4531 13.7813C15.3281 14.3125 15.3125 14.8594 15.375 15.375C15.8125 15.4531 16.1563 15.8438 16.1563 16.3125C16.1563 16.5938 15.9063 16.9844 15.7188 17.1719C15.9063 17.5781 16.0469 17.7969 16.2969 18.125Z" fill="#373535"/>
<path d="M16.2344 18.875C15.8438 18.4844 15.5781 17.7188 15.3281 17.2344C15.2812 17.2344 15.2344 17.25 15.1875 17.25C14.6562 17.25 14.1094 16.8125 14.2344 16.2969C14.2969 16.0156 14.5 15.8281 14.8125 15.6719C14.7344 15.0781 14.7188 14.25 14.8594 13.6406C14.8906 13.4688 14.9844 13.3906 15.0312 13.2188C14.4531 12.375 14.0781 11.25 14.0781 10.1406V10.0156C13.0937 10.5156 12.3594 11.2813 12.3594 12.5C12.3594 15.2031 13.9219 17.8594 16.2344 18.8906V18.875Z" fill="#373535"/>
<path d="M21.9375 15.1406C21.6406 15.9844 20.8281 16.6094 19.875 16.6094C19.3594 16.6094 18.8906 16.4375 18.5312 16.1406C17.7656 16.7344 17.0625 17.7812 16.7188 18.7031C16.875 18.875 16.9844 19.0156 17.1719 19.1719C17.7031 19.3125 18.4531 19.1719 19.0313 19.1719C21.3594 19.1719 23.4375 18.1406 24.625 16.3125C23.8125 15.75 22.875 15.2188 21.9375 15.1406Z" fill="#373535"/>
<path d="M15.1406 12.9218C15.3281 12.5156 15.5469 12.1562 15.8125 11.8125C15.7812 11.7343 15.7656 11.6406 15.7656 11.5625C15.7656 11.1562 16.0938 10.8437 16.4844 10.8437C16.5781 10.8437 16.6719 10.8593 16.75 10.8906C17.9531 9.9687 19.5313 9.57808 21.125 9.93745C21.2656 9.9687 21.4062 10.0156 21.5469 10.0468C19.9844 9.82808 18.3594 10.3125 17.1563 11.2812C17.1875 11.375 17.2188 11.4687 17.2188 11.5625C17.2188 11.9687 16.8906 12.2812 16.5 12.2812C16.4063 12.2812 16.3281 12.2656 16.2344 12.2343C15.9688 12.5937 15.7344 13 15.5781 13.4375C16.1563 14.0468 16.8594 14.5468 17.6406 14.8281V14.7187C17.6406 13.5156 18.625 12.5312 19.8281 12.5312C20.9063 12.5312 21.8125 13.3125 21.9844 14.3437C22.5312 14 23 13.5625 23.4063 13.0468C23.3125 12.9375 23.25 12.7968 23.25 12.6406C23.25 12.2812 23.5469 11.9843 23.9063 11.9843C23.9531 11.9843 24 11.9843 24.0625 12C24.2656 11.5781 24.4219 11.1406 24.5156 10.6875C22.625 9.2812 18.9688 9.48433 18.9688 9.48433C18.9688 9.48433 16.0625 9.32808 14.0938 10.2968C14.2031 11.25 14.5781 12.1562 15.1406 12.9218Z" fill="#1287B1"/>
<path d="M24.3281 12.1719C24.4687 12.2969 24.5469 12.4687 24.5469 12.6562C24.5469 13.0156 24.25 13.3125 23.8906 13.3125C23.8594 13.3125 23.8125 13.3125 23.7812 13.2969C23.375 13.9375 22.8281 14.4844 22.1875 14.8906C23.125 15.0312 24.0156 15.4375 24.75 16.0469C25.2812 15.0938 25.5938 13.9844 25.5938 12.8125C25.5938 11.9219 25.2031 11.2656 24.6094 10.7812C24.5781 11.2656 24.4844 11.7344 24.3281 12.1719Z" fill="#1287B1"/>
<path d="M16.3906 18.3281C16.7188 17.4219 17.2813 16.625 18.0469 16.0156C17.9375 15.8594 17.8438 15.7031 17.7813 15.5156C16.8594 15.2344 16.0469 14.7031 15.4063 14.0156C15.4063 14.0313 15.3906 14.0625 15.3906 14.0781C15.2656 14.6094 15.25 15.1562 15.3125 15.6719C15.75 15.75 16.0938 16.1406 16.0938 16.6094C16.0938 16.8906 15.9688 17.1406 15.7813 17.3125C15.9375 17.6719 16.1563 18.0156 16.3906 18.3281Z" fill="#1287B1"/>
<path d="M16.2344 18.8594C15.8438 18.4687 15.5156 18.0313 15.2656 17.5469C15.2187 17.5469 15.1719 17.5625 15.125 17.5625C14.5938 17.5625 14.1719 17.1406 14.1719 16.6094C14.1719 16.2344 14.3906 15.9062 14.7031 15.75C14.625 15.1562 14.6563 14.5625 14.7969 13.9531C14.8281 13.7812 14.8906 13.6094 14.9375 13.4375C14.3594 12.5937 14.0156 11.5625 14.0156 10.4531V10.3281C13.0312 10.8281 12.2969 11.5937 12.2969 12.8125C12.2969 15.5156 13.9063 17.8438 16.2188 18.875C16.2344 18.875 16.2344 18.875 16.2344 18.8594Z" fill="#1287B1"/>
<path d="M21.875 15.4531C21.5781 16.2969 20.7656 16.9219 19.8125 16.9219C19.2969 16.9219 18.8281 16.75 18.4687 16.4531C17.7031 17.0469 17.125 17.8594 16.7656 18.7812C16.9219 18.9531 17.0937 19.1094 17.2656 19.2656C17.7969 19.4062 18.3594 19.4844 18.9375 19.4844C21.2656 19.4844 23.3281 18.2812 24.5156 16.4531C23.7344 15.8906 22.8125 15.5312 21.875 15.4531Z" fill="#1287B1"/>
<path d="M21.9531 14.8906L23.9687 14.4063L21.9375 14.2969L23.5937 13.0469L21.7187 13.7188L22.9844 11.9531L21.2188 13.125L21.8281 11.0625L20.625 12.7656L20.5938 10.6094L19.7969 12.5313L19.1406 10.5938L19.1719 12.875L18.0313 10.8281L18.6563 13L16.7969 11.6563L18.25 13.4844L15.9375 12.6406L17.75 13.9844L15.4219 14.0625L17.8125 14.6719L15.4219 15.1875L17.7813 15.3594L15.7969 16.625L17.8437 15.8906L16.4219 17.6875L18.2187 16.2344L17.5781 18.6406L18.9688 16.6719L18.7812 18.9844L19.5625 16.875L20.2344 19.0781L20.3906 16.8594L21.3906 18.75L20.7969 16.5938L22.6094 18L21.4375 16.2031L23.4375 16.9844L21.9062 15.4844L23.9531 15.6406L21.9531 14.8906Z" fill="white"/>
<path d="M0.4375 18.75C6.70312 12.4844 11.7031 10.5469 16.25 9.67187C16.8437 9.5625 16.9687 8.23437 16.9687 8.23437C16.9687 8.23437 17.0469 9.20313 17.4688 9.32813C17.8906 9.45313 18.4375 7.8125 18.4375 7.8125C18.4375 7.8125 17.9375 9.28125 18.4375 9.375C18.9375 9.45312 19.875 7.9375 19.875 7.9375C19.875 7.9375 19.5 9.23438 19.75 9.32813C20 9.40625 21.2656 7.4375 21.2656 7.4375C21.2656 7.4375 20.5156 8.73438 21.2188 8.875C21.9375 9 22.9844 7.98437 22.9844 7.98437C22.9844 7.98437 22.1719 8.90625 22.5312 9.04687C24.0937 9.59375 25.3437 7.57812 25.3437 7.57812C25.3437 7.57812 25.0469 8.46875 24.2969 9.4375C25.9375 9.85937 27.1562 7.39062 27.1562 7.39062L25.9375 9.85938C26.5625 10.1719 29.0781 7.26562 29.0781 7.26562C29.0781 7.26562 27.7812 9.53125 27.0156 10C27.4375 10.3438 28.9531 8.98438 28.9531 8.98438C28.9531 8.98438 27.7344 10.5 28.2031 10.5781C28.875 11.125 31.3594 7.76562 31.3594 7.76562C31.3594 7.76562 30.3906 9.75 28.9687 11.2969C30.1562 11.9062 33.125 8.07812 33.125 8.07812C33.125 8.07812 33.0469 9.29688 30.8906 11.2344C32.4844 11.0312 34.5469 8 34.5469 8C34.5469 8 33.7969 10.2656 31.9844 11.875C33.5469 11.7188 36.0625 7.84375 36.0625 7.84375C36.0625 7.84375 35.0937 10.5313 33.125 12.0938C35.3125 12.5781 38.4687 9.3125 38.4687 9.3125C38.4687 9.3125 37.2344 11.625 35.6094 12.5781C37.4219 13.2656 39.9062 10.4063 39.9062 10.4063C39.9062 10.4063 37.4219 14.2344 33.4687 14.0625C32.1719 14 28.25 10.125 19.8437 10.4375C8.71875 10.8437 6.375 15.5625 0.4375 18.75Z" fill="#373535" fill-opacity="0.35"/>
<path d="M0.6875 18.2813C6.95313 12.0156 11.9531 10.0781 16.5 9.20312C17.0938 9.09375 17.2188 7.76562 17.2188 7.76562C17.2188 7.76562 17.2969 8.73437 17.7188 8.85938C18.1406 8.98438 18.6875 7.34375 18.6875 7.34375C18.6875 7.34375 18.1875 8.8125 18.6875 8.90625C19.1875 8.98438 20.125 7.46875 20.125 7.46875C20.125 7.46875 19.75 8.76562 20 8.85938C20.25 8.9375 21.5156 6.96875 21.5156 6.96875C21.5156 6.96875 20.7656 8.26563 21.4688 8.40625C22.1875 8.53125 23.2344 7.51563 23.2344 7.51563C23.2344 7.51563 22.4219 8.4375 22.7813 8.57812C24.3438 9.125 25.5938 7.10937 25.5938 7.10937C25.5938 7.10937 25.2969 8 24.5469 8.96875C26.1875 9.39062 27.4063 6.92188 27.4063 6.92188L26.1875 9.39062C26.8125 9.73437 29.3438 6.82812 29.3438 6.82812C29.3438 6.82812 28.0469 9.09375 27.2813 9.5625C27.7031 9.85937 29.2188 8.51563 29.2188 8.51563C29.2188 8.51563 28 10.0312 28.4688 10.1094C29.1406 10.6562 31.625 7.29688 31.625 7.29688C31.625 7.29688 30.6406 9.28125 29.2188 10.8281C30.4063 11.4219 33.3906 7.59375 33.3906 7.59375C33.3906 7.59375 33.3125 8.8125 31.1563 10.75C32.75 10.5469 34.8125 7.51563 34.8125 7.51563C34.8125 7.51563 34.0625 9.78125 32.25 11.3906C33.8125 11.2344 36.3281 7.35937 36.3281 7.35937C36.3281 7.35937 35.3594 10.0469 33.3906 11.6094C35.5781 12.0937 38.7344 8.82813 38.7344 8.82813C38.7344 8.82813 37.5 11.1406 35.875 12.0938C37.6875 12.7813 40.1719 9.92187 40.1719 9.92187C40.1719 9.92187 37.6875 13.75 33.7344 13.5781C32.4375 13.5156 28.5156 9.64062 20.1094 9.95312C8.98438 10.375 6.625 15.0781 0.6875 18.2813Z" fill="#373535"/>
<path d="M0.28125 19.4375C3.59375 21.0938 6.625 19.1875 10.4375 20.2657C13.3438 21.0782 16.875 22.0938 21.6719 21.3907C26.4687 20.7032 30.5625 18.6094 32.5312 14.8907C33.1406 13.2344 35.625 15.2657 35.625 15.2657C35.625 15.2657 33.8125 14.5157 33.8594 14.8594C33.9062 15.2188 36.5781 16.4532 36.5781 16.4532C36.5781 16.4532 34.1563 15.7032 34.3125 16.2657C34.4531 16.8282 37.3437 19.1094 37.3437 19.1094C37.3437 19.1094 34.0469 16.6407 33.7812 16.9844C33.5 17.3282 35.1719 18.6875 35.1719 18.6875C35.1719 18.6875 32.4219 16.9844 31.4531 17.4844C30.75 17.8438 34.3125 20.1719 34.3125 20.1719C34.3125 20.1719 32 18.4063 31.4531 18.875C30.9062 19.3438 34.0625 23.125 34.0625 23.125C34.0625 23.125 30.4687 19.25 30.1094 19.4375C29.75 19.625 31.0937 21.4844 31.0937 21.4844C31.0937 21.4844 29.3437 19.5469 28.8594 19.875C28.375 20.2188 31.3906 25.2344 31.3906 25.2344C31.3906 25.2344 28.125 20.0938 26.7656 20.9532C28.875 25.5938 28.0938 26.25 28.0938 26.25C28.0938 26.25 27.8281 21.5157 25.1875 21.6407C23.8594 21.7032 25.8125 25.1719 25.8125 25.1719C25.8125 25.1719 24.0156 22 22.8125 22.0625C25.0156 26.25 24.2344 27.9375 24.2344 27.9375C24.2344 27.9375 24.5938 24.3594 21.6094 22.375C22.75 23.3907 20.8906 27.9375 20.8906 27.9375C20.8906 27.9375 22.5156 21.2344 19.6875 22.5157C19.2344 22.7188 19.6562 25.8594 19.6562 25.8594C19.6562 25.8594 19.0937 22.2657 18.2344 22.4532C17.7344 22.5625 15.0781 27.4375 15.0781 27.4375C15.0781 27.4375 17.25 22.1719 16.5937 22.3907C16.1094 22.5469 15.2031 24.7188 15.2031 24.7188C15.2031 24.7188 15.6406 22.5782 15.2031 22.4532C14.7656 22.3282 12.2969 24.7188 12.2969 24.7188C12.2969 24.7188 14.125 22.5782 13.8125 22.125C13.3281 21.4532 12.7812 21.4219 12.1094 21.6875C11.1406 22.0625 9.84375 23.8282 9.84375 23.8282C9.84375 23.8282 11.1406 22.0313 10.9219 21.375C10.5625 20.2969 6.82813 23.4532 6.82813 23.4532C6.82813 23.4532 9.03125 21.375 8.53125 20.9219C8.03125 20.4844 5.28125 20.6094 4.4375 20.6094C1.92188 20.6407 1.04688 20.0469 0.28125 19.4375Z" fill="#373535" fill-opacity="0.35"/>
<path d="M0.140625 19.0625C3.45313 20.7188 6.48438 18.8125 10.2969 19.8907C13.2031 20.7032 16.7344 21.7188 21.5313 21.0157C26.3281 20.3282 30.4219 18.2344 32.3906 14.5157C33 12.8594 35.4844 14.8907 35.4844 14.8907C35.4844 14.8907 33.6719 14.1407 33.7188 14.4844C33.7656 14.8438 36.4375 16.0782 36.4375 16.0782C36.4375 16.0782 34.0156 15.3282 34.1719 15.8907C34.3125 16.4532 37.2031 18.7344 37.2031 18.7344C37.2031 18.7344 33.9375 16.25 33.6719 16.5938C33.4063 16.9375 35.0625 18.2969 35.0625 18.2969C35.0625 18.2969 32.3125 16.5938 31.3438 17.0938C30.6406 17.4532 34.2031 19.7813 34.2031 19.7813C34.2031 19.7813 31.8906 18.0157 31.3438 18.4844C30.7969 18.9532 33.9531 22.7344 33.9531 22.7344C33.9531 22.7344 30.375 18.8594 30.0156 19.0469C29.6563 19.2344 31 21.0938 31 21.0938C31 21.0938 29.2188 19.1719 28.7344 19.5C28.25 19.8438 31.25 24.8594 31.25 24.8594C31.25 24.8594 27.9844 19.7032 26.6406 20.5625C28.7656 25.2188 27.9688 25.875 27.9688 25.875C27.9688 25.875 27.7031 21.1407 25.0625 21.2657C23.7344 21.3282 25.6875 24.7969 25.6875 24.7969C25.6875 24.7969 23.9063 21.6407 22.7031 21.7032C24.9063 25.8907 24.125 27.5782 24.125 27.5782C24.125 27.5782 24.4844 24 21.5 22.0157C22.6406 23.0313 20.7813 27.5782 20.7813 27.5782C20.7813 27.5782 22.4063 20.875 19.5781 22.1563C19.125 22.3594 19.5469 25.5 19.5469 25.5C19.5469 25.5 18.9844 21.9063 18.125 22.0938C17.625 22.2032 14.9688 27.0782 14.9688 27.0782C14.9688 27.0782 17.1406 21.8125 16.4844 22.0313C16 22.1875 15.0938 24.3594 15.0938 24.3594C15.0938 24.3594 15.5313 22.2188 15.0938 22.0938C14.6563 21.9688 12.1875 24.3594 12.1875 24.3594C12.1875 24.3594 14.0156 22.2188 13.7031 21.7657C13.2188 21.0938 12.6719 21.0625 12 21.3282C11.0313 21.7032 9.73438 23.4688 9.73438 23.4688C9.73438 23.4688 11.0313 21.6719 10.8125 21.0157C10.4531 19.9375 6.71875 23.0938 6.71875 23.0938C6.71875 23.0938 8.92188 21.0157 8.42188 20.5625C7.92188 20.125 5.17188 20.25 4.32813 20.25C1.78125 20.2657 0.90625 19.6719 0.140625 19.0625Z" fill="#373535"/>
</g>
<defs>
<clipPath id="clip0_3_2431">
<rect width="40" height="40" fill="white"/>
</clipPath>
</defs>
</svg>
