<svg width="40" height="41" viewBox="0 0 40 41" fill="none" xmlns="http://www.w3.org/2000/svg">
<mask id="mask0_3_2592" style="mask-type:luminance" maskUnits="userSpaceOnUse" x="5" y="0" width="30" height="41">
<path d="M30.7696 9.3765C30.6787 8.8765 30.2242 8.55831 29.7242 8.6265C29.5424 8.64922 29.3605 8.74013 29.2242 8.8765L24.4969 13.6038L20.7923 6.53558C20.565 6.08103 20.0196 5.92193 19.565 6.14921C19.4059 6.24012 19.2696 6.37648 19.1787 6.53558L17.1559 10.3992L12.065 0.899181C11.8377 0.467361 11.2695 0.285542 10.8377 0.535543C10.5877 0.671908 10.4059 0.921909 10.3604 1.19464L5.42859 32.6948L18.5877 40.0812C19.4059 40.5358 20.4287 40.5358 21.2469 40.0812L34.5197 32.6948L30.7696 9.3765Z" fill="white"/>
</mask>
<g mask="url(#mask0_3_2592)">
<path d="M5.42859 32.6949L10.3604 1.19475C10.4286 0.694745 10.9059 0.353833 11.4059 0.444743C11.6786 0.490198 11.9286 0.672016 12.065 0.922018L17.1559 10.4221L19.1787 6.55841C19.4059 6.10386 19.9514 5.94477 20.4059 6.17205C20.565 6.26296 20.7014 6.39932 20.7923 6.55841L34.5197 32.6949H5.42859Z" fill="#FFA000"/>
<path d="M22.4514 20.4221L17.1559 10.3993L5.42859 32.6949L22.4514 20.4221Z" fill="#F57C00"/>
<path opacity="0.2" d="M-1.84412 -1.39624H41.7925V42.2404H-1.84412V-1.39624Z" fill="url(#paint0_linear_3_2592)"/>
<path d="M34.5197 32.6948L30.7469 9.35378C30.656 8.85378 30.2014 8.53559 29.7014 8.60377C29.5196 8.6265 29.3378 8.71741 29.2014 8.85378L5.42859 32.6948L18.5877 40.0812C19.4059 40.5358 20.4287 40.5358 21.2469 40.0812L34.5197 32.6948Z" fill="#FFCA28"/>
<path d="M30.7697 9.3765C30.6787 8.8765 30.2242 8.55831 29.7242 8.6265C29.5424 8.64922 29.3606 8.74013 29.2242 8.8765L24.4969 13.6038L20.7923 6.53558C20.5651 6.08103 20.0196 5.92193 19.5651 6.14921C19.406 6.24012 19.2696 6.37648 19.1787 6.53558L17.1559 10.3992L12.065 0.899181C11.8377 0.467361 11.2696 0.285542 10.8377 0.535543C10.5877 0.671908 10.4059 0.921909 10.3605 1.19464L5.42861 32.6948H5.40588L5.42861 32.7175L5.56498 32.7857L24.4969 13.8311L29.2242 9.10377C29.5878 8.74013 30.156 8.74013 30.5197 9.10377C30.656 9.24013 30.7469 9.39923 30.7697 9.60377L34.4969 32.7175L34.5424 32.6948L30.7697 9.3765ZM5.47407 32.6494L10.3605 1.42191C10.4286 0.921909 10.9059 0.580998 11.4059 0.671907C11.6786 0.717362 11.9286 0.899181 12.065 1.14918L17.1559 10.6492L19.1787 6.78558C19.406 6.33103 19.9514 6.17194 20.406 6.39921C20.5651 6.49012 20.7014 6.62648 20.7923 6.78558L24.4287 13.6947L5.47407 32.6494Z" fill="white" fill-opacity="0.2"/>
<path opacity="0.2" d="M21.2469 39.854C20.4287 40.3086 19.4059 40.3086 18.5877 39.854L5.45132 32.4904L5.42859 32.6949L18.5877 40.0813C19.4059 40.5359 20.4287 40.5359 21.2469 40.0813L34.5197 32.6949L34.4969 32.4904L21.2469 39.854Z" fill="#A52714"/>
<path d="M30.7696 9.3765C30.6787 8.8765 30.2242 8.55831 29.7242 8.6265C29.5424 8.64922 29.3605 8.74013 29.2242 8.8765L24.4969 13.6038L20.7923 6.53558C20.565 6.08103 20.0196 5.92193 19.565 6.14921C19.4059 6.24012 19.2696 6.37648 19.1787 6.53558L17.1559 10.3992L12.065 0.899181C11.8377 0.467361 11.2695 0.285542 10.8377 0.535543C10.5877 0.671908 10.4059 0.921909 10.3604 1.19464L5.42859 32.6948L18.5877 40.0812C19.4059 40.5358 20.4287 40.5358 21.2469 40.0812L34.5197 32.6948L30.7696 9.3765Z" fill="url(#paint1_linear_3_2592)"/>
</g>
<defs>
<linearGradient id="paint0_linear_3_2592" x1="18.8244" y1="19.2668" x2="18.0108" y2="18.4532" gradientUnits="userSpaceOnUse">
<stop stop-color="#A52714" stop-opacity="0.8"/>
<stop offset="0.5" stop-color="#A52714" stop-opacity="0.21"/>
<stop offset="1" stop-color="#A52714" stop-opacity="0"/>
</linearGradient>
<linearGradient id="paint1_linear_3_2592" x1="4.64535" y1="7.46117" x2="35.0289" y2="37.8448" gradientUnits="userSpaceOnUse">
<stop stop-color="white" stop-opacity="0.1"/>
<stop offset="1" stop-color="white" stop-opacity="0"/>
</linearGradient>
</defs>
</svg>
