<svg width="40" height="40" viewBox="0 0 40 40" fill="none" xmlns="http://www.w3.org/2000/svg">
<g clip-path="url(#clip0_3_2362)">
<path fill-rule="evenodd" clip-rule="evenodd" d="M40 20C40 31.0457 31.0457 40 20 40C8.9543 40 0 31.0457 0 20C0 8.9543 8.9543 0 20 0C31.0457 0 40 8.9543 40 20ZM21.3551 10.1297C22.3638 11.1726 24.3695 13.2463 25.3461 17.5562C25.4725 18.2887 25.5385 19.0302 25.5433 19.7734C25.5664 24.2289 23.2152 27.0234 21.9074 28.2316L21.8793 28.257C21.6313 28.4877 21.3689 28.7023 21.0937 28.8996L21.0547 28.925C20.8295 29.9375 20.66 30.9615 20.5469 31.9926H20.0648C19.9367 30.6015 19.7567 29.2851 19.7369 29.1404C19.7359 29.1334 19.7353 29.1291 19.7351 29.1277V29.132L19.6652 29.0824C19.05 28.6336 14.5008 25.1133 14.7824 19.2055C15.0844 12.8711 18.7961 9.75664 19.5195 9.19102C19.9867 8.69258 20.0055 8.50195 20.0418 8.00781C20.0495 8.0257 20.0564 8.04398 20.0619 8.0584C20.0642 8.06446 20.0662 8.06983 20.068 8.07422C20.068 8.07422 20.4242 8.95312 20.7758 9.44727C20.8487 9.60623 21.0589 9.82354 21.3551 10.1297ZM20.2871 17.4625C20.0137 17.4609 20.0137 25.7469 20.0137 25.7469C20.0137 26.3914 20.3969 28.1047 20.7765 28.1504C20.7765 28.1504 20.5004 17.4625 20.2871 17.4625Z" fill="#38383A"/>
</g>
<defs>
<clipPath id="clip0_3_2362">
<rect width="40" height="40" fill="white"/>
</clipPath>
</defs>
</svg>
