<svg width="40" height="40" viewBox="0 0 40 40" fill="none" xmlns="http://www.w3.org/2000/svg">
<g clip-path="url(#clip0_3_2365)">
<path d="M20 40C31.0457 40 40 31.0457 40 20C40 8.9543 31.0457 0 20 0C8.9543 0 0 8.9543 0 20C0 31.0457 8.9543 40 20 40Z" fill="#13AA52"/>
<path d="M25.3461 17.5563C24.0828 11.9809 21.0973 10.1477 20.7758 9.44727C20.4242 8.95313 20.068 8.07422 20.068 8.07422C20.0621 8.05937 20.0528 8.0332 20.0418 8.00781C20.0055 8.50195 19.9867 8.69258 19.5195 9.19102C18.7961 9.75664 15.0844 12.8711 14.7824 19.2055C14.5008 25.1133 19.05 28.6336 19.6653 29.0824L19.7352 29.132V29.1277C19.7391 29.1574 19.9305 30.534 20.0649 31.9926H20.5469C20.66 30.9615 20.8295 29.9375 21.0547 28.925L21.0938 28.8996C21.369 28.7023 21.6314 28.4877 21.8793 28.257L21.9074 28.2316C23.2153 27.0234 25.5664 24.2289 25.5434 19.7734C25.5385 19.0302 25.4725 18.2887 25.3461 17.5563ZM20.0137 25.7469C20.0137 25.7469 20.0137 17.4609 20.2871 17.4625C20.5004 17.4625 20.7766 28.1504 20.7766 28.1504C20.3969 28.1047 20.0137 26.3914 20.0137 25.7469Z" fill="white"/>
</g>
<defs>
<clipPath id="clip0_3_2365">
<rect width="40" height="40" fill="white"/>
</clipPath>
</defs>
</svg>
