<svg width="68" height="40" viewBox="0 0 68 40" fill="none" xmlns="http://www.w3.org/2000/svg">
<path fill-rule="evenodd" clip-rule="evenodd" d="M0.499502 34.6277H2.72407V25.8149L6.19822 33.4985C6.59174 34.4221 7.15709 34.7642 8.25173 34.7642C9.34637 34.7642 9.87796 34.4217 10.2845 33.4985L13.7414 25.8149V34.6277H15.9832V25.8149C15.9832 24.9596 15.6407 24.5481 14.922 24.3256C13.2278 23.8125 12.0983 24.2574 11.5851 25.4034L8.18 33.0014L4.89417 25.4034C4.39786 24.2574 3.25106 23.8125 1.54006 24.3256C0.838173 24.5481 0.49605 24.9593 0.49605 25.8149L0.495667 34.6277H0.499502ZM17.835 27.4577H20.0768V32.3007C20.0599 32.5742 20.1624 33.1905 21.3809 33.207C22.0137 33.2243 26.2066 33.207 26.2404 33.207V27.4232H28.4822V35.3464C28.4822 37.2972 26.0659 37.7244 24.9398 37.7421H17.8902V36.2539H24.9578C26.3954 36.0997 26.2243 35.3813 26.2243 35.1416V34.5594H21.4837C19.276 34.5421 17.8553 33.5668 17.8388 32.4545V27.4569L17.835 27.4577ZM65.9217 21.8445C64.5532 21.81 63.4915 21.9473 62.6017 22.3239C62.3455 22.4275 61.9343 22.4275 61.9006 22.7519C62.0375 22.8881 62.054 23.1109 62.174 23.2997C62.3792 23.6422 62.739 24.1036 63.0639 24.3429C63.4236 24.6171 63.783 24.8906 64.1589 25.1303C64.8262 25.5407 65.5791 25.7804 66.2293 26.1912C66.6059 26.4309 66.9822 26.7389 67.3588 26.9959C67.5506 27.1328 67.6668 27.3556 67.9065 27.4408V27.389C67.7868 27.2356 67.7523 27.0131 67.633 26.8413C67.4616 26.6706 67.2905 26.5161 67.1191 26.3454C66.6232 25.678 66.0068 25.0958 65.3394 24.6171C64.7917 24.2405 63.5943 23.7273 63.3718 23.0945L63.3381 23.0599C63.714 23.0254 64.1589 22.8885 64.5186 22.7857C65.1009 22.6323 65.6309 22.666 66.2293 22.5122C66.5035 22.4432 66.777 22.358 67.0512 22.2725V22.1191C66.7432 21.8111 66.5208 21.4003 66.1959 21.1096C65.3233 20.3567 64.3645 19.6207 63.3718 19.0047C62.8414 18.6626 62.1568 18.4397 61.5922 18.1494C61.3862 18.0466 61.0445 17.9952 60.9248 17.8242C60.6161 17.4483 60.4454 16.9516 60.2229 16.5063C59.727 15.5651 59.2476 14.5214 58.8199 13.5288C58.5119 12.8615 58.3232 12.1941 57.9474 11.5781C56.1846 8.66892 54.2676 6.90653 51.3243 5.17789C50.6914 4.8185 49.9385 4.66394 49.1381 4.476L47.8547 4.40696C47.5805 4.28729 47.307 3.96205 47.0673 3.80786C46.092 3.19189 43.5763 1.85715 42.8571 3.61992C42.395 4.73221 43.5418 5.82723 43.9311 6.39219C44.2226 6.78571 44.5984 7.23062 44.8044 7.67554C44.9195 7.96626 44.9578 8.27463 45.0779 8.58262C45.3513 9.33552 45.6083 10.1743 45.9677 10.8762C46.1595 11.2356 46.3608 11.6126 46.6005 11.9375C46.7375 12.1254 46.9772 12.2113 47.0282 12.5193C46.7885 12.8618 46.772 13.3746 46.6351 13.8031C46.0187 15.7369 46.2584 18.1325 47.131 19.5524C47.4052 19.9801 48.0515 20.9217 48.9283 20.5619C49.6984 20.2539 49.5266 19.2786 49.7491 18.4229C49.8008 18.2177 49.7663 18.0807 49.8687 17.9434V17.978L50.5706 19.3982C51.1011 20.2367 52.0254 21.1096 52.7952 21.6918C53.2056 21.9998 53.5308 22.5306 54.044 22.7186V22.6668H54.0103C53.9075 22.5134 53.7533 22.4443 53.6164 22.3247C53.3084 22.0167 52.9662 21.64 52.7265 21.2979C52.0082 20.3398 51.3753 19.2786 50.8103 18.1835C50.5361 17.6531 50.2964 17.0713 50.0747 16.5408C49.9711 16.3352 49.9711 16.0269 49.8005 15.9248C49.5435 16.3007 49.1676 16.6267 48.9785 17.0885C48.6533 17.8242 48.6195 18.7312 48.4999 19.6725C48.4308 19.6897 48.4615 19.6725 48.4308 19.707C47.8839 19.5704 47.6952 19.0051 47.49 18.5264C46.9768 17.3114 46.8909 15.3606 47.3358 13.9572C47.4555 13.5979 47.9694 12.4683 47.7642 12.1262C47.6607 11.801 47.3193 11.613 47.1306 11.356C46.9081 11.0308 46.6692 10.6204 46.515 10.261C46.1046 9.30215 45.8994 8.24165 45.4541 7.28317C45.2482 6.83826 44.8892 6.37608 44.598 5.96569C44.2728 5.50352 43.9142 5.17827 43.6572 4.63095C43.5717 4.44301 43.452 4.13464 43.5889 3.92906C43.6227 3.79214 43.6917 3.74113 43.8279 3.70661C44.0503 3.51867 44.684 3.758 44.9064 3.86002C45.5393 4.117 46.0697 4.35633 46.6002 4.71533C46.8399 4.88639 47.0968 5.21164 47.4048 5.29755H47.7646C48.3123 5.41722 48.9279 5.33207 49.4407 5.48549C50.3478 5.77699 51.169 6.20426 51.9054 6.66681C54.1468 8.08708 55.9955 10.1064 57.2443 12.5197C57.4495 12.9132 57.535 13.2726 57.7237 13.6834C58.0835 14.5222 58.5284 15.3775 58.887 16.1995C59.2468 17.0037 59.5889 17.8257 60.1021 18.4931C60.3591 18.8524 61.3855 19.0404 61.8472 19.2287C62.1898 19.3821 62.7198 19.5202 63.0286 19.7081C63.61 20.0675 64.1919 20.4783 64.7392 20.8718C65.0126 21.0766 65.8687 21.5047 65.9197 21.846L65.9217 21.8445ZM48.4703 6.97365C48.2339 6.97156 47.9982 7.00031 47.7692 7.05918V7.0937H47.803C47.9399 7.36755 48.1796 7.55587 48.3507 7.79559L48.7446 8.61714L48.7783 8.58262C49.018 8.41156 49.1381 8.13771 49.1381 7.72731C49.0353 7.60765 49.0184 7.4876 48.9329 7.36793C48.8301 7.19687 48.6076 7.11096 48.4703 6.97442V6.97365Z" fill="#00678C"/>
<path fill-rule="evenodd" clip-rule="evenodd" d="M30.1905 34.6277H36.6249C37.3778 34.6277 38.0969 34.4743 38.6784 34.2C39.6538 33.7551 40.1159 33.1568 40.1159 32.3694V30.7266C40.1159 30.0938 39.5855 29.4943 38.525 29.0839C37.9773 28.8787 37.2927 28.7587 36.6253 28.7587H33.9213C33.0142 28.7587 32.5865 28.4844 32.4665 27.8861C32.4496 27.8178 32.4496 27.7492 32.4496 27.6809V26.671C32.4496 26.6193 32.4496 26.5514 32.4665 26.4831C32.5862 26.0209 32.8259 25.9009 33.6171 25.8157H40.2053V24.3264H33.942C33.0349 24.3264 32.5559 24.3782 32.1278 24.5151C30.81 24.9255 30.2281 25.576 30.2281 26.722V28.0234C30.2281 29.0321 31.3577 29.8886 33.2742 30.0938C33.4794 30.111 33.7019 30.1111 33.9244 30.1111H36.2348C36.3204 30.1111 36.4055 30.1111 36.4738 30.1283C37.1757 30.1966 37.4837 30.3162 37.6889 30.5725C37.8258 30.7094 37.8603 30.8294 37.8603 30.9836V32.2838C37.8603 32.4373 37.7575 32.6436 37.5523 32.8143C37.3471 32.985 37.0211 33.105 36.5935 33.1223C36.5079 33.1223 36.4573 33.1395 36.371 33.1395H30.1905V34.6277ZM54.0452 32.0441C54.0452 33.5668 55.1958 34.4221 57.4856 34.5939C57.708 34.6112 57.9132 34.6277 58.1357 34.6277H63.9541V33.1395H58.0847C56.7833 33.1395 56.2874 32.8143 56.2874 32.0272V24.3264H54.0409V32.0445L54.0452 32.0441ZM41.5358 32.112V26.8076C41.5358 25.4556 42.4939 24.6336 44.3599 24.3774C44.5651 24.3602 44.7703 24.3429 44.9582 24.3429H49.2017C49.4242 24.3429 49.6129 24.3602 49.8354 24.3774C51.7005 24.6336 52.6414 25.4552 52.6414 26.8076V32.112C52.6414 33.207 52.2483 33.7893 51.3235 34.1832L53.5136 36.1676H50.93L49.1504 34.5594L47.3531 34.6622H44.9574C44.5185 34.66 44.0815 34.6027 43.6568 34.4915C42.2377 34.0972 41.5358 33.3447 41.5358 32.112ZM43.9483 31.9931C43.9483 32.0614 43.9867 32.1293 44.0001 32.2156C44.1198 32.8312 44.7012 33.1737 45.591 33.1737H47.6108L45.7629 31.4964H48.3464L49.9719 32.9685C50.2807 32.797 50.4686 32.5573 50.5369 32.2493C50.5541 32.181 50.5541 32.0959 50.5541 32.0269V26.9441C50.5541 26.8758 50.5541 26.808 50.5369 26.7389C50.4172 26.1575 49.8357 25.8326 48.9628 25.8326H45.5914C44.5988 25.8326 43.9487 26.2603 43.9487 26.9441L43.9483 31.9931Z" fill="#CE8B2C"/>
</svg>
