<svg width="120" height="40" viewBox="0 0 120 40" fill="none" xmlns="http://www.w3.org/2000/svg">
<g clip-path="url(#clip0_3_2340)">
<path d="M51.7351 22.1402H59.6519L55.4701 15.387L47.7818 27.5844H44.2857L53.6364 12.9506C53.8402 12.6586 54.1111 12.4197 54.4262 12.2539C54.7414 12.0881 55.0917 12.0003 55.4478 11.9977C55.8039 11.9952 56.1555 12.078 56.473 12.2393C56.7905 12.4006 57.0647 12.6356 57.2727 12.9247L66.6493 27.5844H63.1532L61.5065 24.8571H53.4961L51.7506 22.1402M88.0779 24.8571V12.1454H85.1065V26.1091C85.106 26.3031 85.1448 26.4953 85.2207 26.6738C85.2966 26.8524 85.408 27.0138 85.548 27.148C85.6887 27.2919 85.8568 27.4061 86.0424 27.4837C86.228 27.5614 86.4274 27.6009 86.6286 27.6H100.135L101.896 24.8727H88.0623M38.9506 22.587C40.3353 22.587 41.6632 22.037 42.6423 21.0579C43.6214 20.0788 44.1714 18.7509 44.1714 17.3662C44.1714 15.9816 43.6214 14.6537 42.6423 13.6746C41.6632 12.6955 40.3353 12.1454 38.9506 12.1454H25.9636V27.5844H28.9299V14.8779H38.7688C39.4315 14.8779 40.0671 15.1412 40.5357 15.6098C41.0043 16.0784 41.2675 16.7139 41.2675 17.3766C41.2675 18.0393 41.0043 18.6749 40.5357 19.1435C40.0671 19.6121 39.4315 19.8753 38.7688 19.8753H30.4L39.2623 27.5844H43.5688L37.6156 22.587H38.9506ZM7.71948 27.5844H16.6909C18.7029 27.5322 20.6149 26.6963 22.0195 25.2548C23.4241 23.8133 24.2101 21.8802 24.2101 19.8675C24.2101 17.8549 23.4241 15.9218 22.0195 14.4803C20.6149 13.0388 18.7029 12.2028 16.6909 12.1506H7.71948C6.68923 12.1239 5.66407 12.3037 4.70443 12.6795C3.7448 13.0553 2.87013 13.6195 2.132 14.3387C1.39387 15.0579 0.807234 15.9176 0.406678 16.8672C0.00612187 17.8168 -0.200241 18.8369 -0.200241 19.8675C-0.200241 20.8981 0.00612187 21.9183 0.406678 22.8678C0.807234 23.8174 1.39387 24.6771 2.132 25.3964C2.87013 26.1156 3.7448 26.6797 4.70443 27.0555C5.66407 27.4313 6.68923 27.6111 7.71948 27.5844ZM16.4883 24.8675H7.91688C6.62005 24.8257 5.39034 24.2811 4.48778 23.349C3.58522 22.4168 3.08058 21.1702 3.08058 19.8727C3.08058 18.5752 3.58522 17.3286 4.48778 16.3964C5.39034 15.4643 6.62005 14.9197 7.91688 14.8779H16.4883C17.1578 14.8563 17.8248 14.9695 18.4496 15.2108C19.0745 15.4521 19.6445 15.8166 20.1257 16.2825C20.6069 16.7485 20.9895 17.3064 21.2508 17.9231C21.5122 18.5399 21.6468 19.2029 21.6468 19.8727C21.6468 20.5425 21.5122 21.2055 21.2508 21.8223C20.9895 22.439 20.6069 22.997 20.1257 23.4629C19.6445 23.9289 19.0745 24.2933 18.4496 24.5346C17.8248 24.7759 17.1578 24.8891 16.4883 24.8675ZM72.8467 27.5844H82.0052L83.7403 24.8675H73.0493C72.3799 24.8891 71.7129 24.7759 71.088 24.5346C70.4632 24.2933 69.8932 23.9289 69.412 23.4629C68.9308 22.997 68.5481 22.439 68.2868 21.8223C68.0255 21.2055 67.8908 20.5425 67.8908 19.8727C67.8908 19.2029 68.0255 18.5399 68.2868 17.9231C68.5481 17.3064 68.9308 16.7485 69.412 16.2825C69.8932 15.8166 70.4632 15.4521 71.088 15.2108C71.7129 14.9695 72.3799 14.8563 73.0493 14.8779H81.7506L83.5065 12.1506H72.8467C71.8165 12.1239 70.7913 12.3037 69.8317 12.6795C68.8721 13.0553 67.9974 13.6195 67.2593 14.3387C66.5211 15.0579 65.9345 15.9176 65.534 16.8672C65.1334 17.8168 64.927 18.8369 64.927 19.8675C64.927 20.8981 65.1334 21.9183 65.534 22.8678C65.9345 23.8174 66.5211 24.6771 67.2593 25.3964C67.9974 26.1156 68.8721 26.6797 69.8317 27.0555C70.7913 27.4313 71.8165 27.6111 72.8467 27.5844ZM109.143 24.8675C108.054 24.8679 106.996 24.513 106.127 23.8566C105.259 23.2003 104.629 22.2784 104.332 21.2312H117.018L118.764 18.5091H104.332C104.628 17.4614 105.258 16.539 106.127 15.8825C106.995 15.2261 108.054 14.8714 109.143 14.8727H117.849L119.59 12.1454H108.94C106.928 12.1976 105.016 13.0336 103.612 14.4751C102.207 15.9166 101.421 17.8497 101.421 19.8623C101.421 21.875 102.207 23.8081 103.612 25.2496C105.016 26.6911 106.928 27.527 108.94 27.5792H118.099L119.839 24.8623H109.138" fill="#38383A"/>
</g>
<defs>
<clipPath id="clip0_3_2340">
<rect width="120" height="40" fill="white"/>
</clipPath>
</defs>
</svg>
