<svg width="40" height="40" viewBox="0 0 40 40" fill="none" xmlns="http://www.w3.org/2000/svg">
<g clip-path="url(#clip0_3_2325)">
<path d="M36.5883 24.8616L36.595 24.855L36.585 24.8616H36.5867H36.5883Z" fill="#38383A"/>
<path d="M31.6517 24.545L31.655 24.5484L31.65 24.5517C31.4083 24.64 31.2083 24.6767 31.04 24.7517C30.8683 24.82 30.73 24.945 30.6483 25.105L30.6467 25.1084C30.5433 25.3 30.4533 25.64 30.48 26.2184C30.5483 26.2684 30.6317 26.3067 30.7167 26.3334L30.7233 26.335C31.005 26.4217 31.4767 26.4784 32.0033 26.47C33.0533 26.4584 34.3467 26.21 35.0333 25.8867C35.625 25.605 36.1317 25.265 36.5833 24.8617C34.29 25.3417 32.995 25.2134 32.2 24.8817C31.9933 24.7917 31.8117 24.68 31.6517 24.545Z" fill="#38383A"/>
<path d="M29.3 6.91833L29.31 6.93333L29.3217 6.94667L29.3 6.91833Z" fill="#38383A"/>
<path d="M20.5283 32.165C20.5267 32.1233 20.5283 32.08 20.5267 32.0383C20.5267 32.0216 20.525 32.01 20.525 31.9933L20.5283 32.165ZM18.77 24.81C18.6733 24.7616 18.56 24.7266 18.4383 24.71H18.4333V24.7066H18.3983C18.3117 24.715 18.185 24.745 17.9383 25.02C17.365 25.67 17.165 26.0783 16.6917 26.46C16.2183 26.84 15.605 27.0433 14.3783 27.2983C13.99 27.3783 13.7667 27.4666 13.62 27.5383C13.6683 27.5783 13.6633 27.5883 13.735 27.6266C13.915 27.7266 14.145 27.815 14.3317 27.8633C14.8583 27.9966 15.725 28.1516 16.6283 27.9966C17.5317 27.84 18.4717 27.4016 19.2733 26.2633C19.4117 26.0666 19.4267 25.7766 19.3133 25.465C19.2 25.1533 18.9467 24.885 18.77 24.81ZM25.5 2.5033L25.405 2.52163C25.4367 2.51496 25.4717 2.51163 25.5033 2.50496C25.5017 2.50496 25.5017 2.5033 25.5 2.5033ZM30.1367 11.5C29.0183 11.515 28.3917 11.8066 28.0617 12.1883C27.595 12.73 27.5517 13.68 27.8417 14.85C28.13 16.0216 28.725 17.3316 29.285 18.42C29.565 18.965 29.8367 19.455 30.055 19.8533C30.275 20.2533 30.4367 20.5366 30.535 20.7783C30.625 21.0016 30.7267 21.1983 30.8283 21.3816C31.2617 20.4566 31.3383 19.5483 31.295 18.6016C31.2383 17.43 30.9683 16.2316 31.0083 15.0183C31.0533 13.6 31.33 12.6766 31.3533 11.58C30.9883 11.53 30.565 11.5 30.1367 11.5ZM30.3433 12.3433L30.3417 12.3566C30.3417 12.3616 30.3417 12.3666 30.3417 12.3733C30.3417 12.45 30.32 12.5233 30.2817 12.5833L30.2833 12.5816C30.2317 12.6766 30.1717 12.76 30.1017 12.8316C29.9383 13.0133 29.72 13.14 29.4733 13.1833L29.4667 13.185C29.4317 13.19 29.3917 13.1916 29.35 13.1916C29.14 13.1916 28.9467 13.125 28.7883 13.0116L28.7917 13.0133C28.71 12.9566 28.6383 12.8916 28.58 12.8183L28.5783 12.8166C28.5267 12.76 28.49 12.6866 28.475 12.6083V12.605C28.475 12.5966 28.4733 12.5883 28.4733 12.58C28.4733 12.5083 28.5 12.4416 28.545 12.3916C28.5983 12.33 28.6617 12.28 28.735 12.2433L28.7383 12.2416C28.8967 12.1516 29.11 12.085 29.3517 12.0483C29.4417 12.035 29.5317 12.0283 29.615 12.0266V12.0316H29.6967C29.805 12.035 29.905 12.0466 29.9933 12.0683C30.0817 12.0883 30.1583 12.1183 30.22 12.16C30.2817 12.2016 30.3283 12.265 30.3433 12.3433ZM11.795 18.845C11.795 18.545 11.8183 18.2516 11.8617 17.9633L11.8583 17.995C12.0283 16.7633 12.0517 15.6116 12.0317 14.7016C12.0117 13.815 11.9483 13.225 11.9483 12.8566C11.9483 12.8516 11.9483 12.8466 11.9483 12.8416C11.9483 12.8366 11.9483 12.83 11.9483 12.825V12.8166L11.9467 12.8066C11.9467 12.8033 11.9467 12.8 11.9467 12.7966C11.9467 10.8233 12.2933 8.93163 12.9217 7.17663C13.3833 5.93663 14.07 4.6783 15.0983 3.6583C14.0867 3.32163 12.2933 2.8083 10.35 2.71163C10.1633 2.70163 9.945 2.69496 9.72667 2.69496L9.725 2.69663C9.51667 2.69663 9.30667 2.7033 9.1 2.71496C7.43667 2.81163 5.86333 3.29996 4.74 4.50663C3.61333 5.7133 2.87167 7.69163 3.03333 10.9666C3.065 11.5866 3.33167 13.3233 3.78833 15.3866C4.24667 17.45 4.89167 19.8783 5.66833 22.0233C6.44667 24.1683 7.39 26.035 8.28667 26.9183C8.73833 27.36 9.13 27.5383 9.485 27.5233C9.84167 27.5066 10.2717 27.2983 10.7967 26.66C11.8283 25.4033 12.8033 24.2916 13.81 23.2116L13.7767 23.2466C12.56 22.1716 11.795 20.6 11.795 18.845Z" fill="#38383A"/>
<path d="M20.66 2.61332V2.60999C18.7133 2.61499 17.3183 3.20999 16.2583 4.10165C15.1667 5.02332 14.435 6.28499 13.9533 7.57665C13.3817 9.10999 13.1867 10.5933 13.1083 11.6L13.13 11.5867C13.7183 11.2533 14.49 10.92 15.3167 10.7267C16.1433 10.5333 17.0333 10.475 17.84 10.7917C18.6467 11.1083 19.3133 11.8533 19.555 12.9833C20.7133 18.4117 19.195 20.43 18.635 21.9533C18.4567 22.3917 18.2717 22.955 18.1167 23.53L18.09 23.6417C18.16 23.625 18.2317 23.605 18.3017 23.5983C18.6967 23.565 19.0067 23.6983 19.19 23.7783C19.7533 24.015 20.14 24.5117 20.3483 25.0783C20.4033 25.2267 20.4417 25.3867 20.465 25.5517C20.4867 25.6083 20.4983 25.675 20.4983 25.7433C20.4983 25.75 20.4983 25.7567 20.4983 25.7633C20.4717 26.5967 20.455 27.575 20.455 28.5583C20.455 29.7233 20.4783 30.8833 20.5217 32.0383C20.56 32.915 20.615 33.6917 20.6833 34.3033C20.755 34.9267 20.855 35.3983 20.9183 35.5583C21.1283 36.0917 21.4367 36.79 21.9933 37.265C22.55 37.7383 23.3483 38.055 24.8067 37.7383C26.0717 37.4633 26.8517 37.0817 27.3733 36.5333C27.895 35.985 28.205 35.2217 28.4033 34.0533C28.7017 32.3033 29.3 27.2283 29.3733 26.2733C29.34 25.5533 29.445 25 29.6733 24.5783C29.9067 24.145 30.27 23.88 30.5817 23.7367C30.7383 23.665 30.885 23.6167 31.005 23.5817C30.8583 23.37 30.7267 23.1933 30.59 23.0217L30.605 23.04C30.1733 22.5133 29.805 21.9083 29.5267 21.2567L29.5083 21.2083C29.34 20.86 29.1983 20.5967 29.05 20.3383L29.085 20.4033C28.8667 20.0033 28.59 19.5033 28.3 18.9417C27.72 17.8167 27.09 16.4533 26.7617 15.125C26.435 13.7983 26.3883 12.425 27.225 11.4567C27.965 10.5967 29.2667 10.24 31.2183 10.44C31.1617 10.265 31.1267 10.12 31.0283 9.88665C30.5533 8.76999 29.9817 7.80665 29.3033 6.93332C27.6483 4.79665 24.9733 2.68165 20.8433 2.61332H20.66ZM19.37 27.7767C19.37 27.7967 19.37 27.815 19.37 27.835V27.7767Z" fill="#38383A"/>
<path d="M13.085 12.95L13.0883 12.9484L13.0933 12.9434L13.085 12.95Z" fill="#38383A"/>
<path d="M23.7183 0.701673C23.7467 0.69334 23.7767 0.690006 23.8033 0.68334L23.8367 0.67334L23.7183 0.701673Z" fill="#38383A"/>
<path d="M15.535 11.8216L15.5517 11.8199L15.565 11.8149L15.535 11.8216Z" fill="#38383A"/>
<path d="M17.6 21.5617C18.2683 19.7383 19.5833 18.4083 18.4767 13.2183C18.295 12.3683 17.9367 12.025 17.4433 11.8317C17.2033 11.7433 16.925 11.6917 16.6333 11.6917C16.615 11.6917 16.595 11.6917 16.5767 11.6917H16.58C16.225 11.695 15.8817 11.74 15.5517 11.82C14.8517 11.9967 14.235 12.2467 13.6617 12.5667C13.4467 12.685 13.2617 12.8083 13.0883 12.9467L13.0567 12.9767C13.0667 13.22 13.1133 13.81 13.1333 14.6783C13.1533 15.6283 13.13 16.84 12.9483 18.1517C12.555 21.0017 14.5983 23.3617 16.9983 23.365C17.14 22.78 17.37 22.1867 17.6 21.5617ZM16.1817 13.28C16.1033 13.2 16.04 13.11 15.9883 13.0117L15.985 13.005C15.9417 12.935 15.9167 12.85 15.9167 12.7583C15.9167 12.7417 15.9183 12.725 15.92 12.7083C15.945 12.5283 16.0917 12.4367 16.2333 12.385C16.365 12.3417 16.5117 12.3167 16.6683 12.3167C16.6917 12.3167 16.715 12.3167 16.7417 12.3183L16.74 12.3117C16.8267 12.3117 16.92 12.32 17.0133 12.3333C17.265 12.3683 17.49 12.4367 17.66 12.5367C17.745 12.5833 17.8183 12.6417 17.8767 12.7117L17.8783 12.7133C17.935 12.7783 17.9683 12.8633 17.9683 12.9583C17.9683 12.9717 17.9683 12.985 17.9667 12.9983C17.95 13.0983 17.905 13.1833 17.8433 13.2533C17.775 13.3367 17.6983 13.4083 17.6117 13.4683L17.6083 13.47C17.44 13.5933 17.2283 13.6667 17 13.6667C16.955 13.6667 16.91 13.6633 16.8667 13.6583H16.8717C16.595 13.6117 16.3583 13.475 16.1817 13.28Z" fill="#38383A"/>
<path d="M13.6283 12.5833C13.64 12.5766 13.6517 12.5733 13.6617 12.5666C13.6633 12.5666 13.665 12.565 13.6667 12.5633L13.6283 12.5833ZM30.1917 6.25331C30.9133 7.17831 31.5383 8.23164 32.02 9.36164L32.055 9.45331C32.2367 9.89331 32.3583 10.265 32.4267 10.5533C32.4617 10.6983 32.485 10.82 32.4933 10.9466C32.4967 11.01 32.5 11.075 32.4733 11.1866C32.4733 11.1916 32.465 11.2033 32.4633 11.2083C32.5133 12.6683 32.155 13.6583 32.1133 15.0516C32.08 16.0616 32.335 17.2483 32.3983 18.5433C32.4583 19.76 32.3133 21.0966 31.5317 22.4083C31.5983 22.4883 31.6567 22.5683 31.72 22.6483C33.785 19.3566 35.2733 15.715 36.0667 12.61C36.4917 10.9383 36.7167 9.42331 36.7367 8.22331C36.7533 7.02331 36.5317 6.15331 36.2517 5.78997C34.0417 2.92997 31.0533 2.20164 28.5467 2.18164L28.3067 2.18331C27.34 2.19831 26.4067 2.30997 25.505 2.50497C27.5517 3.42497 29.1017 4.84164 30.1917 6.25331Z" fill="#38383A"/>
<path d="M20.935 0.43H20.9183C18.9783 0.396667 17.3133 0.873333 15.9683 1.66667C14.645 1.20167 11.9 0.4 9.005 0.56C6.99 0.671667 4.79 1.29167 3.16 3.03333C1.535 4.775 0.676667 7.47 0.856667 11.1367C0.906667 12.1483 1.19167 13.7983 1.66333 15.935C2.13667 18.0717 2.8 20.5733 3.62833 22.855C4.45667 25.1383 5.36333 27.1883 6.78167 28.5817C7.49 29.28 8.465 29.8667 9.61333 29.8183C10.42 29.785 11.1483 29.4267 11.7783 28.8983C12.085 29.3067 12.4117 29.485 12.71 29.65C13.085 29.8583 13.45 30 13.8283 30.0933C14.5083 30.265 15.6717 30.495 17.035 30.26C17.5 30.1817 17.9883 30.0283 18.475 29.81C18.4933 30.36 18.515 30.8983 18.535 31.4433C18.6033 33.17 18.645 34.765 19.1567 36.1633C19.2383 36.3917 19.465 37.5683 20.3533 38.6067C21.2417 39.6467 22.985 40.295 24.9683 39.865C26.3683 39.5617 28.1467 39.015 29.33 37.3117C30.4983 35.6283 31.025 33.2133 31.13 29.2967C31.1567 29.085 31.1883 28.905 31.22 28.7367L31.4983 28.7617H31.5317C33.025 28.83 34.645 28.615 35.9983 27.9783C37.1967 27.4167 38.1033 26.8483 38.765 25.84C38.93 25.59 39.11 25.2883 39.16 24.7683C39.21 24.2483 38.915 23.435 38.425 23.06C37.445 22.3067 36.83 22.5933 36.17 22.7317C35.5817 22.87 34.9017 22.9567 34.205 22.975H34.1917C36.095 19.73 37.46 16.2833 38.2383 13.2333C38.7 11.4333 38.9583 9.77333 38.9783 8.32167C39 6.87 38.8833 5.585 38.0233 4.47333C35.3383 1 31.5633 0.04 28.6417 0.00666667C28.5517 0.005 28.46 0.00333333 28.37 0.005V0C26.78 0.0133333 25.25 0.253333 23.8017 0.681667L23.7333 0.705C22.8967 0.548333 21.925 0.448333 20.935 0.43ZM24.8833 1.49167C25.9033 1.24 27.0767 1.08833 28.2833 1.07333H28.2933L28.295 1.06667C31.0583 1.04 34.5867 1.825 37.1217 5.10333C37.6917 5.84 37.8617 6.91667 37.8417 8.24333C37.82 9.56833 37.5783 11.155 37.135 12.8933C36.275 16.26 34.6517 20.185 32.365 23.7067C32.44 23.7617 32.5267 23.81 32.6167 23.8467L32.625 23.85C33.1017 24.05 34.19 24.2217 36.3617 23.77C36.9083 23.6533 37.3083 23.575 37.7233 23.895C37.91 24.055 38.0267 24.2917 38.0267 24.5567C38.0267 24.5733 38.0267 24.59 38.025 24.6067V24.605C38 24.8167 37.925 25.0067 37.81 25.165C37.39 25.8033 36.5617 26.4083 35.5017 26.9067C34.5617 27.35 33.2133 27.5817 32.0183 27.595C31.4183 27.6017 30.8667 27.555 30.3967 27.4067L30.3667 27.395C30.185 29.1617 29.7683 32.65 29.4967 34.2417C29.28 35.525 28.9 36.545 28.1733 37.3083C27.4483 38.0717 26.4233 38.5317 25.0433 38.8317C23.335 39.2033 22.0883 38.8033 21.285 38.1183C20.4833 37.435 20.1167 36.5283 19.895 35.9733C19.7433 35.59 19.665 35.0933 19.5883 34.43C19.5117 33.7667 19.4567 32.955 19.4183 32.04C19.3817 31.11 19.3617 30.0167 19.3617 28.9183C19.3617 28.5567 19.365 28.1967 19.3683 27.835C18.68 28.475 17.81 28.925 16.8433 29.0967L16.8133 29.1017C15.6783 29.2967 14.6667 29.105 14.0617 28.9517C13.74 28.87 13.46 28.755 13.1967 28.6117C12.92 28.4617 12.6567 28.29 12.48 27.955C12.41 27.8267 12.3683 27.6717 12.3683 27.5083C12.3683 27.4433 12.375 27.3783 12.3883 27.3183C12.4483 27.095 12.5733 26.905 12.745 26.7717L12.7467 26.77C13.0733 26.5017 13.5033 26.3517 14.155 26.215C15.3383 25.9683 15.7517 25.8 16.0033 25.5983C16.2167 25.425 16.46 25.075 16.8867 24.5617C16.885 24.5467 16.8833 24.5217 16.8817 24.4983V24.4933C16.075 24.47 15.3233 24.2517 14.6667 23.8833L14.6917 23.8967C14.445 24.16 13.1833 25.51 11.6467 27.3833C11 28.1667 10.285 28.6167 9.53167 28.6483C8.77833 28.68 8.09667 28.2967 7.51667 27.7283C6.35833 26.59 5.435 24.6317 4.63 22.4183C3.82667 20.205 3.17333 17.74 2.70833 15.64C2.24167 13.54 1.96833 11.8467 1.92833 11.03C1.755 7.56 2.55667 5.22167 3.93167 3.74667C5.30833 2.27167 7.195 1.71333 9.03333 1.60667C12.335 1.415 15.4683 2.58 16.1033 2.83C17.3267 1.99 18.9017 1.46667 20.8667 1.5C21.8567 1.515 22.8083 1.64667 23.7183 1.88167L23.635 1.86333L23.6683 1.84833C23.9867 1.72833 24.3933 1.60667 24.81 1.50667L24.8833 1.49167Z" fill="#38383A"/>
</g>
<defs>
<clipPath id="clip0_3_2325">
<rect width="40" height="40" fill="white"/>
</clipPath>
</defs>
</svg>
