<svg width="40" height="40" viewBox="0 0 40 40" fill="none" xmlns="http://www.w3.org/2000/svg">
<g clip-path="url(#clip0_3_2320)">
<path d="M39.2417 23.95C39.0092 23.2457 38.4 22.7551 37.6122 22.6374C37.2407 22.5819 36.8153 22.6056 36.3119 22.7094C35.4344 22.8904 34.7834 22.9593 34.3083 22.9727C36.1016 19.9449 37.5598 16.4922 38.3992 13.2421C39.7567 7.98674 39.0313 5.59258 38.1836 4.50966C35.9404 1.64328 32.6675 0.103433 28.7191 0.0563165C26.6128 0.0305615 24.7638 0.446429 23.7992 0.74549C22.9011 0.587021 21.9354 0.498545 20.9222 0.482183C19.0228 0.451883 17.3447 0.865933 15.9107 1.71691C15.1168 1.44845 13.8427 1.07 12.3714 0.828512C8.9108 0.260387 6.12169 0.70307 4.08159 2.14429C1.61123 3.88927 0.466041 6.92108 0.677838 11.1555C0.745104 12.4999 1.49715 16.5904 2.68127 20.4697C3.36181 22.6995 4.0875 24.5511 4.83818 25.9737C5.90277 27.9909 7.0419 29.1789 8.32071 29.6055C9.03746 29.8442 10.3398 30.0115 11.7095 28.8707C11.8831 29.081 12.1147 29.2899 12.4221 29.484C12.8125 29.7302 13.2899 29.9314 13.7667 30.0506C15.4848 30.4801 17.0942 30.3727 18.4673 29.7706C18.4758 30.0148 18.4823 30.2481 18.4877 30.4496C18.4968 30.7764 18.5059 31.0968 18.5179 31.3965C18.5992 33.4227 18.7371 34.9981 19.1455 36.1004C19.168 36.161 19.1981 36.2535 19.2299 36.3515C19.4337 36.9754 19.7744 38.0198 20.6413 38.8377C21.5389 39.6851 22.6247 39.9449 23.6192 39.9449C24.1179 39.9449 24.5938 39.8795 25.0112 39.7901C26.4989 39.4712 28.1886 38.9855 29.4109 37.245C30.5665 35.5997 31.1283 33.1216 31.2299 29.217C31.2431 29.1066 31.2552 29.0012 31.2669 28.9007L31.2911 28.6944L31.5634 28.7183L31.6335 28.723C33.1488 28.7921 35.0017 28.4707 36.1396 27.9422C37.0387 27.5249 39.9201 26.0037 39.2417 23.95Z" fill="black"/>
<path d="M36.6508 24.3494C32.1452 25.2789 31.8353 23.7534 31.8353 23.7534C36.5924 16.6946 38.5812 7.73444 36.8651 5.54147C32.1832 -0.440504 24.0787 2.38861 23.9434 2.46193L23.8999 2.46981C23.0097 2.28498 22.0136 2.17499 20.8939 2.15666C18.8553 2.12333 17.3088 2.69115 16.1352 3.58106C16.1352 3.58106 1.67759 -2.37501 2.3501 11.0718C2.49312 13.9325 6.4503 32.7171 11.1701 27.0433C12.8953 24.9685 14.5622 23.2143 14.5622 23.2143C15.39 23.7642 16.3811 24.0448 17.4201 23.944L17.5009 23.8755C17.4757 24.1331 17.4872 24.385 17.5331 24.6833C16.3172 26.0418 16.6746 26.2803 14.2439 26.7807C11.7843 27.2876 13.2292 28.19 14.1726 28.426C15.3162 28.7119 17.962 29.117 19.7497 26.6144L19.6785 26.8999C20.1548 27.2816 20.4893 29.382 20.4333 31.2862C20.3772 33.1902 20.3398 34.4975 20.7151 35.5186C21.0907 36.5397 21.4647 38.8372 24.6601 38.1526C27.33 37.5804 28.7137 36.0977 28.9062 33.6243C29.0427 31.866 29.3519 32.1259 29.3713 30.5538L29.6193 29.8097C29.9052 27.4261 29.6648 26.6571 31.3096 27.0148L31.7096 27.0499C32.9201 27.1049 34.5048 26.8551 35.4348 26.4229C37.4374 25.4936 38.6251 23.9418 36.6505 24.3494H36.6508Z" fill="#336791"/>
<path d="M16.9815 12.351C16.5755 12.2945 16.2078 12.3468 16.0218 12.4877C15.9172 12.5669 15.8848 12.6587 15.876 12.7219C15.8527 12.8893 15.97 13.0745 16.0421 13.1699C16.246 13.4402 16.5438 13.6259 16.8387 13.6668C16.8814 13.6729 16.9239 13.6756 16.9662 13.6756C17.4578 13.6756 17.9049 13.2928 17.9443 13.0102C17.9935 12.6563 17.4798 12.4203 16.9815 12.351ZM30.4323 12.3623C30.3935 12.0849 29.8999 12.0058 29.4315 12.0709C28.9637 12.1361 28.5101 12.3473 28.5479 12.6253C28.5782 12.8414 28.9686 13.2105 29.4307 13.2105C29.4698 13.2105 29.5092 13.2079 29.5489 13.2023C29.8574 13.1596 30.0837 12.9637 30.1913 12.8508C30.3549 12.6787 30.4497 12.4869 30.4323 12.3623Z" fill="white"/>
<path d="M38.15 24.2438C37.9782 23.7243 37.4252 23.5572 36.5065 23.7468C33.7788 24.3098 32.8019 23.9198 32.4812 23.6837C34.6014 20.4537 36.3456 16.5492 37.2866 12.9064C37.7323 11.1808 37.9785 9.57825 37.9987 8.27202C38.0209 6.83838 37.7767 5.78485 37.2731 5.14127C35.2427 2.54684 32.2627 1.15516 28.6555 1.11698C26.1756 1.0891 24.0803 1.72374 23.6742 1.9022C22.8188 1.6895 21.8863 1.5589 20.8711 1.54224C19.0095 1.51209 17.4003 1.9578 16.068 2.86635C15.4892 2.65092 13.9936 2.13748 12.1646 1.84282C9.00246 1.33378 6.48968 1.71949 4.69653 2.98982C2.55689 4.50573 1.56911 7.21546 1.76045 11.0436C1.82484 12.3315 2.55871 16.2935 3.71677 20.0878C5.24117 25.0819 6.89827 27.909 8.64174 28.4906C8.84581 28.5586 9.08109 28.6062 9.34061 28.6062C9.9766 28.6062 10.7564 28.3196 11.5677 27.3442C12.5572 26.1571 13.5808 24.9989 14.6372 23.8709C15.3226 24.2388 16.0755 24.4442 16.8456 24.4648C16.8471 24.4849 16.8491 24.5051 16.8509 24.5251C16.7184 24.6832 16.5886 24.8435 16.4616 25.0061C15.928 25.6835 15.8169 25.8245 14.0994 26.1781C13.6108 26.279 12.3132 26.5464 12.2941 27.456C12.2735 28.4498 13.828 28.8672 14.0051 28.9115C14.6224 29.066 15.217 29.1422 15.7841 29.1422C17.1632 29.1422 18.3768 28.6889 19.3467 27.8119C19.3169 31.3549 19.4646 34.846 19.89 35.9097C20.2385 36.7805 21.0896 38.9086 23.7781 38.9085C24.1726 38.9085 24.6068 38.8626 25.0845 38.7602C27.8904 38.1587 29.1089 36.9185 29.5803 34.1844C29.8325 32.7232 30.2653 29.234 30.469 27.3624C30.8986 27.4965 31.4517 27.5578 32.0497 27.5577C33.2968 27.5577 34.7359 27.2927 35.6384 26.8738C36.6523 26.4029 38.4818 25.2476 38.15 24.2438ZM31.4679 11.5965C31.4587 12.1491 31.3826 12.6507 31.302 13.1743C31.2152 13.7374 31.1256 14.3196 31.103 15.0263C31.0807 15.7142 31.1666 16.4292 31.2496 17.1208C31.4175 18.5177 31.5897 19.9557 30.923 21.3746C30.8122 21.1784 30.7136 20.9756 30.6276 20.7673C30.5447 20.5664 30.3647 20.2437 30.1155 19.7971C29.1461 18.0585 26.8758 13.9871 28.038 12.3257C28.3842 11.8312 29.2627 11.3228 31.4679 11.5965ZM28.7949 2.23581C32.027 2.30716 34.5837 3.51628 36.3938 5.82939C37.7822 7.6036 36.2534 15.6766 31.8276 22.6412C31.7831 22.5846 31.7384 22.5282 31.6934 22.472L31.6373 22.402C32.781 20.5132 32.5574 18.6445 32.3583 16.9877C32.2765 16.3077 32.1992 15.6655 32.2189 15.0622C32.2392 14.4229 32.3238 13.8745 32.4056 13.3442C32.506 12.6908 32.6083 12.0147 32.5801 11.2176C32.6012 11.134 32.6096 11.0352 32.5986 10.918C32.5266 10.1537 31.654 7.86615 29.8754 5.79575C28.9024 4.66329 27.4836 3.39599 25.5464 2.54123C26.3797 2.36852 27.5191 2.20748 28.7949 2.23581ZM10.7091 26.6303C9.81526 27.7051 9.19805 27.499 8.99504 27.4315C7.67244 26.9903 6.13774 24.1948 4.7847 19.7619C3.61391 15.9263 2.92973 12.0692 2.87549 10.9877C2.7046 7.56709 3.53376 5.18324 5.3401 3.90216C8.2798 1.81752 13.113 3.06527 15.055 3.69808C15.0272 3.72566 14.9981 3.75141 14.9705 3.77944C11.7835 6.99791 11.8591 12.4967 11.867 12.8329C11.8667 12.9626 11.8776 13.1462 11.8925 13.3988C11.9473 14.3237 12.0494 16.045 11.7767 17.9944C11.5234 19.8059 12.0818 21.5789 13.3085 22.8589C13.4344 22.99 13.5668 23.1148 13.705 23.2328C13.159 23.8176 11.9723 25.1108 10.7091 26.6303ZM14.1147 22.0864C13.126 21.0547 12.6769 19.6197 12.8825 18.1489C13.1704 16.0897 13.0642 14.2963 13.0071 13.3327C12.999 13.1979 12.9919 13.0797 12.9878 12.9865C13.4534 12.5737 15.6109 11.4178 17.1495 11.7703C17.8516 11.931 18.2794 12.4092 18.4573 13.2315C19.3778 17.4891 18.5791 19.2636 17.9373 20.6897C17.8051 20.9835 17.6801 21.2612 17.5734 21.5484L17.4907 21.7705C17.2813 22.332 17.0865 22.854 16.9658 23.3498C15.9146 23.3467 14.8922 22.8977 14.1147 22.0862V22.0864ZM14.276 27.8282C13.9691 27.7516 13.6931 27.6184 13.5311 27.508C13.6664 27.4443 13.9071 27.3577 14.3247 27.2716C16.3452 26.8558 16.6573 26.5622 17.3387 25.6969C17.4949 25.4985 17.672 25.2737 17.9173 24.9997L17.9176 24.9994C18.2829 24.5904 18.45 24.6598 18.753 24.7855C18.9986 24.887 19.2378 25.1949 19.3348 25.5336C19.3807 25.6936 19.4322 25.9972 19.2636 26.2336C17.8401 28.2267 15.7657 28.2011 14.276 27.8282ZM24.8506 37.6685C22.3787 38.1981 21.5035 36.9369 20.9267 35.4951C20.5545 34.5642 20.3715 30.3668 20.5013 25.7313C20.503 25.6697 20.4942 25.6101 20.4772 25.5541C20.462 25.4434 20.439 25.3339 20.4081 25.2265C20.2151 24.5521 19.7447 23.9879 19.1804 23.754C18.9562 23.6611 18.5447 23.4906 18.0502 23.6172C18.1556 23.1826 18.3385 22.6919 18.5368 22.1606L18.62 21.9372C18.7136 21.6852 18.8312 21.4242 18.9554 21.1479C19.627 19.6559 20.5468 17.6123 19.5485 12.9956C19.1746 11.2664 17.926 10.422 16.0331 10.6181C14.8984 10.7356 13.8602 11.1934 13.3423 11.4559C13.231 11.5123 13.1292 11.5668 13.034 11.6199C13.1786 9.87762 13.7246 6.62158 15.7671 4.56148C17.0532 3.26464 18.7659 2.6241 20.8526 2.65864C24.9643 2.72591 27.6011 4.836 29.0891 6.59446C30.3714 8.10961 31.0657 9.63598 31.3428 10.4592C29.2589 10.2473 27.8416 10.6586 27.1232 11.6858C25.5602 13.9201 27.9783 18.2566 29.1404 20.3408C29.3536 20.7227 29.5375 21.0529 29.5954 21.1932C29.9738 22.1103 30.4638 22.7227 30.8215 23.1696C30.9312 23.3066 31.0375 23.4394 31.1184 23.5555C30.4873 23.7374 29.3536 24.1579 29.4569 26.2593C29.3736 27.3137 28.7811 32.2505 28.4801 33.9947C28.0827 36.2991 27.2347 37.1573 24.8506 37.6686V37.6685ZM35.1683 25.8612C34.5229 26.1607 33.4429 26.3854 32.4169 26.4337C31.2837 26.4867 30.7068 26.3067 30.5711 26.196C30.5074 24.8864 30.9948 24.7496 31.5107 24.6048C31.5917 24.5821 31.6708 24.5598 31.7472 24.5331C31.7946 24.5718 31.8465 24.6101 31.9035 24.6477C32.8143 25.2488 34.4389 25.3136 36.7324 24.8402L36.7576 24.8352C36.4482 25.1244 35.9189 25.5126 35.1683 25.8612Z" fill="white"/>
</g>
<defs>
<clipPath id="clip0_3_2320">
<rect width="40" height="40" fill="white"/>
</clipPath>
</defs>
</svg>
