<svg width="40" height="40" viewBox="0 0 40 40" fill="none" xmlns="http://www.w3.org/2000/svg">
<g clip-path="url(#clip0_3_2617)">
<path d="M38.4328 29.2098C36.2982 30.3225 25.24 34.8692 22.8857 36.0965C20.5316 37.324 19.2237 37.3121 17.364 36.423C15.5042 35.5339 3.73637 30.7805 1.61661 29.7674C0.557049 29.2609 0 28.8336 0 28.4298V24.3867C0 24.3867 15.3202 21.0515 17.7935 20.1642C20.2667 19.2769 21.1249 19.2448 23.2296 20.0158C25.3345 20.7869 37.9198 23.0576 40 23.8195C40 23.8195 39.9991 27.4306 39.9991 27.8054C39.9994 28.2051 39.5194 28.6436 38.4328 29.2098Z" fill="#912626"/>
<path d="M38.432 25.1907C36.2975 26.3029 25.2397 30.8497 22.8855 32.0769C20.5314 33.3046 19.2236 33.2925 17.3639 32.4035C15.5041 31.515 3.73674 26.7608 1.61705 25.7482C-0.502631 24.7349 -0.547163 24.0375 1.53518 23.2222C3.61736 22.4066 15.3202 17.8152 17.7938 16.9279C20.2669 16.0408 21.1248 16.0085 23.2295 16.7797C25.3344 17.5507 36.3262 21.9258 38.4062 22.6875C40.4867 23.4502 40.5665 24.078 38.432 25.1907Z" fill="#C6302B"/>
<path d="M38.4328 22.6679C36.2982 23.7806 25.24 28.3273 22.8857 29.555C20.5316 30.7821 19.2237 30.7702 17.364 29.8811C15.5041 28.9925 3.73637 24.2386 1.61661 23.2254C0.557049 22.719 0 22.2921 0 21.8884V17.8448C0 17.8448 15.3202 14.5097 17.7935 13.6223C20.2667 12.7351 21.1249 12.7029 23.2296 13.4739C25.3345 14.245 37.9198 16.5152 40 17.2773C40 17.2773 39.9991 20.8883 39.9991 21.2637C39.9994 21.6632 39.5194 22.1016 38.4328 22.6679Z" fill="#912626"/>
<path d="M38.432 18.6486C36.2975 19.7611 25.2397 24.3077 22.8855 25.5353C20.5314 26.7625 19.2236 26.7505 17.3639 25.8614C15.5041 24.973 3.73674 20.2189 1.61705 19.2061C-0.502631 18.1931 -0.547163 17.4956 1.53518 16.68C3.61736 15.8648 15.3202 11.2731 17.7938 10.3859C20.2669 9.49876 21.1248 9.46657 23.2295 10.2377C25.3344 11.0086 36.3262 15.3834 38.4062 16.1455C40.4867 16.9078 40.5665 17.5361 38.432 18.6486Z" fill="#C6302B"/>
<path d="M38.4328 15.8832C36.2982 16.9959 25.24 21.5428 22.8857 22.7704C20.5316 23.9977 19.2237 23.9856 17.364 23.0966C15.5041 22.2079 3.73637 17.4539 1.61661 16.441C0.557049 15.9345 0 15.5074 0 15.104V11.0602C0 11.0602 15.3202 7.72529 17.7935 6.83807C20.2667 5.9507 21.1249 5.91867 23.2296 6.68963C25.3345 7.46075 37.9198 9.73098 40 10.493C40 10.493 39.9991 14.1041 39.9991 14.4793C39.9994 14.8785 39.5194 15.3169 38.4328 15.8832Z" fill="#912626"/>
<path d="M38.432 11.864C36.2975 12.9765 25.2397 17.5234 22.8855 18.7507C20.5314 19.9779 19.2236 19.9659 17.3639 19.0771C15.5042 18.1884 3.73674 13.4346 1.61705 12.4216C-0.502631 11.4087 -0.547163 10.711 1.53518 9.89555C3.61736 9.08024 15.3202 4.48899 17.7938 3.6015C20.2669 2.71415 21.1248 2.68228 23.2295 3.45337C25.3344 4.22446 36.3262 8.5993 38.4062 9.36133C40.4867 10.1232 40.5665 10.7515 38.432 11.864Z" fill="#C6302B"/>
<path d="M24.888 7.93086L21.4491 8.28791L20.6792 10.1403L19.4356 8.07318L15.4646 7.71628L18.4277 6.64776L17.5387 5.00745L20.3128 6.09241L22.9282 5.23613L22.2213 6.93225L24.888 7.93086Z" fill="white"/>
<path d="M20.4737 16.918L14.0554 14.256L23.2525 12.8444L20.4737 16.918Z" fill="white"/>
<path d="M11.5752 8.96045C14.2901 8.96045 16.4909 9.81363 16.4909 10.8659C16.4909 11.9183 14.2901 12.7713 11.5752 12.7713C8.86048 12.7713 6.65955 11.9183 6.65955 10.8659C6.65955 9.81363 8.86048 8.96045 11.5752 8.96045Z" fill="white"/>
<path d="M28.9523 8.43713L34.3954 10.5881L28.9569 12.737L28.9523 8.43713Z" fill="#621B1C"/>
<path d="M22.9304 10.8191L28.9523 8.43713L28.9569 12.737L28.3665 12.968L22.9304 10.8191Z" fill="#9A2928"/>
</g>
<defs>
<clipPath id="clip0_3_2617">
<rect width="40" height="40" fill="white"/>
</clipPath>
</defs>
</svg>
