<svg width="40" height="40" viewBox="0 0 40 40" fill="none" xmlns="http://www.w3.org/2000/svg">
<path d="M39.9567 23.8938C39.958 23.8944 39.9596 23.8951 39.9609 23.8956C39.9609 23.8956 39.9599 27.4994 39.9599 27.8737C39.9603 28.2723 39.481 28.7099 38.3968 29.2752C36.2662 30.3857 25.2295 34.9238 22.8802 36.1484C20.5303 37.3736 19.2252 37.3619 17.369 36.4743C15.5131 35.587 3.76809 30.8429 1.65262 29.8319C0.595044 29.3259 0.0391846 28.8997 0.0391846 28.4969C0.0391846 28.0949 0.0391846 24.4643 0.0391846 24.4617C0.0555908 24.8636 0.595435 25.2902 1.65262 25.7953C3.76809 26.8061 15.5127 31.5509 17.369 32.4378C19.2252 33.3254 20.5303 33.3371 22.8802 32.1123C25.2295 30.8873 36.2662 26.3492 38.3968 25.2388C39.4307 24.7001 39.9395 24.2755 39.9567 23.8938ZM0.0391846 15.0752C0.0391846 14.6891 0.0391846 11.3248 0.0391846 11.0581C0.0391846 11.0571 0.0391846 11.0563 0.0391846 11.0556C0.0391846 11.0461 0.0391846 11.0399 0.0391846 11.0396C0.0391846 11.0416 0.0403564 11.0437 0.0405127 11.0456C0.0346533 10.6478 0.541685 10.2735 1.57098 9.87047C3.64903 9.05649 15.3292 4.47414 17.7981 3.58852C20.2665 2.70289 21.1229 2.67086 23.2237 3.44063C25.3245 4.21016 36.2951 8.57657 38.3709 9.33735C39.4242 9.72305 39.9612 10.0747 39.959 10.4723C39.9596 10.4725 39.9604 10.4727 39.9609 10.473C39.9609 10.473 39.9599 14.0769 39.9599 14.4515C39.9603 14.8502 39.481 15.288 38.3968 15.8531C36.2662 16.9637 25.2295 21.5015 22.8802 22.7266C20.5303 23.9516 19.2252 23.9395 17.369 23.0522C15.5127 22.1652 3.76809 17.4207 1.65262 16.4096C0.595044 15.9039 0.0391846 15.4781 0.0391846 15.0752ZM23.5843 12.891L14.3331 14.3111L20.7908 16.9888L23.5843 12.891ZM29.3193 8.45703L23.2614 10.8531L28.73 13.0161L29.3225 12.7823L34.7938 10.6225L29.3193 8.45703ZM15.7507 7.73282L19.7447 8.09149L20.9968 10.1709L21.7717 8.30672L25.2295 7.94789L22.5469 6.94399L23.2594 5.23828L20.6271 6.09922L17.8372 5.00758L18.7314 6.65727L15.7507 7.73282ZM6.89528 10.9012C6.89528 11.9597 9.1091 12.8177 11.8397 12.8177C14.5706 12.8177 16.7843 11.9597 16.7843 10.9012C16.7843 9.84266 14.5706 8.98461 11.8397 8.98461C9.1091 8.98461 6.89528 9.84266 6.89528 10.9012ZM38.3968 18.6587C36.2662 19.7691 25.2295 24.307 22.8802 25.5324C20.5303 26.757 19.2252 26.745 17.369 25.8577C15.5127 24.9706 3.76809 20.2263 1.65262 19.2152C0.595435 18.71 0.0555908 18.2836 0.0391846 17.8816C0.0391846 17.8897 0.0391846 21.5155 0.0391846 21.917C0.0391846 22.3199 0.595044 22.7459 1.65262 23.2517C3.76809 24.2627 15.5127 29.0069 17.369 29.8939C19.2252 30.7815 20.5303 30.7932 22.8802 29.5687C25.2295 28.3435 36.2662 23.8057 38.3968 22.6949C39.481 22.13 39.9603 21.6923 39.9599 21.2934C39.9599 20.9191 39.9609 17.315 39.9609 17.315C39.9596 17.3145 39.958 17.3141 39.9567 17.3135C39.9395 17.6951 39.4307 18.1198 38.3968 18.6587Z" fill="#38383A"/>
</svg>
