<svg width="76" height="40" viewBox="0 0 76 40" fill="none" xmlns="http://www.w3.org/2000/svg">
<g clip-path="url(#clip0_3_2354)">
<path d="M29.1604 19.8761C28.1557 19.8761 27.3387 20.1736 26.7124 20.7679C26.0863 21.363 25.7686 22.1429 25.7686 23.0987C25.7686 23.5938 25.8474 24.0454 26.0028 24.4592C26.1583 24.8738 26.4003 25.2579 26.7255 25.6051C27.0507 25.9524 27.7018 26.4242 28.672 27.0242C29.8626 27.751 30.6417 28.3408 31.0156 28.8014C31.3897 29.2616 31.5755 29.7438 31.5755 30.2466C31.5755 30.9197 31.354 31.4572 30.8984 31.8611C30.4422 32.2652 29.832 32.4664 29.0757 32.4664C28.2778 32.4664 27.5827 32.1853 26.9859 31.6269C26.3891 31.0675 26.0878 30.3276 26.081 29.4003H25.7098V32.766H26.081C26.1944 32.4473 26.3511 32.2844 26.5563 32.2844C26.655 32.2844 26.8862 32.3523 27.2463 32.4795C28.1226 32.7914 28.8421 32.9417 29.4077 32.9417C30.3823 32.9417 31.2143 32.6005 31.9075 31.9067C32.5997 31.2133 32.9491 30.3768 32.9491 29.4003C32.9491 28.6432 32.7184 27.9694 32.2657 27.3823C31.8128 26.7943 30.9321 26.1104 29.6159 25.3251C28.4834 24.6446 27.7483 24.0905 27.4091 23.6585C27.0693 23.2271 26.8948 22.7499 26.8948 22.2263C26.8948 21.6599 27.1029 21.2049 27.5132 20.8656C27.9236 20.5261 28.4613 20.3579 29.1343 20.3579C29.8914 20.3579 30.5227 20.5826 31.0221 21.035C31.5211 21.488 31.8097 22.1159 31.8945 22.9228H32.2657V20.0065H31.9206C31.8783 20.1551 31.8393 20.2501 31.8033 20.2928C31.7684 20.3352 31.7013 20.3579 31.6015 20.3579C31.4815 20.3579 31.2675 20.3074 30.9635 20.2081C30.3125 19.9889 29.7123 19.8761 29.1602 19.8761H29.1604ZM41.2885 19.8761C40.0644 19.8761 38.9529 20.1648 37.9489 20.742C36.9432 21.3182 36.1471 22.1184 35.5597 23.1377C34.9724 24.1569 34.6808 25.2392 34.6808 26.3928C34.6808 27.9423 35.1881 29.323 36.2107 30.5331C37.2338 31.7424 38.4598 32.4959 39.8823 32.7856C40.2076 32.955 40.6728 33.3924 41.282 34.1006C41.9684 34.8997 42.5492 35.476 43.0267 35.8192C43.4935 36.1557 44.0125 36.4131 44.5629 36.581C45.1079 36.7468 45.6969 36.8284 46.3338 36.8284C47.1051 36.8284 47.7956 36.6942 48.4039 36.4182L48.2673 36.0796C47.9142 36.207 47.5376 36.2684 47.1411 36.2684C46.6027 36.2684 46.0588 36.0909 45.5135 35.7347C44.969 35.3773 44.2881 34.6958 43.4759 33.6904C43.0941 33.2088 42.8306 32.9048 42.6816 32.7856C44.2381 32.4816 45.5179 31.7273 46.5161 30.52C47.5139 29.3134 48.0133 27.9362 48.0133 26.3926C48.0133 24.5601 47.3613 23.0197 46.0669 21.7641C44.7713 20.5081 43.1782 19.8761 41.2885 19.8761ZM48.8597 19.8761L48.8792 20.2732C49.6942 20.2732 50.1508 20.5133 50.2529 20.9958C50.2909 21.1686 50.3082 21.4873 50.3113 21.9463L50.3049 30.7284C50.2981 31.3843 50.2047 31.803 50.025 31.9848C49.845 32.1652 49.5409 32.2783 49.1006 32.3233L49.081 32.7205H57.2055L57.414 30.7284H57.0428C56.9367 31.271 56.6939 31.6599 56.3072 31.8807C55.9194 32.1031 55.2338 32.2127 54.2435 32.2127H53.4753C52.5842 32.2127 52.0687 31.8905 51.9324 31.2426C51.9044 31.1145 51.8947 30.977 51.8934 30.8261L51.9258 21.9463C51.9258 21.2914 52.0084 20.8526 52.1799 20.6377C52.3529 20.4237 52.6652 20.304 53.1172 20.2732L53.0978 19.8761H48.8597ZM41.4186 20.3577C42.7994 20.3577 43.9266 20.9017 44.7974 21.9984C45.6679 23.0956 46.0994 24.5992 46.0994 26.5034C46.0994 28.3077 45.6617 29.7523 44.7844 30.839C43.907 31.9254 42.7395 32.4666 41.2885 32.4666C39.8946 32.4666 38.7641 31.9085 37.8967 30.787C37.0301 29.6654 36.6013 28.2093 36.6013 26.4187C36.6013 24.5788 37.0354 23.1059 37.9098 22.0049C38.7837 20.9052 39.9539 20.3579 41.4187 20.3579L41.4186 20.3577ZM60.1026 22.2458C59.9043 22.2458 59.7534 22.3127 59.6404 22.4476C59.5248 22.582 59.4893 22.7447 59.5296 22.9424C59.5687 23.1342 59.6769 23.3021 59.8487 23.4436C60.0195 23.585 60.2038 23.6585 60.402 23.6585C60.5936 23.6585 60.7398 23.585 60.8446 23.4436C60.9496 23.3022 60.9816 23.1342 60.9423 22.9424C60.9019 22.7447 60.7975 22.582 60.6364 22.4475C60.4733 22.3127 60.2942 22.2458 60.1026 22.2458ZM65.4602 23.5934C65.1235 24.8887 64.3937 25.5896 63.273 25.7026L63.286 26.0738H64.5945L64.5684 30.4615C64.5705 31.2117 64.5935 31.7111 64.6465 31.9654C64.7755 32.5738 65.1729 32.8833 65.8379 32.8833C66.8001 32.8833 67.8094 32.2971 68.865 31.1255L68.5461 30.8521C67.7839 31.6236 67.11 32.0109 66.5215 32.0109C66.1597 32.0109 65.9356 31.8029 65.8509 31.3924C65.8277 31.2927 65.8185 31.1762 65.8185 31.0408L65.8314 26.0738H67.83L67.8104 25.4812H65.8379V23.5934H65.4602ZM73.1877 25.2469C72.0697 25.2469 71.1605 25.7896 70.4535 26.868C69.7502 27.948 69.5325 29.1448 69.809 30.4615C69.9717 31.2327 70.2959 31.8304 70.792 32.2517C71.2873 32.6729 71.9157 32.8833 72.667 32.8833C73.3663 32.8833 74.3402 32.7061 74.7501 32.3493C75.1611 31.9929 75.5396 31.4152 75.8894 30.6243L75.6096 30.3312C75.0516 31.3575 73.926 31.8742 73.077 31.8742C71.9099 31.8742 71.1951 31.2338 70.9287 29.9602C70.8929 29.7882 70.8668 29.6143 70.8506 29.4393C72.2391 29.2196 73.2914 28.8303 74.0014 28.2676C74.7111 27.7046 75.4235 27.1077 75.2905 26.4773C75.2113 26.1026 75.0169 25.8081 74.7176 25.5855C74.4144 25.3629 73.6276 25.2469 73.1877 25.2469ZM60.9685 25.2925L58.5597 25.8459V26.2755L59.3929 26.1714C59.7965 26.1714 60.0341 26.3541 60.1091 26.7182C60.1342 26.84 60.1503 27.0113 60.1547 27.226L60.1285 31.1645C60.1219 31.7095 60.0613 32.0263 59.9398 32.1215C59.8171 32.2168 59.4937 32.2648 58.9698 32.2648L58.9568 32.6358H62.7781L62.7716 32.2647C62.2406 32.2647 61.8964 32.2228 61.7431 32.1409C61.5923 32.0599 61.4883 31.9119 61.4437 31.6854C61.409 31.5222 61.3939 31.2408 61.3915 30.8521L61.4046 25.2925H60.9684H60.9685ZM72.5758 26.0216C72.8084 26.0216 73.033 26.1115 73.2592 26.2885C73.4825 26.465 73.6185 26.6612 73.663 26.8744C73.881 27.9217 72.9526 28.6454 70.8636 29.0487C70.8041 28.2853 70.9363 27.592 71.2738 26.9656C71.6087 26.3396 72.0448 26.0216 72.5758 26.0216Z" fill="#003B57"/>
<path d="M23.7648 4.83899H3.03554C1.64616 4.83899 0.509521 5.97577 0.509521 7.36501V30.2256C0.509521 31.6148 1.64616 32.7516 3.03554 32.7516H16.6883C16.5333 25.9583 18.8531 12.7747 23.7648 4.83899Z" fill="#0F80CC"/>
<path d="M23.0117 5.57593H3.03552C2.04898 5.57593 1.24625 6.37851 1.24625 7.36521V28.5577C5.7704 26.8215 12.5606 25.3232 17.2556 25.3913C18.1992 20.4579 20.972 10.7898 23.0117 5.57593Z" fill="url(#paint0_linear_3_2354)"/>
<path d="M28.5999 4.09078C27.1802 2.82482 25.4612 3.33326 23.7648 4.83901C23.513 5.06259 23.2617 5.31078 23.0117 5.5759C20.1095 8.6547 17.4156 14.3573 16.5787 18.7127C16.9048 19.3739 17.1595 20.2175 17.3271 20.8621C17.3701 21.0273 17.4088 21.1826 17.4399 21.3146C17.5135 21.6271 17.5532 21.8296 17.5532 21.8296C17.5532 21.8296 17.5271 21.7312 17.4203 21.4216C17.4 21.3623 17.3773 21.2975 17.3505 21.2212C17.3365 21.1839 17.3216 21.1469 17.3057 21.1104C17.1165 20.6703 16.5928 19.7415 16.3623 19.337C16.1796 19.8729 16.0072 20.4122 15.8452 20.9547C16.5105 22.1721 16.916 24.2583 16.916 24.2583C16.916 24.2583 16.8808 24.1231 16.7136 23.6512C16.5651 23.2339 15.8259 21.9385 15.6508 21.6356C15.3512 22.7416 15.2322 23.4883 15.3395 23.67C15.548 24.0222 15.7464 24.6301 15.9208 25.3021C16.3145 26.8163 16.588 28.6598 16.588 28.6598C16.588 28.6598 16.5968 28.782 16.6118 28.9699C16.557 30.2415 16.5899 31.5599 16.6884 32.7515C16.8188 34.3289 17.0643 35.684 17.3773 36.4093L17.5898 36.2935C17.1303 34.8646 16.9435 32.9921 17.0253 30.8326C17.149 27.5318 17.9086 23.551 19.3121 19.402C21.6835 13.1388 24.9733 8.11356 27.9844 5.71362C25.2399 8.19221 21.5256 16.2149 20.4137 19.1858C19.1686 22.5128 18.2864 25.6347 17.7547 28.6259C18.6721 25.8216 21.6384 24.6164 21.6384 24.6164C21.6384 24.6164 23.0932 22.8221 24.7933 20.2586C23.775 20.4909 22.1027 20.8886 21.5425 21.124C20.7162 21.4705 20.4937 21.5888 20.4937 21.5888C20.4937 21.5888 23.1699 19.9589 25.4662 19.221C28.6241 14.2473 32.0646 7.18151 28.5999 4.09078Z" fill="#003B57"/>
</g>
<defs>
<linearGradient id="paint0_linear_3_2354" x1="1256.29" y1="52.5967" x2="1256.29" y2="2175.95" gradientUnits="userSpaceOnUse">
<stop stop-color="#97D9F6"/>
<stop offset="0.92024" stop-color="#0F80CC"/>
<stop offset="1" stop-color="#0F80CC"/>
</linearGradient>
<clipPath id="clip0_3_2354">
<rect width="75" height="40" fill="white" transform="translate(0.5)"/>
</clipPath>
</defs>
</svg>
