<svg width="76" height="40" viewBox="0 0 76 40" fill="none" xmlns="http://www.w3.org/2000/svg">
<g clip-path="url(#clip0_3_2349)">
<path d="M29.1604 20.1C28.1557 20.1 27.3387 20.3975 26.7124 20.9918C26.0863 21.5869 25.7686 22.3668 25.7686 23.3225C25.7686 23.8177 25.8474 24.2693 26.0028 24.683C26.1583 25.0977 26.4003 25.4818 26.7255 25.829C27.0507 26.1763 27.7018 26.648 28.672 27.2481C29.8626 27.9748 30.6417 28.5647 31.0156 29.0253C31.3897 29.4854 31.5755 29.9677 31.5755 30.4705C31.5755 31.1436 31.354 31.6811 30.8984 32.085C30.4422 32.4891 29.832 32.6903 29.0757 32.6903C28.2778 32.6903 27.5827 32.4091 26.9859 31.8508C26.3891 31.2914 26.0878 30.5515 26.081 29.6242H25.7098V32.9899H26.081C26.1944 32.6712 26.3511 32.5083 26.5563 32.5083C26.655 32.5083 26.8862 32.5762 27.2463 32.7034C28.1226 33.0152 28.8421 33.1656 29.4077 33.1656C30.3823 33.1656 31.2143 32.8243 31.9075 32.1306C32.5997 31.4372 32.9491 30.6007 32.9491 29.6242C32.9491 28.8671 32.7184 28.1933 32.2657 27.6062C31.8128 27.0182 30.9321 26.3343 29.6159 25.549C28.4834 24.8685 27.7483 24.3144 27.4091 23.8824C27.0693 23.451 26.8948 22.9737 26.8948 22.4501C26.8948 21.8838 27.1029 21.4288 27.5132 21.0895C27.9236 20.75 28.4613 20.5818 29.1343 20.5818C29.8914 20.5818 30.5227 20.8065 31.0221 21.2589C31.5211 21.7119 31.8097 22.3398 31.8945 23.1467H32.2657V20.2303H31.9206C31.8783 20.3789 31.8393 20.4739 31.8033 20.5167C31.7684 20.5591 31.7013 20.5818 31.6015 20.5818C31.4815 20.5818 31.2675 20.5312 30.9635 20.432C30.3125 20.2128 29.7123 20.1 29.1602 20.1H29.1604ZM41.2885 20.1C40.0644 20.1 38.9529 20.3887 37.9489 20.9659C36.9432 21.5421 36.1471 22.3423 35.5597 23.3616C34.9724 24.3808 34.6808 25.4631 34.6808 26.6167C34.6808 28.1662 35.1881 29.5469 36.2107 30.757C37.2338 31.9662 38.4598 32.7198 39.8823 33.0095C40.2076 33.1789 40.6728 33.6163 41.282 34.3245C41.9684 35.1235 42.5492 35.6999 43.0267 36.0431C43.4935 36.3796 44.0125 36.637 44.5629 36.8049C45.1079 36.9707 45.6969 37.0523 46.3338 37.0523C47.1051 37.0523 47.7956 36.9181 48.4039 36.6421L48.2673 36.3035C47.9142 36.4309 47.5376 36.4923 47.1411 36.4923C46.6027 36.4923 46.0588 36.3148 45.5135 35.9585C44.969 35.6012 44.2881 34.9197 43.4759 33.9143C43.0941 33.4327 42.8306 33.1286 42.6816 33.0095C44.2381 32.7055 45.5179 31.9512 46.5161 30.7439C47.5139 29.5373 48.0133 28.1601 48.0133 26.6165C48.0133 24.7839 47.3613 23.2436 46.0669 21.9879C44.7713 20.732 43.1782 20.1 41.2885 20.1ZM48.8597 20.1L48.8792 20.4971C49.6942 20.4971 50.1508 20.7372 50.2529 21.2197C50.2909 21.3924 50.3082 21.7112 50.3113 22.1701L50.3049 30.9523C50.2981 31.6082 50.2047 32.0269 50.025 32.2087C49.845 32.3891 49.5409 32.5022 49.1006 32.5471L49.081 32.9444H57.2055L57.414 30.9523H57.0428C56.9367 31.4949 56.6939 31.8838 56.3072 32.1045C55.9194 32.3269 55.2338 32.4365 54.2435 32.4365H53.4753C52.5842 32.4365 52.0687 32.1144 51.9324 31.4665C51.9044 31.3383 51.8947 31.2009 51.8934 31.0499L51.9258 22.1701C51.9258 21.5153 52.0084 21.0765 52.1799 20.8616C52.3529 20.6476 52.6652 20.5279 53.1172 20.4971L53.0978 20.1H48.8597ZM41.4186 20.5816C42.7994 20.5816 43.9266 21.1256 44.7974 22.2223C45.6679 23.3194 46.0994 24.8231 46.0994 26.7273C46.0994 28.5316 45.6617 29.9762 44.7844 31.0629C43.907 32.1493 42.7395 32.6905 41.2885 32.6905C39.8946 32.6905 38.7641 32.1324 37.8967 31.0109C37.0301 29.8893 36.6013 28.4332 36.6013 26.6426C36.6013 24.8026 37.0354 23.3297 37.9098 22.2288C38.7837 21.1291 39.9539 20.5818 41.4187 20.5818L41.4186 20.5816ZM60.1026 22.4697C59.9043 22.4697 59.7534 22.5366 59.6404 22.6715C59.5248 22.8058 59.4893 22.9686 59.5296 23.1663C59.5687 23.358 59.6769 23.5259 59.8487 23.6675C60.0195 23.8089 60.2038 23.8824 60.402 23.8824C60.5936 23.8824 60.7398 23.8089 60.8446 23.6675C60.9496 23.5261 60.9816 23.358 60.9423 23.1663C60.9019 22.9686 60.7975 22.8058 60.6364 22.6714C60.4733 22.5366 60.2942 22.4697 60.1026 22.4697ZM65.4602 23.8173C65.1235 25.1125 64.3937 25.8135 63.273 25.9265L63.286 26.2976H64.5945L64.5684 30.6854C64.5705 31.4356 64.5935 31.935 64.6465 32.1892C64.7755 32.7977 65.1729 33.1071 65.8379 33.1071C66.8001 33.1071 67.8094 32.5209 68.865 31.3494L68.5461 31.076C67.7839 31.8475 67.11 32.2347 66.5215 32.2347C66.1597 32.2347 65.9356 32.0268 65.8509 31.6163C65.8277 31.5166 65.8185 31.4001 65.8185 31.2647L65.8314 26.2976H67.83L67.8104 25.7051H65.8379V23.8173H65.4602ZM73.1877 25.4708C72.0697 25.4708 71.1605 26.0135 70.4535 27.0918C69.7502 28.1719 69.5325 29.3686 69.809 30.6854C69.9717 31.4566 70.2959 32.0543 70.792 32.4756C71.2873 32.8968 71.9157 33.1071 72.667 33.1071C73.3663 33.1071 74.3402 32.93 74.7501 32.5732C75.1611 32.2168 75.5396 31.6391 75.8894 30.8482L75.6096 30.5551C75.0516 31.5814 73.926 32.0981 73.077 32.0981C71.9099 32.0981 71.1951 31.4576 70.9287 30.184C70.8929 30.012 70.8668 29.8382 70.8506 29.6632C72.2391 29.4435 73.2914 29.0542 74.0014 28.4915C74.7111 27.9284 75.4235 27.3316 75.2905 26.7012C75.2113 26.3265 75.0169 26.0319 74.7176 25.8094C74.4144 25.5868 73.6276 25.4708 73.1877 25.4708ZM60.9685 25.5164L58.5597 26.0698V26.4994L59.3929 26.3953C59.7965 26.3953 60.0341 26.5779 60.1091 26.942C60.1342 27.0638 60.1503 27.2351 60.1547 27.4499L60.1285 31.3884C60.1219 31.9334 60.0613 32.2502 59.9398 32.3454C59.8171 32.4407 59.4937 32.4887 58.9698 32.4887L58.9568 32.8597H62.7781L62.7716 32.4885C62.2406 32.4885 61.8964 32.4467 61.7431 32.3648C61.5923 32.2838 61.4883 32.1358 61.4437 31.9092C61.409 31.746 61.3939 31.4647 61.3915 31.076L61.4046 25.5164H60.9684H60.9685ZM72.5758 26.2455C72.8084 26.2455 73.033 26.3353 73.2592 26.5124C73.4825 26.6888 73.6185 26.885 73.663 27.0983C73.881 28.1455 72.9526 28.8693 70.8636 29.2726C70.8041 28.5092 70.9363 27.8159 71.2738 27.1895C71.6087 26.5635 72.0448 26.2455 72.5758 26.2455Z" fill="#38383A"/>
<path d="M23.7648 5.06287H3.03554C1.64616 5.06287 0.509521 6.19965 0.509521 7.58889V30.4495C0.509521 31.8387 1.64616 32.9755 3.03554 32.9755H16.6883C16.5333 26.1822 18.8531 12.9985 23.7648 5.06287Z" fill="#38383A"/>
<path d="M23.0117 5.7998H3.03552C2.04898 5.7998 1.24625 6.60239 1.24625 7.58908V28.7816C5.7704 27.0453 12.5606 25.5471 17.2556 25.6152C18.1992 20.6818 20.972 11.0137 23.0117 5.7998Z" fill="#38383A"/>
<path d="M28.5999 4.31465C27.1802 3.0487 25.4612 3.55714 23.7648 5.06288C23.513 5.28647 23.2617 5.53465 23.0117 5.79978C20.1095 8.87858 17.4156 14.5812 16.5787 18.9366C16.9048 19.5977 17.1595 20.4414 17.3271 21.086C17.3701 21.2512 17.4088 21.4065 17.4399 21.5384C17.5135 21.851 17.5532 22.0535 17.5532 22.0535C17.5532 22.0535 17.5271 21.9551 17.4203 21.6455C17.4 21.5862 17.3773 21.5213 17.3505 21.4451C17.3365 21.4078 17.3216 21.3708 17.3057 21.3343C17.1165 20.8942 16.5928 19.9654 16.3623 19.5609C16.1796 20.0968 16.0072 20.6361 15.8452 21.1786C16.5105 22.396 16.916 24.4822 16.916 24.4822C16.916 24.4822 16.8808 24.347 16.7136 23.875C16.5651 23.4578 15.8259 22.1624 15.6508 21.8595C15.3512 22.9655 15.2322 23.7121 15.3395 23.8939C15.548 24.2461 15.7464 24.8539 15.9208 25.526C16.3145 27.0402 16.588 28.8836 16.588 28.8836C16.588 28.8836 16.5968 29.0059 16.6118 29.1938C16.557 30.4654 16.5899 31.7838 16.6884 32.9753C16.8188 34.5528 17.0643 35.9079 17.3773 36.6331L17.5898 36.5174C17.1303 35.0885 16.9435 33.216 17.0253 31.0565C17.149 27.7557 17.9086 23.7749 19.3121 19.6259C21.6835 13.3627 24.9733 8.33743 27.9844 5.93749C25.2399 8.41609 21.5256 16.4388 20.4137 19.4097C19.1686 22.7366 18.2864 25.8586 17.7547 28.8498C18.6721 26.0455 21.6384 24.8402 21.6384 24.8402C21.6384 24.8402 23.0932 23.0459 24.7933 20.4825C23.775 20.7148 22.1027 21.1125 21.5425 21.3478C20.7162 21.6944 20.4937 21.8127 20.4937 21.8127C20.4937 21.8127 23.1699 20.1828 25.4662 19.4449C28.6241 14.4712 32.0646 7.40538 28.5999 4.31465Z" fill="#38383A"/>
</g>
<defs>
<clipPath id="clip0_3_2349">
<rect width="75" height="40" fill="white" transform="translate(0.5)"/>
</clipPath>
</defs>
</svg>
