<svg width="40" height="40" viewBox="0 0 40 40" fill="none" xmlns="http://www.w3.org/2000/svg">
<g clip-path="url(#clip0_3_2484)">
<path d="M23.2593 39.0386C22.2471 40.3133 20.1947 39.6149 20.1704 37.9873L19.8137 14.1815H35.8207C38.72 14.1815 40.337 17.5302 38.5341 19.8009L23.2593 39.0386Z" fill="#38383A"/>
<path d="M23.2593 39.0386C22.2471 40.3133 20.1947 39.6149 20.1704 37.9873L19.8137 14.1815H35.8207C38.72 14.1815 40.337 17.5302 38.5341 19.8009L23.2593 39.0386Z" fill="#38383A"/>
<path d="M16.7494 0.733061C17.7616 -0.541771 19.814 0.156745 19.8384 1.78438L19.9946 25.5901H4.18799C1.28861 25.5901 -0.328426 22.2414 1.47449 19.9707L16.7494 0.733061Z" fill="#38383A"/>
</g>
<defs>
<clipPath id="clip0_3_2484">
<rect width="40" height="40" fill="white"/>
</clipPath>
</defs>
</svg>
