<svg width="40" height="40" viewBox="0 0 40 40" fill="none" xmlns="http://www.w3.org/2000/svg">
<g clip-path="url(#clip0_3_2466)">
<circle cx="20" cy="19.9886" r="20" fill="white"/>
<path d="M17.3343 17.9171L17.3323 14.6211C17.3323 14.4249 17.2545 14.2367 17.1157 14.0979L14.2623 11.2391L12.2717 13.4353L16.9238 18.0871C17.0754 18.2387 17.3345 18.1311 17.3345 17.9168L17.3343 17.9171Z" fill="#38383A"/>
<path d="M11.031 25.8634L5.42365 20.2682L3.41968 22.4451L10.8374 29.8557C10.989 30.007 11.2479 29.8997 11.2479 29.6854V26.3869C11.2479 26.1904 11.1699 26.0022 11.031 25.8634Z" fill="#38383A"/>
<path d="M18.5804 0.0368219C8.47293 0.73506 0.395147 9.10137 0.0145226 19.2257C-0.356978 29.1108 6.44065 37.4745 15.6184 39.5262L3.38283 27.2889C3.20749 27.1136 3.10912 26.8755 3.10969 26.6275L3.11882 22.6741C3.1191 22.509 3.31897 22.4263 3.43558 22.5432L5.44818 20.357C5.32187 20.2307 5.32187 20.0257 5.44818 19.8997L7.38409 17.9683C7.51039 17.8423 7.71482 17.8426 7.84084 17.9683L14.3813 24.5088C14.6593 24.7868 14.8152 25.1637 14.8152 25.5566V32.3807C14.8152 33.3638 15.2058 34.3067 15.9009 35.0018L20.8878 39.9887C22.1546 39.9345 23.3894 39.7611 24.5834 39.4812L18.2659 33.1617C17.9535 32.8492 17.7778 32.4252 17.7778 31.9833V25.3887C17.7778 24.3075 17.3485 23.2706 16.5838 22.5062L9.94553 15.8679C9.81923 15.7416 9.81923 15.5366 9.94582 15.4103L11.8683 13.4938C11.9946 13.3678 12.1991 13.3681 12.3251 13.4941L14.3243 11.2885C14.2869 11.2457 14.2516 11.1989 14.2162 11.1505C13.6454 10.3801 13.2984 9.10964 13.703 7.67696C13.9454 6.75975 14.4486 6.06807 15.3763 5.22756C15.4579 5.15372 15.5865 5.15001 15.6694 5.22186L18.0724 7.30375L18.5456 7.71459C18.7275 7.87226 18.9448 7.98402 19.1789 8.03962L26.6707 9.82043C26.7583 9.84095 26.8387 9.88572 26.902 9.9473L34.5974 17.6242C34.7317 17.7528 34.8081 17.9321 34.8081 18.1186V19.7509C34.8081 20.0018 34.7448 20.249 34.6239 20.4688L30.8157 27.4072C30.6498 27.7112 30.2783 27.8383 29.9612 27.7001L28.2058 26.9351H21.7902C21.3779 26.9351 21.0441 27.2693 21.0441 27.6812V30.5418C21.0441 30.9355 21.1997 31.3136 21.4772 31.593L28.122 38.2885C35.1197 35.1731 40 28.1548 40 19.9966C40 8.47498 30.2674 -0.771469 18.5793 0.0359666L18.5804 0.0368219Z" fill="#38383A"/>
</g>
<defs>
<clipPath id="clip0_3_2466">
<rect width="40" height="39.9756" fill="white"/>
</clipPath>
</defs>
</svg>
