<svg width="40" height="41" viewBox="0 0 40 41" fill="none" xmlns="http://www.w3.org/2000/svg">
<g clip-path="url(#clip0_3_2474)">
<circle cx="20" cy="20.9642" r="20" fill="#38383A"/>
<path d="M17.3343 18.8926L17.3323 15.5967C17.3323 15.4005 17.2545 15.2123 17.1157 15.0735L14.2623 12.2147L12.2717 14.4109L16.9238 19.0627C17.0754 19.2143 17.3345 19.1067 17.3345 18.8924L17.3343 18.8926Z" fill="#F5FF80"/>
<path d="M11.031 26.8389L5.42365 21.2438L3.41968 23.4206L10.8374 30.8313C10.989 30.9826 11.2479 30.8753 11.2479 30.661V27.3624C11.2479 27.166 11.1699 26.9778 11.031 26.8389Z" fill="#F5FF80"/>
<path d="M18.5804 1.01241C8.47293 1.71065 0.395147 10.077 0.0145226 20.2013C-0.356978 30.0864 6.44065 38.4501 15.6184 40.5018L3.38283 28.2645C3.20749 28.0892 3.10912 27.8511 3.10969 27.6031L3.11882 23.6497C3.1191 23.4846 3.31897 23.4019 3.43558 23.5188L5.44818 21.3326C5.32187 21.2063 5.32187 21.0013 5.44818 20.8753L7.38409 18.9439C7.51039 18.8179 7.71482 18.8182 7.84084 18.9439L14.3813 25.4844C14.6593 25.7624 14.8152 26.1393 14.8152 26.5322V33.3563C14.8152 34.3394 15.2058 35.2823 15.9009 35.9774L20.8878 40.9642C22.1546 40.9101 23.3894 40.7367 24.5834 40.4567L18.2659 34.1372C17.9535 33.8248 17.7778 33.4008 17.7778 32.9589V26.3642C17.7778 25.2831 17.3485 24.2462 16.5838 23.4818L9.94553 16.8435C9.81923 16.7172 9.81923 16.5122 9.94582 16.3859L11.8683 14.4694C11.9946 14.3434 12.1991 14.3437 12.3251 14.4697L14.3243 12.2641C14.2869 12.2213 14.2516 12.1745 14.2162 12.1261C13.6454 11.3557 13.2984 10.0852 13.703 8.65254C13.9454 7.73534 14.4486 7.04366 15.3763 6.20315C15.4579 6.12931 15.5865 6.1256 15.6694 6.19745L18.0724 8.27933L18.5456 8.69018C18.7275 8.84784 18.9448 8.95961 19.1789 9.01521L26.6707 10.796C26.7583 10.8165 26.8387 10.8613 26.902 10.9229L34.5974 18.5998C34.7317 18.7284 34.8081 18.9077 34.8081 19.0942V20.7264C34.8081 20.9773 34.7448 21.2245 34.6239 21.4444L30.8157 28.3828C30.6498 28.6868 30.2783 28.8139 29.9612 28.6756L28.2058 27.9107H21.7902C21.3779 27.9107 21.0441 28.2448 21.0441 28.6568V31.5174C21.0441 31.9111 21.1997 32.2891 21.4772 32.5686L28.122 39.2641C35.1197 36.1487 40 29.1304 40 20.9722C40 9.45057 30.2674 0.204116 18.5793 1.01155L18.5804 1.01241Z" fill="#F5FF80"/>
</g>
<defs>
<clipPath id="clip0_3_2474">
<rect width="40" height="39.9756" fill="white" transform="translate(0 0.975586)"/>
</clipPath>
</defs>
</svg>
