<svg width="40" height="40" viewBox="0 0 40 40" fill="none" xmlns="http://www.w3.org/2000/svg">
<path d="M37.3204 29.9999C37.5993 29.5168 37.7726 28.9725 37.7726 28.4837V11.5162C37.7726 11.0274 37.5995 10.4832 37.3205 10.0001L20 20L37.3204 29.9999Z" fill="#00599C"/>
<path d="M21.5391 39.6333L36.2334 31.1496C36.6567 30.9052 37.0415 30.4832 37.3204 29.9999L20 20L2.67957 30.0001C2.95847 30.4832 3.34331 30.9053 3.76648 31.1496L18.4608 39.6333C19.3073 40.1221 20.6926 40.1221 21.5391 39.6333Z" fill="#004482"/>
<path d="M37.3205 9.99994C37.0415 9.51671 36.6566 9.0947 36.2335 8.8503L21.5391 0.366604C20.6926 -0.122201 19.3073 -0.122201 18.4608 0.366604L3.76649 8.8503C2.91991 9.33899 2.22736 10.5387 2.22736 11.5162V28.4837C2.22736 28.9725 2.40055 29.5168 2.67957 29.9999L20 20L37.3205 9.99994Z" fill="#659AD2"/>
<path d="M20 31.8484C13.4667 31.8484 8.15155 26.5333 8.15155 20C8.15155 13.4668 13.4667 8.15161 20 8.15161C24.2157 8.15161 28.1474 10.4202 30.2606 14.0721L25.1329 17.0393C24.0752 15.2114 22.1083 14.0758 20 14.0758C16.7333 14.0758 14.0758 16.7333 14.0758 20C14.0758 23.2666 16.7333 25.9242 20 25.9242C22.1085 25.9242 24.0755 24.7886 25.1332 22.9604L30.2609 25.9275C28.1477 29.5797 24.2159 31.8484 20 31.8484Z" fill="white"/>
<path d="M31.8484 19.3417H30.5318V18.0253H29.2155V19.3417H27.8989V20.6582H29.2155V21.9747H30.5318V20.6582H31.8484V19.3417Z" fill="white"/>
<path d="M36.7852 19.3417H35.4687V18.0253H34.1523V19.3417H32.8358V20.6582H34.1523V21.9747H35.4687V20.6582H36.7852V19.3417Z" fill="white"/>
</svg>
