<svg width="40" height="40" viewBox="0 0 40 40" fill="none" xmlns="http://www.w3.org/2000/svg">
<g clip-path="url(#clip0_2_746)">
<path d="M37.3244 10.0025C37.0443 9.52238 36.6642 9.09227 36.2341 8.85221L21.5404 0.370094C20.6902 -0.120028 19.3099 -0.120028 18.4596 0.370094L3.76597 8.85221C2.91576 9.34234 2.22559 10.5426 2.22559 11.5229V28.4871C2.22559 28.9772 2.39563 29.5274 2.6757 30.0075C2.95577 30.4876 3.33586 30.9177 3.76597 31.1578L18.4596 39.6399C19.3099 40.13 20.6902 40.13 21.5404 39.6399L36.2341 31.1578C36.6642 30.9177 37.0443 30.4876 37.3244 30.0075C37.6044 29.5274 37.7745 28.9772 37.7745 28.4871V11.5229C37.7745 11.0328 37.6044 10.4826 37.3244 10.0025ZM20 31.858C13.4684 31.858 8.14707 26.5366 8.14707 20.005C8.14707 13.4734 13.4684 8.15204 20 8.15204C24.2111 8.15204 28.1521 10.4226 30.2626 14.0735L25.1313 17.0443C24.071 15.2138 22.1106 14.0835 20 14.0835C16.7292 14.0835 14.0785 16.7442 14.0785 20.005C14.0785 23.2658 16.7392 25.9265 20 25.9265C22.1106 25.9265 24.071 24.7862 25.1313 22.9657L30.2626 25.9365C28.1521 29.5874 24.2211 31.858 20 31.858ZM31.853 20.6652H30.5327V21.9855H29.2123V20.6652H27.892V19.3448H29.2123V18.0245H30.5327V19.3448H31.853V20.6652ZM36.7942 20.6652H35.4739V21.9855H34.1536V20.6652H32.8332V19.3448H34.1536V18.0245H35.4739V19.3448H36.7942V20.6652Z" fill="#38383A"/>
</g>
<defs>
<clipPath id="clip0_2_746">
<rect width="40" height="40" fill="white"/>
</clipPath>
</defs>
</svg>
