<svg width="70" height="40" viewBox="0 0 70 40" fill="none" xmlns="http://www.w3.org/2000/svg">
<g clip-path="url(#clip0_2_671)">
<path fill-rule="evenodd" clip-rule="evenodd" d="M70.0072 31.011C70.0072 33.1589 68.2661 34.9 66.1182 34.9H3.88176C1.73393 34.9 -0.00723267 33.1589 -0.00723267 31.011V8.78902C-0.00723267 6.64118 1.73393 4.90002 3.88176 4.90002H66.1182C68.2661 4.90002 70.0072 6.64118 70.0072 8.78902V31.011ZM12.0688 9.61115H15.3844V24.9582C13.6836 25.2812 12.4348 25.4103 11.0785 25.4103C7.03088 25.4103 4.92096 23.5806 4.92096 20.0709C4.92096 16.6908 7.16019 14.4948 10.6264 14.4948C11.1646 14.4948 11.5736 14.5379 12.0689 14.6668L12.0688 9.61115ZM12.0688 17.3364C11.6813 17.2073 11.3584 17.1643 10.9493 17.1643C9.26997 17.1643 8.30105 18.1978 8.30105 20.006C8.30105 21.7718 9.22691 22.7405 10.9278 22.7405C11.2936 22.7405 11.5952 22.719 12.0688 22.6547V17.3364ZM20.659 22.4177V14.7313H17.3435V21.2763C17.3435 24.1613 17.1927 25.2596 16.7189 26.2067C16.2668 27.133 15.5564 27.7354 14.0923 28.4243L17.1712 29.8884C18.6351 29.1563 19.3457 28.4892 19.884 27.4341C20.4653 26.3359 20.659 25.0657 20.659 22.4177ZM20.659 9.62877H17.3435V13.0307H20.659V9.62877ZM22.6617 15.4849C24.1259 14.7959 25.5253 14.4946 27.0539 14.4946C28.7548 14.4946 29.8743 14.9467 30.3696 15.8295C30.6493 16.3245 30.7354 16.9704 30.7354 18.3486V25.0873C29.2497 25.3028 27.3767 25.4534 25.9989 25.4534C23.2216 25.4534 21.9727 24.4843 21.9727 22.3316C21.9727 20.006 23.6305 18.9297 27.6998 18.585V17.8529C27.6998 17.2502 27.3984 17.0351 26.5586 17.0351C25.3315 17.0351 23.9536 17.3794 22.6616 18.0469V15.4849H22.6617ZM27.8505 20.7598C25.6543 20.9753 24.9439 21.3197 24.9439 22.1808C24.9439 22.8267 25.3531 23.1282 26.2572 23.1282C26.7525 23.1282 27.2045 23.085 27.8505 22.9776V20.7598ZM37.5605 14.4946C35.9242 14.4946 34.3094 14.7313 32.3503 15.2482L32.3505 25.281H35.666V17.4011C36.3336 17.2073 36.7427 17.1641 37.1948 17.1641C38.3788 17.1641 38.8094 17.638 38.8094 18.9082V25.2812H42.1249V18.7792C42.1249 17.1209 41.9098 16.3459 41.2209 15.6358C40.4886 14.8818 39.2614 14.4946 37.5605 14.4946ZM43.4139 27.0897C44.5767 27.6923 45.7392 27.9722 46.9663 27.9722C49.1407 27.9722 50.0665 27.0897 50.0665 24.9796V24.9148C49.4207 25.2378 48.7747 25.3671 47.9137 25.3671C45.0071 25.3671 43.1552 23.4508 43.1552 20.4153C43.1552 16.6474 45.8898 14.5161 50.7338 14.5161C52.1549 14.5161 53.4683 14.6667 55.0615 14.9893L53.9262 17.3813C53.8011 17.3569 53.7101 17.339 53.644 17.3259C53.5022 17.2979 53.4756 17.2927 53.4749 17.2951C53.4747 17.2957 53.4759 17.2966 53.4774 17.2978C53.4877 17.306 53.5112 17.3248 53.1884 17.2936V17.638L53.2313 19.0372L53.2527 20.8459C53.2635 21.0711 53.2689 21.2964 53.2742 21.5218V21.5219C53.2797 21.7486 53.2851 21.9754 53.2959 22.202V23.1065C53.2959 25.9485 53.0591 27.2834 52.3487 28.3812C51.3152 29.9961 49.5282 30.7927 46.9877 30.7927C45.6959 30.7927 44.5765 30.5988 43.4137 30.1467L43.4139 27.0897ZM50.0021 17.1858H49.8946H49.6576C49.0119 17.1643 48.2584 17.3363 47.7415 17.6593C46.9451 18.1116 46.5357 18.9296 46.5357 20.0924C46.5357 21.7504 47.3541 22.6975 48.818 22.6975C49.2701 22.6975 49.6362 22.6114 50.0667 22.4822V22.2454V21.3412C50.0667 21.1549 50.0617 20.9585 50.0566 20.7547C50.0511 20.5345 50.0453 20.3055 50.0453 20.0709L50.0239 18.5422L50.0022 17.4443V17.1858H50.0021ZM65.5482 19.92C65.5482 16.5402 63.5242 14.4517 60.2087 14.4517C56.8286 14.4517 54.7186 16.6259 54.7184 20.1141C54.7184 23.4725 56.7638 25.5609 60.0796 25.5609C63.4384 25.5609 65.5482 23.3864 65.5482 19.92ZM62.1679 20.006C62.1679 21.8362 61.4143 22.8912 60.1439 22.8912C58.8523 22.8912 58.0987 21.8363 58.0985 20.006C58.0985 18.1764 58.8523 17.1211 60.1658 17.1211C61.4358 17.1211 62.1679 18.1978 62.1679 20.006Z" fill="#38383A"/>
</g>
<defs>
<clipPath id="clip0_2_671">
<rect width="70" height="40" fill="white"/>
</clipPath>
</defs>
</svg>
