<svg width="70" height="40" viewBox="0 0 70 40" fill="none" xmlns="http://www.w3.org/2000/svg">
<g clip-path="url(#clip0_2_682)">
<path d="M70.0072 31.011C70.0072 33.1589 68.2661 34.9 66.1182 34.9H3.88176C1.73393 34.9 -0.00723267 33.1589 -0.00723267 31.011V8.78902C-0.00723267 6.64118 1.73393 4.90002 3.88176 4.90002H66.1182C68.2661 4.90002 70.0072 6.64118 70.0072 8.78902V31.011Z" fill="#092E20"/>
<path d="M12.0688 9.61115H15.3844V24.9582C13.6836 25.2812 12.4348 25.4103 11.0785 25.4103C7.03088 25.4103 4.92096 23.5806 4.92096 20.0709C4.92096 16.6908 7.16019 14.4948 10.6264 14.4948C11.1646 14.4948 11.5736 14.5379 12.0689 14.6668L12.0688 9.61115ZM12.0688 17.3364C11.6813 17.2073 11.3584 17.1643 10.9493 17.1643C9.26997 17.1643 8.30105 18.1978 8.30105 20.006C8.30105 21.7718 9.22691 22.7405 10.9278 22.7405C11.2936 22.7405 11.5952 22.719 12.0688 22.6547V17.3364Z" fill="white"/>
<path d="M20.659 14.7313V22.4178C20.659 25.0657 20.4653 26.3359 19.884 27.4341C19.3457 28.4892 18.6351 29.1563 17.1712 29.8884L14.0923 28.4243C15.5564 27.7354 16.2668 27.133 16.7189 26.2067C17.1927 25.2596 17.3435 24.1613 17.3435 21.2763V14.7313H20.659ZM17.3435 9.62878H20.659V13.0307H17.3435V9.62878Z" fill="white"/>
<path d="M22.6617 15.4849C24.1259 14.7959 25.5253 14.4946 27.0539 14.4946C28.7548 14.4946 29.8743 14.9467 30.3696 15.8295C30.6493 16.3245 30.7354 16.9704 30.7354 18.3486V25.0873C29.2497 25.3028 27.3767 25.4534 25.9989 25.4534C23.2216 25.4534 21.9727 24.4843 21.9727 22.3317C21.9727 20.006 23.6305 18.9298 27.6998 18.585V17.8529C27.6998 17.2503 27.3984 17.0351 26.5586 17.0351C25.3315 17.0351 23.9536 17.3794 22.6616 18.0469V15.4849H22.6617ZM27.8505 20.7598C25.6543 20.9754 24.9439 21.3197 24.9439 22.1808C24.9439 22.8267 25.3531 23.1282 26.2572 23.1282C26.7525 23.1282 27.2045 23.085 27.8505 22.9776V20.7598Z" fill="white"/>
<path d="M32.3503 15.2483C34.3094 14.7313 35.9242 14.4946 37.5605 14.4946C39.2614 14.4946 40.4886 14.8819 41.2209 15.6358C41.9098 16.3459 42.1249 17.121 42.1249 18.7792V25.2812H38.8094V18.9082C38.8094 17.638 38.3788 17.1641 37.1948 17.1641C36.7427 17.1641 36.3336 17.2073 35.666 17.4011V25.281H32.3505L32.3503 15.2483Z" fill="white"/>
<path d="M43.4138 27.0897C44.5766 27.6923 45.7392 27.9722 46.9663 27.9722C49.1407 27.9722 50.0665 27.0897 50.0665 24.9796C50.0665 24.9582 50.0665 24.9365 50.0665 24.9147C49.4207 25.2378 48.7747 25.3671 47.9137 25.3671C45.0071 25.3671 43.1552 23.4508 43.1552 20.4153C43.1552 16.6474 45.8897 14.5161 50.7338 14.5161C52.1549 14.5161 53.4683 14.6667 55.0615 14.9893L53.9262 17.3813C53.0434 17.209 53.8555 17.3581 53.1884 17.2936V17.638L53.2313 19.0372L53.2527 20.8459C53.2742 21.2977 53.2742 21.7501 53.2959 22.202C53.2959 22.6111 53.2959 22.8051 53.2959 23.1065C53.2959 25.9485 53.0591 27.2834 52.3487 28.3812C51.3152 29.9961 49.5282 30.7927 46.9877 30.7927C45.6958 30.7927 44.5765 30.5988 43.4137 30.1467L43.4138 27.0897ZM50.0021 17.1858C49.959 17.1858 49.9161 17.1858 49.8946 17.1858H49.6576C49.0119 17.1642 48.2584 17.3363 47.7415 17.6593C46.945 18.1116 46.5357 18.9296 46.5357 20.0924C46.5357 21.7503 47.3541 22.6975 48.818 22.6975C49.2701 22.6975 49.6362 22.6113 50.0667 22.4822V22.2454V21.3412C50.0667 20.9537 50.0453 20.5228 50.0453 20.0708L50.0239 18.5422L50.0022 17.4443V17.1858H50.0021Z" fill="white"/>
<path d="M60.2087 14.4517C63.5242 14.4517 65.5482 16.5402 65.5482 19.92C65.5482 23.3864 63.4384 25.5609 60.0796 25.5609C56.7638 25.5609 54.7184 23.4725 54.7184 20.114C54.7186 16.6259 56.8286 14.4517 60.2087 14.4517ZM60.1439 22.8912C61.4143 22.8912 62.168 21.8362 62.168 20.006C62.168 18.1977 61.4359 17.121 60.1658 17.121C58.8523 17.121 58.0985 18.1763 58.0985 20.006C58.0987 21.8363 58.8523 22.8912 60.1439 22.8912Z" fill="white"/>
</g>
<defs>
<clipPath id="clip0_2_682">
<rect width="70" height="40" fill="white"/>
</clipPath>
</defs>
</svg>
