<svg width="40" height="40" viewBox="0 0 40 40" fill="none" xmlns="http://www.w3.org/2000/svg">
<path d="M39.7832 8.79997H39.1032C38.2624 8.79997 37.4704 9.19197 36.9592 9.85917L29.9992 18.9608L23.0392 9.85917C22.5296 9.19197 21.7368 8.79997 20.8968 8.79997H20.2168L28.9936 20.2768L20.0288 32H20.7088C21.5496 32 22.3416 31.608 22.852 30.9408L30 21.5936L37.148 30.9408C37.6584 31.608 38.4504 32 39.2912 32H39.9712L31.0064 20.2768L39.7832 8.79997ZM17.0312 27.3936C14.988 30.4984 10.9656 32.0896 7.12 30.6864C3.7368 29.452 1.6 26.0888 1.6 22.4872V21.6H11.2H20V18.2928C20 13.0888 16.1456 8.53277 10.964 8.04557C5.0184 7.48638 0 12.168 0 18V22.4584C0 26.7552 2.572 30.7496 6.6152 32.2048C11.8976 34.1056 17.4536 31.2688 19.332 26.4H18.8216C18.0928 26.4 17.4312 26.7848 17.0312 27.3936ZM1.6 18C1.6 13.368 5.368 9.59997 10 9.59997C14.632 9.59997 18.4 13.368 18.4 18V20H1.6V18Z" fill="black"/>
</svg>
