<svg width="40" height="40" viewBox="0 0 40 40" fill="none" xmlns="http://www.w3.org/2000/svg">
<g clip-path="url(#clip0_2_698)">
<path d="M14.5275 30.925C14.5275 30.925 12.99 31.86 15.5963 32.1275C18.7338 32.5275 20.405 32.4613 23.8775 31.7938C24.5754 32.2212 25.3135 32.5791 26.0813 32.8625C18.2688 36.2025 8.38252 32.6625 14.5275 30.925ZM13.5275 26.5838C13.5275 26.5838 11.8575 27.8525 14.4625 28.1213C17.8688 28.455 20.54 28.5213 25.15 27.5875C25.5984 28.0422 26.1473 28.3852 26.7525 28.5888C17.335 31.3938 6.78252 28.855 13.5275 26.5838ZM31.9613 34.1963C31.9613 34.1963 33.0963 35.1313 30.6925 35.8663C26.2175 37.2038 11.925 37.6038 7.91752 35.8663C6.51502 35.2663 9.18627 34.3975 10.0425 34.2638C10.9113 34.0638 11.38 34.0638 11.38 34.0638C9.84252 32.995 1.16127 36.2675 6.97252 37.2013C22.935 39.8063 36.0925 36.0663 31.9513 34.1963H31.9613ZM15.25 22.0413C15.25 22.0413 7.97002 23.7788 12.645 24.3788C14.6488 24.6463 18.5888 24.5788 22.2625 24.3125C25.2675 24.045 28.275 23.5125 28.275 23.5125C28.275 23.5125 27.2063 23.98 26.4713 24.4475C19.0588 26.385 4.83127 25.5163 8.90627 23.5125C12.3788 21.8425 15.2513 22.0438 15.2513 22.0438L15.25 22.0413ZM28.275 29.3213C35.755 25.4463 32.2825 21.7088 29.8775 22.175C29.2775 22.3088 29.0088 22.4425 29.0088 22.4425C29.0088 22.4425 29.2088 22.0425 29.6763 21.9088C34.4188 20.2388 38.1588 26.9175 28.1388 29.5213C28.1388 29.5213 28.205 29.455 28.2725 29.3213H28.275ZM15.9875 39.8738C23.2 40.3413 34.2213 39.6063 34.4875 36.1988C34.4875 36.1988 33.9538 37.5363 28.5438 38.5363C22.3988 39.6713 14.785 39.5363 10.31 38.8038C10.31 38.8038 11.245 39.605 15.9875 39.8738Z" fill="#4E7896"/>
<path d="M23.745 0.0012207C23.745 0.0012207 27.8862 4.20872 19.805 10.5537C13.3262 15.6962 18.3362 18.635 19.805 21.975C15.9975 18.5687 13.26 15.5625 15.13 12.7587C17.8675 8.61622 25.415 6.62497 23.745 0.0012207ZM21.62 19.17C23.5575 21.3737 21.0862 23.3775 21.0862 23.3775C21.0862 23.3775 26.0287 20.84 23.7575 17.7C21.6875 14.695 20.0825 13.225 28.7662 8.21622C28.7662 8.21622 15.075 11.6225 21.62 19.17Z" fill="#F58219"/>
</g>
<defs>
<clipPath id="clip0_2_698">
<rect width="40" height="40" fill="white"/>
</clipPath>
</defs>
</svg>
