<svg width="40" height="40" viewBox="0 0 40 40" fill="none" xmlns="http://www.w3.org/2000/svg">
<g clip-path="url(#clip0_2_634)">
<path fill-rule="evenodd" clip-rule="evenodd" d="M38.9431 8.89529C38.9572 8.94771 38.9645 9.00175 38.9646 9.05605V17.4961C38.9646 17.6044 38.936 17.7108 38.8817 17.8045C38.8274 17.8983 38.7494 17.976 38.6554 18.0299L31.5715 22.1084V30.1922C31.5715 30.4122 31.4546 30.6153 31.2638 30.7261L16.4769 39.2384C16.4431 39.2576 16.4061 39.2699 16.3692 39.283C16.3554 39.2876 16.3423 39.2961 16.3277 39.2999C16.2243 39.3271 16.1157 39.3271 16.0123 39.2999C15.9954 39.2953 15.98 39.2861 15.9638 39.2799C15.93 39.2676 15.8946 39.2568 15.8623 39.2384L1.07846 30.7261C0.984539 30.6721 0.906504 30.5943 0.852214 30.5006C0.797925 30.4069 0.7693 30.3005 0.769226 30.1922L0.769226 4.87221C0.769226 4.81682 0.776918 4.76298 0.790765 4.71067C0.79538 4.69298 0.806149 4.67682 0.812303 4.65913C0.823841 4.62682 0.834611 4.59375 0.851534 4.56375C0.863072 4.54375 0.879995 4.52759 0.893841 4.50913C0.911534 4.48452 0.927688 4.45913 0.948457 4.43759C0.966149 4.4199 0.989226 4.40682 1.00923 4.39144C1.03153 4.37298 1.05153 4.35298 1.07692 4.33836L8.47 0.0822086C8.5636 0.0283475 8.6697 0 8.77769 0C8.88568 0 8.99178 0.0283475 9.08538 0.0822086L16.4777 4.33836H16.4792C16.5038 4.35375 16.5246 4.37298 16.5469 4.39067C16.5669 4.40605 16.5892 4.4199 16.6069 4.43682C16.6285 4.45913 16.6438 4.48452 16.6623 4.50913C16.6754 4.52759 16.6931 4.54375 16.7038 4.56375C16.7215 4.59452 16.7315 4.62682 16.7438 4.65913C16.75 4.67682 16.7608 4.69298 16.7654 4.71144C16.7795 4.76386 16.7868 4.81791 16.7869 4.87221V20.6868L22.9469 17.1399V9.05529C22.9469 9.00144 22.9546 8.94682 22.9685 8.89529C22.9738 8.87682 22.9838 8.86067 22.99 8.84298C23.0023 8.81067 23.0131 8.77759 23.03 8.74759C23.0415 8.72759 23.0585 8.71144 23.0715 8.69298C23.09 8.66836 23.1054 8.64298 23.1269 8.62144C23.1446 8.60375 23.1669 8.59067 23.1869 8.57528C23.21 8.55682 23.23 8.53682 23.2546 8.52221L30.6485 4.26605C30.742 4.21212 30.8481 4.18373 30.9562 4.18373C31.0642 4.18373 31.1703 4.21212 31.2638 4.26605L38.6561 8.52221C38.6823 8.53759 38.7023 8.55682 38.7254 8.57452C38.7446 8.5899 38.7669 8.60375 38.7846 8.62067C38.8061 8.64298 38.8215 8.66836 38.84 8.69298C38.8538 8.71144 38.8708 8.72759 38.8815 8.74759C38.8992 8.77759 38.9092 8.81067 38.9215 8.84298C38.9285 8.86067 38.9385 8.87682 38.9431 8.89529ZM37.7323 17.1399V10.1214L35.1454 11.6107L31.5715 13.6684V20.6868L37.7331 17.1399H37.7323ZM30.34 29.8361V22.813L26.8246 24.8207L16.7861 30.5499V37.6391L30.34 29.8361ZM2.00153 5.93759V29.8361L15.5538 37.6384V30.5507L8.47384 26.5437L8.47153 26.5422L8.46846 26.5407C8.44461 26.5268 8.42461 26.5068 8.4023 26.4899C8.38307 26.4745 8.36076 26.4622 8.34384 26.4453L8.3423 26.443C8.3223 26.4237 8.30846 26.3999 8.29153 26.3784C8.27615 26.3576 8.25769 26.3399 8.24538 26.3184L8.24461 26.3161C8.23076 26.293 8.2223 26.2653 8.2123 26.2391C8.2023 26.2161 8.18923 26.1945 8.18307 26.1699C8.17538 26.1407 8.17384 26.1091 8.17076 26.0791C8.16769 26.0561 8.16153 26.033 8.16153 26.0099V26.0084V9.48452L4.58846 7.42605L2.00153 5.93759ZM8.77846 1.32682L2.61923 4.87221L8.77692 8.41759L14.9354 4.87144L8.77692 1.32682H8.77846ZM11.9815 23.453L15.5546 21.3961V5.93759L12.9677 7.42682L9.39384 9.48452V24.943L11.9815 23.453ZM30.9562 5.51067L24.7977 9.05605L30.9562 12.6014L37.1138 9.05529L30.9562 5.51067ZM30.34 13.6684L26.7662 11.6107L24.1792 10.1214V17.1399L27.7523 19.1968L30.34 20.6868V13.6684ZM16.1692 29.4845L25.2023 24.3276L29.7177 21.7507L23.5638 18.2076L16.4785 22.2868L10.0208 26.0045L16.1692 29.4845Z" fill="#FF2D20"/>
</g>
<defs>
<clipPath id="clip0_2_634">
<rect width="38.4615" height="40" fill="white" transform="translate(0.769226)"/>
</clipPath>
</defs>
</svg>
