<svg width="87" height="40" viewBox="0 0 87 40" fill="none" xmlns="http://www.w3.org/2000/svg">
<path d="M4.1 27H0.9V12.6H4.9L8.74 23.14L12.56 12.6H16.56V27H13.36V18.14L10.08 27H7.38L4.1 18.14V27ZM24.877 12.6H27.757L33.357 27H30.057L29.097 24.4H23.357L22.417 27H19.157L24.877 12.6ZM26.237 16.58L24.337 21.76H28.137L26.237 16.58ZM35.9664 27V12.6H41.6264C44.7464 12.6 47.1064 13.8 47.1064 16.94C47.1064 19.14 45.6664 20.54 43.5664 20.82C45.0264 21.02 46.1864 22.36 46.7664 23.66L48.2664 27H44.4864L43.4464 24.58C42.5464 22.5 41.6464 22 40.0264 22H39.1664V27H35.9664ZM39.1664 15.5V19.3H40.5664C42.6264 19.3 43.8464 18.76 43.8464 17.38C43.8464 15.7 42.4264 15.5 40.5264 15.5H39.1664ZM57.4978 27H54.2978V15.5H49.8578V12.6H61.9378V15.5H57.4978V27ZM68.1391 27H64.9391V12.6H68.1391V27ZM75.0552 27H71.9352V12.6H75.1752L81.3952 21.72V12.6H84.5152V27H81.2752L75.0552 17.88V27Z" fill="#38383A"/>
</svg>
