<svg width="40" height="40" viewBox="0 0 40 40" fill="none" xmlns="http://www.w3.org/2000/svg">
<g clip-path="url(#clip0_2_714)">
<path d="M40 0H0V40H40V0Z" fill="#512BD4"/>
<path d="M7.12927 25.5555C6.84644 25.5555 6.60604 25.4613 6.40806 25.2728C6.21008 25.0795 6.11108 24.8499 6.11108 24.5841C6.11108 24.3134 6.21008 24.0815 6.40806 23.8881C6.60604 23.6948 6.84644 23.5981 7.12927 23.5981C7.41681 23.5981 7.65958 23.6948 7.85756 23.8881C8.06025 24.0815 8.1616 24.3134 8.1616 24.5841C8.1616 24.8499 8.06025 25.0795 7.85756 25.2728C7.65958 25.4613 7.41681 25.5555 7.12927 25.5555Z" fill="white"/>
<path d="M18.4357 25.3961H16.5973L11.7539 17.7549C11.6313 17.5616 11.5299 17.361 11.4498 17.1532H11.4074C11.4451 17.3755 11.464 17.8516 11.464 18.5813V25.3961H9.83765V15H11.7962L16.4771 22.4599C16.6751 22.7693 16.8024 22.9819 16.859 23.0979H16.8872C16.8401 22.8225 16.8165 22.3561 16.8165 21.6987V15H18.4357V25.3961Z" fill="white"/>
<path d="M26.3552 25.3961H20.6633V15H26.129V16.4645H22.3462V19.4078H25.832V20.865H22.3462V23.9389H26.3552V25.3961Z" fill="white"/>
<path d="M34.4445 16.4645H31.5313V25.3961H29.8484V16.4645H26.9424V15H34.4445V16.4645Z" fill="white"/>
</g>
<defs>
<clipPath id="clip0_2_714">
<rect width="40" height="40" fill="white"/>
</clipPath>
</defs>
</svg>
