<svg width="40" height="40" viewBox="0 0 40 40" fill="none" xmlns="http://www.w3.org/2000/svg">
<g clip-path="url(#clip0_2_708)">
<path fill-rule="evenodd" clip-rule="evenodd" d="M40 0H0V40H40V0ZM7.12927 25.5555C6.84644 25.5555 6.60604 25.4613 6.40806 25.2728C6.21008 25.0795 6.11108 24.8499 6.11108 24.5841C6.11108 24.3134 6.21008 24.0815 6.40806 23.8881C6.60604 23.6948 6.84644 23.5981 7.12927 23.5981C7.41681 23.5981 7.65958 23.6948 7.85756 23.8881C8.06025 24.0815 8.1616 24.3134 8.1616 24.5841C8.1616 24.8499 8.06025 25.0795 7.85756 25.2728C7.65958 25.4613 7.41681 25.5555 7.12927 25.5555ZM16.5973 25.3961H18.4357V15H16.8165V21.6987C16.8165 22.3561 16.8401 22.8225 16.8872 23.0979H16.859C16.8024 22.9819 16.6751 22.7693 16.4771 22.4599L11.7962 15H9.83765V25.3961H11.464V18.5813C11.464 17.8516 11.4451 17.3755 11.4074 17.1532H11.4498C11.5299 17.361 11.6313 17.5616 11.7539 17.7549L16.5973 25.3961ZM26.3552 25.3961H20.6633V15H26.129V16.4645H22.3462V19.4078H25.832V20.865H22.3462V23.9389H26.3552V25.3961ZM31.5313 16.4645H34.4445V15H26.9424V16.4645H29.8484V25.3961H31.5313V16.4645Z" fill="#38383A"/>
</g>
<defs>
<clipPath id="clip0_2_708">
<rect width="40" height="40" fill="white"/>
</clipPath>
</defs>
</svg>
