<svg width="100" height="40" viewBox="0 0 100 40" fill="none" xmlns="http://www.w3.org/2000/svg">
<mask id="mask0_1_590" style="mask-type:luminance" maskUnits="userSpaceOnUse" x="0" y="5" width="100" height="30">
<path d="M100 5H0V34.7297H100V5Z" fill="white"/>
</mask>
<g mask="url(#mask0_1_590)">
<path d="M88.0085 34.4961C87.7499 34.4961 87.5086 34.4268 87.2845 34.3053L84.9921 32.9352C84.6474 32.7444 84.8197 32.6751 84.9232 32.6404C85.3886 32.4842 85.4747 32.4496 85.9573 32.1721C86.009 32.1374 86.078 32.1548 86.1297 32.1895L87.8878 33.2474C87.9568 33.2821 88.0429 33.2821 88.0946 33.2474L94.9721 29.241C95.0405 29.2063 95.0757 29.1369 95.0757 29.0503V21.0549C95.0757 20.9682 95.0405 20.8988 94.9721 20.8642L88.0946 16.8751C88.0257 16.8405 87.9395 16.8405 87.8878 16.8751L81.0105 20.8642C80.9415 20.8988 80.9071 20.9855 80.9071 21.0549V29.0503C80.9071 29.1197 80.9415 29.2063 81.0105 29.241L82.8893 30.3337C83.9062 30.854 84.544 30.2469 84.544 29.6399V21.7487C84.544 21.6446 84.6301 21.5406 84.7508 21.5406H85.6298C85.7332 21.5406 85.8367 21.6272 85.8367 21.7487V29.6399C85.8367 31.0101 85.0955 31.8078 83.8028 31.8078C83.4064 31.8078 83.0961 31.8078 82.217 31.3743L80.4072 30.3337C79.9591 30.0735 79.6833 29.5879 79.6833 29.0676V21.0723C79.6833 20.5519 79.9591 20.0663 80.4072 19.8061L87.2845 15.7998C87.7154 15.557 88.3014 15.557 88.7323 15.7998L95.6099 19.8061C96.0577 20.0663 96.3333 20.5519 96.3333 21.0723V29.0676C96.3333 29.5879 96.0577 30.0735 95.6099 30.3337L88.7323 34.34C88.5255 34.4268 88.267 34.4961 88.0085 34.4961Z" fill="#5FA04E"/>
<path d="M90.1459 28.9981C87.1292 28.9981 86.5087 27.6106 86.5087 26.4312C86.5087 26.3272 86.5949 26.2231 86.7155 26.2231H87.6118C87.7152 26.2231 87.8014 26.2925 87.8014 26.3966C87.9393 27.3157 88.3358 27.7667 90.1631 27.7667C91.6108 27.7667 92.2315 27.4372 92.2315 26.6567C92.2315 26.2058 92.0586 25.8763 89.8008 25.6508C87.9221 25.46 86.75 25.0438 86.75 23.5348C86.75 22.1301 87.9221 21.2975 89.887 21.2975C92.0937 21.2975 93.1793 22.0607 93.3171 23.7257C93.3171 23.7777 93.3 23.8297 93.2658 23.8818C93.2306 23.9165 93.1793 23.9512 93.127 23.9512H92.2135C92.1279 23.9512 92.0414 23.8818 92.0243 23.795C91.8171 22.8411 91.2829 22.529 89.8698 22.529C88.2841 22.529 88.0944 23.0839 88.0944 23.5002C88.0944 24.0031 88.3185 24.1593 90.4559 24.4367C92.5757 24.7142 93.5757 25.1131 93.5757 26.6047C93.5757 28.1309 92.3171 28.9981 90.1459 28.9981Z" fill="#5FA04E"/>
<path d="M100.075 20.6038C100.075 21.3322 99.4712 21.9393 98.7468 21.9393C98.0234 21.9393 97.4198 21.3495 97.4198 20.6038C97.4198 19.8407 98.0405 19.2684 98.7468 19.2684C99.4541 19.2684 100.075 19.858 100.075 20.6038ZM97.627 20.6038C97.627 21.2282 98.127 21.7312 98.7297 21.7312C99.3504 21.7312 99.8505 21.2108 99.8505 20.6038C99.8505 19.9795 99.3504 19.4939 98.7297 19.4939C98.1441 19.4939 97.627 19.9795 97.627 20.6038ZM98.2477 19.858H98.7649C98.9369 19.858 99.282 19.858 99.282 20.2569C99.282 20.5344 99.109 20.5865 99.0054 20.6212C99.2126 20.6385 99.2297 20.7773 99.2468 20.968C99.264 21.0895 99.282 21.2976 99.3162 21.3669H99.0054C99.0054 21.2976 98.9541 20.916 98.9541 20.8986C98.9369 20.812 98.9027 20.7773 98.7991 20.7773H98.5405V21.3842H98.2477V19.858ZM98.5234 20.5171H98.7468C98.9369 20.5171 98.9712 20.3784 98.9712 20.309C98.9712 20.1009 98.8333 20.1009 98.7468 20.1009H98.5063V20.5171H98.5234Z" fill="#5FA04E"/>
<path fill-rule="evenodd" clip-rule="evenodd" d="M16.3572 20.7131C16.3572 20.4009 16.1849 20.1061 15.9091 19.95L8.61814 15.7008C8.49749 15.6314 8.35959 15.5968 8.2217 15.5795C8.20447 15.5795 8.15276 15.5795 8.15276 15.5795C8.01487 15.5795 7.87698 15.6314 7.75632 15.7008L0.448143 19.9326C0.172363 20.0887 0 20.3836 0 20.7131L0.0172363 32.0905C0.0172363 32.2466 0.103418 32.4026 0.241308 32.472C0.379198 32.5587 0.551561 32.5587 0.672215 32.472L5.01576 29.9745C5.29154 29.8185 5.4639 29.5236 5.4639 29.2115V23.8869C5.4639 23.5748 5.63626 23.2799 5.91204 23.1239L7.75632 22.0486C7.89422 21.9618 8.04934 21.9271 8.20447 21.9271C8.35959 21.9271 8.51472 21.9618 8.63538 22.0486L10.4796 23.1239C10.7554 23.2799 10.9278 23.5748 10.9278 23.8869V29.2115C10.9278 29.5236 11.1002 29.8185 11.3759 29.9745L15.685 32.472C15.8229 32.5587 15.9952 32.5587 16.1332 32.472C16.2711 32.4026 16.3572 32.2466 16.3572 32.0905V20.7131Z" fill="#38383A"/>
<path fill-rule="evenodd" clip-rule="evenodd" d="M51.4849 5.05203C51.3469 4.98266 51.1746 4.98266 51.0539 5.05203C50.916 5.13875 50.8298 5.2775 50.8298 5.43359V16.7068C50.8298 16.8109 50.7781 16.915 50.6747 16.9844C50.5713 17.0364 50.4679 17.0364 50.3645 16.9844L48.5374 15.9264C48.2616 15.7704 47.9341 15.7704 47.6584 15.9264L40.3502 20.1756C40.0744 20.3317 39.9021 20.6265 39.9021 20.9386V29.4196C39.9021 29.7319 40.0744 30.0267 40.3502 30.1828L47.6584 34.432C47.9341 34.588 48.2616 34.588 48.5374 34.432L55.8456 30.1828C56.1214 30.0267 56.2938 29.7319 56.2938 29.4196V8.27793C56.2938 7.9484 56.1214 7.65356 55.8456 7.49747L51.4849 5.05203ZM50.8126 26.6274C50.8126 26.7141 50.7781 26.7834 50.7092 26.8181L48.2099 28.275C48.141 28.3097 48.0548 28.3097 47.9859 28.275L45.4866 26.8181C45.4177 26.7834 45.3832 26.6968 45.3832 26.6274V23.7137C45.3832 23.6269 45.4177 23.5576 45.4866 23.5229L47.9859 22.066C48.0548 22.0314 48.141 22.0314 48.2099 22.066L50.7092 23.5229C50.7781 23.5576 50.8126 23.6443 50.8126 23.7137V26.6274Z" fill="#38383A"/>
<path fill-rule="evenodd" clip-rule="evenodd" d="M75.8046 23.6442C76.0804 23.4881 76.2355 23.1933 76.2355 22.8811V20.8172C76.2355 20.5051 76.0631 20.2102 75.8046 20.0542L68.5481 15.8224C68.2723 15.6662 67.9449 15.6662 67.6691 15.8224L60.3609 20.0715C60.0851 20.2276 59.9128 20.5224 59.9128 20.8346V29.3156C59.9128 29.6278 60.0851 29.9226 60.3609 30.0787L67.6174 34.2411C67.8931 34.3972 68.2206 34.3972 68.4792 34.2411L72.8744 31.7784C73.0123 31.709 73.0986 31.5529 73.0986 31.3968C73.0986 31.2407 73.0123 31.0846 72.8744 31.0152L65.5318 26.766C65.3939 26.6794 65.3077 26.5406 65.3077 26.3845V23.731C65.3077 23.5749 65.3939 23.4188 65.5318 23.3494L67.8242 22.0313C67.9622 21.9446 68.1345 21.9446 68.2723 22.0313L70.5648 23.3494C70.7027 23.4361 70.7888 23.5749 70.7888 23.731V25.8122C70.7888 25.9683 70.875 26.1243 71.013 26.1937C71.1508 26.2805 71.3232 26.2805 71.4611 26.1937L75.8046 23.6442Z" fill="#38383A"/>
<path fill-rule="evenodd" clip-rule="evenodd" d="M67.9968 23.2455C68.0485 23.2108 68.1175 23.2108 68.1692 23.2455L69.5653 24.0606C69.617 24.0953 69.6514 24.1474 69.6514 24.2168V25.847C69.6514 25.9164 69.617 25.9685 69.5653 26.0032L68.1692 26.8183C68.1175 26.853 68.0485 26.853 67.9968 26.8183L66.6006 26.0032C66.5489 25.9685 66.5145 25.9164 66.5145 25.847V24.2168C66.5145 24.1474 66.5489 24.0953 66.6006 24.0606L67.9968 23.2455Z" fill="#5FA04E"/>
<path d="M28.5772 15.857C28.3013 15.701 27.9739 15.701 27.6981 15.857L20.4416 20.0715C20.1659 20.2276 20.0107 20.5224 20.0107 20.8347V29.2809C20.0107 29.5931 20.1831 29.8879 20.4416 30.044L27.6981 34.2586C27.9739 34.4146 28.3013 34.4146 28.5772 34.2586L35.8336 30.044C36.1095 29.8879 36.2645 29.5931 36.2645 29.2809V20.8347C36.2645 20.5224 36.0922 20.2276 35.8336 20.0715L28.5772 15.857Z" fill="url(#paint0_linear_1_590)"/>
<path d="M35.851 20.0716L28.5601 15.8571C28.4912 15.8224 28.405 15.7877 28.336 15.7704L20.166 29.836C20.235 29.9226 20.3212 29.992 20.4073 30.0441L27.6983 34.2586C27.9051 34.3799 28.1464 34.4146 28.3705 34.3453L36.0406 20.2277C35.9889 20.1583 35.92 20.1062 35.851 20.0716Z" fill="url(#paint1_linear_1_590)"/>
<path d="M35.8511 30.0438C36.0579 29.9224 36.2131 29.7143 36.282 29.4888L28.3015 15.7527C28.0948 15.718 27.8706 15.7353 27.6811 15.8568L20.4418 20.0539L28.2498 34.3797C28.3532 34.3623 28.474 34.3276 28.5774 34.2756L35.8511 30.0438Z" fill="url(#paint2_linear_1_590)"/>
</g>
<defs>
<linearGradient id="paint0_linear_1_590" x1="31.093" y1="18.9958" x2="24.4661" y2="32.431" gradientUnits="userSpaceOnUse">
<stop stop-color="#3F873F"/>
<stop offset="0.3296" stop-color="#3F8B3D"/>
<stop offset="0.6367" stop-color="#3E9638"/>
<stop offset="0.9341" stop-color="#3DA92E"/>
<stop offset="1" stop-color="#3DAE2B"/>
</linearGradient>
<linearGradient id="paint1_linear_1_590" x1="27.035" y1="26.0441" x2="45.525" y2="12.4671" gradientUnits="userSpaceOnUse">
<stop offset="0.1376" stop-color="#3F873F"/>
<stop offset="0.4016" stop-color="#52A044"/>
<stop offset="0.7129" stop-color="#64B749"/>
<stop offset="0.9081" stop-color="#6ABF4B"/>
</linearGradient>
<linearGradient id="paint2_linear_1_590" x1="19.7449" y1="25.0548" x2="36.5359" y2="25.0548" gradientUnits="userSpaceOnUse">
<stop offset="0.0919165" stop-color="#6ABF4B"/>
<stop offset="0.2871" stop-color="#64B749"/>
<stop offset="0.5984" stop-color="#52A044"/>
<stop offset="0.8624" stop-color="#3F873F"/>
</linearGradient>
</defs>
</svg>
