<svg width="50" height="40" viewBox="0 0 50 40" fill="none" xmlns="http://www.w3.org/2000/svg">
<path fill-rule="evenodd" clip-rule="evenodd" d="M50 20C50 27.1873 38.8071 33.0137 25 33.0137C11.1929 33.0137 0 27.1873 0 20C0 12.8127 11.1929 6.98633 25 6.98633C38.8071 6.98633 50 12.8127 50 20ZM9.76036 13.8355L7.02052 27.7054H10.274L10.959 24.1095H14.0408C16.952 24.2808 20.2053 21.8836 20.2053 17.774C20.2053 15.3765 18.8354 14.0068 16.0957 13.8355H9.76036ZM12.5 16.4041L11.6438 21.5412H13.6986C15.2397 21.3699 16.6096 20.8562 16.7807 17.9451C16.7807 16.9177 15.9246 16.4041 14.726 16.4041H12.5ZM22.3084 10.2398L19.5688 24.1095H22.8223L24.3633 16.4041H26.9318C28.1303 16.4041 28.1303 16.9177 27.9592 17.774L26.7606 24.1095H30.1852L31.3838 17.089C31.7262 15.3765 30.6988 14.0068 27.959 13.8355H24.877L25.5619 10.2398H22.3084ZM32.7055 13.8355L29.9658 27.7054H33.2191L33.9041 24.1095H36.9863C39.8973 24.2808 43.1508 21.8836 43.1508 17.774C43.1508 15.3765 41.7809 14.0068 39.041 13.8355H32.7055ZM35.4451 16.4041L34.5889 21.5412H34.5891H36.644C38.185 21.3699 39.5549 20.8562 39.726 17.9451C39.726 16.9177 38.8699 16.4041 37.6713 16.4041H35.4451Z" fill="#38383A"/>
</svg>
