<svg width="50" height="40" viewBox="0 0 50 40" fill="none" xmlns="http://www.w3.org/2000/svg">
<path d="M25 33.0137C38.8071 33.0137 50 27.1873 50 20C50 12.8127 38.8071 6.98633 25 6.98633C11.1929 6.98633 0 12.8127 0 20C0 27.1873 11.1929 33.0137 25 33.0137Z" fill="#8993BE"/>
<path fill-rule="evenodd" clip-rule="evenodd" d="M7.02051 27.7054L9.76035 13.8355H16.0957C18.8354 14.0068 20.2053 15.3765 20.2053 17.774C20.2053 21.8836 16.952 24.2808 14.0408 24.1095H10.959L10.274 27.7054H7.02051ZM11.6437 21.5412L12.5 16.4041H14.726C15.9246 16.4041 16.7807 16.9177 16.7807 17.9451C16.6096 20.8562 15.2396 21.3699 13.6986 21.5412H11.6437ZM19.5687 24.1095L22.3084 10.2398H25.5619L24.877 13.8355H27.959C30.6988 14.0068 31.7262 15.3765 31.3838 17.089L30.1852 24.1095H26.7605L27.9592 17.774C28.1303 16.9177 28.1303 16.4041 26.9318 16.4041H24.3633L22.8223 24.1095H19.5687ZM29.9658 27.7054L32.7055 13.8355H39.041C41.7809 14.0068 43.1508 15.3765 43.1508 17.774C43.1508 21.8836 39.8973 24.2808 36.9863 24.1095H33.9041L33.2191 27.7054H29.9658ZM34.5889 21.5412L35.4451 16.4041H37.6713C38.8699 16.4041 39.726 16.9177 39.726 17.9451C39.5549 20.8562 38.185 21.3699 36.6439 21.5412H34.5891H34.5889Z" fill="#1F222E"/>
</svg>
