<svg width="40" height="41" viewBox="0 0 40 41" fill="none" xmlns="http://www.w3.org/2000/svg">
<path d="M19.7644 0.397361C18.1331 0.404941 16.5752 0.544072 15.2044 0.786634C11.1662 1.50005 10.433 2.99329 10.433 5.74708V9.384H19.9758V10.5963H10.433H6.8517C4.07831 10.5963 1.64985 12.2633 0.890262 15.4344C0.0140836 19.0693 -0.0247798 21.3375 0.890262 25.1329C1.56859 27.958 3.18855 29.971 5.96193 29.971H9.24295V25.6111C9.24295 22.4614 11.9682 19.6831 15.2044 19.6831H24.736C27.3893 19.6831 29.5074 17.4984 29.5074 14.8338V5.74708C29.5074 3.16094 27.3257 1.21825 24.736 0.786634C23.0967 0.513751 21.3958 0.389781 19.7644 0.397361ZM14.6038 3.32247C15.5895 3.32247 16.3944 4.14057 16.3944 5.14649C16.3944 6.14884 15.5895 6.95939 14.6038 6.95939C13.6146 6.95939 12.8131 6.14884 12.8131 5.14649C12.8131 4.14057 13.6146 3.32247 14.6038 3.32247Z" fill="#38383A"/>
<path d="M30.6975 10.5963V14.8338C30.6975 18.1191 27.9122 20.8842 24.736 20.8842H15.2044C12.5935 20.8842 10.433 23.1188 10.433 25.7335V34.8202C10.433 37.4064 12.6818 38.9275 15.2044 39.6694C18.2251 40.5576 21.1218 40.7182 24.736 39.6694C27.1384 38.9739 29.5074 37.574 29.5074 34.8202V31.1833H19.9758V29.971H29.5074H34.2788C37.0522 29.971 38.0856 28.0365 39.0501 25.1329C40.0464 22.1437 40.004 19.269 39.0501 15.4344C38.3647 12.6735 37.0557 10.5963 34.2788 10.5963H30.6975ZM25.3366 33.6079C26.3258 33.6079 27.1273 34.4185 27.1273 35.4208C27.1273 36.4267 26.3258 37.2448 25.3366 37.2448C24.3509 37.2448 23.546 36.4267 23.546 35.4208C23.546 34.4185 24.3509 33.6079 25.3366 33.6079Z" fill="#38383A"/>
</svg>
