<svg width="40" height="40" viewBox="0 0 40 40" fill="none" xmlns="http://www.w3.org/2000/svg">
<g clip-path="url(#clip0_2_704)">
<path d="M36.375 2.10312C35.8148 3.44636 35.0975 4.71854 34.2381 5.89312C32.3621 4.00927 30.1303 2.51716 27.6725 1.50353C25.2147 0.489909 22.5799 -0.0250041 19.9213 -0.0112679C17.2627 0.00246827 14.6334 0.54458 12.1862 1.58355C9.73894 2.62252 7.52269 4.13761 5.66624 6.04074C3.80979 7.94387 2.3502 10.1971 1.37232 12.6693C0.394437 15.1416 -0.0822181 17.7836 -0.029934 20.4417C0.02235 23.0998 0.60253 25.721 1.67687 28.1529C2.75122 30.5848 4.29829 32.7788 6.22814 34.6075L6.96939 35.2619C9.79806 37.6453 13.2309 39.1998 16.8882 39.7534C20.5455 40.307 24.2847 39.838 27.692 38.3984C31.0994 36.9588 34.042 34.6047 36.1945 31.5965C38.347 28.5883 39.6253 25.0434 39.8881 21.3537C40.435 16.2475 38.9356 9.78499 36.3756 2.10374L36.375 2.10312ZM9.08126 34.7237C8.86782 34.9875 8.58094 35.182 8.25692 35.2826C7.93291 35.3833 7.58632 35.3856 7.261 35.2892C6.93569 35.1928 6.64627 35.0021 6.42937 34.7412C6.21246 34.4803 6.07782 34.1609 6.04248 33.8235C6.00713 33.4861 6.07267 33.1457 6.2308 32.8455C6.38894 32.5453 6.63256 32.2988 6.93084 32.1371C7.22912 31.9754 7.56866 31.9058 7.9065 31.9372C8.24434 31.9685 8.5653 32.0993 8.82876 32.3131C9.18166 32.5995 9.40647 33.0142 9.45381 33.4662C9.50116 33.9182 9.36716 34.3705 9.08126 34.7237ZM36.2925 28.7175C31.3425 35.3112 20.7738 33.0862 13.9975 33.4062C13.9975 33.4062 12.7963 33.4769 11.5869 33.675C11.5869 33.675 12.0431 33.4812 12.6263 33.2606C17.385 31.6044 19.6344 31.2856 22.525 29.7981C27.9675 27.0312 33.3513 20.9719 34.47 14.6731C32.3994 20.7325 26.1119 25.9431 20.3888 28.0594C16.4663 29.505 9.38001 30.9131 9.38001 30.9131L9.09439 30.76C4.27314 28.4162 4.12439 17.9744 12.8925 14.6069C16.7319 13.1281 20.405 13.94 24.5513 12.9506C28.9788 11.8987 34.1013 8.58187 36.1856 4.25312C38.5169 11.1781 41.3256 22.0169 36.2894 28.7219L36.2925 28.7175Z" fill="#38383A"/>
</g>
<defs>
<clipPath id="clip0_2_704">
<rect width="40" height="40" fill="white"/>
</clipPath>
</defs>
</svg>
