<svg width="51" height="40" viewBox="0 0 51 40" fill="none" xmlns="http://www.w3.org/2000/svg">
<g clip-path="url(#clip0_3_307)">
<path d="M14.6868 15.9451C14.6868 16.555 14.7527 17.0495 14.8681 17.4121C15 17.7747 15.1648 18.1703 15.3956 18.5989C15.478 18.7308 15.511 18.8627 15.511 18.978C15.511 19.1429 15.4121 19.3077 15.1978 19.4725L14.1593 20.1649C14.011 20.2638 13.8626 20.3132 13.7308 20.3132C13.5659 20.3132 13.4011 20.2308 13.2363 20.0824C13.0055 19.8352 12.8077 19.5714 12.6429 19.3077C12.478 19.0275 12.3132 18.7143 12.1319 18.3352C10.8462 19.8517 9.23077 20.6099 7.28571 20.6099C5.9011 20.6099 4.7967 20.2143 3.98901 19.4231C3.18132 18.6319 2.76923 17.5769 2.76923 16.2583C2.76923 14.8572 3.26374 13.7198 4.26923 12.8627C5.27472 12.0055 6.60989 11.5769 8.30769 11.5769C8.86813 11.5769 9.44505 11.6264 10.0549 11.7088C10.6648 11.7912 11.2912 11.9231 11.9505 12.0714V10.8681C11.9505 9.6154 11.6868 8.74178 11.1758 8.23079C10.6484 7.7198 9.75824 7.47254 8.48901 7.47254C7.91209 7.47254 7.31868 7.53848 6.70879 7.68683C6.0989 7.83518 5.50549 8.0165 4.92857 8.24727C4.66483 8.36265 4.46703 8.42859 4.35165 8.46156C4.23626 8.49452 4.15385 8.51101 4.08791 8.51101C3.85714 8.51101 3.74176 8.34617 3.74176 8.00002V7.19232C3.74176 6.92859 3.77472 6.73079 3.85714 6.6154C3.93956 6.50002 4.08791 6.38463 4.31868 6.26925C4.8956 5.97254 5.58791 5.72529 6.3956 5.52749C7.2033 5.3132 8.06044 5.2143 8.96703 5.2143C10.9286 5.2143 12.3626 5.65936 13.2857 6.54947C14.1923 7.43958 14.6538 8.79123 14.6538 10.6044V15.9451H14.6868ZM7.9945 18.4506C8.53846 18.4506 9.0989 18.3517 9.69231 18.1539C10.2857 17.9561 10.8132 17.5934 11.2582 17.0989C11.522 16.7857 11.7198 16.4396 11.8187 16.044C11.9176 15.6484 11.9835 15.1703 11.9835 14.6099V13.9176C11.5055 13.8022 10.9945 13.7033 10.467 13.6374C9.93956 13.5714 9.42857 13.5385 8.91758 13.5385C7.81319 13.5385 7.00549 13.7528 6.46154 14.1978C5.91758 14.6429 5.65385 15.2692 5.65385 16.0934C5.65385 16.8682 5.85165 17.4451 6.26373 17.8407C6.65934 18.2528 7.23626 18.4506 7.9945 18.4506ZM21.2308 20.2308C20.9341 20.2308 20.7363 20.1813 20.6044 20.066C20.4725 19.9671 20.3571 19.7363 20.2582 19.4231L16.3846 6.68134C16.2857 6.35167 16.2363 6.13738 16.2363 6.02199C16.2363 5.75826 16.3681 5.60991 16.6319 5.60991H18.2473C18.5604 5.60991 18.7747 5.65936 18.8901 5.77474C19.022 5.87364 19.1209 6.10441 19.2198 6.4176L21.989 17.3297L24.5604 6.4176C24.6429 6.08793 24.7418 5.87364 24.8736 5.77474C25.0055 5.67584 25.2363 5.60991 25.533 5.60991H26.8516C27.1648 5.60991 27.3791 5.65936 27.511 5.77474C27.6429 5.87364 27.7582 6.10441 27.8242 6.4176L30.4286 17.4616L33.2802 6.4176C33.3791 6.08793 33.4945 5.87364 33.6099 5.77474C33.7418 5.67584 33.956 5.60991 34.2527 5.60991H35.7857C36.0494 5.60991 36.1978 5.74178 36.1978 6.02199C36.1978 6.10441 36.1813 6.18683 36.1648 6.28573C36.1483 6.38463 36.1154 6.5165 36.0494 6.69782L32.0769 19.4396C31.978 19.7692 31.8626 19.9835 31.7308 20.0824C31.5989 20.1813 31.3846 20.2473 31.1044 20.2473H29.6868C29.3736 20.2473 29.1593 20.1978 29.0275 20.0824C28.8956 19.9671 28.7802 19.7528 28.7143 19.4231L26.1593 8.79123L23.6209 19.4066C23.5385 19.7363 23.4396 19.9506 23.3077 20.066C23.1758 20.1813 22.9451 20.2308 22.6483 20.2308H21.2308ZM42.4121 20.6758C41.5549 20.6758 40.6978 20.5769 39.8736 20.3791C39.0494 20.1813 38.4066 19.9671 37.978 19.7198C37.7143 19.5714 37.533 19.4066 37.467 19.2583C37.4011 19.1099 37.3681 18.9451 37.3681 18.7967V17.9561C37.3681 17.6099 37.5 17.4451 37.7472 17.4451C37.8462 17.4451 37.9451 17.4616 38.044 17.4945C38.1429 17.5275 38.2912 17.5934 38.456 17.6594C39.0165 17.9066 39.6264 18.1044 40.2692 18.2363C40.9286 18.3682 41.5714 18.4341 42.2308 18.4341C43.2692 18.4341 44.0769 18.2528 44.6374 17.8901C45.1978 17.5275 45.4945 17 45.4945 16.3242C45.4945 15.8627 45.3462 15.4835 45.0494 15.1703C44.7527 14.8572 44.1923 14.5769 43.3846 14.3132L40.9945 13.5714C39.7912 13.1923 38.9011 12.6319 38.3571 11.8901C37.8132 11.1649 37.533 10.3572 37.533 9.50002C37.533 8.80771 37.6813 8.19782 37.978 7.67035C38.2747 7.14287 38.6703 6.68134 39.1648 6.3187C39.6593 5.93958 40.2198 5.65936 40.8791 5.46156C41.5385 5.26375 42.2308 5.18134 42.956 5.18134C43.3187 5.18134 43.6978 5.19782 44.0604 5.24727C44.4396 5.29672 44.7857 5.36265 45.1319 5.42859C45.4615 5.51101 45.7747 5.59342 46.0714 5.69232C46.3681 5.79123 46.5989 5.89013 46.7637 5.98903C46.9945 6.1209 47.1593 6.25276 47.2582 6.40112C47.3571 6.53298 47.4066 6.7143 47.4066 6.94507V7.7198C47.4066 8.06595 47.2747 8.24727 47.0275 8.24727C46.8956 8.24727 46.6813 8.18134 46.4011 8.04947C45.4615 7.6209 44.4066 7.40661 43.2363 7.40661C42.2967 7.40661 41.5549 7.55496 41.044 7.86815C40.533 8.18134 40.2692 8.65936 40.2692 9.33518C40.2692 9.79672 40.4341 10.1923 40.7637 10.5055C41.0934 10.8187 41.7033 11.1319 42.5769 11.4121L44.9176 12.1539C46.1044 12.533 46.9615 13.0605 47.4725 13.7363C47.9835 14.4121 48.2308 15.1868 48.2308 16.044C48.2308 16.7528 48.0824 17.3956 47.8022 17.9561C47.5055 18.5165 47.1099 19.011 46.5989 19.4066C46.0879 19.8187 45.478 20.1154 44.7692 20.3297C44.0275 20.5605 43.2527 20.6758 42.4121 20.6758Z" fill="#252F3E"/>
<path fill-rule="evenodd" clip-rule="evenodd" d="M45.5275 28.6868C40.1044 32.6923 32.2253 34.8187 25.4505 34.8187C15.956 34.8187 7.4011 31.3077 0.939561 25.4726C0.428572 25.011 0.89011 24.3846 1.5 24.7473C8.48901 28.8022 17.1099 31.2583 26.0275 31.2583C32.044 31.2583 38.6538 30.0055 44.7363 27.4341C45.6429 27.022 46.4176 28.0275 45.5275 28.6868Z" fill="#FF9900"/>
<path fill-rule="evenodd" clip-rule="evenodd" d="M47.7857 26.1154C47.0934 25.2253 43.2033 25.6868 41.4396 25.9011C40.9121 25.9671 40.8297 25.5055 41.3077 25.1594C44.4066 22.9835 49.5 23.6099 50.0934 24.3352C50.6868 25.0769 49.9286 30.1703 47.0275 32.6099C46.5824 32.989 46.1538 32.7912 46.3516 32.2967C47.011 30.6649 48.478 26.989 47.7857 26.1154Z" fill="#FF9900"/>
</g>
<defs>
<clipPath id="clip0_3_307">
<rect width="50" height="40" fill="white" transform="translate(0.5)"/>
</clipPath>
</defs>
</svg>
