<svg width="41" height="40" viewBox="0 0 41 40" fill="none" xmlns="http://www.w3.org/2000/svg">
<path d="M14.3908 2.72667H25.24L13.9775 36.0963C13.8617 36.4392 13.6414 36.7371 13.3474 36.9482C13.0534 37.1593 12.7007 37.2728 12.3388 37.2729H3.89542C3.62121 37.273 3.35094 37.2077 3.10696 37.0826C2.86298 36.9574 2.65231 36.776 2.49237 36.5532C2.33242 36.3305 2.22782 36.0729 2.18719 35.8017C2.14657 35.5305 2.1711 35.2536 2.25875 34.9938L12.7517 3.90334C12.8674 3.5603 13.0878 3.2622 13.3818 3.05104C13.6759 2.83987 14.0288 2.72669 14.3908 2.72667Z" fill="#38383A"/>
<path d="M30.1563 25.1088H12.9521C12.7921 25.1086 12.6358 25.1566 12.5036 25.2465C12.3713 25.3364 12.2692 25.4641 12.2105 25.6129C12.1518 25.7617 12.1393 25.9247 12.1746 26.0807C12.2099 26.2367 12.2913 26.3785 12.4083 26.4875L23.4633 36.8058C23.7852 37.1061 24.209 37.273 24.6492 37.2729H34.3908L30.1563 25.1088Z" fill="#38383A"/>
<path d="M14.3908 2.7267C14.0249 2.72529 13.668 2.84095 13.3724 3.05676C13.0769 3.27258 12.858 3.57726 12.7479 3.92628L2.27167 34.9654C2.17812 35.2262 2.14875 35.5057 2.18604 35.7802C2.22334 36.0547 2.3262 36.3162 2.48593 36.5425C2.64566 36.7689 2.85755 36.9534 3.10369 37.0806C3.34983 37.2077 3.62297 37.2737 3.9 37.2729H12.5612C12.8838 37.2153 13.1853 37.0731 13.435 36.8608C13.6846 36.6485 13.8734 36.3738 13.9821 36.0646L16.0712 29.9075L23.5337 36.8679C23.8465 37.1266 24.2388 37.2696 24.6446 37.2729H34.35L30.0933 25.1088L17.6846 25.1117L25.2792 2.7267H14.3908Z" fill="#38383A"/>
<path d="M28.2479 3.90168C28.1324 3.5592 27.9123 3.2616 27.6187 3.0508C27.3251 2.84 26.9727 2.72664 26.6112 2.72668H14.52C14.8814 2.72671 15.2338 2.84009 15.5274 3.05088C15.821 3.26166 16.0411 3.55923 16.1567 3.90168L26.65 34.9934C26.7377 35.2532 26.7623 35.5302 26.7217 35.8015C26.6811 36.0727 26.5765 36.3304 26.4166 36.5532C26.2567 36.776 26.046 36.9576 25.8019 37.0828C25.5579 37.208 25.2876 37.2733 25.0133 37.2734H37.105C37.3792 37.2733 37.6495 37.2079 37.8935 37.0827C38.1374 36.9574 38.3481 36.7759 38.508 36.5531C38.6679 36.3303 38.7724 36.0726 38.813 35.8014C38.8535 35.5302 38.829 35.2532 38.7412 34.9934L28.2479 3.90168Z" fill="#38383A"/>
</svg>
