<svg width="41" height="40" viewBox="0 0 41 40" fill="none" xmlns="http://www.w3.org/2000/svg">
<path fill-rule="evenodd" clip-rule="evenodd" d="M40.1123 32.9148L21.7484 1.51651C21.3377 0.814485 20.3231 0.814485 19.9125 1.51651L4.30618 28.1994C4.03193 28.6688 4.52696 29.2107 5.01896 28.98C5.22099 28.8849 5.45417 28.7893 5.71023 28.6939L5.70499 28.7044C5.70499 28.7044 6.13139 28.539 6.85187 28.3108C7.64596 28.0668 8.51611 27.8359 9.30385 27.6407C11.508 27.1319 14.3963 26.7176 17.0007 27.1501C19.3976 27.5478 21.0668 28.1903 22.2826 28.8218C22.8399 29.1117 23.3663 28.3841 22.9157 27.9461C21.1726 26.2521 18.4905 24.2072 14.4109 23.3503C14.2323 23.3128 14.1428 23.1113 14.2351 22.9537L20.3791 12.4487C20.5811 12.1036 21.0797 12.1036 21.2818 12.4487L33.0158 32.5113C33.263 32.9339 33.0557 33.4735 32.5916 33.629C31.6721 33.9363 30.5737 34.1662 29.3441 34.1662C28.5619 34.1662 27.775 34.0738 26.9862 33.8906C26.9862 33.8906 24.7122 33.5317 21.6729 31.7183C18.6336 29.9053 12.7734 27.5922 6.19781 31.3369C3.39606 33.1373 1.52924 35.5997 0.545528 37.1457C0.391453 37.3877 0.657433 37.6763 0.910459 37.5412C3.16977 36.3343 9.26141 33.4837 14.7505 34.5085C18.0131 35.1174 21.7415 37.5804 25.6174 38.9927C32.029 41.3686 38.315 37.388 38.3285 37.3794C38.993 36.9404 39.3833 36.6066 39.4497 36.5487L39.5299 36.4787C40.5544 35.5846 40.7989 34.0885 40.1123 32.9148Z" fill="#00ADD4"/>
</svg>
