<svg width="41" height="40" viewBox="0 0 41 40" fill="none" xmlns="http://www.w3.org/2000/svg">
<path d="M35.0564 16.4503C34.8496 14.9294 34.0133 13.6083 32.4924 12.4159L31.617 11.8254L31.0334 12.7123C30.2547 13.9833 29.9052 15.471 30.0363 16.9558C30.1113 17.7799 30.3738 18.576 30.8037 19.2832C29.8687 19.7613 28.8273 19.993 27.7778 19.9564H0.623444L0.570602 20.2711C0.315578 21.7967 0.317876 26.5571 3.37128 30.2148C5.68948 32.9948 9.16563 34.4055 13.7101 34.4055C23.5435 34.4055 30.8221 29.8104 34.2316 21.4796C35.571 21.5072 38.459 21.4796 39.9409 18.6215C39.9777 18.5572 40.0696 18.3803 40.3269 17.838L40.4694 17.5417L39.6377 16.9788C38.737 16.3653 36.6647 16.1425 35.0679 16.4503H35.0564ZM22.335 6.27002H18.1995V10.0724H22.335V6.27002ZM22.335 10.8329H18.1995V14.6353H22.335V10.8329ZM17.4551 10.8329H13.3195V14.6353H17.4551V10.8329ZM12.5752 10.8329H8.43961V14.6353H12.5752V10.8329ZM7.69522 15.3981H3.55968V19.2005H7.69522V15.3981ZM12.5752 15.3981H8.43961V19.2005H12.5752V15.3981ZM17.4551 15.3981H13.3195V19.2005H17.4551V15.3981ZM22.335 15.3981H18.1995V19.2005H22.335V15.3981ZM27.215 15.3981H23.0794V19.2005H27.215V15.3981Z" fill="#38383A"/>
</svg>
