<svg width="41" height="40" viewBox="0 0 41 40" fill="none" xmlns="http://www.w3.org/2000/svg">
<g clip-path="url(#clip0_3_1094)">
<path d="M32.6723 13.2457L32.6716 13.2472H32.6723V13.2457Z" fill="#38383A"/>
<path d="M34.6316 22.1305C34.3303 22.7245 34.4222 23.1921 34.9046 23.589C35.2448 23.8687 35.6533 23.946 36.0803 23.9372C36.2518 23.9335 36.4212 23.9051 36.5921 23.8978C36.685 23.8934 36.7809 23.8992 36.872 23.9191C37.0436 23.9575 37.1204 23.9317 37.1792 23.7666C37.3125 23.3885 37.3757 22.9972 37.3302 22.5985C37.3088 22.4076 37.2688 22.2112 37.1942 22.0358C36.897 21.3394 35.9958 21.0538 35.33 21.4334C35.2459 21.482 35.164 21.5399 35.0876 21.6025C35.0071 21.6688 34.9325 21.7451 34.848 21.8236C34.8862 21.8682 34.9163 21.9091 34.952 21.9456C35.0332 22.0285 35.0633 22.1265 35.0387 22.237C34.9619 22.5827 35.1118 22.8281 35.3995 22.9854C35.6049 23.0982 35.8301 23.1785 36.0531 23.254C36.1684 23.2924 36.2878 23.3204 36.408 23.3462C36.4458 23.3447 36.4609 23.3384 36.4892 23.3156C36.6699 23.1991 36.7982 23.0451 36.8772 22.8465C36.9205 22.9633 36.9117 23.1604 36.8735 23.3049C36.8507 23.3959 36.8658 23.6151 36.9113 23.68C36.9073 23.6833 36.9043 23.6877 36.9014 23.6918C36.8805 23.6804 36.8595 23.6708 36.8393 23.6583C36.609 23.5157 36.3514 23.4714 36.088 23.439C35.7628 23.397 35.4458 23.3222 35.1695 23.1339C34.8359 22.9088 34.6573 22.5941 34.639 22.1899C34.6375 22.1766 34.6349 22.1644 34.6316 22.1305ZM36.2048 22.086C36.2048 22.3292 36.0079 22.5278 35.7643 22.5278C35.5215 22.5278 35.3234 22.3292 35.3234 22.086C35.3234 21.8413 35.5215 21.6441 35.7643 21.6441C36.0079 21.6438 36.2048 21.8413 36.2048 22.086Z" fill="#38383A"/>
<path d="M30.9349 18.7449C30.9349 18.7202 30.9364 18.6941 30.9364 18.6683C30.9265 18.6502 30.9128 18.6325 30.904 18.6145C30.9298 18.6528 30.9408 18.6996 30.9349 18.7449Z" fill="#38383A"/>
<path d="M31.8671 15.754C31.8586 15.754 31.849 15.7554 31.8405 15.7554C31.8361 15.765 31.8317 15.7768 31.8262 15.7856C31.8365 15.7757 31.8534 15.7643 31.8671 15.754Z" fill="#38383A"/>
<path d="M39.8277 34.5266C39.8494 34.3862 39.8729 34.2543 39.8979 34.1216C39.953 33.8276 40.01 33.5225 40.0305 33.2104C40.1007 32.1082 39.7565 31.1436 39.0073 30.3414L39.0334 30.2231C39.0694 30.0551 39.1131 29.8454 39.1378 29.6409C39.201 29.1346 39.0389 28.6806 38.6421 28.2503C38.63 28.237 38.6168 28.2234 38.6098 28.2119C38.5132 27.9212 38.3045 27.6883 37.9929 27.531C37.8096 27.4381 37.6171 27.3688 37.4169 27.3239C37.6564 27.2248 37.8971 27.1039 38.1425 26.9569C38.1708 26.9399 38.1833 26.9366 38.1833 26.9366C38.9835 26.8135 39.6135 26.1956 39.7532 25.3986C39.7561 25.3794 39.7583 25.3617 39.7609 25.3433C39.7649 25.309 39.7689 25.2718 39.7734 25.26C40.089 24.7718 40.1466 24.2191 39.9427 23.6232C39.8759 23.4305 39.7939 23.2378 39.7208 23.0683C39.6635 22.9349 39.6077 22.8045 39.5588 22.6744C39.5015 22.5259 39.4387 22.3608 39.4254 22.2101C39.3876 21.7912 39.3262 21.2399 39.1749 20.6913C38.8585 19.5497 38.3089 18.6554 37.4933 17.9568C36.7489 17.3174 35.9546 17.044 34.8807 16.8834C35.0266 17.1137 34.8326 17.2172 34.9366 17.4715C34.9785 17.5754 34.9898 17.6719 34.9895 17.7674C36.8257 18.3967 38.2134 20.0733 38.4474 22.0889C38.454 22.1479 38.4603 22.2079 38.4651 22.268C38.4783 22.4338 38.4926 22.6051 38.5466 22.7735C38.6083 22.9685 38.698 23.1501 38.784 23.3255C38.82 23.3981 38.8556 23.4703 38.889 23.5448C38.9195 23.6111 38.9511 23.6774 38.9827 23.7434C39.0481 23.8808 39.122 24.0367 39.1807 24.19C39.2333 24.3256 39.2517 24.4649 39.2366 24.6045C39.2336 24.603 39.166 24.5492 39.1363 24.5275C39.1098 24.5072 39.0826 24.4855 39.0562 24.4649C38.9772 24.4018 38.8931 24.334 38.7972 24.281C38.7292 24.243 38.6583 24.2246 38.5859 24.2246C38.4617 24.2246 38.349 24.2784 38.2604 24.3801L38.1149 24.5463L38.3262 24.7136L38.4386 24.8131C38.6238 24.9789 38.8001 25.1359 38.9739 25.2954C38.9515 25.5659 38.8541 25.7947 38.6837 25.9686C38.4709 26.1849 38.2523 26.2542 38.0238 26.2892C37.7663 26.3283 37.5826 26.2085 37.5826 26.2085C37.5826 26.2085 37.44 26.9912 35.8249 26.9934L35.7261 26.9926C35.2511 26.9926 34.7933 27.1253 34.2848 27.4105C33.6158 27.9665 32.1142 27.9098 32.1142 27.9098C31.6921 27.8394 31.2957 27.7311 30.9132 27.5789C30.2074 27.2955 29.5862 26.8942 29.1041 26.2958C28.8444 25.9749 28.65 25.6186 28.517 25.2269C28.5045 25.1911 28.4898 25.1572 28.4762 25.1211C28.4689 25.5025 28.5494 25.8621 28.7125 26.2022C29.0446 26.8854 29.5924 27.3331 30.2776 27.6272C30.8717 27.8821 31.4952 27.9691 32.1374 27.9378L32.2729 28.0903C32.3387 28.1626 32.4085 28.1854 32.4552 28.1968C32.7171 28.2595 32.9941 28.2897 33.3016 28.2897C33.4203 28.2897 34.1415 28.1235 34.8767 28.4957C34.9432 28.5292 35.0321 28.5686 35.1383 28.5686C35.1926 28.5686 35.2455 28.5594 35.2977 28.5395L35.3789 28.5086C35.5534 28.4426 35.8944 28.3022 35.8944 28.3022C37.9963 27.8383 38.2957 29.432 38.2957 29.432C38.2413 29.408 38.1774 29.3874 38.1061 29.3874C38.0234 29.3874 37.9459 29.415 37.8757 29.4677L37.6369 29.6497L37.9959 29.876C38.0701 29.922 38.1366 29.9637 38.2013 30.0079C38.2836 30.0639 38.3159 30.1409 38.3118 30.2655C38.3023 30.5905 37.9239 30.921 37.5638 30.921C37.5227 30.921 37.483 30.9169 37.4459 30.9085C37.2989 30.876 37.2185 30.8278 37.1707 30.7449C37.1296 30.6734 37.034 30.5975 36.9212 30.5975L36.8257 30.6015C36.7115 30.6071 36.5946 30.6111 36.4763 30.6387L36.4491 30.645C36.2897 30.6811 36.142 30.715 35.9972 30.715C35.9454 30.715 35.8977 30.7099 35.8496 30.7006C35.7808 30.6881 35.7136 30.6719 35.6453 30.6546L35.3264 30.5787L35.2727 30.7699C35.1915 31.0529 35.0611 31.3072 34.8715 31.5485C34.4641 32.0677 33.9178 32.4351 33.2021 32.6702C32.6745 32.8441 32.1043 32.9318 31.5087 32.9318C31.1943 32.9318 30.8632 32.9075 30.5238 32.8592C29.243 32.675 28.3484 31.9774 27.8664 30.7858C27.7863 30.589 27.7297 30.3712 27.6746 30.1612C27.6437 30.0425 27.6158 29.9313 27.5835 29.8215C27.4145 29.2448 27.2003 28.733 26.9291 28.2569C26.4295 27.3817 25.8089 26.7579 25.0323 26.3471C24.4084 26.018 23.7273 25.8514 23.0068 25.8514C22.7077 25.8514 22.3951 25.8798 22.0787 25.9358C21.948 25.9594 21.815 25.9727 21.6853 26.0209C21.0019 26.2833 20.9163 26.4034 20.9163 26.4034L21.2466 26.4233C21.3013 26.4263 21.4215 26.4429 21.5423 26.4587C21.6757 26.476 21.8105 26.4937 21.869 26.4963C22.0993 26.5073 22.3183 26.518 22.5343 26.5409C23.44 26.6323 24.264 26.9108 24.9827 27.3674C25.9485 27.9816 26.5404 28.7414 26.791 29.6892C26.9457 30.2725 27.1661 30.8547 27.4453 31.4181C27.6125 31.753 27.8245 32.1407 28.1357 32.4749C28.5762 32.9491 29.1401 33.2712 29.908 33.4882C30.1134 33.5457 30.3151 33.6098 30.4863 33.6647C30.5065 33.6702 30.5271 33.682 30.5484 33.7373C30.6443 33.986 30.667 34.2281 30.6182 34.4765C30.5429 34.8641 30.3566 35.2245 30.0494 35.5801C29.8051 35.8616 29.4892 36.0768 29.1824 36.2842C29.0123 36.3988 28.8536 36.5201 28.7073 36.6442C28.5258 36.8001 28.4318 37.009 28.4413 37.2323C28.4494 37.4166 28.4638 37.7246 28.776 37.7246C28.8433 37.7246 28.9212 37.7088 29.0428 37.6682C29.0949 37.6513 29.146 37.6299 29.1971 37.6082L29.4671 37.4906C29.6177 37.4261 29.7687 37.3606 29.919 37.2968C30.221 37.1715 30.516 37.107 30.7978 37.107C30.9452 37.107 31.094 37.124 31.238 37.1597C31.6506 37.2589 32.0275 37.4847 32.1142 37.8116C32.1142 37.8116 32.4023 39.0651 30.3268 39.0493C30.1593 39.0493 29.9888 39.0091 29.8077 38.9649L29.7103 38.9421C29.5123 38.8956 29.3352 38.8735 29.1681 38.8728C29.0104 38.8728 28.8657 38.9001 28.7257 38.9266L28.6614 38.9377C28.2474 39.0132 27.8032 39.0475 27.2223 39.0475C26.9626 39.0475 14.87 39.0368 14.87 39.0368C13.78 39.0368 12.7454 38.8831 11.7957 38.6337C7.84282 37.5968 5.02929 35.3767 3.19377 31.9903C2.52768 30.7589 2.07211 29.4301 1.83771 28.0144C1.84983 28.0351 1.94609 28.3494 1.94609 28.3494C2.49204 29.2816 3.15372 30.0182 3.15372 30.0182C3.15372 30.0182 1.65217 26.0191 1.6518 25.8452C1.65033 25.2969 1.68413 24.7368 1.75137 24.1782C1.79362 24.3182 1.83771 24.4556 1.88583 24.5927C2.55854 26.5158 3.5788 28.3166 5.00394 30.1011C5.03884 30.1439 5.0664 30.194 5.08072 30.2386C5.3008 30.9169 5.59912 31.5625 5.96836 32.1624C5.134 31.9907 3.94253 30.8138 3.94253 30.8138L4.09757 31.113C5.02892 32.9141 7.22265 34.0107 7.65177 34.1669C8.90938 35.2875 10.4366 36.0996 12.1891 36.5823C12.2883 36.6096 12.3886 36.6332 12.4882 36.656L13.3442 36.8609L12.7975 36.3299C12.7347 36.2684 12.6671 36.2448 12.6252 36.2301C11.3838 35.7857 10.2478 35.1593 9.24959 34.3696C7.94496 33.339 7.00662 32.0766 6.45883 30.6218C6.3927 30.4471 6.40005 30.3561 6.43091 30.2743C6.4603 30.1947 6.48125 30.1137 6.50108 30.0355C6.51505 29.9788 6.52497 29.9386 6.53709 29.9003C6.8277 28.9489 7.26527 28.2042 7.87809 27.6272C8.44939 27.087 9.18015 26.6908 10.1144 26.4163C11.0039 26.154 11.9426 26.0335 12.8501 25.9174L13.2458 25.8662C13.759 25.7991 14.2778 25.7184 14.7789 25.6414L15.0401 25.6005C14.7007 26.0383 14.4064 26.5077 14.1639 27.0029C14.1022 27.0232 12.2586 27.4392 12.0385 27.486C9.11071 28.1124 8.91305 29.9777 8.91305 29.9777C8.91305 29.9777 10.1769 28.2978 13.2167 28.2064L13.3229 28.2053C13.446 28.2068 13.5669 28.2108 13.694 28.2164C12.8508 32.633 14.4846 34.1673 14.471 34.1172C14.1007 32.7055 14.0081 31.4214 14.1878 30.1896C14.4189 28.5926 15.1213 27.2167 16.2731 26.0991C17.0564 25.3393 18.0433 24.7007 19.2887 24.1454C20.3718 23.6597 21.5122 23.3664 22.5872 23.1063L22.7933 23.0576C23.5799 22.8675 24.3783 22.6748 25.1557 22.446C26.3589 22.0922 27.406 21.5093 28.2665 20.7126C28.3973 20.5914 28.5468 20.4543 28.6724 20.29C29.2816 19.4985 29.9727 18.8975 30.7706 18.4513C30.8805 18.9564 31.1696 19.4318 31.641 19.7203C31.1454 18.8687 30.8948 18.001 31.1292 17.1995C31.3526 16.4828 31.7233 16.1228 32.1168 15.4305C32.5845 14.5258 32.6348 13.2421 32.6425 13.2339C32.7285 13.1451 32.7884 13.0578 32.8773 12.9709C32.9861 12.8622 33.0871 12.7553 33.194 12.6451C33.5103 12.3164 33.7429 11.9063 33.8399 11.4155C33.9417 10.904 33.7095 10.6306 33.7095 10.6306C33.7954 10.316 33.9101 10.0075 33.9339 9.69212C33.978 9.10476 33.798 8.56273 33.7164 8.56273C33.6764 8.56273 32.9651 9.37596 32.5742 9.52814C32.4816 8.96953 32.3387 8.40354 32.1164 7.69643C31.9496 7.16471 31.9033 6.72843 31.9706 6.32163C32.0213 6.018 32.389 5.59499 32.389 5.59499L32.5595 5.39342L32.3247 5.2733C32.2862 5.25046 31.9842 5.18302 31.8828 5.18302C31.587 5.18302 31.3445 5.28951 31.1693 5.49365C31.1336 5.25156 31.1289 5.00689 31.1516 4.76001C31.1902 4.33441 31.3596 3.94382 31.5014 3.64978C31.5447 3.5606 31.5988 3.44269 31.6362 3.31593C31.6807 3.16043 31.659 3.01378 31.5749 2.90029C31.4907 2.78716 31.3566 2.72563 31.1979 2.72563C31.0605 2.72784 30.9363 2.74921 30.8291 2.79048C30.347 2.97251 29.9704 3.28166 29.7056 3.70984C29.6189 3.60998 29.5388 3.49944 29.4903 3.36605C29.4256 3.18955 29.3429 3.0252 29.2632 2.87413C29.1967 2.74626 29.1071 2.68215 28.9979 2.68215C28.9193 2.68215 28.8598 2.71642 28.8161 2.75511C28.6779 2.38331 28.4505 2.0701 28.1397 1.82175C28.1195 1.80553 28.0997 1.793 28.0703 1.77532L27.6503 1.51701L27.733 2.05905C26.6569 1.35894 25.4684 0.850433 24.1957 0.546805C24.0943 0.522854 23.9914 0.502589 23.8889 0.482323C23.5803 0.421155 23.2941 0.365144 23.0457 0.210013C23.0156 0.190116 22.9859 0.182378 22.9723 0.178693C22.9363 0.163954 22.8867 0.154744 22.8407 0.154744C22.7437 0.154744 22.6467 0.196381 22.5652 0.280026C22.437 0.277078 22.2933 0.267128 22.1658 0.255337L22.0479 0.249442C22.0269 0.247231 21.866 0.247232 21.8425 0.247232L21.6206 0.347089C21.6206 0.347089 21.086 0.000348121 20.8972 0.000348121H20.7205C20.5816 0.000348121 20.4567 0.0906269 20.3909 0.203013C20.3373 0.293659 20.2568 0.268235 20.2304 0.268972C19.3446 0.324244 18.4959 0.454684 17.71 0.650347C16.3268 0.994876 15.172 1.51185 14.1812 2.22671C13.3145 2.85202 12.6781 3.54108 12.2358 4.3311C12.1381 4.50576 12.0613 4.68742 11.9885 4.86208C11.8989 5.07322 11.8897 5.26556 11.9507 5.45312C12.0154 5.64583 12.1708 5.76522 12.3574 5.76522C12.3805 5.76522 12.4055 5.76301 12.4298 5.75896C12.5253 5.74348 12.6208 5.73611 12.7138 5.73611C13.1554 5.73611 13.586 5.90082 14.0698 6.25346C14.5882 6.63115 14.956 7.10538 15.1621 7.65921C15.4571 8.45476 15.323 9.1943 14.7624 9.8583C14.586 9.27021 14.3513 8.82729 14.0239 8.46839C13.7943 8.21488 13.5239 8.02327 13.2212 7.89983C13.1738 7.87993 13.1267 7.8674 13.0771 7.86077L12.9981 7.84971C12.9981 7.84971 13.3821 8.72117 13.4295 9.08597C13.529 9.87046 13.4254 10.9715 12.6653 11.1845C12.436 11.2486 12.2167 11.3425 11.9922 11.421C11.5873 11.5618 11.1685 11.7077 10.7567 11.8614C9.60082 12.2936 8.57211 12.7781 7.61577 13.3434C7.62018 13.2616 7.6312 13.1801 7.64222 13.0943L7.65729 12.969C7.66169 12.951 7.665 12.9366 7.6661 12.9226C7.68888 12.7487 7.66133 12.619 7.58307 12.529C7.52245 12.4598 7.43428 12.4211 7.33545 12.4211C7.25792 12.4211 7.17342 12.4439 7.0768 12.4907C6.94674 12.5541 6.81558 12.6606 6.70683 12.7903C6.43165 13.1219 6.26558 13.4923 6.09291 13.9068C6.05249 14.0067 6.01428 14.1061 5.97681 14.2071L5.96983 14.2296C5.93492 14.321 5.90039 14.4157 5.86255 14.5056C5.84124 14.5535 5.81148 14.5977 5.78172 14.6231C4.74786 15.5042 3.96567 16.3178 3.32016 17.1807C2.81829 17.8514 2.37851 18.5585 2.00928 19.287C1.95564 18.7243 1.95895 18.1657 2.01553 17.5875C2.01553 17.5875 0.93758 18.4601 1.17602 21.2731C1.17676 21.2775 1.17676 21.2981 1.16169 21.3486C0.848671 22.3343 0.646969 23.3163 0.561733 24.267C0.250915 27.7495 1.11724 30.9733 3.13535 33.7623C5.28353 36.7323 8.19699 38.732 11.7953 39.567C12.7498 39.7896 13.8046 39.9978 15.3245 39.9978C15.3245 39.9978 21.2892 39.9978 21.6673 39.9978L30.325 39.9805C30.325 39.9805 31.3412 39.9801 31.921 39.665C32.4144 39.3964 32.6965 39.1274 32.8982 38.6572C33.2098 37.931 32.9434 37.0035 32.2781 36.516C31.8831 36.2264 31.4154 36.0808 30.8482 36.0808C30.7945 36.0808 30.7413 36.079 30.6869 36.0812C30.6303 36.0841 30.573 36.0882 30.5171 36.093C30.9584 35.642 31.2604 35.108 31.4169 34.5041C31.4863 34.2336 31.5087 33.9514 31.4845 33.6673L31.4827 33.6525L31.6179 33.6455C31.9206 33.6319 32.2255 33.6179 32.5264 33.5954C32.4269 33.7244 32.3501 33.8729 32.2961 34.0402C32.1476 34.5093 32.0859 34.9017 32.1014 35.2705C32.1282 35.9202 32.3747 36.5296 32.8306 37.0783C33.1844 37.5021 33.6172 37.8425 34.1529 38.1152C34.1007 38.3415 34.114 38.5736 34.1933 38.8017C34.2558 38.9749 34.3693 39.1149 34.5328 39.2066C34.7139 39.308 34.9105 39.3706 35.117 39.3706C35.1908 39.3706 35.2691 39.3854 35.3528 39.3662C35.6805 40.0928 36.4778 39.9952 36.4778 39.9952C37.1336 39.8437 37.3596 39.2229 37.2938 38.7199C37.2846 38.6598 37.2743 38.5946 37.2607 38.5364L37.2956 38.5235C37.469 38.4822 37.6491 38.4362 37.8273 38.3739C39.0378 37.9516 39.8178 37.1225 40.1474 35.9102C40.2958 35.3682 40.1874 34.9013 39.8277 34.5266ZM30.7868 15.3991C28.9344 20.5733 24.6046 21.272 24.1656 21.272L22.128 21.2278L22.6706 21.5948L22.8084 21.6489C22.8731 21.6758 22.9318 21.7001 22.9947 21.7182C23.0487 21.734 23.1042 21.7492 23.1578 21.7643C22.8837 21.8221 22.603 21.8785 22.3282 21.9179C21.5897 22.0233 20.7186 22.167 19.8556 22.4297C19.817 22.4408 19.7766 22.4474 19.7388 22.4474L19.7164 22.4463C18.9121 22.3918 18.1068 22.3328 17.3026 22.2731C16.8132 22.2381 16.3639 22.2212 15.9314 22.2212C15.4142 22.2212 14.9318 22.2448 14.4582 22.2949C13.3935 22.408 12.3398 22.6637 11.3276 23.0565C8.41486 24.3009 6.86554 25.9635 6.86554 25.9635C6.86554 25.9635 9.98328 24.3757 11.0741 23.9586C12.1182 23.5599 12.9511 23.4596 14.1621 23.4659C14.7021 23.4692 16.4436 23.4714 17.4705 23.4954C17.228 23.6387 16.9958 23.7894 16.7739 23.9538C16.5898 24.0897 16.3889 24.1918 16.1581 24.2795C15.9855 24.3444 15.8003 24.4103 15.6107 24.47C14.8135 24.7232 13.9725 24.8698 13.1602 25.0132C13.1602 25.0132 12.8277 25.0717 12.6781 25.0979C11.8893 25.2409 11.0491 25.3942 10.2221 25.5784C9.40316 25.7593 8.69151 26.0257 8.04636 26.3938C6.86003 27.0696 6.15757 28.0885 5.95734 29.4228C5.61235 28.7691 5.40881 28.1294 5.3368 27.4746C5.21446 26.3828 5.53997 25.4505 6.30049 24.7044C6.35633 24.6487 6.3916 24.5828 6.41952 24.5257C6.4603 24.4424 6.49925 24.3584 6.53709 24.274C6.60396 24.127 6.68001 23.9593 6.76745 23.8152C7.10435 23.2603 7.58638 22.7879 8.28443 22.3277C8.99608 21.8593 9.83448 21.4687 10.9216 21.0999C12.4191 20.5925 13.9762 20.2616 15.438 19.9805C15.9906 19.874 16.5446 19.7689 17.0987 19.6639L17.2335 19.6389C17.8849 19.5158 18.5367 19.3927 19.1881 19.2649C20.3288 19.0427 21.2407 18.7512 22.0589 18.3477C23.3536 17.708 24.336 17.0245 25.148 16.1973C25.8001 16.1763 26.3835 16.1158 26.9398 16.0101C28.4255 15.7275 29.8364 15.1637 31.1377 14.3335C31.0377 14.709 30.9099 15.0553 30.7868 15.3991ZM32.2116 10.6439C32.3916 10.5562 32.5984 10.4969 32.7976 10.4387C32.7976 10.4387 32.9221 10.4022 32.9717 10.3874C32.9611 10.4434 32.9493 10.4954 32.9331 10.5455C32.6271 11.4859 32.0936 12.322 31.3464 13.032C30.8643 13.4893 30.2725 13.8652 29.4278 14.2502C28.718 14.5741 27.9505 14.8413 27.0482 15.0775C27.3072 15.0023 27.5658 14.9116 27.8219 14.804C29.1482 14.2521 30.3617 13.4145 31.5323 12.2442C31.5488 12.2284 31.562 12.2103 31.5749 12.1908L31.9338 11.6955L31.3511 11.8621C31.2843 11.882 31.238 11.9122 31.2012 11.9376C30.2115 12.6267 29.3077 13.1809 28.4388 13.6315C27.8947 13.9142 27.2036 14.2259 26.5099 14.4053C26.496 14.409 26.4265 14.4123 26.4265 14.416V14.4142C26.4265 14.1522 26.5544 13.8968 26.7495 13.6511C26.892 13.4709 27.1632 13.2461 27.3616 13.0943C27.963 12.6352 28.6217 12.2652 29.1769 11.9752C28.9737 12.2372 28.7613 12.4454 28.4737 12.5891C28.4737 12.5891 28.8076 12.9417 29.2415 12.7851C29.7368 12.6064 29.9668 12.4336 30.2886 12.1642C30.4686 12.0124 30.6476 11.8584 30.8247 11.7036C31.0326 11.5235 31.2905 11.2991 31.5407 11.0949C31.7211 10.9494 31.9588 10.7659 32.2116 10.6439ZM29.8231 5.23645C29.9892 4.60303 30.1839 4.14944 30.447 3.76732C30.5686 3.59266 30.6942 3.46406 30.8338 3.36973C30.8272 3.38447 30.8063 3.43532 30.8063 3.43532C30.422 4.37532 30.2339 5.37168 30.2306 6.48449C30.2298 6.64699 30.2104 6.81318 30.1927 6.96057C30.0899 7.83976 29.5946 8.55462 29.293 8.87667C29.3665 7.4875 29.5369 6.32052 29.8231 5.23645ZM12.5591 12.9447C12.8883 12.6307 13.1712 12.3603 13.378 12.1226C13.7351 11.7081 13.9288 11.2077 14.0816 10.7714C14.0901 10.7467 14.0978 10.722 14.1062 10.6981C14.2895 11.1701 14.3289 11.5809 14.2377 12.0032C13.996 13.1234 13.5452 13.9801 12.8611 14.6209C12.8508 14.6297 14.0022 14.5597 14.931 13.5413C15.8157 12.5718 16.283 11.4 16.3481 10.0853C16.3723 9.57936 16.315 9.08081 16.2588 8.59847L16.236 8.40317C16.0633 6.87987 14.9354 5.60899 13.4269 5.24051C13.3251 5.21545 13.2366 5.18265 13.1631 5.14396C13.1271 5.12517 13.1183 5.12038 13.1396 5.06253C13.1506 5.03121 13.1683 4.99657 13.1943 4.9553C13.4331 4.58277 13.7381 4.27693 14.1 4.04553C14.3123 3.91029 14.5162 3.78096 14.7106 3.64093C15.5468 3.04068 16.3815 2.63203 17.2625 2.38884C17.5708 2.30372 17.9033 2.26429 18.231 2.22118C18.5128 2.18396 19.4654 2.18396 19.4654 2.18396C19.4654 2.18396 19.1355 1.55091 18.0693 1.53286C18.0348 1.53249 17.9999 1.53139 17.9646 1.53139C17.9088 1.53139 17.8526 1.53286 17.7975 1.53581C17.8276 1.52549 17.857 1.51591 17.8889 1.50633C18.3441 1.36852 18.8152 1.30145 19.3299 1.30145C19.4992 1.30145 19.6745 1.30919 19.852 1.3243L19.9067 1.32909C20.1014 1.34456 20.2774 1.34456 20.4177 1.44184C21.0647 1.89065 21.6199 1.91276 21.6199 1.91276L21.5438 1.64156L21.4942 1.51701L21.4814 1.48127C21.4589 1.42195 21.4428 1.37625 21.4189 1.33093C21.395 1.28561 21.3708 1.23918 21.3465 1.19386C21.388 1.20933 21.4292 1.22702 21.4678 1.24508C21.7338 1.3711 21.9979 1.40352 22.2213 1.419C22.5736 1.44258 22.883 1.47464 23.1662 1.51591C23.5708 1.5745 23.8742 1.78416 24.07 2.14048C24.1288 2.24661 24.1957 2.34757 24.2464 2.43821C24.4657 2.82438 24.9305 2.8616 24.9305 2.8616L24.785 2.52481L24.6443 2.04136C24.7156 2.09847 24.7953 2.1567 24.8478 2.23924C25.1035 2.64272 25.705 2.68805 25.705 2.68805L25.6003 2.05647C25.6407 2.08152 27.6268 2.80927 27.7323 3.61477C27.7345 3.65862 27.733 4.23419 27.733 4.23419C27.733 4.23419 28.1004 3.48433 28.1599 3.30267C28.2488 3.38189 28.5336 3.66341 28.7334 4.23124C28.7874 4.38526 28.8352 4.52602 28.8929 4.66568C28.9307 4.75706 28.9619 4.8396 29.0049 4.91293C29.0259 4.94977 29.0137 4.98478 29.0332 5.02052C28.8492 5.63662 28.8334 6.30615 28.8264 7.18571C28.8242 7.39353 28.8289 7.60136 28.8289 7.80955V7.89799C28.8289 8.3011 28.8172 8.75618 28.8098 9.20019C28.7911 10.4298 28.5211 10.876 28.5211 10.876L28.5883 10.8514C28.6596 10.8285 28.7143 10.8046 28.7691 10.7762C29.0218 10.6457 29.25 10.4523 29.4708 10.1877C29.9043 9.66743 30.1722 9.08007 30.3985 8.52293C30.5598 8.12313 30.7321 7.70011 30.9117 7.27415C31.569 8.89399 30.0281 10.2787 30.0281 10.2787C30.0281 10.2787 31.2185 9.63463 31.5466 8.992C31.5466 8.992 31.8317 9.78239 30.5542 10.3484C29.9499 10.617 29.3268 10.879 28.7099 11.1034L28.3455 11.2372C28.1978 11.2913 28.0427 11.3716 27.8847 11.4752C27.8028 11.529 27.7234 11.5909 27.6467 11.6631C27.7462 11.2541 27.9101 10.9092 28.1015 10.5805C28.4006 10.068 28.5402 9.41244 28.6159 9.07565L28.6827 8.77902C28.6827 8.77902 28.3032 9.24736 28.0475 9.3907C28.0559 9.33801 28.067 9.28826 28.0828 9.2411C28.3855 8.35895 28.3197 7.65184 28.3197 7.65184C28.3197 7.65184 27.8564 7.98384 27.8458 7.99748C28.003 6.99521 27.8153 6.43917 27.8153 6.43917C27.8153 6.43917 27.4501 7.49045 27.1521 7.69901C27.0118 7.33495 26.7697 6.99852 26.6378 6.86882C26.23 6.46975 25.9904 5.46381 25.9904 5.46381C25.9904 5.46381 25.5734 5.7199 25.5705 5.73427C25.6006 5.6591 25.6157 5.38864 25.4966 4.84881C25.4966 4.84881 25.0954 5.26077 25.0918 5.2991C25.0918 5.2991 24.7887 4.34842 24.7145 4.34842C24.6895 4.34842 24.5682 4.75669 24.5381 4.83407C24.5344 4.79207 24.2243 4.01457 24.2188 4.19476C24.2141 4.34842 24.0443 4.69037 23.7581 4.54629C22.6482 3.98952 21.4498 3.59119 20.1881 3.49207C17.0719 3.24666 16.3198 4.10743 16.1692 4.2983C16.1692 4.2983 17.62 3.93203 19.5187 4.21466C20.7491 4.39742 21.9285 4.78801 23.0226 5.38679C23.7982 5.81091 24.4319 6.28367 24.9485 6.82497C24.8239 7.46981 20.9203 7.26678 20.9203 7.26678C20.9203 7.26678 21.9035 8.13381 24.6858 7.70232C25.0201 7.64963 25.2828 7.78486 25.5246 7.96873C25.6172 8.04059 25.6627 8.16771 25.6392 8.2333C25.6205 8.28931 25.5246 8.29816 25.4687 8.29816C25.4349 8.29816 25.3989 8.29447 25.3596 8.28968C25.2736 8.27715 25.2329 8.27347 25.2038 8.27347C25.0719 8.27347 28.1647 10.4858 25.4717 14.279C24.9125 15.0675 23.2607 15.9828 22.387 16.285C25.209 12.9941 22.5391 10.7441 21.8396 10.2319C21.226 9.78129 20.4898 9.43786 19.5246 9.14971C19.4085 9.11544 19.2898 9.08302 19.166 9.04986L18.2813 8.80482L18.7872 9.35754C18.7997 9.37338 18.8265 9.40396 18.8736 9.4246C18.9052 9.43786 18.9353 9.44966 18.9651 9.46108C19.5849 9.70354 20.0852 9.97253 20.5089 10.2887C21.2205 10.8204 24.6142 13.0445 20.6716 16.97C20.5346 17.1063 20.1764 17.306 20.1121 17.3281C21.1713 15.5358 20.2763 14.1559 20.2763 14.1559C20.2763 14.1559 19.7891 15.9485 19.5048 16.4445C19.166 17.0348 18.7174 17.5153 18.2508 17.6856C18.9867 16.2393 18.2578 15.4209 18.2578 15.4209L18.0782 16.0182C17.9565 16.422 17.8346 16.663 17.5921 16.9725C17.1336 17.5584 16.5983 18.0632 15.9998 18.4726C15.5729 18.7656 15.1496 18.99 14.7047 19.161C13.9729 19.4425 13.1936 19.6319 12.4408 19.8154L12.1425 19.8883C11.2431 20.1091 10.5131 20.2977 9.84551 20.4856C9.46598 20.5925 9.14267 20.7303 8.86051 20.9079C8.81459 20.7082 8.7727 20.4469 8.77087 20.234C8.72972 16.5982 11.1263 14.3114 12.5591 12.9447ZM6.03302 17.2393C6.12193 16.5982 6.24317 15.8428 6.46141 15.101C6.55399 14.7864 6.68368 14.391 6.88906 14.0144C6.76047 14.5288 6.65502 15.0203 6.56611 16.044C6.55472 16.1822 6.5279 16.7297 6.5279 16.7297C6.5279 16.7297 7.20906 13.7476 10.3297 13.4171C9.69671 14.3714 9.18235 15.3741 8.79842 16.4018C8.4527 17.3274 8.23667 18.2158 8.13968 19.1167C8.0684 19.78 8.06693 20.4278 8.1338 21.0417C8.09596 21.0675 8.05885 21.0936 8.01991 21.1198C7.7991 20.0549 7.7168 19.0909 7.76897 18.1742C7.81049 17.4309 8.08677 15.5351 8.08677 15.5351C8.00484 15.6519 7.66206 16.208 7.59115 16.3565C7.14513 17.2854 6.90779 18.347 6.86407 19.6035C6.83284 20.4893 6.90375 21.3969 7.08121 22.3763C7.00479 22.3623 6.91257 22.3288 6.79941 22.2735L6.78692 22.2669L6.74871 22.2308C6.69507 22.1803 6.63959 22.1276 6.5944 22.0716C6.41364 21.8534 6.27146 21.5881 6.1572 21.2628C5.91986 20.5785 5.88459 19.8725 5.88128 19.2722C5.87945 18.6528 5.92868 17.9888 6.03302 17.2393ZM4.99034 17.0437C4.95471 17.3208 4.92127 17.5964 4.89813 17.8709C4.82097 18.7814 4.85698 19.5873 5.00688 20.3353C5.13877 20.9886 5.34599 21.4883 5.65974 21.905C5.87835 22.1954 6.12193 22.4106 6.40225 22.5598C6.0738 22.9493 5.79237 23.3649 5.56165 23.7975C5.44188 23.6347 5.35627 23.4814 5.29896 23.3215L5.07521 22.705C5.07521 22.705 4.17142 23.8797 4.72398 25.8297L4.69165 25.7818C4.47893 25.4741 4.25849 25.1558 4.05716 24.8319C3.33559 23.6745 2.80616 22.5384 2.43877 21.3604C2.43362 21.3457 2.43252 21.3317 2.43362 21.3265C3.00493 19.7513 3.86464 18.3098 4.99034 17.0437ZM2.30504 23.1774C2.86605 24.4077 3.58872 25.6492 4.57886 27.0829C4.60164 27.1146 4.60972 27.1408 4.61119 27.1831C4.63287 27.6272 4.65307 28.0004 4.68357 28.3744C4.68504 28.377 4.68504 28.3796 4.68504 28.3822C3.28231 26.6654 2.39468 24.7114 2.03977 22.5561C2.1184 22.7558 2.20694 22.9622 2.30504 23.1774ZM38.3905 37.4018C37.911 37.6693 37.1898 37.7327 36.5722 37.7327C36.4179 37.7327 36.2515 37.7235 36.0773 37.7032C36.0435 37.6992 36.0116 37.6966 35.98 37.6966C35.8444 37.6966 35.6846 37.6892 35.6012 37.7979C35.4851 37.9505 35.4175 38.3076 36.1743 38.2983C36.2114 38.2972 36.5954 38.2445 36.7556 38.5272C36.8838 38.7534 36.7993 39.1329 36.7019 39.2394C36.3224 39.654 35.6556 39.0342 35.6556 39.0342C35.5119 39.0342 35.146 39.1499 34.7584 38.7615C34.3704 38.372 34.8304 37.5278 34.6753 37.4586C34.5265 37.3989 34.4843 37.3808 34.3425 37.3064C33.5232 36.8801 32.428 35.9294 32.9581 34.6205C33.3898 35.7031 34.9358 36.2481 35.6662 36.3693C37.7428 36.7124 39.2348 36.1328 39.2667 36.1206C39.2954 36.5587 38.7333 37.2106 38.3905 37.4018ZM39.0863 33.2712C39.0488 33.6441 38.9728 34.0008 38.8846 34.3958C38.77 34.912 38.4573 35.2514 37.9566 35.4032C37.7442 35.4673 37.5095 35.4964 37.2181 35.4964C36.7269 35.4964 36.2338 35.4316 35.6997 35.2982C35.1702 35.1663 34.8252 35.0307 34.5479 34.8468C34.2032 34.6191 33.9968 34.3431 33.9141 34.0019C33.8527 33.7461 33.8829 33.4853 33.9152 33.2866C33.9178 33.2748 33.9192 33.266 33.92 33.266C33.9222 33.266 33.9299 33.262 33.9472 33.255C34.9145 32.8677 35.5817 32.2722 35.9881 31.4354C36.0108 31.3864 36.0296 31.3768 36.0722 31.3724C36.1927 31.3595 36.2992 31.3521 36.3984 31.3521C36.6806 31.3521 36.9172 31.4059 37.1241 31.5157C37.2662 31.5905 37.4147 31.6292 37.5657 31.6292C37.7156 31.6292 37.8695 31.5916 38.0231 31.5165C38.1344 31.4619 38.2391 31.3978 38.3346 31.3245C38.3919 31.281 38.4471 31.2335 38.5018 31.1848C38.9669 31.7873 39.1642 32.4892 39.0863 33.2712Z" fill="#38383A"/>
<path d="M33.0404 19.675C33.4725 19.4027 33.5181 18.9678 33.5181 18.9678C33.6738 18.2909 33.0265 17.173 32.8193 16.6033C32.6506 16.1364 32.4993 15.3383 32.6242 14.8552C33.1426 15.0122 33.7874 15.4894 34.1632 15.9014C34.5684 16.3465 34.8995 16.9921 34.8473 17.5868C34.8249 17.8274 34.7114 18.1362 34.5391 18.4424C34.4656 18.5758 34.5023 18.8591 34.7481 18.8603C34.9336 18.861 35.0185 18.8319 35.16 18.6432C35.6537 17.9829 35.725 17.3867 35.0733 16.5134C34.603 15.8848 34.0978 15.4396 33.4725 14.9739C33.2958 14.842 32.982 14.6902 32.7623 14.6445C32.5224 14.5958 32.3762 14.7126 32.2946 14.9481C32.266 15.0325 32.248 15.1213 32.2336 15.2108C32.0948 15.9994 32.2733 16.7105 32.658 17.4162C33.1694 18.3525 33.165 18.7692 32.7024 19.7582C32.7024 19.7582 32.8005 19.8264 33.0404 19.675Z" fill="#38383A"/>
</g>
<defs>
<clipPath id="clip0_3_1094">
<rect width="40" height="40" fill="white" transform="matrix(1 0 0 -1 0.5 40)"/>
</clipPath>
</defs>
</svg>
