<svg width="41" height="40" viewBox="0 0 41 40" fill="none" xmlns="http://www.w3.org/2000/svg">
<g clip-path="url(#clip0_3_912)">
<path d="M26.0394 39.6299C25.5084 39.6232 24.9781 39.6216 24.4474 39.6216L23.078 39.6228C23.078 39.6228 19.1608 39.6212 17.2886 39.6212C16.9946 39.6212 16.6998 39.6224 16.4054 39.6232C16.1107 39.624 15.8163 39.6252 15.5215 39.6252C15.337 39.6252 15.1534 39.6248 14.9693 39.6236C13.8553 39.6169 12.7905 39.4831 11.8045 39.2248C7.8787 38.1976 4.90588 35.8685 2.96849 32.3034C2.03982 30.5945 1.51191 28.6826 1.40044 26.6227C1.35098 25.7066 1.39769 24.7677 1.53978 23.8328C1.55665 23.7213 1.57706 23.6099 1.59747 23.4976L1.64261 23.2425L1.71915 23.3178C1.75958 23.3579 1.77214 23.3995 1.78156 23.4309C1.81963 23.5557 1.85535 23.6817 1.89146 23.8069C1.96603 24.0679 2.04375 24.338 2.13481 24.597C2.80246 26.5014 3.81629 28.2854 5.23401 30.0536C5.29014 30.1235 5.33253 30.2008 5.35687 30.2757C5.83768 31.7559 6.67332 33.0343 7.83984 34.0791C8.97457 35.0949 10.335 35.8556 11.8889 36.3442C10.8923 35.9176 9.96996 35.3724 9.14021 34.7181C7.78686 33.6509 6.81149 32.345 6.24236 30.8362C6.18544 30.6847 6.13756 30.5018 6.21449 30.2993C6.24 30.2302 6.25806 30.1588 6.2765 30.087C6.28906 30.0375 6.30123 29.988 6.31654 29.939C6.62308 28.9369 7.08859 28.1511 7.73976 27.538C8.34617 26.9666 9.11862 26.5485 10.1014 26.2597C11.0191 25.9896 11.9768 25.8679 12.9027 25.7502L13.2996 25.6992C13.8181 25.6313 14.3436 25.5512 14.8515 25.4727L15.1573 25.4256C15.2711 25.4083 15.3841 25.3836 15.5011 25.3581L15.7865 25.2984L15.7115 25.426C15.7056 25.437 15.7009 25.446 15.6927 25.4554C15.2118 25.9939 14.8083 26.5925 14.4936 27.2366C14.4669 27.2912 14.4096 27.3414 14.3546 27.3591C14.2863 27.3814 14.2184 27.4034 14.1505 27.4262C13.9342 27.4988 13.7113 27.5718 13.4844 27.6169C13.2403 27.6656 12.9903 27.7009 12.7481 27.7347C12.5542 27.7622 12.3603 27.7892 12.1676 27.8246C11.5188 27.94 11.0168 28.1484 10.6372 28.4667C10.7204 28.4467 10.8064 28.4341 10.8908 28.422C11.0085 28.4051 11.1294 28.387 11.2397 28.3489C11.8379 28.1409 12.4941 28.0444 13.3054 28.0444L13.415 28.0448C13.5606 28.0463 13.7058 28.053 13.8534 28.0601L14.1383 28.0718L14.1171 28.1421C13.5351 30.0438 13.5516 31.9097 14.1639 33.6988C13.9076 32.4855 13.8608 31.3587 14.0194 30.2695C14.262 28.6049 14.9952 27.1703 16.2002 26.0057C17.0126 25.2203 18.032 24.5609 19.3159 23.991C20.431 23.4953 21.5928 23.1977 22.6871 22.9348L22.8939 22.8849C23.6742 22.6973 24.4812 22.5034 25.2631 22.2738C26.4355 21.9303 27.4544 21.3655 28.2916 20.5923C28.4168 20.4765 28.5593 20.345 28.6716 20.1998C29.4711 19.1636 30.4033 18.4284 31.5203 17.9519C31.5525 17.9382 31.589 17.904 31.6126 17.8652C31.978 17.2686 32.4164 16.8294 32.953 16.5213C33.0727 16.4526 33.192 16.418 33.3078 16.418C33.4546 16.418 33.6014 16.4745 33.7447 16.5833C33.7988 16.6249 33.8483 16.6684 33.8919 16.7128C34.0799 16.9016 34.2306 17.134 34.3672 17.4425C34.384 17.4794 34.3994 17.4911 34.4406 17.4962C34.5768 17.5143 34.7173 17.5327 34.8566 17.5602C37.1379 18.0116 38.7263 19.7669 39.0022 22.1419C39.0097 22.2051 39.0148 22.2691 39.0199 22.3327C39.0321 22.4834 39.0442 22.6388 39.0894 22.7789C39.1459 22.956 39.2311 23.1302 39.3143 23.2974C39.3508 23.3716 39.3881 23.4474 39.4226 23.5231C39.452 23.5883 39.4831 23.6526 39.5137 23.717C39.5863 23.8697 39.6605 24.0255 39.7221 24.1853C39.8167 24.429 39.8277 24.681 39.7551 24.9342C39.7237 25.0429 39.6577 25.059 39.6212 25.059C39.5934 25.059 39.5635 25.05 39.5333 25.0311C39.4705 24.9907 39.412 24.9459 39.3535 24.8996C39.3261 24.8769 39.2978 24.8561 39.2695 24.8349C39.2381 24.8105 39.2071 24.7866 39.1765 24.7611C39.1031 24.7038 39.0344 24.648 38.9579 24.606C38.9304 24.5907 38.9018 24.5821 38.8739 24.5821C38.8448 24.5821 38.817 24.5907 38.7911 24.6076L38.8986 24.7038C39.0906 24.8741 39.2821 25.0449 39.4705 25.218C39.5101 25.2541 39.5364 25.3204 39.5329 25.375C39.5105 25.7313 39.3861 26.0269 39.162 26.2546C38.8951 26.5246 38.6152 26.6557 38.3071 26.6557C38.2412 26.6557 38.1741 26.6494 38.1058 26.6372C38.0932 26.757 38.0677 26.8017 37.968 26.8551C37.3376 27.197 36.723 27.3634 36.0899 27.3634L35.991 27.3626C35.5596 27.3626 35.1396 27.485 34.6686 27.7476C34.5065 27.8375 34.3632 27.8991 34.2294 27.9345C33.8247 28.042 33.4161 28.0824 33.0468 28.0997C33.2054 28.1217 33.371 28.1323 33.5488 28.1323C33.6622 28.1323 33.7792 28.1276 33.9056 28.1193L33.9778 28.1119C34.0312 28.1068 34.0854 28.1021 34.1372 28.1021C34.2066 28.1021 34.2639 28.1107 34.3122 28.1307C34.6423 28.2657 34.965 28.429 35.2672 28.5837C35.3264 28.6143 35.3692 28.6268 35.4089 28.6268C35.4309 28.6268 35.452 28.6225 35.4744 28.6143L35.5627 28.5813C35.728 28.5189 35.8987 28.4545 36.0616 28.3823C36.449 28.21 36.783 28.1288 37.1127 28.1288C37.201 28.1288 37.2894 28.1354 37.3769 28.1472C37.603 28.1778 37.8667 28.2296 38.1046 28.376C38.2219 28.4483 38.3786 28.5688 38.3931 28.7937C38.3939 28.7976 38.4017 28.8109 38.4202 28.8282C38.4488 28.8545 38.4786 28.8796 38.5093 28.9047C38.5399 28.9299 38.5713 28.9562 38.6007 28.984C38.7852 29.1532 38.8664 29.3675 38.8437 29.6214C38.8366 29.6925 38.8209 29.8589 38.6784 29.8589C38.6353 29.8589 38.5846 29.8432 38.5144 29.8075C38.4849 29.7922 38.4578 29.78 38.4331 29.773C38.5026 29.8153 38.5701 29.8581 38.6364 29.9033C38.7938 30.0104 38.8708 30.1745 38.8633 30.3908C38.8484 30.8618 38.3523 31.3076 37.8424 31.3076C37.7819 31.3076 37.7223 31.3002 37.6654 31.288C37.515 31.255 37.3282 31.1922 37.2156 30.9968C37.212 30.9913 37.1991 30.9826 37.1963 30.9819L37.11 30.9858C37.0075 30.9897 36.9023 30.994 36.8046 31.0164L36.776 31.0231C36.6099 31.0615 36.4388 31.0996 36.2637 31.0996C36.1939 31.0996 36.1283 31.0933 36.0647 31.0812C35.9866 31.0666 35.9093 31.0474 35.83 31.0278L35.7727 31.014C35.6821 31.308 35.5357 31.584 35.3374 31.8359C34.8935 32.4004 34.3016 32.7984 33.5292 33.0515C32.9691 33.236 32.367 33.3282 31.7386 33.3282C31.4085 33.3282 31.0619 33.3035 30.709 33.2533C29.3172 33.0543 28.3458 32.2975 27.8206 31.0046C27.7323 30.788 27.673 30.558 27.6149 30.335C27.5871 30.2275 27.5584 30.1176 27.527 30.0104C27.3622 29.4495 27.1545 28.955 26.8916 28.4957C26.4143 27.6625 25.8239 27.0686 25.0864 26.6804C24.4969 26.3699 23.8516 26.2126 23.1694 26.2126C22.8837 26.2126 22.585 26.2396 22.2808 26.2942C22.2192 26.3052 22.158 26.3185 22.0956 26.3319C22.3103 26.3417 22.5144 26.3535 22.7204 26.3735C23.6746 26.47 24.5436 26.7632 25.3031 27.2444C26.3366 27.9003 26.9708 28.7152 27.2409 29.7349C27.392 30.3048 27.6079 30.8724 27.8822 31.4222C28.0408 31.741 28.2426 32.1099 28.533 32.4216C28.9436 32.8608 29.4727 33.161 30.1976 33.3647C30.3958 33.4209 30.5929 33.4817 30.7887 33.5445C30.897 33.5794 30.9724 33.6544 31.0191 33.7749C31.1326 34.0693 31.1608 34.3696 31.1027 34.6659C31.0175 35.1012 30.8107 35.5043 30.4696 35.898C30.2004 36.2084 29.8659 36.4341 29.5425 36.6527C29.38 36.7615 29.2273 36.8773 29.0884 36.9962C28.9695 37.0982 28.9078 37.2317 28.9145 37.3722C28.9247 37.6038 28.942 37.6124 28.9852 37.6124C29.0213 37.6124 29.0782 37.5987 29.17 37.5688C29.2152 37.5539 29.2599 37.5359 29.3043 37.5163L29.5735 37.4001C29.7274 37.3337 29.8809 37.267 30.0359 37.2026C30.3719 37.0625 30.7043 36.9907 31.023 36.9907C31.1934 36.9907 31.3637 37.0111 31.5298 37.0507C32.1264 37.1936 32.5181 37.548 32.6939 38.105C32.741 38.2557 32.7344 38.3845 32.6723 38.4893C32.6315 38.5587 32.5381 38.6168 32.4604 38.6192C32.3882 38.6192 32.3207 38.5552 32.2688 38.4983C32.2398 38.4665 32.2327 38.4249 32.2272 38.3888C32.2249 38.377 32.2229 38.3645 32.2202 38.3535C32.1672 38.1552 32.0938 38.0257 31.9831 37.939C32.1809 38.2078 32.2696 38.4952 32.2535 38.8143C32.2371 39.131 32 39.3516 31.6762 39.3516C31.6628 39.3516 31.6499 39.3512 31.6357 39.3504C31.5129 39.343 31.4348 39.2766 31.4218 39.1675C31.4132 39.0922 31.4132 39.0144 31.4128 38.9399C31.4128 38.9089 31.4128 38.8775 31.412 38.8468C31.4112 38.806 31.4116 38.7664 31.412 38.7256C31.412 38.6384 31.4124 38.5564 31.4014 38.4755C31.3771 38.3013 31.2735 38.1835 31.0933 38.1258C31.0807 38.1211 31.0682 38.118 31.0548 38.1168C31.1094 38.1478 31.1565 38.1906 31.1899 38.2526C31.2566 38.3762 31.3135 38.4889 31.3445 38.6102C31.4246 38.9324 31.3457 39.1836 31.1165 39.3375C30.9975 39.4164 30.8452 39.4458 30.711 39.4646C30.6564 39.4725 30.6031 39.4748 30.5493 39.4748C30.3487 39.4748 30.1525 39.4277 29.9633 39.383L29.8671 39.3598C29.6877 39.3186 29.5288 39.2978 29.3761 39.2974C29.2458 39.2974 29.1104 39.3226 28.9793 39.3469L28.9184 39.3579C27.9242 39.5369 27.0305 39.6236 26.187 39.6236L26.0394 39.6299Z" fill="#E65270"/>
<path opacity="0.2" d="M34.1317 28.0271C34.1317 28.0271 32.6657 29.7761 30.176 28.774C27.8956 27.8552 28.7269 25.3263 28.7269 25.3263C28.7269 25.3263 29.1312 26.8947 30.3111 27.4889C32.0192 28.3497 34.1317 28.0271 34.1317 28.0271Z" fill="#430A1D"/>
<path opacity="0.2" d="M26.9084 28.776C27.226 29.0986 27.2318 29.4287 27.3315 29.831C27.5195 30.5878 27.7507 31.2448 28.2327 31.8673C28.6963 32.4655 29.2509 32.8886 29.9672 33.1638C30.5877 33.4016 31.3857 33.3314 31.2668 34.2553L31.0587 35.0333C29.473 35.0333 27.9874 34.3095 27.3822 32.7356C26.8515 31.3547 27.4768 29.6862 25.8683 27.3516C25.997 27.5094 26.744 28.608 26.9084 28.776Z" fill="#430A1D"/>
<g opacity="0.2">
<path d="M26.2804 28.0899C26.3047 28.188 26.3267 28.2877 26.3491 28.387C26.2898 28.3144 26.2592 28.2218 26.2804 28.0899Z" fill="#2B2B2B"/>
</g>
<path d="M7.80295 34.1234C1.8208 33.5323 1.11665 27.5776 1.11665 27.5776C1.11665 27.5776 0.791661 24.8176 1.54998 22.1101C2.03707 27.036 5.98879 30.4464 5.98879 30.4464C5.98879 30.4464 6.85701 33.2532 7.80295 34.1234Z" fill="url(#paint0_linear_3_912)"/>
<path opacity="0.2" d="M6.31103 31.8556C6.31103 31.8556 5.05659 31.9749 3.38257 29.9429C4.99654 32.8714 7.08819 32.931 7.08819 32.931L6.31103 31.8556Z" fill="#2B2B2B"/>
<path d="M9.54445 35.275C9.23084 29.7682 12.4639 32.3234 14.1328 29.4032C14.6019 26.848 16.0098 25.2317 16.0098 25.2317C16.0098 25.2317 5.99858 23.3547 5.84119 30.6549C6.18973 32.2355 7.72206 33.7639 8.68134 34.5909C8.49372 34.1678 6.10377 27.5914 14.063 28.1275C11.3158 27.8936 7.34918 30.7636 9.23987 35.0631C9.42945 35.2012 9.54445 35.275 9.54445 35.275Z" fill="url(#paint1_linear_3_912)"/>
<path opacity="0.2" d="M12.2508 27.3335C10.1815 28.1115 6.66744 28.1079 7.66754 33.3883C7.50739 33.5084 6.70747 32.2681 6.90726 32.3886C5.98723 27.6675 10.1195 27.9403 12.2508 27.3335Z" fill="white"/>
<path opacity="0.6" d="M14.8711 25.442C16.8835 24.6461 15.2495 26.9029 14.9638 27.264C14.3032 28.0993 12.6319 27.8277 11.7413 28.1064C11.2291 28.2665 9.17591 28.5676 8.4957 30.5116C8.19347 31.3728 8.07965 32.7807 8.72374 34.494C8.56399 34.6148 7.50541 33.4554 7.70559 33.5747C6.00684 25.9876 14.0194 28.7108 14.8711 25.442Z" fill="#8B4FBA"/>
<path d="M34.8778 22.344C34.9324 22.1933 35.0262 22.0006 35.1443 21.8868C35.1718 21.8997 35.2013 21.9013 35.2236 21.9154C35.4199 21.7882 35.73 21.8051 35.9764 21.8051C36.124 21.8051 36.3391 21.7643 36.4816 21.8196C36.6888 21.9001 36.6653 22.1183 36.752 22.2836C36.9145 22.5921 37.4154 22.596 37.4173 23.0321C37.4189 23.2374 37.4703 23.5156 37.4177 23.7166C37.3785 23.8658 37.2117 23.8202 37.068 23.8202C36.6327 23.8202 36.1986 23.8324 35.7625 23.8324L35.1596 23.383C34.9987 23.4344 34.8727 23.0968 34.8508 22.9822C34.8146 22.793 34.8099 22.5312 34.8778 22.344Z" fill="#F9E0E7"/>
<path d="M36.8894 22.9414C36.9632 22.9112 37.0719 22.793 37.1174 22.7236C37.1504 22.6737 37.141 22.6419 37.2116 22.6439C37.3957 22.649 37.3973 22.8974 37.3879 23.0258C37.3769 23.1899 37.3105 23.3406 37.2866 23.5019C37.2269 23.487 37.194 23.412 37.1269 23.3932C37.0735 23.3775 36.9969 23.3849 36.9412 23.3873C36.8596 23.3908 36.7465 23.4458 36.6727 23.4144L36.8894 22.9414Z" fill="white"/>
<path d="M13.0464 14.8708C13.0739 14.839 13.0809 14.8296 13.0896 14.8206C13.8883 14.0748 14.3118 13.1336 14.5395 12.0813C14.689 11.3924 14.4983 10.7848 14.1882 10.191C14.1827 10.1812 14.1729 10.1714 14.1623 10.158C14.1003 10.3519 14.0438 10.5423 13.9778 10.7295C13.8157 11.1911 13.6195 11.6377 13.3078 12.02C13.1834 12.1723 7.96466 15.0631 8.502 21.4652C8.50553 21.5049 8.51221 21.5426 8.5177 21.5869C8.61426 21.497 8.69864 21.404 8.79559 21.3275C9.14296 21.0559 9.5441 20.8828 9.9625 20.7658C10.7283 20.5523 11.4992 20.356 12.2708 20.1672C13.1488 19.9521 14.032 19.7527 14.879 19.4285C15.3579 19.2456 15.803 19.0046 16.228 18.7142C16.8615 18.2809 17.4083 17.762 17.8793 17.1614C18.1537 16.8117 18.2816 16.5448 18.4052 16.1339C18.4834 16.3454 18.4425 16.935 18.3248 17.311C18.2031 17.6996 17.9963 18.0387 17.7266 18.3499C17.7914 18.3291 17.862 18.3185 17.9197 18.2856C18.6663 17.8601 19.3276 17.3361 19.8159 16.6178C20.1433 16.1366 20.3426 15.6099 20.3705 15.0235C20.3709 15.0152 20.3744 15.007 20.3772 14.994C20.5326 15.7131 20.5102 16.9377 19.6993 17.8083C19.9859 17.707 20.2449 17.6054 20.5102 17.5265C20.7297 17.4613 20.8745 17.333 20.9958 17.1402C21.528 16.2979 21.9692 15.4148 22.2078 14.441C22.3923 13.689 22.4382 12.9338 22.2314 12.1782C21.9967 11.3241 21.4809 10.6667 20.7791 10.1443C20.2916 9.7812 19.7539 9.51195 19.1895 9.29136C19.1553 9.27801 19.1212 9.26585 19.0878 9.25093C19.0823 9.24897 19.0796 9.24269 19.058 9.21914C19.2534 9.27291 19.4289 9.31844 19.602 9.36986C20.4105 9.61007 21.1853 9.92329 21.8714 10.4249C22.4837 10.8724 22.9524 11.4305 23.1867 12.1645C23.3959 12.8215 23.3779 13.4856 23.2275 14.1498C23.0077 15.1181 22.5568 15.9808 22.0072 16.7976C21.9904 16.8231 21.9739 16.8482 21.9578 16.8733C21.9554 16.8773 21.9558 16.8835 21.9527 16.8977C21.9755 16.8894 21.9935 16.8835 22.01 16.8745C23.1604 16.2862 24.1833 15.5337 24.9981 14.5226C25.7894 13.5414 26.3652 12.4487 26.6388 11.2107C26.983 9.64854 26.6054 8.26143 25.5936 7.038C24.9542 6.26359 24.1637 5.67797 23.2884 5.20069C22.1591 4.58603 20.9577 4.18411 19.6864 3.99924C18.9634 3.89366 18.2396 3.87364 17.517 4.01258C17.1198 4.08794 16.8623 4.19235 16.4219 4.44669C16.4777 4.3992 16.5307 4.34896 16.5891 4.30618C16.9844 4.00591 17.4401 3.85087 17.9185 3.75392C18.7098 3.59378 19.5078 3.59575 20.3057 3.68877C21.5413 3.83321 22.7193 4.17547 23.8347 4.72733C23.9439 4.78228 24.0518 4.83841 24.1723 4.90043C24.1723 4.79916 24.1664 4.71085 24.1739 4.62332C24.1841 4.4883 24.252 4.41097 24.3583 4.39841C24.4596 4.38585 24.5193 4.42393 24.5389 4.52362C24.555 4.60801 24.5593 4.69475 24.5715 4.77953C24.5989 4.97265 24.6884 5.13632 24.8211 5.27841C24.8341 5.29293 24.8501 5.30549 24.8662 5.31648C24.8737 5.32237 24.8843 5.32197 24.9126 5.32747C24.9126 5.258 24.9129 5.19402 24.9126 5.13043C24.9106 5.0013 24.9055 4.87177 24.9082 4.74264C24.9094 4.71085 24.9318 4.65982 24.9538 4.65354C24.984 4.6453 25.0389 4.66061 25.0578 4.68455C25.1084 4.75127 25.163 4.82349 25.1861 4.90278C25.2368 5.07077 25.2595 5.24661 25.3121 5.41343C25.3467 5.52137 25.4016 5.62813 25.4703 5.71762C25.5457 5.81574 25.6218 5.79416 25.6505 5.67405C25.6772 5.56179 25.687 5.44522 25.7038 5.33061C25.7097 5.29097 25.7109 5.25015 25.7231 5.21325C25.7329 5.18146 25.756 5.15516 25.7733 5.12572C25.7992 5.14967 25.8373 5.16733 25.8487 5.19716C25.875 5.26388 25.9009 5.33571 25.904 5.40597C25.9123 5.5614 25.8977 5.71801 25.9091 5.87266C25.915 5.95508 25.9425 6.043 25.9829 6.11444C26.0277 6.19412 26.0995 6.1847 26.1242 6.0956C26.1599 5.96843 26.1776 5.83694 26.2035 5.70702C26.2212 5.6191 26.2396 5.53157 26.2612 5.42402C26.3652 5.51273 26.3903 5.61125 26.4005 5.70663C26.4272 5.96058 26.4402 6.2157 26.4626 6.47005C26.4798 6.6608 26.5454 6.8284 26.658 6.99129C26.8625 7.28763 27.0435 7.60124 27.2264 7.9121C27.3206 8.07146 27.4077 8.08598 27.4956 7.92192C27.5953 7.73548 27.6695 7.53648 27.7539 7.3414C27.7908 7.25623 27.8218 7.16949 27.8606 7.08549C27.8787 7.04467 27.9093 7.01013 27.9372 6.96774C28.0373 7.04035 28.0612 7.13534 28.042 7.22954C28.0133 7.37123 27.9611 7.509 27.9242 7.64913C27.8846 7.8022 27.8422 7.95489 27.8183 8.1111C27.8092 8.1739 27.8375 8.24926 27.8661 8.3101C27.9066 8.39841 27.9709 8.40901 28.04 8.33993C28.1103 8.27007 28.1648 8.18489 28.2331 8.11385C28.272 8.07303 28.3254 8.0483 28.3721 8.01612C28.3984 8.07342 28.4518 8.13308 28.447 8.18803C28.4372 8.30461 28.4094 8.42353 28.3666 8.53265C28.2794 8.75441 28.1621 8.96558 28.0871 9.19049C28.033 9.35377 28.0228 9.53236 28.0051 9.70545C28.0004 9.74784 28.0357 9.82281 28.0691 9.83497C28.104 9.84714 28.1731 9.8126 28.2041 9.77846C28.3466 9.62224 28.4804 9.457 28.6201 9.29646C28.6543 9.25643 28.6998 9.22817 28.7399 9.19363C28.7536 9.20069 28.7665 9.20618 28.7803 9.21364C28.7669 9.30431 28.7705 9.40244 28.7375 9.48683C28.6814 9.62695 28.6119 9.76472 28.5318 9.89228C28.4051 10.0952 28.2602 10.2856 28.1303 10.4857C27.8901 10.8559 27.7311 11.2602 27.6314 11.6903C27.5596 11.9996 27.4575 12.3023 27.3681 12.6064C27.3575 12.6441 27.3441 12.6806 27.3425 12.7226C27.4207 12.5982 27.4968 12.471 27.5777 12.347C27.7468 12.0864 27.9419 11.8469 28.2041 11.6742C28.336 11.5879 28.4777 11.5102 28.6252 11.456C29.384 11.1769 30.1509 10.9175 30.8743 10.5536C31.08 10.4489 31.2766 10.3229 31.4638 10.1863C31.7005 10.0143 31.788 9.77453 31.7174 9.48408C31.6679 9.28233 31.6185 9.08098 31.5671 8.87099C31.4446 9.06645 31.3367 9.25486 31.213 9.43148C31.0894 9.60811 30.9367 9.75804 30.7094 9.85892C30.7298 9.82006 30.7357 9.80318 30.7459 9.78945C31.0647 9.35023 31.2483 8.85097 31.3904 8.33404C31.405 8.28066 31.3885 8.21629 31.379 8.15859C31.3139 7.78179 31.3453 7.4042 31.3622 7.02622C31.3661 6.95125 31.3661 6.87315 31.3555 6.79857C31.3512 6.76403 31.3229 6.72085 31.2935 6.7079C31.2735 6.69887 31.2213 6.72635 31.2036 6.75029C31.1306 6.85313 31.049 6.954 30.9999 7.06744C30.8025 7.52627 30.6133 7.98903 30.4249 8.45062C30.1902 9.0272 29.9256 9.58691 29.5225 10.0681C29.3404 10.286 29.1328 10.4755 28.878 10.6078C28.8293 10.6325 28.7775 10.6526 28.723 10.6698C29.1174 10.262 29.2062 9.74588 29.2238 9.21796C29.247 8.54207 29.2336 7.86461 29.2403 7.18794C29.2474 6.45631 29.3078 5.73096 29.526 5.02603C29.5343 4.99816 29.5205 4.95734 29.5052 4.92947C29.4436 4.80937 29.3655 4.69711 29.3145 4.57308C29.2073 4.31285 29.1178 4.04595 29.013 3.78415C28.9518 3.63029 28.931 3.6189 28.7662 3.63068C28.5887 3.64324 28.4828 3.54158 28.3886 3.41559C28.3167 3.32021 28.2873 3.32256 28.2378 3.43443C28.1841 3.5561 28.1417 3.68131 28.0836 3.80102C28.0636 3.84184 28.0125 3.86854 27.9757 3.90151C27.9474 3.8599 27.9003 3.81908 27.8956 3.77473C27.8803 3.62989 27.8842 3.48388 27.874 3.33865C27.8693 3.26643 27.8595 3.19343 27.8351 3.12592C27.8234 3.09413 27.7747 3.05959 27.7398 3.05684C27.7146 3.05488 27.6711 3.09766 27.6605 3.12984C27.6248 3.23307 27.6036 3.34062 27.571 3.44463C27.5447 3.52823 27.5074 3.53726 27.4575 3.46897C27.0945 2.97441 26.6101 2.62391 26.0924 2.31226C25.9397 2.22041 25.7894 2.12425 25.6375 2.03162C25.6269 2.03515 25.6163 2.03908 25.6065 2.04183C25.6257 2.21021 25.6458 2.3782 25.665 2.54619C25.6512 2.55365 25.6375 2.55993 25.6242 2.56699C25.5763 2.52617 25.5213 2.49242 25.4813 2.44453C25.3804 2.3256 25.2894 2.19922 25.1873 2.08068C24.9856 1.84361 24.7312 1.67405 24.4867 1.61792C24.564 1.88286 24.6378 2.13367 24.7108 2.38527C24.6994 2.39115 24.6869 2.39586 24.6755 2.40096C24.65 2.36956 24.6205 2.34052 24.5997 2.30637C24.5405 2.21021 24.482 2.11444 24.4278 2.01553C24.1947 1.59359 23.8351 1.35023 23.3633 1.28233C23.0423 1.23602 22.7177 1.2054 22.3943 1.18342C22.1568 1.16694 21.9295 1.132 21.7121 1.02799C21.5598 0.959302 21.3965 0.912201 21.2364 0.858821C21.2093 0.849401 21.174 0.860783 21.1426 0.862745C21.1449 0.896893 21.1379 0.936535 21.1516 0.964795C21.227 1.11238 21.309 1.25643 21.3847 1.40401C21.4126 1.457 21.4307 1.51548 21.4526 1.57161C21.4452 1.57985 21.4381 1.58731 21.4311 1.59555C21.3828 1.57946 21.3325 1.56847 21.2874 1.54649C21.0786 1.44522 20.8666 1.34984 20.6649 1.23602C20.4592 1.11983 20.2331 1.11041 20.0102 1.09157C19.3135 1.03309 18.6254 1.0798 17.9523 1.28351C17.5429 1.40675 17.1645 1.5928 16.8317 1.88051C16.8737 1.87619 16.9169 1.87619 16.9577 1.86873C17.3643 1.78513 17.771 1.70663 18.1894 1.72037C18.4739 1.72939 18.7514 1.77492 19.0019 1.91936C19.0415 1.94213 19.067 1.99001 19.0992 2.02573C19.0431 2.04536 18.9842 2.08304 18.9304 2.07597C18.8005 2.06066 18.6733 2.01239 18.5426 2.00179C18.1258 1.9645 17.7246 2.06067 17.3278 2.17017C16.367 2.43394 15.4968 2.88257 14.6886 3.45994C14.4916 3.60006 14.2871 3.72998 14.0826 3.86029C13.6838 4.11385 13.3608 4.44159 13.1057 4.83841C13.0758 4.88551 13.048 4.93614 13.0291 4.98835C12.9769 5.13357 13.0154 5.25486 13.1528 5.32708C13.2505 5.37889 13.3596 5.41578 13.468 5.44208C14.9041 5.79219 15.9737 6.97598 16.1393 8.44041C16.2017 8.98952 16.2783 9.54021 16.2508 10.0972C16.1876 11.3756 15.7296 12.4895 14.8763 13.4409C14.3687 14.0069 13.7686 14.4571 13.112 14.8359C13.099 14.8449 13.0849 14.8508 13.0464 14.8708Z" fill="url(#paint2_linear_3_912)"/>
<path opacity="0.2" d="M31.4497 6.38446C30.8397 11.1487 28.7253 10.0705 27.3421 12.7301C27.2664 12.6296 27.0921 13.4428 27.4407 11.9329C27.7896 10.4214 28.7893 11.1039 29.7356 9.37534C30.9339 7.19027 30.6945 6.99441 31.4497 6.38446Z" fill="#8B4FBA"/>
<path opacity="0.3" d="M25.1332 6.47397C24.9063 7.83753 22.9783 7.77591 21.3286 7.19736C19.5357 6.56857 15.8112 6.36682 15.5113 7.11689C15.3618 7.28881 15.0615 6.58191 15.0615 6.58191C15.0615 6.58191 17.8903 3.49566 22.6258 6.75304C22.4331 6.45317 24.3277 5.57553 24.3277 5.57553C24.3277 5.57553 24.8977 5.40244 25.1332 6.47397Z" fill="white"/>
<path opacity="0.2" d="M15.3209 19.5667C15.4237 19.8218 16.2613 19.6499 16.3398 19.2515C15.1042 17.8518 18.3573 15.2798 15.357 11.9227C17.3207 17.1018 13.1406 17.3125 15.3209 19.5667Z" fill="#8B4FBA"/>
<path opacity="0.6" d="M15.3209 19.5667C15.4237 19.8218 15.4053 19.7488 15.4838 19.3504C14.2482 17.9504 17.5393 15.909 15.357 11.9227C17.3207 17.1018 13.1406 17.3126 15.3209 19.5667Z" fill="#8B4FBA"/>
<path d="M19.8238 18.5446C25.7615 12.2964 18.2549 13.3428 15.8084 9.10178C15.8128 9.02877 15.8179 8.95812 15.8179 8.88315C15.8179 8.29361 15.675 7.73861 15.4261 7.24641C17.716 10.6427 23.5211 7.64794 22.3935 14.5909C22.2918 14.9481 21.484 18.4665 19.8238 18.5446Z" fill="url(#paint3_linear_3_912)"/>
<path d="M19.8238 18.5446C17.3789 19.7445 15.2417 19.7794 15.3429 19.4234C20.2002 16.1276 16.2791 12.7312 15.3649 9.53195C15.4273 9.27368 15.8179 9.17752 15.8179 8.88432C15.8179 8.85292 15.8143 8.82309 15.8135 8.79208C15.8842 9.10962 16.0514 9.21991 16.2115 9.38084C18.4692 11.6581 25.6458 12.4192 19.8238 18.5446Z" fill="url(#paint4_linear_3_912)"/>
<path d="M19.058 18.4516C22.8182 12.8357 15.7986 11.7688 15.8497 9.98844C15.2903 13.6505 22.0186 15.2182 15.697 19.6012C15.5957 19.9568 16.6131 19.6515 19.058 18.4516Z" fill="#E65271"/>
<path d="M29.5645 8.69593C29.8632 9.1948 29.5315 9.78356 29.1838 10.335C28.8627 10.8445 28.0875 10.6777 27.5616 11.9058L27.6067 10.9489C28.1896 9.93349 27.2036 8.53579 26.9292 7.59104C26.4621 5.98177 25.9543 4.49693 26.5732 2.86412C26.6152 2.75461 26.6509 2.63451 26.6933 2.52186C27.0018 2.7499 27.235 2.97716 27.5007 3.32374C27.6762 3.55375 27.6149 2.73028 27.8457 2.90337C28.0153 3.02858 27.8375 3.61105 27.9992 3.74568C28.1805 3.89876 28.2896 3.01249 28.4211 3.20874C28.7277 3.66954 28.9035 3.37712 29.0342 3.51528C29.1524 3.64049 29.4287 4.60566 29.5402 4.73636C29.6493 4.86314 29.7533 4.99384 29.8561 5.12533C29.7941 5.82791 29.6575 6.61763 29.4314 7.25152C29.2183 7.85048 29.2081 8.10011 29.5645 8.69593Z" fill="url(#paint5_linear_3_912)"/>
<path d="M21.2065 1.36004C21.2246 1.36672 21.2403 1.36946 21.2497 1.36907C21.4142 1.36632 20.8066 0.602119 20.9812 0.602119C21.276 0.602119 21.6924 0.906702 21.9809 0.929075C22.5901 0.975783 23.2216 0.962045 23.7613 1.20893C24.2786 1.446 24.5086 2.18194 24.6244 2.21295C24.741 2.24514 24.343 1.3624 24.4572 1.40165C24.6507 1.4668 24.8054 1.56258 24.9329 1.66855C25.4432 2.399 25.6088 6.01906 24.8603 5.92564C24.0738 5.82751 26.101 6.20353 26.1093 6.17331C26.7871 3.6138 25.2768 2.03986 25.3451 2.12856C25.4342 2.24632 25.5064 2.33777 25.5829 2.36721C25.7442 2.42922 25.4828 1.75019 25.63 1.84008C26.0983 2.12621 26.4303 2.32796 26.7031 2.53127C26.7114 2.54305 26.7137 2.57131 26.7271 2.56581C26.928 2.48221 28.1683 2.19058 27.2244 6.64628C28.6578 3.74529 27.5356 2.60703 27.6455 2.72596C28.1546 3.27546 28.2586 4.61703 28.3242 5.41264C28.3862 6.15879 27.9168 7.8599 27.3084 8.42235C26.8802 8.818 26.8888 8.32815 26.7279 7.94978C26.4637 7.32845 25.9794 6.82761 25.5398 6.31579C25.2124 5.93506 24.8152 5.65678 24.4553 5.31608C24.0632 4.94478 23.8567 4.42589 23.5062 4.01847C23.193 3.65423 22.8075 3.36416 22.5096 2.98422C22.1756 2.55875 21.9519 2.07204 21.5829 1.68033C21.4656 1.55473 21.3345 1.46052 21.2065 1.36004Z" fill="#E65271"/>
<path d="M23.9552 0.95338C24.8313 0.950632 25.3812 1.37022 26.1061 1.77136C26.7071 2.10538 27.4454 2.10852 27.9529 2.56853C28.6268 3.18044 28.9184 3.78686 29.0452 4.68255C29.19 5.70228 29.2073 7.00225 29.0146 8.01844C28.9157 8.53968 28.5452 9.60808 28.1546 9.9892L27.686 9.69089C26.7616 7.30408 23.9756 6.32479 22.9214 3.97879C22.6105 3.28838 22.4935 2.39112 22.4861 1.63673C22.4778 0.847012 23.317 0.955342 23.9552 0.95338Z" fill="url(#paint6_linear_3_912)"/>
<path d="M15.2381 6.91785C14.7286 6.12617 13.922 5.54409 12.9745 5.33253C12.7335 5.27875 12.3018 5.12882 12.7292 4.61425C13.1865 3.90068 13.8435 3.62671 14.1972 3.36452C15.6192 2.30868 15.0312 2.20074 15.861 2.10497C16.1852 2.06729 16.0996 2.03903 16.2641 2.10497C16.4286 2.17091 16.1377 2.05866 16.0337 1.98997C15.1082 1.37727 15.1749 2.59953 15.5729 2.33537C16.7575 1.41927 19.4862 0.77635 20.2511 0.907446C20.3626 0.926286 21.1315 1.3706 21.2493 1.36864C21.4137 1.36589 20.8061 0.601686 20.9808 0.601686C21.2756 0.601686 21.692 0.906269 21.9805 0.928641C22.5775 0.974564 24.3928 1.80706 24.3799 3.9988C24.376 4.66841 24.4172 5.13785 24.3269 5.5747C23.6651 8.78067 16.9639 4.2814 15.2381 6.91785Z" fill="#F6E8A0"/>
<path d="M23.2593 4.9416C22.9489 4.55381 20.9306 3.85476 20.9306 3.85476C20.9306 3.85476 17.5786 2.69963 14.4877 5.9892C16.0675 4.73515 18.8437 5.2611 20.8513 5.49268C21.1167 5.52369 20.2779 5.256 20.4977 5.17475C21.2434 4.89882 21.9338 5.67205 22.6772 5.5229C23.0238 5.45343 23.2322 5.26542 23.2593 4.9416Z" fill="white"/>
<path d="M20.6884 4.39879C19.4576 4.07458 18.2271 4.54912 17.99 4.56364C18.1015 4.39604 18.2832 4.00942 19.195 3.87597C19.4046 3.84496 19.8246 3.87872 20.0447 3.87833C20.4388 3.87754 20.6833 3.97253 21.0311 4.14013C21.2529 4.24689 21.789 4.36072 21.9594 4.33403C21.9594 4.33403 23.8457 4.47611 23.2209 5.11589C22.5968 5.75528 21.6854 4.29124 19.686 4.7595C19.6864 4.69434 20.1433 4.36817 20.6884 4.39879Z" fill="#F6E8A0"/>
<path d="M18.8225 1.74588C18.0445 1.23092 16.6845 1.67248 16.5079 1.67013C16.504 1.65207 16.5146 1.63206 16.5464 1.61204C17.7313 0.695936 19.487 0.777577 20.252 0.908673C20.2579 0.909458 20.2661 0.912205 20.2747 0.915345C20.2783 0.916522 20.2838 0.918485 20.2885 0.920448C20.4541 0.984033 20.9954 1.28901 21.1924 1.35613C22.3456 2.00964 24.1676 3.38968 24.3281 5.57593C23.673 5.28469 23.202 5.00091 22.8401 4.72459C22.7185 4.63157 19.9623 1.75099 12.6676 5.21208C12.6676 5.21208 12.4647 5.10061 12.5805 4.83998C14.2278 2.19294 17.2356 1.43266 22.0253 3.93958C21.3463 3.13024 21.017 2.39665 18.8225 1.74588Z" fill="#F8D285"/>
<path d="M23.4854 16.6229C26.1874 13.8601 27.2884 11.7959 25.9805 9.57318C23.8626 5.97078 17.34 9.72821 14.5034 6.09363C14.804 6.43707 15.443 7.11728 16.0612 7.4517C18.1638 8.82546 22.1215 8.3835 23.3826 9.44561C25.0048 10.8115 25.4193 13.5657 23.4854 16.6229Z" fill="url(#paint7_linear_3_912)"/>
<path d="M14.6835 10.8484C14.6804 11.0337 15.1043 12.1025 15.0379 12.3485C14.4688 14.4496 12.0023 15.4803 12.0023 15.4803C12.0023 15.4803 9.24028 16.5919 8.80146 21.6725C8.29749 22.0351 8.36736 21.2631 8.38306 20.92C8.69667 14.2569 14.24 15.0019 14.6835 10.8484Z" fill="url(#paint8_linear_3_912)"/>
<path d="M24.0808 21.8585C24.0353 21.8377 23.9917 21.8102 23.9442 21.7965C23.702 21.729 23.4583 21.667 23.2157 21.5979C23.1392 21.5763 23.0662 21.5414 22.9912 21.5127C22.9916 21.4962 22.9924 21.4801 22.9928 21.464C23.0799 21.4483 23.1659 21.4209 23.253 21.4197C23.6012 21.4158 23.9497 21.4205 24.2983 21.4213C24.7901 21.4224 25.2842 21.4201 25.7588 21.2764C25.9903 21.2058 26.216 21.0998 26.4284 20.9816C28.6707 19.7335 30.2553 17.9068 31.2087 15.5278C31.4037 15.0415 31.5533 14.5387 31.6687 14.0285C31.6757 14.0002 31.6789 13.9708 31.6875 13.9217C31.6502 13.9445 31.6263 13.9554 31.6039 13.97C30.2317 14.91 28.7331 15.5474 27.0976 15.8571C26.5131 15.9674 25.9224 16.0228 25.3278 16.04C25.283 16.0412 25.2265 16.0581 25.1971 16.0887C24.3077 16.9958 23.2573 17.6662 22.1238 18.2235C21.2198 18.6682 20.2649 18.9375 19.2832 19.1282C18.0245 19.3728 16.7626 19.6051 15.5034 19.8473C13.9574 20.1444 12.4191 20.4745 10.9245 20.9801C9.97659 21.3004 9.05775 21.6854 8.21779 22.2369C7.58547 22.6529 7.02262 23.1443 6.62462 23.7986C6.48489 24.0294 6.38558 24.285 6.26548 24.5279C6.2435 24.5715 6.21995 24.617 6.18619 24.6504C5.35252 25.4656 5.02438 26.4575 5.15234 27.6083C5.24732 28.4596 5.55191 29.2383 5.98719 29.9711C6.03861 30.0571 6.08218 30.1466 6.12221 30.2224C6.14302 30.0367 6.1595 29.8287 6.18855 29.6226C6.37263 28.3113 7.04813 27.3347 8.19699 26.6824C8.86542 26.3016 9.58527 26.05 10.3314 25.8852C11.1494 25.7046 11.9744 25.5527 12.7991 25.4032C13.8004 25.2223 14.8071 25.0711 15.7805 24.7642C15.9697 24.7049 16.1569 24.6362 16.3426 24.5656C16.582 24.4757 16.8058 24.3599 17.0142 24.2053C17.7042 23.697 18.4602 23.3076 19.2573 22.996C19.2789 22.9877 19.3001 22.9783 19.3213 22.9701C19.3225 22.9669 19.3229 22.9626 19.326 22.9536C19.3131 22.9524 19.3017 22.9508 19.2899 22.9508C18.3981 22.9516 17.5052 22.9563 16.6134 22.9516C15.8159 22.9465 15.0207 22.9712 14.2294 23.0753C13.1339 23.2205 12.0737 23.5043 11.0415 23.8972C9.82352 24.3619 8.67074 24.9565 7.55328 25.6238C7.52345 25.6418 7.49244 25.6591 7.45241 25.6662C7.47321 25.6493 7.49283 25.6305 7.51324 25.6148C8.73668 24.6873 10.0394 23.8952 11.4763 23.3398C12.4768 22.954 13.5099 22.7004 14.5775 22.5874C15.518 22.4881 16.4588 22.4975 17.4 22.5658C18.2141 22.6251 19.0277 22.6843 19.8422 22.7401C19.9128 22.746 19.9886 22.7357 20.0569 22.7157C20.8619 22.4708 21.6858 22.3268 22.5175 22.2086C23.0085 22.1384 23.4932 22.0206 23.9799 21.9237C24.0133 21.917 24.0447 21.8997 24.0761 21.8868C24.0777 21.8777 24.0792 21.8683 24.0808 21.8585Z" fill="url(#paint9_linear_3_912)"/>
<path opacity="0.2" d="M9.09351 24.6033C12.2822 20.794 20.5554 22.7907 24.0808 21.8589C21.8487 23.1412 20.033 22.9194 20.033 22.9194C20.033 22.9194 12.4149 22.0783 9.09351 24.6033Z" fill="white"/>
<path d="M33.4746 10.1478C33.3667 10.1663 33.287 10.1714 33.214 10.1949C32.9267 10.2848 32.6272 10.3515 32.3579 10.481C32.1016 10.6047 31.8642 10.7801 31.642 10.9607C31.2114 11.3108 30.8005 11.6833 30.3758 12.0377C30.028 12.3278 29.6587 12.5872 29.2191 12.7218C29.0774 12.765 28.9302 12.7897 28.7818 12.8141C29.3549 12.5256 29.6756 12.0114 30.008 11.4839C29.9798 11.489 29.9696 11.4878 29.9621 11.4913C29.0884 11.9188 28.2323 12.3753 27.4548 12.9668C27.2472 13.1249 27.0835 13.3047 26.9665 13.55C26.7797 13.9402 26.543 14.3072 26.3279 14.6832C26.3185 14.7001 26.3083 14.7165 26.282 14.7617C26.4704 14.722 26.6352 14.6957 26.797 14.6545C27.4815 14.4795 28.1181 14.1831 28.743 13.8613C29.7191 13.3561 30.6478 12.7721 31.5498 12.1453C31.5769 12.1264 31.6047 12.1084 31.6408 12.0974C31.6326 12.1088 31.6259 12.1213 31.6161 12.1307C30.5465 13.1972 29.3471 14.0756 27.945 14.6577C27.3386 14.9104 26.7102 15.0788 26.0559 15.1467C26.0316 15.1503 25.9998 15.1577 25.986 15.1746C25.8404 15.3508 25.6983 15.529 25.5374 15.728C25.9362 15.6425 26.3118 15.5675 26.6851 15.4808C27.7292 15.2382 28.7528 14.9301 29.7305 14.4858C30.4527 14.1576 31.1408 13.7718 31.7205 13.2231C32.4851 12.4985 33.048 11.6413 33.3761 10.6373C33.4244 10.4901 33.4393 10.3299 33.4746 10.1478Z" fill="#E65271"/>
<path opacity="0.6" d="M15.412 19.8434C15.7217 19.7394 16.0745 19.6106 16.4509 19.4662C20.8886 18.0822 22.355 16.9287 22.355 16.9287L26.8126 13.6285C26.8126 13.6285 27.5411 14.1862 28.4839 13.457C27.8414 14.2282 25.8698 14.8284 25.8698 14.8284C25.8698 14.8284 25.7788 15.4352 25.1359 15.9066C26.8903 15.3104 29.8377 15.4811 31.8826 13.6399C30.3361 18.0139 26.4955 14.6796 22.7836 17.4001C22.355 17.6571 16.6935 19.1043 19.507 19.005C22.32 18.9061 24.1738 20.8258 26.5238 20.1966C24.3179 20.9966 22.3687 19.7146 19.2962 19.4992C19.7743 19.5949 20.4294 19.8583 20.7084 20.2182C19.5945 19.423 17.4145 19.3865 16.8968 19.5682C16.4262 19.6279 15.9321 19.7174 15.412 19.8434Z" fill="#8B4FBA"/>
<path opacity="0.2" d="M26.0559 21.1924C22.8229 22.4767 11.3959 18.7565 6.26553 24.5279C6.26553 24.5279 5.88127 24.356 7.92425 22.0657C15.958 18.2255 21.937 21.8569 26.0559 21.1924Z" fill="#2B2B2B"/>
<path opacity="0.7" d="M31.0548 16.0765C32.0114 15.5384 31.2342 16.8537 30.2781 17.6304C26.5124 20.2602 24.8093 17.2678 21.0746 18.7079C26.7891 15.558 27.3488 19.4835 31.0548 16.0765Z" fill="url(#paint10_radial_3_912)"/>
<path opacity="0.2" d="M30.7624 16.8231C31.7193 16.285 31.2342 16.8537 30.2781 17.6309C26.5124 20.2606 24.8093 17.2682 21.0746 18.7083C24.7512 16.6626 27.0568 20.2296 30.7624 16.8231Z" fill="#8B4FBA"/>
<path opacity="0.7" d="M12.1711 15.4128C10.4292 17.0072 11.7951 20.4985 11.7951 20.4985L10.5552 20.7642C10.5552 20.7642 9.30387 17.3891 12.1711 15.4128Z" fill="url(#paint11_radial_3_912)"/>
<path opacity="0.7" d="M15.1777 12.7383C16.4906 15.0749 13.0087 18.2891 14.8786 19.4269C14.8487 19.5804 13.8094 20.1017 13.8581 19.9509C11.5505 16.4102 15.3562 15.5659 14.8566 13.3522C12.188 16.9926 12.1593 17.7133 13.4557 20.0181C13.4397 20.0306 13.2972 20.2167 13.1555 20.1107C11.1282 18.5905 10.5575 16.8827 15.1777 12.7383Z" fill="url(#paint12_radial_3_912)"/>
<path opacity="0.2" d="M19.4681 17.4868C19.5513 18.5811 20.3155 16.8035 20.4313 15.5765C20.531 10.985 15.8755 12.0954 15.6628 8.38074C15.2098 12.6064 20.2476 12.5138 19.4681 17.4868Z" fill="#8B4FBA"/>
<path opacity="0.3" d="M23.9819 15.6656C24.0644 16.7599 26.2616 13.9433 26.3778 12.7167C25.6407 4.83877 17.5323 9.63006 15.4124 6.72789C17.1634 9.90678 28.4969 5.48366 23.9819 15.6656Z" fill="white"/>
<path d="M38.8178 31.005C38.6988 31.1094 38.6011 31.2044 38.4935 31.2868C38.4072 31.3524 38.3126 31.4105 38.2153 31.4588C37.9782 31.5734 37.7395 31.5883 37.4997 31.4611C37.1265 31.2633 36.7261 31.2484 36.3175 31.2931C36.1986 31.3057 36.1209 31.3622 36.0663 31.4733C35.6569 32.3156 34.9748 32.8565 34.1203 33.1987C34.0225 33.238 33.9766 33.2835 33.9593 33.3899C33.9158 33.658 33.8977 33.9217 33.9613 34.189C34.0645 34.6164 34.3307 34.923 34.6886 35.1589C35.0638 35.4062 35.4819 35.5518 35.914 35.6601C36.4333 35.7885 36.9589 35.8752 37.4954 35.8736C37.7682 35.8732 38.0378 35.8415 38.3 35.7622C38.886 35.5851 39.2475 35.1938 39.3806 34.6023C39.4666 34.2181 39.5478 33.8299 39.5871 33.4393C39.6769 32.544 39.4371 31.7406 38.8456 31.0513C38.835 31.038 38.828 31.0219 38.8178 31.005Z" fill="url(#paint13_linear_3_912)"/>
<path opacity="0.3" d="M37.1245 31.0713C37.1688 31.3402 37.6736 31.4132 37.9079 31.4053C38.3204 31.3916 38.5873 31.151 38.8554 30.8386C38.8986 30.7875 38.9323 30.7373 38.9618 30.6859C39.4288 31.0584 39.6899 31.5627 39.618 32.0773C39.4909 32.984 38.3742 33.5755 37.1249 33.4C36.261 33.2784 35.5596 32.8211 35.2518 32.2508C35.4803 31.9588 35.5698 31.5878 35.8708 31.3351C36.164 31.0902 36.7433 31.0548 37.1245 31.0713Z" fill="#F6E8A0"/>
<path d="M6.74474 22.5458C7.01518 22.6792 7.20358 22.7083 7.37118 22.6478C7.17846 21.6666 7.07759 20.6771 7.11173 19.6813C7.1502 18.5792 7.34096 17.5061 7.82452 16.5012C7.88575 16.3737 7.95679 16.25 8.04 16.1323C8.0349 16.1519 8.03176 16.1719 8.0243 16.19C7.76407 16.8435 7.64397 17.5257 7.60433 18.2259C7.5427 19.3171 7.67105 20.391 7.90695 21.4542C7.91244 21.4802 7.92029 21.5053 7.93089 21.543C8.08514 21.4393 8.23547 21.3404 8.38187 21.2364C8.39954 21.2235 8.39993 21.176 8.396 21.1457C8.32104 20.5001 8.32653 19.8548 8.396 19.2091C8.4957 18.2867 8.72335 17.3977 9.04795 16.5319C9.50051 15.323 10.1132 14.2004 10.8621 13.1512C10.8794 13.1269 10.897 13.1026 10.9135 13.0778C10.9171 13.0723 10.9167 13.0657 10.9218 13.0457C10.8126 13.0841 10.7106 13.119 10.6085 13.1559C9.91931 13.4056 9.2442 13.6874 8.59422 14.0281C8.49256 14.0807 8.39443 14.147 8.30848 14.2228C7.39355 15.0329 6.85425 16.0573 6.61051 17.2454C6.574 17.4221 6.5481 17.6018 6.49904 17.7792C6.51003 17.5822 6.51513 17.3844 6.5324 17.1873C6.61404 16.2497 6.78949 15.3292 7.10545 14.441C7.18592 14.2153 7.12979 14.0116 7.09564 13.7996C7.08504 13.7337 7.03834 13.6733 7.00772 13.6101C6.95709 13.6591 6.89468 13.7003 6.85818 13.7584C6.59834 14.1717 6.43113 14.6255 6.29376 15.091C6.08377 15.803 5.95856 16.5354 5.85533 17.2709C5.75956 17.9578 5.69833 18.6486 5.70147 19.343C5.705 20.0452 5.75877 20.7411 5.99231 21.4115C6.10339 21.7302 6.25294 22.0289 6.46842 22.2899C6.54535 22.3833 6.63995 22.463 6.7259 22.5493C6.73258 22.5478 6.73846 22.547 6.74474 22.5458Z" fill="url(#paint14_linear_3_912)"/>
<path opacity="0.2" d="M9.92795 13.0708C9.92795 13.0708 8.18288 13.3161 7.44694 14.5164C6.7106 15.7159 6.49904 17.7789 6.49904 17.7789C6.49904 17.7789 6.12224 20.8557 7.37118 22.6475C6.5799 16.077 9.92795 13.0708 9.92795 13.0708Z" fill="#2B2B2B"/>
<path d="M6.74475 22.5458C6.73847 22.5469 6.73258 22.5477 6.7263 22.5485C6.36637 22.408 6.08495 22.1658 5.85533 21.8616C5.52053 21.4181 5.3443 20.9051 5.23596 20.3685C5.07465 19.5686 5.06091 18.7601 5.1296 17.9511C5.16885 17.4891 5.23675 17.0287 5.29249 16.5691C5.29445 16.5526 5.29484 16.5365 5.29641 16.5032C5.26815 16.5275 5.24813 16.5412 5.23204 16.5581C3.89714 17.9417 2.8939 19.5349 2.23685 21.3431C2.21958 21.3902 2.22507 21.4538 2.23999 21.5033C2.6321 22.7569 3.19966 23.9301 3.89478 25.0409C4.18837 25.5096 4.51219 25.9594 4.82266 26.4174C4.84699 26.4535 4.87525 26.4861 4.92 26.5442C4.93099 26.3138 5.05384 26.1274 4.95925 25.9017C4.83797 25.614 4.75986 25.3113 4.77595 24.9926C4.78223 24.8749 4.81049 24.765 4.89213 24.6559C4.97338 24.8866 5.03618 25.1139 5.21712 25.2878C5.27011 25.1932 5.28071 25.1108 5.24735 25.0095C5.12135 24.6335 5.03383 24.2492 5.05777 23.8493C5.06523 23.7268 5.09309 23.6063 5.12646 23.4831C5.23596 23.7833 5.41691 24.029 5.62611 24.2649C5.63828 24.2469 5.64927 24.2351 5.65594 24.221C5.93501 23.644 6.29258 23.12 6.71845 22.6419C6.73768 22.6192 6.7365 22.5779 6.74475 22.5458Z" fill="url(#paint15_linear_3_912)"/>
<path opacity="0.2" d="M5.39453 24.0844C5.39453 24.0844 3.43202 20.2438 4.35047 16.9456C4.46469 16.8553 4.16639 17.088 3.81118 17.4966C3.75701 17.5586 3.09878 21.9139 4.43447 23.834C2.63916 21.7043 3.48932 17.8989 3.41357 18.01C3.25304 18.2471 3.10899 18.5089 3.014 18.7825C2.09594 23.0827 5.26893 25.6709 5.26893 25.6709L5.39453 24.0844Z" fill="#2B2B2B"/>
<path d="M35.4273 37.9119C35.346 38.0351 35.2522 38.1592 35.1776 38.2958C35.109 38.4198 35.0952 38.5611 35.1408 38.7008C35.1969 38.8735 35.3127 38.9399 35.492 38.9147C35.6361 38.8928 35.7805 38.8708 35.9254 38.8661C36.0792 38.861 36.0902 38.8818 36.1075 39.0313C36.1118 39.071 36.1169 39.1118 36.1314 39.1479C36.1895 39.2959 36.2755 39.4234 36.4474 39.4462C36.6142 39.4682 36.7316 39.3748 36.8218 39.2464C37.0907 38.8657 36.8678 38.3511 36.4007 38.2891C36.2559 38.2699 36.1047 38.2934 35.9564 38.2973C35.9277 38.2985 35.8995 38.3036 35.8708 38.306C35.8637 38.2977 35.8567 38.2883 35.8492 38.2801C35.8893 38.2334 35.9203 38.1713 35.9705 38.1419C36.0773 38.0818 36.1911 38.0571 36.3222 38.072C37.1217 38.1635 37.8844 38.0689 38.5626 37.5896C38.939 37.3231 39.2169 36.9734 39.4296 36.5676C39.4308 36.5648 39.4336 36.5621 39.4347 36.5593C39.4614 36.4855 39.516 36.3957 39.4434 36.3395C39.401 36.3066 39.3044 36.3211 39.2404 36.3419C38.9418 36.44 38.6517 36.5644 38.3495 36.6469C37.9075 36.7677 37.4498 36.7717 36.9953 36.7469C36.3811 36.714 35.7774 36.6162 35.1973 36.3984C34.5469 36.1543 33.9601 35.8096 33.451 35.3351C33.3925 35.2802 33.3333 35.2264 33.2677 35.182C33.1566 35.1082 33.0809 35.1447 33.0766 35.279C33.0734 35.374 33.0829 35.4717 33.1044 35.5651C33.3219 36.5138 33.8977 37.1811 34.7482 37.6218C34.9708 37.7384 35.2102 37.8204 35.4273 37.9119Z" fill="#E65270"/>
<path d="M1.65006 20.2535C1.61591 23.6766 2.71689 26.647 5.00911 29.1693C4.97692 28.9369 4.93414 28.7045 4.91451 28.4726C4.88193 28.0765 4.86113 27.6793 4.8419 27.2813C4.83797 27.2005 4.81756 27.1365 4.77203 27.0717C3.91363 25.8334 3.12627 24.5522 2.49826 23.1789C2.17955 22.4822 1.90715 21.7666 1.76114 21.0115C1.71365 20.7673 1.68814 20.5197 1.65006 20.2535Z" fill="url(#paint16_linear_3_912)"/>
<path d="M29.6446 8.99774C30.0551 8.2877 30.4786 7.60436 30.629 6.79933C30.6541 6.6647 30.6462 6.52144 30.638 6.38249C30.5932 5.60612 30.6737 4.8482 30.9253 4.10872C30.9477 4.04317 30.9748 3.97409 30.9732 3.90737C30.972 3.85203 30.9434 3.78805 30.9065 3.74448C30.8594 3.68914 30.7954 3.70876 30.7349 3.7433C30.5414 3.85281 30.4009 4.01374 30.2883 4.20096C30.059 4.57737 29.937 4.99421 29.8518 5.42008C29.6183 6.58777 29.5829 7.76842 29.6289 8.95535C29.6293 8.96163 29.6332 8.96713 29.6446 8.99774Z" fill="url(#paint17_linear_3_912)"/>
<path opacity="0.4" d="M29.8863 4.47457C29.9609 4.31599 30.2678 3.96902 30.3911 3.86893L30.6686 3.69191C30.3899 4.40313 30.2898 5.12691 30.2898 5.88444C30.2898 6.52265 30.4865 7.11533 30.5175 7.7504C30.5426 8.2736 30.3146 8.53658 30.0429 8.96245C29.9205 9.15399 29.7533 9.56886 29.4872 9.57043C29.3639 9.26781 29.3839 8.88866 29.3808 8.56484C29.3773 8.17744 29.3152 7.79946 29.3306 7.40813C29.3596 6.66944 29.7584 4.74696 29.8863 4.47457Z" fill="#8B4FBA"/>
<path d="M39.4407 35.0682C39.4289 35.0776 39.425 35.0792 39.4238 35.0815C39.122 35.7021 38.5854 35.9729 37.937 36.0274C36.8658 36.1185 35.8383 35.9179 34.8633 35.4697C34.4523 35.2805 34.1007 35.0058 33.9028 34.5834C33.8173 34.4009 33.7757 34.1976 33.7117 33.997C33.4989 33.9959 33.2458 34.2062 33.2289 34.4331C33.2234 34.5069 33.2544 34.5893 33.2878 34.6584C33.4224 34.9367 33.6387 35.1475 33.8746 35.3382C34.481 35.8277 35.1753 36.1366 35.9282 36.3187C36.9169 36.5581 37.9056 36.5652 38.8837 36.2688C39.1153 36.1986 39.3347 36.0808 39.5498 35.9662C39.7162 35.8771 39.801 35.7248 39.7763 35.5266C39.7496 35.3131 39.6389 35.16 39.4407 35.0682Z" fill="#E65270"/>
<path opacity="0.4" d="M39.4407 35.0682C39.4289 35.0776 39.425 35.0792 39.4238 35.0815C39.122 35.7021 38.5854 35.9729 37.937 36.0274C36.8658 36.1185 35.8383 35.9179 34.8633 35.4697C34.4523 35.2805 34.1007 35.0058 33.9028 34.5834C33.8173 34.4009 33.7757 34.1976 33.7117 33.997C33.4989 33.9959 33.2458 34.2062 33.2289 34.4331C33.2234 34.5069 33.2544 34.5893 33.2878 34.6584C33.4224 34.9367 33.6387 35.1475 33.8746 35.3382C34.481 35.8277 35.1753 36.1366 35.9282 36.3187C36.9169 36.5581 37.9056 36.5652 38.8837 36.2688C39.1153 36.1986 39.3347 36.0808 39.5498 35.9662C39.7162 35.8771 39.801 35.7248 39.7763 35.5266C39.7496 35.3131 39.6389 35.16 39.4407 35.0682Z" fill="#2B2B2B"/>
<path d="M28.6857 25.2199C28.6782 25.6034 28.7583 25.9641 28.9235 26.3063C29.2579 26.9936 29.8094 27.443 30.5002 27.7378C31.1027 27.9953 31.735 28.0828 32.3866 28.049C32.3948 28.0487 32.4031 28.0451 32.4309 28.0365C31.9752 27.9662 31.5509 27.8528 31.1412 27.6891C30.4307 27.4053 29.8043 27.0019 29.318 26.4001C29.057 26.0783 28.8603 25.7199 28.7261 25.3266C28.7143 25.2905 28.6994 25.2552 28.6857 25.2199Z" fill="#0D0D0D"/>
<path d="M34.0064 19.7323C34.7078 19.3041 34.8593 18.2981 34.4099 17.7231C34.5155 18.4414 34.3703 19.1086 34.0064 19.7323Z" fill="#0D0D0D"/>
<path d="M35.1631 23.6801C35.5062 23.9611 35.9187 24.0388 36.3493 24.0314C36.5212 24.0271 36.6923 23.9988 36.8642 23.9906C36.9572 23.9862 37.0546 23.9921 37.146 24.0121C37.3195 24.0518 37.3968 24.0251 37.4561 23.8587C37.5904 23.4791 37.6535 23.0858 37.6084 22.6851C37.5864 22.4928 37.5464 22.2957 37.4702 22.1195C37.1708 21.4197 36.2641 21.132 35.5925 21.5143C35.5062 21.5633 35.4245 21.6206 35.3472 21.6842C35.2656 21.7505 35.1918 21.8275 35.107 21.9068C35.1447 21.9503 35.1761 21.9923 35.2114 22.0288C35.2926 22.112 35.3233 22.2106 35.2985 22.3212C35.2216 22.669 35.3719 22.9159 35.662 23.0741C35.8692 23.1871 36.0961 23.2684 36.3218 23.3437C36.438 23.3834 36.5577 23.4116 36.6794 23.436C36.7166 23.4348 36.7323 23.4285 36.7614 23.4053C36.9423 23.2884 37.0719 23.1349 37.1519 22.9339C37.1951 23.0525 37.1865 23.2495 37.1484 23.3959C37.1248 23.4862 37.1402 23.7076 37.1861 23.7719C37.1825 23.7759 37.179 23.7802 37.1767 23.7837C37.1551 23.7735 37.1339 23.7625 37.1135 23.7503C36.8811 23.6079 36.6213 23.5627 36.3563 23.5298C36.0286 23.4882 35.7099 23.4132 35.4308 23.2244C35.0948 22.9971 34.9147 22.6812 34.8954 22.2749C34.8946 22.2624 34.8927 22.2506 34.8884 22.2172C34.5846 22.8111 34.6776 23.2817 35.1631 23.6801Z" fill="#0D0D0D"/>
<path d="M35.6078 22.4017C35.6078 22.7711 35.9073 23.0706 36.2759 23.0706C36.6456 23.0706 36.9451 22.7711 36.9451 22.4017C36.9451 22.0324 36.6456 21.7329 36.2759 21.7329C35.9073 21.7329 35.6078 22.0324 35.6078 22.4017Z" fill="url(#paint18_linear_3_912)"/>
<g clip-path="url(#clip1_3_912)">
<path d="M35.8276 22.2903C35.8421 22.2903 35.8567 22.2863 35.8695 22.2783L36.0274 22.1796C36.0505 22.1651 36.0645 22.1398 36.0645 22.1126V21.9152C36.0645 21.8879 36.0505 21.8626 36.0274 21.8482L35.8695 21.7495C35.8567 21.7415 35.8421 21.7375 35.8276 21.7375C35.8131 21.7375 35.7985 21.7415 35.7857 21.7495L35.6278 21.8482C35.6047 21.8626 35.5907 21.8879 35.5907 21.9152V22.1126C35.5907 22.1398 35.6047 22.1651 35.6278 22.1796L35.7857 22.2783C35.7985 22.2863 35.8131 22.2903 35.8276 22.2903Z" fill="white"/>
</g>
<path d="M38.5976 33.6709C38.7161 33.7447 38.901 33.7133 38.9697 33.5829C39.2546 33.0405 39.2287 32.4086 38.9497 31.8693C38.7895 31.56 38.3099 31.8096 38.4696 32.1177C38.66 32.4863 38.6989 32.9392 38.5093 33.3007C38.4414 33.4303 38.4657 33.5896 38.5976 33.6709Z" fill="white"/>
<path opacity="0.2" d="M9.55822 35.2327C9.38944 30.3974 12.3705 31.9702 13.6968 29.9288C13.8051 29.8016 13.8683 29.6587 13.9178 29.548C12.429 30.3676 8.25629 29.82 9.55822 35.2327Z" fill="#430A1D"/>
<path opacity="0.2" d="M7.28796 25.8063C11.3822 22.2816 19.4654 22.6663 20.0569 22.7161C16.6664 25.1343 6.4951 22.8609 6.12223 30.2216C5.46164 28.1311 6.3122 26.6466 7.28796 25.8063Z" fill="#2B2B2B"/>
<path opacity="0.2" d="M13.8322 29.74C13.8322 29.74 13.8318 30.8084 13.8322 31.5631C13.8326 32.3175 12.8839 31.9062 12.5181 30.8704C13.4322 30.512 13.8322 29.74 13.8322 29.74Z" fill="#430A1D"/>
<path opacity="0.2" d="M13.325 30.0983C14.0108 28.8882 13.3062 27.8414 13.1967 27.7967C13.5865 27.7763 14.335 27.0454 14.5132 26.8021C14.7918 26.421 14.8087 25.8675 14.8323 25.415C15.3853 25.3902 15.7743 25.0515 16.2775 24.9314C15.8496 25.3322 15.2691 25.8063 15.0093 26.3464C14.7781 26.826 14.5826 27.3783 14.4272 27.8885C14.3004 28.3065 14.1823 28.7218 14.1038 29.1532C14.0457 29.4742 13.8561 29.9064 13.8906 30.2192C13.8906 30.2192 13.82 33.0339 14.3844 34.4237C13.316 34.0599 12.7551 33.1877 12.5605 32.8502C12.3403 32.4683 11.9254 31.5188 12.4392 30.9139C12.7712 30.7927 13.1347 30.4339 13.325 30.0983Z" fill="#430A1D"/>
<path d="M3.31427 33.7545C5.46597 36.7191 8.34381 38.6243 11.9207 39.4521C13.1123 39.728 14.324 39.8038 15.5462 39.799C18.5363 39.7861 21.526 39.7936 24.5157 39.7932C26.5269 39.7924 28.5381 39.7932 30.5489 39.7881C31.0274 39.7873 31.5046 39.7555 31.9623 39.5961C32.4113 39.4407 32.7579 39.1655 32.9506 38.7201C33.2273 38.0767 32.991 37.2674 32.3944 36.8313C31.9564 36.5118 31.454 36.4188 30.9245 36.4424C30.7824 36.4494 30.6403 36.4714 30.4987 36.4859C30.4661 36.4895 30.4311 36.4969 30.4001 36.4899C30.3546 36.48 30.3114 36.4573 30.2675 36.4408C30.2926 36.4039 30.3106 36.3591 30.3436 36.3321C30.8904 35.8669 31.2668 35.2939 31.4469 34.5984C31.5125 34.3452 31.5317 34.0881 31.5082 33.8287C31.5066 33.8083 31.505 33.7883 31.5042 33.769C31.4991 33.6348 31.5447 33.5932 31.6773 33.5869C32.0683 33.5688 32.4592 33.5535 32.849 33.5229C33.0354 33.508 33.2195 33.4625 33.4295 33.4491C33.4047 33.4813 33.3867 33.5288 33.3541 33.5437C33.0425 33.6878 32.8388 33.928 32.7367 34.2483C32.617 34.6255 32.533 35.0109 32.5503 35.4109C32.577 36.0569 32.8282 36.6127 33.2371 37.1029C33.6049 37.5425 34.0579 37.8734 34.5701 38.1246C34.636 38.1568 34.6533 38.1851 34.6305 38.2596C34.565 38.4708 34.5728 38.6843 34.6474 38.8955C34.6925 39.0242 34.7754 39.1177 34.8935 39.184C35.1628 39.3339 35.4728 39.3555 35.7664 39.2323C35.7747 39.2743 35.7817 39.3218 35.7923 39.3626C35.8771 39.6844 36.0848 39.8124 36.3984 40.0008C36.4714 40.0008 36.5444 40.0008 36.6174 40.0008C36.6264 40.0008 36.6347 39.9776 36.6437 39.9761C37.1959 39.883 37.4279 39.3783 37.3639 38.9002C37.3474 38.777 37.3117 38.6557 37.2878 38.5446C37.5378 38.4787 37.7957 38.4276 38.0418 38.3417C39.1781 37.946 39.9281 37.1791 40.2461 36.011C40.3729 35.5435 40.2944 35.1247 39.9317 34.7778C39.9089 34.755 39.9069 34.7 39.9124 34.6627C39.9827 34.2212 40.0918 33.7828 40.1205 33.3384C40.1884 32.2842 39.8571 31.3598 39.1243 30.5894C39.0811 30.5442 39.0784 30.5057 39.0898 30.4504C39.138 30.2141 39.1934 29.9782 39.2224 29.7392C39.2825 29.2568 39.0984 28.8572 38.7769 28.5091C38.7487 28.4781 38.7169 28.4447 38.7035 28.4062C38.6137 28.1382 38.428 27.9557 38.1827 27.8324C37.6881 27.5832 37.1637 27.5325 36.6233 27.6224C36.2692 27.6817 35.9462 27.8308 35.6263 27.9823C35.485 28.0491 35.3559 28.0824 35.2252 27.9682C35.2032 27.949 35.1683 27.9443 35.1475 27.9262C35.1113 27.8921 35.0505 27.8446 35.0576 27.8159C35.067 27.772 35.1188 27.7221 35.1643 27.7041C35.4132 27.6059 35.6703 27.5529 35.9399 27.5529C36.1421 27.5529 36.3454 27.5475 36.5456 27.5235C37.1842 27.4462 37.7698 27.2158 38.3197 26.8877C38.3562 26.8657 38.397 26.8468 38.4382 26.8402C39.149 26.7314 39.7201 26.1729 39.8442 25.4656C39.8567 25.3942 39.8551 25.3121 39.892 25.2552C40.1931 24.7897 40.2178 24.2952 40.0435 23.7869C39.9332 23.4654 39.7802 23.1573 39.6589 22.8398C39.5945 22.669 39.5282 22.4932 39.5117 22.3158C39.4677 21.8122 39.401 21.3133 39.266 20.827C38.9775 19.7884 38.4633 18.8884 37.6379 18.1823C36.8046 17.4699 35.8277 17.0947 34.7455 16.9797C34.6502 16.9699 34.5999 16.9393 34.5579 16.8451C34.3216 16.3093 33.9331 15.9329 33.3737 15.7374C33.2285 15.6868 33.0837 15.6754 32.9471 15.737C32.7524 15.8269 32.5542 15.9164 32.3795 16.0397C31.9227 16.3584 31.5612 16.7725 31.2609 17.2407C31.2377 17.276 31.2114 17.3224 31.1765 17.3341C31.1294 17.3494 31.0599 17.3549 31.0238 17.3298C30.996 17.311 30.9897 17.2348 31.0007 17.1905C31.0132 17.1383 31.0533 17.092 31.0847 17.046C31.8799 15.896 32.3858 14.631 32.6186 13.2521C32.6264 13.2089 32.657 13.1622 32.6896 13.1296C32.8847 12.9306 33.0868 12.7387 33.2803 12.5381C33.5904 12.2182 33.7804 11.8312 33.8816 11.401C33.9079 11.2884 33.9205 11.1726 33.9283 11.0576C33.9307 11.0227 33.8966 10.9858 33.8793 10.9497C33.842 10.9713 33.7933 10.9842 33.7706 11.0152C33.7176 11.0874 33.6803 11.1703 33.6316 11.2448C33.5994 11.2943 33.5574 11.3363 33.5194 11.3838C33.5076 11.3559 33.5103 11.3402 33.5162 11.3257C33.7246 10.7958 33.8691 10.2498 33.9389 9.68384C33.9586 9.52645 33.9719 9.3667 33.9758 9.20813C33.979 9.09273 33.9024 9.01973 33.8251 9.05074C33.7839 9.06762 33.7482 9.10216 33.7164 9.13395C33.4071 9.4401 33.0425 9.66736 32.6688 9.88245C32.6606 9.87107 32.6543 9.86597 32.6539 9.86008C32.6437 9.80434 32.6335 9.7494 32.6252 9.69366C32.5251 9.04014 32.3528 8.40468 32.1538 7.77432C32.0015 7.29311 31.9156 6.8013 31.9996 6.29419C32.0498 5.99235 32.157 5.71839 32.4133 5.52606C32.4329 5.51154 32.4459 5.48838 32.4682 5.46248C32.4384 5.44717 32.42 5.43225 32.3991 5.42793C32.0286 5.34629 31.6459 5.39418 31.4383 5.81926C31.4148 5.86675 31.3834 5.90954 31.3402 5.98097C31.2935 5.88756 31.2472 5.82633 31.2322 5.7596C31.1584 5.4244 31.1404 5.08332 31.1718 4.74066C31.2114 4.31754 31.361 3.93014 31.5451 3.55255C31.5926 3.45443 31.6377 3.35355 31.6683 3.24993C31.7229 3.06192 31.6181 2.92298 31.4214 2.92612C31.3237 2.92808 31.2209 2.94339 31.1306 2.97753C30.6462 3.15966 30.2781 3.47955 30.0331 3.9376C30.0131 3.97489 29.9951 4.01178 29.9731 4.05653C29.7788 3.86774 29.6018 3.68365 29.5095 3.43166C29.4503 3.27034 29.3726 3.11491 29.2921 2.9638C29.234 2.85547 29.1908 2.85782 29.1202 2.95634C29.1009 2.98303 29.0841 3.01208 29.0633 3.03759C29.0091 3.10314 28.9671 3.10353 28.9243 3.02935C28.8862 2.96419 28.8576 2.89236 28.8317 2.82211C28.7053 2.48063 28.4988 2.19724 28.2147 1.97077C28.1954 1.95624 28.1735 1.94486 28.1283 1.91699C28.1448 2.02493 28.1585 2.10853 28.1695 2.19253C28.1813 2.27849 28.1911 2.36445 28.2021 2.45512C28.1762 2.45198 28.1688 2.45276 28.1636 2.44962C28.1358 2.43195 28.1079 2.41351 28.0808 2.39428C26.9332 1.60103 25.6783 1.04995 24.3218 0.728101C23.9085 0.629975 23.4752 0.595436 23.1019 0.360719C23.0937 0.355224 23.0831 0.352474 23.0741 0.348157C23.0003 0.319112 22.9461 0.335204 22.8888 0.392509C22.8523 0.42862 22.7871 0.444711 22.7353 0.443926C22.5693 0.440001 22.4041 0.403498 22.2388 0.38976C22.0873 0.3772 21.9311 0.342661 21.7851 0.306158C21.5354 0.242965 21.2925 6.13256e-06 21.0468 6.13256e-06C20.9871 6.13256e-06 20.9267 6.13256e-06 20.8674 6.13256e-06C20.8101 6.13256e-06 20.7422 0.164858 20.6959 0.222556C20.6146 0.324214 20.5149 0.443143 20.3874 0.451385C19.5419 0.503981 18.7063 0.626443 17.8836 0.831722C16.6307 1.14258 15.4536 1.62497 14.3993 2.38329C13.6289 2.9379 12.9679 3.59651 12.4992 4.43137C12.4035 4.60093 12.3277 4.78305 12.252 4.96243C12.1943 5.10059 12.1805 5.2466 12.2284 5.39143C12.2684 5.51036 12.3583 5.5763 12.4792 5.55746C13.1681 5.44913 13.7509 5.70072 14.2887 6.09126C14.8233 6.48023 15.2307 6.97871 15.463 7.60201C15.8053 8.52282 15.62 9.34708 14.9748 10.0767C14.9096 10.1505 14.8358 10.2173 14.7565 10.2973C14.7267 10.1855 14.702 10.0838 14.6725 9.98215C14.5265 9.48367 14.3181 9.01855 13.9633 8.62997C13.7572 8.4035 13.6756 8.67158 13.7274 9.08175C13.8389 9.95389 13.5712 10.704 12.964 11.3343C12.9271 11.3732 12.8713 11.3971 12.8191 11.4156C12.1793 11.6424 11.5353 11.8575 10.899 12.0942C9.7631 12.5165 8.66644 13.0248 7.6271 13.6505C7.61297 13.6587 7.59805 13.6666 7.58274 13.6748C7.48423 13.6112 7.4438 13.5162 7.44812 13.4103C7.45361 13.269 7.47677 13.1277 7.49325 12.9868C7.49482 12.9699 7.50032 12.9542 7.50189 12.9377C7.53564 12.6885 7.4383 12.6072 7.20869 12.7187C7.09369 12.7748 6.9881 12.8678 6.90528 12.9664C6.64074 13.2831 6.47667 13.6583 6.31928 14.0344C6.23607 14.233 6.17013 14.4386 6.08613 14.6368C6.05551 14.7095 6.00724 14.7825 5.94758 14.8331C5.04757 15.5985 4.20918 16.4219 3.49836 17.3702C2.88958 18.1827 2.36991 19.0466 1.94797 19.9706C1.93737 19.9949 1.9252 20.0185 1.91343 20.042C1.91029 20.0475 1.90401 20.0502 1.89066 20.0624C1.7525 19.2527 1.72503 18.4465 1.80628 17.632C1.74151 17.8738 1.66968 18.1144 1.61316 18.3582C1.38237 19.341 1.31054 20.336 1.37923 21.3428C1.38276 21.3938 1.36981 21.4487 1.35411 21.4982C1.05463 22.4394 0.84739 23.4014 0.759469 24.3847C0.452139 27.8198 1.28699 30.9607 3.31427 33.7545ZM2.49826 23.1789C3.12626 24.5523 3.91362 25.8334 4.77203 27.0717C4.81717 27.1369 4.83797 27.2009 4.84189 27.2813C4.86113 27.6793 4.88193 28.0762 4.91451 28.4726C4.93413 28.7057 4.97692 28.9381 5.0091 29.1693C2.71688 26.647 1.61591 23.6766 1.65006 20.2536C1.68852 20.5193 1.71364 20.7674 1.76114 21.0107C1.90715 21.7667 2.17955 22.4814 2.49826 23.1789ZM10.9218 13.0449C10.9167 13.0649 10.9171 13.0715 10.9135 13.077C10.897 13.1014 10.8794 13.1257 10.8621 13.1504C10.1132 14.1996 9.50051 15.3225 9.04796 16.5311C8.72336 17.3969 8.49571 18.2867 8.39601 19.2083C8.32654 19.854 8.32104 20.4993 8.39601 21.1449C8.39994 21.1752 8.39954 21.2227 8.38188 21.2356C8.23548 21.3404 8.08476 21.4393 7.93089 21.5422C7.92069 21.5049 7.91245 21.4801 7.90695 21.4534C7.67066 20.3902 7.54232 19.3171 7.60433 18.2251C7.64437 17.5257 7.76408 16.8431 8.02431 16.1892C8.03177 16.1704 8.03491 16.1503 8.04001 16.1315C7.9568 16.2504 7.88576 16.3729 7.82453 16.5004C7.34096 17.5056 7.14981 18.5784 7.11174 19.6805C7.07759 20.6759 7.17846 21.6658 7.37118 22.647C7.20359 22.7071 7.01558 22.6784 6.74475 22.545C6.73651 22.5776 6.73729 22.6188 6.71845 22.6408C6.29259 23.1196 5.93502 23.6436 5.65595 24.2198C5.64888 24.2343 5.63828 24.2457 5.62612 24.2638C5.41691 24.0267 5.23597 23.7814 5.12646 23.4819C5.0931 23.6044 5.06523 23.7253 5.05777 23.8481C5.03383 24.2489 5.12136 24.6323 5.24735 25.0083C5.28071 25.1096 5.27012 25.192 5.21713 25.2866C5.03618 25.1131 4.97338 24.8855 4.89214 24.6547C4.81049 24.7638 4.78223 24.8745 4.77595 24.9915C4.75986 25.3102 4.83797 25.6128 4.95925 25.9005C5.05385 26.1254 4.93139 26.3126 4.92 26.543C4.87526 26.4849 4.8466 26.4528 4.82266 26.4163C4.51219 25.9582 4.18838 25.5088 3.89478 25.0397C3.19966 23.9286 2.6321 22.7566 2.23999 21.5021C2.22508 21.4527 2.21958 21.3891 2.23685 21.342C2.8939 19.5345 3.89675 17.9405 5.23204 16.557C5.24814 16.5401 5.26815 16.5264 5.29641 16.502C5.29484 16.535 5.29445 16.5515 5.29249 16.568C5.23675 17.0284 5.16885 17.4888 5.1296 17.95C5.06091 18.7593 5.07465 19.5675 5.23597 20.3674C5.3443 20.9039 5.52092 21.4166 5.85534 21.8605C6.08495 22.1643 6.36638 22.4068 6.72669 22.5474C6.63995 22.461 6.54575 22.3817 6.46882 22.2879C6.25334 22.0269 6.10379 21.7278 5.99271 21.4095C5.75878 20.7395 5.7054 20.044 5.70187 19.341C5.69834 18.6459 5.75957 17.9562 5.85573 17.269C5.95896 16.5334 6.08417 15.8022 6.29416 15.089C6.43153 14.6235 6.59835 14.1698 6.85858 13.7565C6.89508 13.6992 6.95749 13.6572 7.00812 13.6081C7.03834 13.6713 7.08505 13.7317 7.09604 13.7977C7.13058 14.01 7.18632 14.2137 7.10585 14.439C6.78989 15.3276 6.61444 16.2473 6.5328 17.1854C6.51553 17.3824 6.51043 17.5802 6.49944 17.7773C6.5485 17.5998 6.5744 17.4201 6.61091 17.2435C6.85465 16.0554 7.39395 15.0309 8.30887 14.2208C8.39483 14.145 8.49296 14.0787 8.59462 14.0261C9.2446 13.6862 9.91971 13.4036 10.6089 13.154C10.7106 13.1182 10.8123 13.0829 10.9218 13.0449ZM30.9736 3.90777C30.9751 3.97449 30.9481 4.04357 30.9257 4.10912C30.6737 4.8486 30.5932 5.60691 30.6384 6.38289C30.6466 6.52184 30.6545 6.6655 30.6294 6.79973C30.479 7.60437 30.0555 8.2881 29.645 8.99814C29.6336 8.96753 29.6296 8.96203 29.6296 8.95732C29.5841 7.77157 29.6194 6.58974 29.8526 5.42205C29.9382 4.9954 30.0598 4.57934 30.2891 4.20293C30.4017 4.0161 30.5422 3.85518 30.7357 3.74527C30.7958 3.71113 30.8598 3.69111 30.9072 3.74645C30.9434 3.78845 30.9724 3.85243 30.9736 3.90777ZM31.4638 10.1949C31.2766 10.3303 31.0799 10.4575 30.8743 10.5615C30.1505 10.9253 29.3835 11.1844 28.6252 11.4638C28.4777 11.518 28.336 11.5957 28.2041 11.6821C27.9419 11.854 27.7468 12.095 27.5776 12.3556C27.4968 12.4789 27.421 12.606 27.3425 12.7312C27.3445 12.6892 27.3574 12.6523 27.368 12.6143C27.4575 12.3097 27.5596 12.0075 27.6314 11.6982C27.7315 11.2668 27.8901 10.8637 28.1303 10.494C28.2602 10.2942 28.405 10.103 28.5318 9.90011C28.6119 9.77294 28.6818 9.63478 28.7375 9.49505C28.7705 9.41106 28.7669 9.31293 28.7803 9.22148C28.7669 9.21481 28.754 9.20813 28.7398 9.20185C28.6998 9.23561 28.6543 9.26504 28.6201 9.3043C28.4808 9.46404 28.3469 9.62929 28.2041 9.78629C28.1731 9.82122 28.104 9.85537 28.0691 9.84281C28.0357 9.83064 28.0004 9.75646 28.0051 9.71328C28.0227 9.54019 28.0329 9.3616 28.0871 9.19832C28.1617 8.97341 28.2794 8.76264 28.3666 8.54009C28.4094 8.43176 28.4372 8.31166 28.447 8.19547C28.4517 8.14052 28.3984 8.08086 28.3721 8.02395C28.3254 8.05574 28.2716 8.08126 28.2331 8.12168C28.1648 8.19351 28.1103 8.27751 28.04 8.34816C27.9705 8.41684 27.9062 8.40546 27.8661 8.31793C27.8375 8.2567 27.8088 8.18134 27.8182 8.11933C27.8422 7.96351 27.8846 7.81043 27.9242 7.65657C27.9611 7.51684 28.0133 7.37867 28.042 7.23777C28.0616 7.14239 28.0373 7.04779 27.9372 6.97597C27.9093 7.01679 27.8787 7.05172 27.8606 7.09293C27.8214 7.17693 27.7904 7.26485 27.7539 7.34885C27.6695 7.54274 27.5953 7.74331 27.4956 7.92936C27.4077 8.09303 27.3209 8.07851 27.2263 7.91954C27.0434 7.60868 26.8625 7.29546 26.658 6.99873C26.5454 6.83584 26.4798 6.66825 26.4625 6.47749C26.4398 6.22393 26.4272 5.96802 26.4005 5.71407C26.3903 5.61947 26.3648 5.52096 26.2612 5.43146C26.2392 5.53862 26.2208 5.62654 26.2035 5.71485C26.1776 5.84438 26.1599 5.97626 26.1242 6.10304C26.0995 6.19253 26.0276 6.20156 25.9829 6.12188C25.9425 6.04966 25.915 5.96331 25.9091 5.88088C25.8981 5.72545 25.9123 5.56924 25.904 5.41341C25.9009 5.34276 25.8754 5.27172 25.8487 5.2046C25.8373 5.17595 25.7992 5.15671 25.7733 5.13316C25.756 5.16221 25.7329 5.1889 25.7231 5.22069C25.7109 5.25798 25.7097 5.29841 25.7038 5.33805C25.687 5.45266 25.6775 5.57002 25.6504 5.68149C25.6218 5.80278 25.5457 5.82318 25.4703 5.72506C25.4012 5.63517 25.3467 5.5288 25.3121 5.42126C25.2591 5.25405 25.2368 5.079 25.1861 4.91022C25.1626 4.83133 25.1084 4.75911 25.0578 4.69199C25.0389 4.66766 24.984 4.65195 24.9538 4.66098C24.9314 4.66687 24.9094 4.71829 24.9082 4.75047C24.9055 4.87921 24.9106 5.00874 24.9125 5.13787C24.9129 5.20185 24.9125 5.26583 24.9125 5.33491C24.8843 5.32863 24.8733 5.32902 24.8662 5.32471C24.8501 5.31372 24.834 5.30037 24.8211 5.28585C24.6884 5.14494 24.5993 4.98126 24.5715 4.78697C24.5593 4.70102 24.555 4.61506 24.5389 4.53067C24.5193 4.43097 24.4596 4.3929 24.3583 4.40546C24.252 4.41802 24.1844 4.49534 24.1739 4.63037C24.1664 4.71829 24.1723 4.80621 24.1723 4.90748C24.0514 4.84546 23.9438 4.78855 23.8347 4.73477C22.7192 4.18252 21.5413 3.84026 20.3057 3.69582C19.5078 3.60279 18.7098 3.60044 17.9185 3.76097C17.4401 3.85792 16.9844 4.01374 16.5891 4.31322C16.531 4.3564 16.4777 4.40664 16.4219 4.45374C16.8623 4.19901 17.1198 4.09499 17.517 4.01963C18.24 3.88068 18.9638 3.90149 19.6864 4.00629C20.9577 4.19116 22.1591 4.5919 23.2884 5.20813C24.1636 5.68541 24.9541 6.27064 25.5935 7.04505C25.6418 7.10235 25.6873 7.16241 25.7325 7.22128C24.4235 6.59602 22.9449 7.77235 21.466 7.25033C23.4929 8.29517 24.6931 6.94928 25.8361 7.82024C26.1269 8.04161 26.1788 8.61271 25.5139 8.51694C24.8796 8.42627 26.4692 8.74027 26.7542 10.3923C26.7381 10.662 26.7004 10.9363 26.6388 11.217C26.3656 12.4545 25.7894 13.5476 24.9981 14.5289C24.1833 15.5384 23.16 16.2909 22.01 16.8792C21.9935 16.8831 21.9754 16.889 21.9527 16.8984C21.9558 16.8847 21.9554 16.8776 21.9578 16.8741C21.9739 16.8486 21.9904 16.8235 22.0068 16.7988C22.5563 15.982 23.0077 15.1196 23.2271 14.1509C23.3779 13.4876 23.3959 12.8227 23.1863 12.1656C22.952 11.4321 22.4833 10.8735 21.871 10.4261C21.1849 9.92445 20.4097 9.61123 19.6016 9.37102C19.4289 9.3196 19.253 9.27407 19.0576 9.2203C19.0796 9.24385 19.0819 9.25013 19.0874 9.25209C19.1208 9.26622 19.1549 9.27918 19.1891 9.29252C19.7535 9.51311 20.2912 9.78237 20.7787 10.1462C21.4805 10.6679 21.9966 11.3249 22.231 12.1794C22.4378 12.9349 22.3919 13.6905 22.2074 14.4422C21.9692 15.4156 21.528 16.2975 20.9954 17.1406C20.8737 17.3333 20.7289 17.4617 20.5098 17.5268C20.2449 17.605 19.9858 17.7066 19.6993 17.8079C20.5102 16.9373 20.5326 15.7127 20.3772 14.994C20.3744 15.0066 20.3709 15.0148 20.3705 15.0235C20.3426 15.6091 20.1432 16.1366 19.8159 16.6178C19.3276 17.3361 18.6662 17.8597 17.9197 18.2856C17.862 18.3185 17.7914 18.3291 17.7266 18.3499C17.9966 18.0387 18.2035 17.6995 18.3248 17.311C18.4425 16.935 18.4833 16.3454 18.4052 16.1339C18.282 16.5448 18.1536 16.8125 17.8793 17.1622C17.4083 17.762 16.8615 18.2812 16.2276 18.713C15.8025 19.0038 15.3574 19.2444 14.8786 19.4273C14.032 19.7519 13.1488 19.9509 12.2704 20.166C11.4987 20.3548 10.7279 20.5507 9.9621 20.7646C9.54408 20.8816 9.14255 21.0539 8.79519 21.3263C8.73317 21.1881 8.6166 20.6998 8.61228 20.312C8.56165 15.741 12.199 13.2976 13.3074 12.0188C13.63 11.6464 13.8153 11.1899 13.9774 10.7283C14.0433 10.5411 14.0999 10.3511 14.1619 10.1568C14.1725 10.1705 14.1827 10.18 14.1878 10.1898C14.4975 10.7844 14.6882 11.3916 14.5391 12.0801C14.3114 13.1332 13.8879 14.0736 13.0892 14.8194C13.0805 14.8276 13.0735 14.8382 13.046 14.8696C13.0849 14.8496 13.0986 14.8445 13.1115 14.8358C13.7682 14.4575 14.3683 14.0077 14.8758 13.4409C15.7291 12.4895 16.1872 11.3759 16.2504 10.0972C16.2779 9.54019 16.2013 8.99029 16.1389 8.44039C15.9733 6.97675 14.9041 5.79179 13.4675 5.44207C13.3596 5.41577 13.2501 5.37848 13.1524 5.32706C13.0146 5.25366 12.9765 5.13356 13.0287 4.98833C13.0476 4.93613 13.0754 4.88549 13.1053 4.83839C13.3604 4.44197 13.6838 4.11423 14.0822 3.86028C14.2867 3.73036 14.4912 3.60083 14.6882 3.45992C15.4964 2.88216 16.3662 2.43392 17.3274 2.17016C17.7242 2.06144 18.1254 1.96527 18.5422 2.00177C18.6729 2.01237 18.8001 2.06065 18.93 2.07596C18.9838 2.08302 19.0427 2.04495 19.0996 2.02768C19.0674 1.99275 19.0419 1.94486 19.0022 1.92249C18.7514 1.77805 18.4739 1.7333 18.1897 1.72388C17.7717 1.70975 17.3647 1.78903 16.9581 1.87185C16.9173 1.8801 16.8741 1.8801 16.8321 1.88363C17.1653 1.59553 17.5433 1.40949 17.9527 1.28663C18.6258 1.08214 19.3139 1.03622 20.0106 1.0947C20.2335 1.11354 20.4596 1.12256 20.6653 1.23914C20.867 1.35296 21.079 1.44834 21.2878 1.54961C21.3329 1.57159 21.3832 1.58258 21.4314 1.59867C21.4385 1.59043 21.4456 1.58336 21.453 1.57512C21.431 1.5186 21.413 1.46051 21.3851 1.40713C21.3098 1.25955 21.2277 1.1155 21.152 0.96792C21.1382 0.940053 21.1449 0.900016 21.1429 0.865869C21.1743 0.864299 21.2097 0.852523 21.2368 0.861943C21.3969 0.915323 21.5602 0.962425 21.7125 1.03386C21.9303 1.13748 22.1572 1.17281 22.3946 1.1889C22.7181 1.21127 23.0423 1.24189 23.3637 1.28781C23.8355 1.35571 24.195 1.59906 24.4282 2.02101C24.4828 2.11952 24.5408 2.21608 24.6001 2.31225C24.6213 2.34639 24.6504 2.37543 24.6759 2.40644C24.6872 2.40134 24.6998 2.39702 24.7112 2.39074C24.6378 2.13954 24.5644 1.88873 24.4871 1.62379C24.7316 1.67953 24.9859 1.8487 25.1877 2.08616C25.2897 2.2047 25.3808 2.33148 25.4817 2.45001C25.5221 2.49711 25.5767 2.53165 25.6245 2.57247C25.6379 2.56501 25.6516 2.55913 25.6654 2.55128C25.6457 2.38329 25.6257 2.21569 25.6069 2.04691C25.6167 2.04338 25.6273 2.03945 25.6379 2.03671C25.7898 2.12934 25.9405 2.22472 26.0928 2.31735C26.6101 2.629 27.0949 2.97989 27.4579 3.47445C27.5078 3.54274 27.5451 3.53293 27.5714 3.45011C27.6039 3.3461 27.6251 3.23855 27.6609 3.13532C27.6714 3.10392 27.715 3.06114 27.7401 3.06271C27.7751 3.06546 27.8237 3.1 27.8355 3.13179C27.8599 3.19852 27.8697 3.27191 27.8744 3.34453C27.8842 3.48975 27.8807 3.63576 27.896 3.7802C27.9007 3.82456 27.9478 3.86577 27.976 3.90698C28.0133 3.87401 28.0643 3.84811 28.084 3.8065C28.1417 3.68757 28.1845 3.56158 28.2382 3.4403C28.2877 3.32804 28.3171 3.32608 28.3889 3.42146C28.4831 3.54745 28.5891 3.64911 28.7665 3.63655C28.9314 3.62399 28.9522 3.63616 29.0134 3.78962C29.1182 4.05142 29.2073 4.31833 29.3149 4.57856C29.3659 4.70259 29.444 4.81563 29.5056 4.93495C29.5209 4.96321 29.5343 5.00364 29.5264 5.0315C29.3082 5.73605 29.2477 6.46179 29.2407 7.19341C29.234 7.87048 29.2474 8.54755 29.2242 9.22344C29.2065 9.75214 29.1178 10.2679 28.7234 10.6753C28.7779 10.658 28.8297 10.6384 28.8784 10.6133C29.1327 10.4814 29.3408 10.2918 29.5229 10.0736C29.9256 9.59161 30.1905 9.03347 30.4253 8.4561C30.6133 7.99373 30.8028 7.53175 31.0003 7.07331C31.0493 6.95948 31.131 6.859 31.204 6.75577C31.2216 6.73144 31.2738 6.70357 31.2939 6.71377C31.3233 6.72673 31.3516 6.77069 31.3559 6.80405C31.3661 6.87863 31.3661 6.95713 31.3625 7.0317C31.3457 7.40968 31.3143 7.78727 31.3794 8.16407C31.3888 8.22177 31.4053 8.28653 31.3908 8.33952C31.2491 8.85645 31.065 9.35571 30.7463 9.79492C30.7365 9.80866 30.7302 9.82554 30.7098 9.8644C30.9371 9.76313 31.0898 9.61319 31.2134 9.43696C31.337 9.25994 31.4454 9.07193 31.5674 8.87647C31.6189 9.08606 31.6683 9.28781 31.7178 9.48956C31.788 9.78276 31.7001 10.0226 31.4638 10.1949ZM31.7205 13.2238C31.1404 13.7718 30.4527 14.1584 29.7305 14.4865C28.7528 14.9308 27.7291 15.2389 26.6851 15.4815C26.3118 15.5683 25.9362 15.6432 25.5374 15.7288C25.6979 15.5298 25.84 15.3516 25.986 15.1754C25.9998 15.1585 26.0312 15.151 26.0559 15.1475C26.7102 15.0796 27.339 14.9104 27.945 14.6584C29.3467 14.0767 30.5465 13.1975 31.6161 12.1315C31.6259 12.1217 31.633 12.1091 31.6408 12.0981C31.6043 12.1091 31.5769 12.1272 31.5498 12.146C30.6474 12.7725 29.7191 13.3565 28.743 13.862C28.1181 14.1839 27.4815 14.4802 26.797 14.6553C26.6356 14.6965 26.4708 14.724 26.282 14.7624C26.3083 14.7177 26.3185 14.7012 26.3279 14.6839C26.543 14.3079 26.7797 13.9409 26.9665 13.5508C27.0835 13.3055 27.2472 13.1257 27.4548 12.9675C28.2319 12.376 29.0884 11.9195 29.9621 11.4921C29.9699 11.4886 29.9798 11.4898 30.008 11.4847C29.6756 12.0122 29.3549 12.5256 28.7818 12.8148C28.9302 12.7905 29.0774 12.7658 29.2191 12.7226C29.6587 12.588 30.0284 12.3289 30.3758 12.0385C30.8005 11.684 31.2114 11.3108 31.642 10.9614C31.8642 10.7809 32.1016 10.6066 32.3579 10.4818C32.6272 10.3519 32.9263 10.2848 33.214 10.1957C33.2874 10.1713 33.3667 10.1674 33.4746 10.1486C33.4393 10.3307 33.4244 10.4904 33.3761 10.6388C33.048 11.642 32.4851 12.5001 31.7205 13.2238ZM26.4284 20.9817C26.216 21.0998 25.9904 21.2058 25.7588 21.2764C25.2842 21.4201 24.7901 21.4224 24.2983 21.4213C23.9497 21.4205 23.6012 21.4158 23.253 21.4197C23.1659 21.4209 23.0796 21.4483 22.9928 21.464C22.9924 21.4801 22.9916 21.4962 22.9912 21.5127C23.0662 21.5414 23.1392 21.5763 23.2158 21.5983C23.4583 21.6674 23.7021 21.7294 23.9442 21.7969C23.9913 21.8106 24.0349 21.8377 24.0808 21.8589C24.0793 21.8683 24.0777 21.8777 24.0761 21.8872C24.0447 21.8997 24.0133 21.9174 23.98 21.9248C23.4933 22.021 23.0085 22.1388 22.5175 22.2086C21.6862 22.3272 20.8619 22.4712 20.0569 22.7161C19.9886 22.7365 19.9128 22.7464 19.8422 22.7416C19.0281 22.6855 18.2145 22.6266 17.4 22.5674C16.4588 22.4987 15.5176 22.4897 14.5775 22.589C13.5095 22.7016 12.4765 22.9552 11.4764 23.3414C10.0394 23.8968 8.73709 24.6889 7.51327 25.6163C7.49247 25.632 7.47284 25.6509 7.45243 25.6678C7.49247 25.6599 7.52348 25.6434 7.55331 25.6254C8.67076 24.9581 9.82354 24.3627 11.0415 23.8987C12.0738 23.5058 13.1339 23.2221 14.2294 23.0768C15.0211 22.972 15.8159 22.9481 16.6135 22.9532C17.5052 22.9579 18.3982 22.9532 19.2899 22.9528C19.3017 22.9528 19.3131 22.9544 19.326 22.9556C19.3229 22.9626 19.3225 22.9669 19.3209 22.9681C19.2997 22.9768 19.2786 22.9862 19.257 22.9944C18.4598 23.3061 17.7038 23.6954 17.0138 24.2037C16.8054 24.3584 16.5817 24.4742 16.3422 24.564C16.1566 24.6343 15.9698 24.703 15.7802 24.7626C14.8072 25.07 13.8 25.2207 12.7987 25.4016C11.9737 25.5504 11.149 25.7031 10.3311 25.8836C9.58529 26.0481 8.86544 26.3005 8.19662 26.6808C7.04776 27.3331 6.37226 28.3097 6.18818 29.621C6.15913 29.8271 6.14265 30.0359 6.12185 30.2208C6.08181 30.1462 6.03824 30.0559 5.98683 29.9696C5.55154 29.2376 5.24696 28.4581 5.15197 27.6067C5.02402 26.4563 5.35215 25.464 6.18582 24.6488C6.21958 24.6155 6.24313 24.5707 6.26511 24.5264C6.38522 24.283 6.48452 24.0275 6.62425 23.7971C7.02225 23.1436 7.58471 22.6514 8.21742 22.2353C9.05777 21.6838 9.97623 21.2988 10.9241 20.9785C12.4188 20.473 13.957 20.1429 15.5031 19.8458C16.7622 19.6036 18.0241 19.3712 19.2829 19.1267C20.2649 18.9367 21.2199 18.6675 22.1238 18.222C23.2578 17.6638 24.3077 16.9934 25.1967 16.0871C25.2262 16.0565 25.2827 16.04 25.3274 16.0385C25.9221 16.0216 26.5128 15.9659 27.0972 15.8556C28.7328 15.5455 30.2314 14.9085 31.6035 13.9684C31.6259 13.9539 31.6499 13.9429 31.6872 13.9201C31.6789 13.9692 31.6754 13.9986 31.6683 14.0269C31.5529 14.5383 31.4034 15.0399 31.2083 15.5263C30.2553 17.9068 28.6704 19.7335 26.4284 20.9817ZM39.5871 33.4385C39.5474 33.8295 39.4662 34.2169 39.3806 34.6015C39.2475 35.193 38.886 35.5843 38.3 35.7614C38.0378 35.8407 37.7686 35.8721 37.4954 35.8728C36.9589 35.874 36.4333 35.7877 35.914 35.6593C35.4815 35.551 35.0639 35.4054 34.6886 35.1581C34.3311 34.9222 34.0645 34.6156 33.9613 34.1882C33.8977 33.9209 33.9158 33.6568 33.9593 33.3891C33.9766 33.2827 34.0225 33.236 34.1203 33.1979C34.9748 32.8568 35.6569 32.3156 36.0663 31.4725C36.1209 31.361 36.1986 31.3045 36.3175 31.2923C36.7261 31.2472 37.1265 31.2621 37.4997 31.4603C37.7395 31.5875 37.9786 31.573 38.2153 31.458C38.3126 31.4105 38.4072 31.3516 38.4935 31.286C38.6011 31.204 38.6988 31.1086 38.8178 31.0042C38.828 31.0215 38.835 31.0372 38.8456 31.0498C39.4371 31.7398 39.6766 32.5432 39.5871 33.4385ZM33.2678 35.1844C33.3333 35.2272 33.3922 35.2825 33.4511 35.3367C33.9601 35.8112 34.5469 36.1558 35.1973 36.4C35.7778 36.6178 36.3811 36.7155 36.9954 36.7485C37.4499 36.7728 37.9075 36.7689 38.3495 36.6484C38.6517 36.566 38.9418 36.4416 39.2405 36.3434C39.3041 36.3226 39.4006 36.3081 39.4434 36.3411C39.516 36.3972 39.4615 36.4863 39.4348 36.5609C39.4336 36.564 39.4308 36.5668 39.4297 36.5691C39.2169 36.9746 38.939 37.3251 38.5626 37.5912C37.8844 38.0705 37.1217 38.1651 36.3222 38.0736C36.1911 38.0587 36.0777 38.0826 35.9705 38.1435C35.9203 38.1721 35.8893 38.2341 35.8493 38.2816C35.8567 38.2899 35.8638 38.2993 35.8708 38.3075C35.8995 38.3044 35.9278 38.2993 35.9564 38.2989C36.1048 38.2942 36.2559 38.2714 36.4007 38.2907C36.8678 38.3527 37.0907 38.868 36.8219 39.248C36.7316 39.3763 36.6142 39.4686 36.4474 39.4478C36.2755 39.425 36.1899 39.2974 36.1315 39.1495C36.1173 39.1133 36.1118 39.0725 36.1075 39.0329C36.0902 38.8833 36.0793 38.8625 35.9254 38.8676C35.7806 38.872 35.6361 38.8943 35.4921 38.9163C35.3131 38.9414 35.1969 38.8755 35.1408 38.7024C35.0953 38.5627 35.109 38.4214 35.1777 38.2973C35.2519 38.1615 35.3461 38.0379 35.4273 37.9135C35.2099 37.8228 34.9708 37.7408 34.7487 37.6254C33.8981 37.1846 33.3219 36.5173 33.1049 35.5686C33.0829 35.476 33.0739 35.3779 33.077 35.2825C33.0813 35.1467 33.1567 35.1102 33.2678 35.1844ZM33.7113 33.9971C33.7753 34.1976 33.8173 34.4009 33.9024 34.5835C34.1003 35.0058 34.4519 35.2798 34.8629 35.4697C35.8379 35.918 36.8658 36.1185 37.9366 36.0275C38.585 35.9725 39.1219 35.7017 39.4234 35.0816C39.4246 35.0792 39.4285 35.0776 39.4403 35.0682C39.6385 35.1601 39.7492 35.3131 39.7759 35.5282C39.8002 35.726 39.7158 35.8791 39.5494 35.9674C39.3343 36.082 39.1149 36.2002 38.8833 36.2701C37.9052 36.5664 36.9161 36.5593 35.9278 36.3199C35.1749 36.1378 34.4802 35.8289 33.8742 35.3394C33.6379 35.1487 33.422 34.9383 33.2874 34.6596C33.254 34.5905 33.223 34.5073 33.2285 34.4343C33.2458 34.2063 33.4986 33.9959 33.7113 33.9971ZM2.64584 29.017C1.85181 27.6358 1.4385 26.1698 1.43811 25.9449C1.43575 25.2419 1.48992 24.5413 1.5955 23.8434C1.61984 23.6817 1.65202 23.5212 1.67989 23.3598C1.70972 23.3893 1.71953 23.4191 1.72856 23.4497C1.84592 23.8395 1.94797 24.2347 2.0822 24.6186C2.78793 26.6302 3.86142 28.4345 5.19083 30.092C5.23911 30.1525 5.28071 30.2239 5.30466 30.2973C5.59354 31.1871 6.00802 31.9945 6.53947 32.7261C5.94365 32.4722 5.26462 32.3807 4.45606 31.4501C5.44949 33.3659 7.80294 34.125 7.80294 34.125C9.11272 35.2966 10.6364 36.0711 12.3246 36.5346C12.4608 36.5719 12.5985 36.6017 12.7363 36.6347C12.7061 36.6056 12.6723 36.5939 12.6386 36.5805C11.3826 36.1311 10.2247 35.5047 9.1767 34.6784C7.87241 33.6501 6.88644 32.3831 6.2969 30.8209C6.23371 30.6529 6.20388 30.4963 6.26864 30.3228C6.3126 30.2051 6.33537 30.0799 6.37187 29.9594C6.64898 29.0539 7.08269 28.2398 7.78017 27.5828C8.44743 26.9532 9.24931 26.5729 10.1191 26.3162C11.1608 26.0108 12.237 25.8982 13.3082 25.7576C13.9295 25.6768 14.5477 25.5787 15.1671 25.4841C15.3335 25.4593 15.498 25.4181 15.675 25.3816C15.6616 25.4036 15.6577 25.4134 15.651 25.4213C15.1671 25.9641 14.7644 26.5603 14.4441 27.2142C14.4249 27.2546 14.3805 27.2947 14.3381 27.308C14.052 27.3983 13.7678 27.5055 13.4742 27.5643C13.0389 27.6511 12.5938 27.6844 12.1585 27.77C9.82433 28.2335 9.10487 29.4841 9.11547 29.4727C9.82433 28.7199 10.9587 28.5075 11.2581 28.4031C11.9568 28.1601 12.6806 28.0942 13.4142 28.1013C13.6285 28.1044 13.8424 28.117 14.063 28.1256C13.4051 30.2742 13.4915 32.3686 14.3833 34.4202C14.384 34.3817 14.3754 34.3444 14.366 34.3075C14.017 32.9824 13.8757 31.642 14.0751 30.2777C14.3157 28.6209 15.036 27.2095 16.239 26.0465C17.1406 25.1752 18.2007 24.5479 19.3382 24.0424C20.4188 23.562 21.5547 23.2648 22.7 22.9885C23.5619 22.7809 24.4274 22.5772 25.2784 22.3264C26.4182 21.9924 27.4501 21.4436 28.3293 20.6327C28.4655 20.5071 28.6029 20.3788 28.7151 20.232C29.4558 19.2735 30.3589 18.523 31.4701 18.034C31.5404 17.7989 31.6632 17.5508 31.8544 17.2917C32.126 16.9283 32.462 16.6288 32.8238 16.3599C32.9263 16.2842 33.0625 16.2406 33.19 16.2155C33.329 16.1868 33.4126 16.254 33.4601 16.3886C33.4726 16.4267 33.4813 16.4647 33.4887 16.5036C33.5629 16.5291 33.6367 16.5691 33.7093 16.6257C33.7592 16.6641 33.8071 16.7057 33.851 16.7493C34.0555 16.955 34.1988 17.1999 34.315 17.4625C34.3401 17.5194 34.3738 17.5418 34.4323 17.5492C34.5701 17.5673 34.7082 17.5865 34.8444 17.6128C37.055 18.0501 38.6647 19.73 38.9453 22.1454C38.9704 22.3633 38.9689 22.589 39.034 22.7931C39.1172 23.0525 39.2554 23.2943 39.37 23.5439C39.4709 23.7633 39.5816 23.9784 39.6687 24.2037C39.7582 24.4341 39.7696 24.6743 39.6997 24.9165C39.6758 24.9997 39.6271 25.0217 39.5623 24.9813C39.4713 24.924 39.3892 24.8521 39.3025 24.7874C39.1969 24.7085 39.0984 24.6182 38.9842 24.5558C38.8912 24.5044 38.7856 24.515 38.7024 24.6104C38.7216 24.6249 38.7377 24.6363 38.7518 24.6496C38.9795 24.8525 39.2079 25.0535 39.432 25.2603C39.4587 25.2847 39.4779 25.3341 39.4756 25.3722C39.4556 25.6929 39.3492 25.9837 39.1212 26.2145C38.828 26.5116 38.4829 26.6702 38.0543 26.5697C38.0433 26.7295 38.0324 26.7569 37.9405 26.8064C37.3443 27.1294 36.7124 27.3198 36.029 27.3068C35.5262 27.2982 35.0729 27.4576 34.6403 27.6994C34.5061 27.7743 34.3621 27.8418 34.2141 27.8811C33.747 28.0051 33.2674 28.0408 32.7854 28.0534C32.7457 28.0542 32.7069 28.0565 32.6676 28.0585C32.6923 28.0864 32.7171 28.095 32.7418 28.1009C33.1265 28.1915 33.5162 28.2033 33.9091 28.1747C34.0363 28.1656 34.1795 28.1382 34.2902 28.1829C34.6144 28.3148 34.9288 28.4726 35.2409 28.6331C35.3284 28.6783 35.4053 28.6998 35.494 28.6669C35.6923 28.5927 35.8913 28.5193 36.0844 28.4333C36.4949 28.2508 36.9153 28.1409 37.3686 28.2033C37.6167 28.2371 37.8585 28.2916 38.0747 28.4239C38.2149 28.5103 38.3256 28.6202 38.3365 28.7991C38.3385 28.8243 38.3613 28.8521 38.3817 28.871C38.4398 28.9247 38.5041 28.973 38.5626 29.0264C38.7353 29.1858 38.8083 29.3836 38.7871 29.6171C38.7687 29.8134 38.7106 29.846 38.5399 29.7592C38.4574 29.7176 38.3715 29.6835 38.2851 29.7494C38.3946 29.8193 38.5018 29.8821 38.6042 29.9527C38.7577 30.0579 38.8123 30.2094 38.8068 30.3919C38.7907 30.8998 38.1917 31.3492 37.6775 31.2358C37.508 31.1985 37.3565 31.1314 37.2638 30.9709C37.2517 30.9497 37.2167 30.9273 37.1932 30.9289C37.0589 30.9363 36.922 30.9355 36.7924 30.9646C36.555 31.0184 36.3199 31.0753 36.0753 31.029C35.9627 31.0074 35.8516 30.9764 35.735 30.9497C35.644 31.2668 35.494 31.5486 35.2939 31.8041C34.8287 32.3953 34.2172 32.7697 33.5119 33.0009C32.5974 33.3012 31.6577 33.3341 30.7169 33.1991C29.3569 33.0048 28.3929 32.2665 27.8728 30.9858C27.7441 30.669 27.6777 30.3272 27.5808 29.9963C27.425 29.464 27.2169 28.9522 26.9406 28.4687C26.4959 27.6923 25.9122 27.0533 25.1127 26.6317C24.2147 26.1584 23.2601 26.0638 22.2714 26.2396C22.0838 26.273 21.8993 26.3213 21.6917 26.368C22.0532 26.3896 22.3856 26.397 22.7149 26.4304C23.6322 26.5226 24.4918 26.7982 25.2729 27.2927C26.2019 27.8819 26.8966 28.6543 27.1871 29.7502C27.3421 30.3354 27.56 30.9034 27.832 31.4474C28.0129 31.8116 28.2131 32.1605 28.4926 32.46C28.9569 32.9577 29.5402 33.2384 30.1831 33.4193C30.3809 33.4746 30.5772 33.5359 30.7722 33.5987C30.8688 33.6301 30.9292 33.6984 30.9673 33.7961C31.0748 34.0756 31.1059 34.3609 31.0478 34.6549C30.9579 35.1173 30.7318 35.5098 30.4276 35.8607C30.1662 36.1633 29.8389 36.3843 29.5115 36.6052C29.3521 36.7116 29.1975 36.8274 29.0523 36.9526C28.9267 37.0594 28.8501 37.2062 28.858 37.3738C28.8717 37.6732 28.8894 37.7207 29.1877 37.6214C29.2344 37.6057 29.2807 37.5873 29.3262 37.5673C29.57 37.4625 29.8126 37.3557 30.0575 37.2533C30.5277 37.0566 31.0156 36.984 31.5164 37.1045C32.0718 37.2372 32.4635 37.5633 32.6398 38.1207C32.6759 38.2349 32.6845 38.3562 32.6233 38.4586C32.5938 38.5093 32.5181 38.5591 32.462 38.5607C32.4113 38.5623 32.3517 38.5046 32.3101 38.4594C32.2845 38.4312 32.2853 38.3786 32.2739 38.337C32.2166 38.1219 32.1228 37.9319 31.9117 37.8275C31.8716 37.8075 31.8261 37.8024 31.7829 37.7894C32.0643 38.0815 32.2166 38.4119 32.1962 38.8103C32.1809 39.113 31.9438 39.31 31.6389 39.2927C31.5502 39.2876 31.4878 39.246 31.4779 39.1597C31.4658 39.0549 31.4705 38.9489 31.4685 38.8433C31.465 38.7177 31.4744 38.5897 31.4567 38.4665C31.4289 38.2644 31.3045 38.1329 31.1102 38.0705C31.0164 38.0406 30.9261 38.0567 30.8389 38.1011C30.9614 38.1262 31.0784 38.1631 31.14 38.2777C31.1993 38.3876 31.2597 38.5022 31.2895 38.6219C31.3535 38.8802 31.3225 39.1294 31.085 39.288C30.9783 39.359 30.8338 39.3885 30.7028 39.4065C30.4213 39.4458 30.1513 39.3661 29.8793 39.3033C29.716 39.2652 29.5468 39.2401 29.3804 39.2397C29.223 39.2393 29.0641 39.2727 28.9082 39.3006C27.9592 39.4717 27.0054 39.3991 26.039 39.3877C24.9938 39.3748 23.9486 39.381 22.9033 39.3802C21.0323 39.3802 19.1608 39.3795 17.2886 39.3795C16.5157 39.3795 15.7425 39.3873 14.9697 39.3822C13.904 39.3755 12.8497 39.2554 11.819 38.985C7.89282 37.9582 4.95454 35.8328 3.01793 32.27C2.16424 30.6985 1.67675 29.0174 1.50522 27.2523C1.48442 27.0482 2.65722 29.2313 2.64584 29.017Z" fill="#0D0D0D"/>
<path d="M33.3431 19.7614C33.0138 19.0592 33.0099 18.7624 33.3741 18.0979C33.6489 17.5963 34.3789 18.0426 34.28 17.4825C34.2384 16.9958 33.7286 16.4612 33.634 16.345C33.5178 16.2072 33.453 16.0718 33.2815 16.1068C33.1245 16.139 32.9757 16.2147 32.8494 16.3085C32.4031 16.6402 31.9894 17.0099 31.6542 17.4578C31.0485 18.2659 31.2982 18.7562 32.0074 19.4007C32.3077 19.6723 33.3784 19.8363 33.3431 19.7614Z" fill="#E65270"/>
<path opacity="0.2" d="M32.6865 17.0959C32.8611 16.9051 33.1331 16.7206 33.4169 16.5315C33.5676 16.4318 33.119 17.6568 32.9883 17.9837C32.5597 19.0549 33.1214 19.7186 32.9667 19.6365C32.6268 19.456 32.1413 18.8252 32.1075 18.4355C32.0698 18.0135 32.3976 17.4118 32.6865 17.0959Z" fill="#2B2B2B"/>
<path d="M33.2073 19.6958C32.8776 18.994 32.8741 18.6973 33.2387 18.0328C33.5131 17.5315 33.6402 17.0264 33.5413 16.4655C33.5303 16.4031 33.5182 16.3395 33.4978 16.2791C33.4393 16.1107 33.336 16.0283 33.1645 16.0636C33.0075 16.0958 32.8387 16.1488 32.7131 16.2422C32.2669 16.5738 31.8532 16.9436 31.518 17.3914C31.0532 18.0112 31.1043 18.4343 31.4563 18.9041C31.5572 19.0384 31.6192 19.0344 31.7492 19.0588C31.9171 19.0906 31.9513 18.8566 31.8979 18.762C31.7751 18.5446 31.6942 18.326 31.6789 18.1541C31.6416 17.7317 31.8779 17.2733 32.1668 16.9573C32.4345 16.6645 32.9757 16.21 33.3451 16.0997C33.4342 16.4416 33.2442 17.1237 33.1237 17.455C32.9769 17.8597 32.5326 18.598 32.6441 19.0792C32.6441 19.0792 32.8007 19.5243 32.9667 19.6373C33.1327 19.7496 33.2073 19.6958 33.2073 19.6958Z" fill="#0D0D0D"/>
<g opacity="0.2">
<path d="M13.1967 27.7963C13.1516 27.7987 13.11 27.794 13.0758 27.7755C13.1186 27.7732 13.159 27.781 13.1967 27.7963Z" fill="#8B4FBA"/>
</g>
<path opacity="0.2" d="M33.4872 33.6803C33.8722 33.0954 34.3051 32.8976 34.7942 32.4372C35.2593 32.0004 35.6165 31.4732 36.0796 31.0442C36.4423 31.12 36.8501 31.0587 37.2222 31.0776C37.4883 31.7346 38.7805 31.1094 38.8986 30.6855L39.0701 30.9426C39.4426 31.6762 38.1065 31.7252 37.3459 31.6491C36.812 31.5961 34.5081 32.2017 34.5838 35.1734C34.3244 35.5718 33.7132 35.1828 33.7125 35.7021C33.7121 36.2335 33.7207 37.1708 34.1799 37.5091C34.0484 37.9727 33.592 37.4825 33.466 37.2968C33.1841 36.8811 32.7814 36.1452 32.69 35.6526C32.5353 34.8111 33.066 34.3197 33.4872 33.6803Z" fill="#430A1D"/>
</g>
<defs>
<linearGradient id="paint0_linear_3_912" x1="12.2636" y1="-7.3453" x2="1.08953" y2="44.7981" gradientUnits="userSpaceOnUse">
<stop offset="0.3836" stop-color="#FAA100"/>
<stop offset="0.6584" stop-color="#BF73F2"/>
<stop offset="0.6649" stop-color="#C370E6"/>
<stop offset="0.6852" stop-color="#CC68C7"/>
<stop offset="0.7081" stop-color="#D461AB"/>
<stop offset="0.7341" stop-color="#DB5B95"/>
<stop offset="0.7643" stop-color="#E05784"/>
<stop offset="0.8017" stop-color="#E35479"/>
<stop offset="0.8543" stop-color="#E55272"/>
<stop offset="1" stop-color="#E65270"/>
</linearGradient>
<linearGradient id="paint1_linear_3_912" x1="18.5712" y1="-8.04139" x2="6.66886" y2="47.5013" gradientUnits="userSpaceOnUse">
<stop offset="0.3836" stop-color="#FAA100"/>
<stop offset="0.6584" stop-color="#BF73F2"/>
<stop offset="0.6649" stop-color="#C370E6"/>
<stop offset="0.6852" stop-color="#CC68C7"/>
<stop offset="0.7081" stop-color="#D461AB"/>
<stop offset="0.7341" stop-color="#DB5B95"/>
<stop offset="0.7643" stop-color="#E05784"/>
<stop offset="0.8017" stop-color="#E35479"/>
<stop offset="0.8543" stop-color="#E55272"/>
<stop offset="1" stop-color="#E65270"/>
</linearGradient>
<linearGradient id="paint2_linear_3_912" x1="20.523" y1="-4.51725" x2="19.8147" y2="28.4324" gradientUnits="userSpaceOnUse">
<stop stop-color="#FAA7B5"/>
<stop offset="0.3836" stop-color="#FAA100"/>
<stop offset="0.7317" stop-color="#BF73F2"/>
</linearGradient>
<linearGradient id="paint3_linear_3_912" x1="11.7347" y1="-1.13074" x2="19.689" y2="12.5722" gradientUnits="userSpaceOnUse">
<stop stop-color="#F6E8A0"/>
<stop offset="1" stop-color="#E65271"/>
</linearGradient>
<linearGradient id="paint4_linear_3_912" x1="13.1329" y1="7.10337" x2="19.9926" y2="18.92" gradientUnits="userSpaceOnUse">
<stop stop-color="#F6E8A0"/>
<stop offset="1" stop-color="#E65271"/>
</linearGradient>
<linearGradient id="paint5_linear_3_912" x1="28.4605" y1="-1.62941" x2="27.6694" y2="12.1754" gradientUnits="userSpaceOnUse">
<stop stop-color="#F6E8A0"/>
<stop offset="1" stop-color="#E65271"/>
</linearGradient>
<linearGradient id="paint6_linear_3_912" x1="27.72" y1="12.1584" x2="23.1602" y2="-8.04405" gradientUnits="userSpaceOnUse">
<stop stop-color="#E65271"/>
<stop offset="0.3836" stop-color="#FAA100"/>
</linearGradient>
<linearGradient id="paint7_linear_3_912" x1="11.8972" y1="2.04759" x2="28.7779" y2="16.4271" gradientUnits="userSpaceOnUse">
<stop stop-color="#F6E8A0"/>
<stop offset="1" stop-color="#E65271"/>
</linearGradient>
<linearGradient id="paint8_linear_3_912" x1="27.125" y1="12.0978" x2="10.7197" y2="16.5593" gradientUnits="userSpaceOnUse">
<stop stop-color="#FAA7B5"/>
<stop offset="0.3836" stop-color="#FAA100"/>
<stop offset="0.7317" stop-color="#BF73F2"/>
</linearGradient>
<linearGradient id="paint9_linear_3_912" x1="70.7925" y1="-7.07734" x2="-6.26229" y2="34.2369" gradientUnits="userSpaceOnUse">
<stop stop-color="#FAA7B5"/>
<stop offset="0.3836" stop-color="#FAA100"/>
<stop offset="0.7317" stop-color="#BF73F2"/>
</linearGradient>
<radialGradient id="paint10_radial_3_912" cx="0" cy="0" r="1" gradientUnits="userSpaceOnUse" gradientTransform="translate(27.9812 18.1772) rotate(-163.148) scale(2.79377 5.38748)">
<stop offset="0.0091" stop-color="white"/>
<stop offset="1" stop-color="white" stop-opacity="0"/>
</radialGradient>
<radialGradient id="paint11_radial_3_912" cx="0" cy="0" r="1" gradientUnits="userSpaceOnUse" gradientTransform="translate(13.1511 14.9294) rotate(180) scale(4.36772)">
<stop offset="0.0091" stop-color="white"/>
<stop offset="1" stop-color="white" stop-opacity="0"/>
</radialGradient>
<radialGradient id="paint12_radial_3_912" cx="0" cy="0" r="1" gradientUnits="userSpaceOnUse" gradientTransform="translate(13.1481 14.9301) rotate(180) scale(4.3659)">
<stop offset="0.0091" stop-color="white"/>
<stop offset="1" stop-color="white" stop-opacity="0"/>
</radialGradient>
<linearGradient id="paint13_linear_3_912" x1="39.1179" y1="28.5128" x2="34.7957" y2="38.2562" gradientUnits="userSpaceOnUse">
<stop offset="0.0041" stop-color="#FAA7B5"/>
<stop offset="0.3836" stop-color="#FAA100"/>
</linearGradient>
<linearGradient id="paint14_linear_3_912" x1="10.3333" y1="0.380242" x2="6.79" y2="27.3078" gradientUnits="userSpaceOnUse">
<stop stop-color="#FAA7B5"/>
<stop offset="0.3836" stop-color="#FAA100"/>
<stop offset="0.7317" stop-color="#BF73F2"/>
</linearGradient>
<linearGradient id="paint15_linear_3_912" x1="7.3757" y1="-0.00849451" x2="3.83245" y2="26.919" gradientUnits="userSpaceOnUse">
<stop stop-color="#FAA7B5"/>
<stop offset="0.3836" stop-color="#FAA100"/>
<stop offset="0.7317" stop-color="#BF73F2"/>
</linearGradient>
<linearGradient id="paint16_linear_3_912" x1="2.17197" y1="11.4745" x2="3.76346" y2="30.212" gradientUnits="userSpaceOnUse">
<stop stop-color="#FAA7B5"/>
<stop offset="0.3836" stop-color="#FAA100"/>
<stop offset="0.7317" stop-color="#BF73F2"/>
</linearGradient>
<linearGradient id="paint17_linear_3_912" x1="30.5119" y1="-4.30376" x2="29.8036" y2="28.6488" gradientUnits="userSpaceOnUse">
<stop stop-color="#FAA7B5"/>
<stop offset="0.3836" stop-color="#FAA100"/>
<stop offset="0.7317" stop-color="#BF73F2"/>
</linearGradient>
<linearGradient id="paint18_linear_3_912" x1="37.1845" y1="20.9038" x2="35.4305" y2="23.7981" gradientUnits="userSpaceOnUse">
<stop stop-color="#FAA7B5"/>
<stop offset="0.3836" stop-color="#FAA100"/>
<stop offset="0.7317" stop-color="#BF73F2"/>
</linearGradient>
<clipPath id="clip0_3_912">
<rect width="40" height="40" fill="white" transform="matrix(1 0 0 -1 0.5 40)"/>
</clipPath>
<clipPath id="clip1_3_912">
<rect width="0.47383" height="0.552801" fill="white" transform="matrix(-1 0 0 -1 36.0645 22.2903)"/>
</clipPath>
</defs>
</svg>
