<svg width="41" height="40" viewBox="0 0 41 40" fill="none" xmlns="http://www.w3.org/2000/svg">
<g clip-path="url(#clip0_3_339)">
<path d="M27.1018 12.8779L30.5789 9.40087L30.8106 7.9368C24.4745 2.1754 14.4025 2.82868 8.69073 9.29993C7.10417 11.0973 5.92714 13.3381 5.29948 15.652L6.5448 15.4765L13.4987 14.3298L14.0356 13.7807C17.1289 10.3835 22.359 9.92649 25.9306 12.817L27.1018 12.8779Z" fill="#EA4335"/>
<path d="M35.532 15.5497C34.7328 12.6066 33.092 9.9608 30.8106 7.93689L25.9306 12.8169C27.9912 14.5006 29.1651 17.0372 29.1148 19.6977V20.5639C31.5134 20.5639 33.4581 22.5085 33.4581 24.907C33.4581 27.3058 31.5134 29.2016 29.1148 29.2016H20.4162L19.5622 30.1288V35.3381L20.4162 36.1555H29.1148C35.3539 36.2041 40.4511 31.2345 40.4997 24.9955C40.529 21.2138 38.6645 17.6685 35.532 15.5497Z" fill="#4285F4"/>
<path d="M11.7298 36.1556H20.4162V29.2015H11.7298C11.1108 29.2014 10.5115 29.0684 9.94866 28.8112L8.71632 29.1893L5.21491 32.6664L4.90991 33.8498C6.87351 35.3325 9.26929 36.1662 11.7298 36.1556Z" fill="#34A853"/>
<path d="M11.7298 13.5977C5.49053 13.6349 0.463033 18.723 0.50022 24.9621C0.521001 28.4462 2.14819 31.7259 4.90991 33.8498L9.94866 28.8112C7.76256 27.8235 6.79116 25.2509 7.77881 23.0649C8.76631 20.879 11.3391 19.9076 13.5249 20.8951C14.4882 21.3302 15.2596 22.1018 15.6948 23.0649L20.7335 18.0263C18.5896 15.2237 15.2583 13.5851 11.7298 13.5977Z" fill="#FBBC05"/>
</g>
<defs>
<clipPath id="clip0_3_339">
<rect width="40" height="40" fill="white" transform="translate(0.5)"/>
</clipPath>
</defs>
</svg>
