<svg width="41" height="40" viewBox="0 0 41 40" fill="none" xmlns="http://www.w3.org/2000/svg">
<path fill-rule="evenodd" clip-rule="evenodd" d="M4.75426 23.7422C4.59034 24.1884 4.42621 24.6347 4.26229 25.0811C3.85635 25.4828 3.45044 25.8852 3.04439 26.2872C2.60055 26.7269 2.5051 26.7239 2.60935 27.3458C2.73177 28.0766 3.08315 28.8297 3.72998 29.4782C4.41004 30.1599 5.83792 31.1247 6.8654 30.6699C6.76992 31.0152 6.64314 31.3772 6.48177 31.7311C5.79278 33.2418 7.4719 33.5377 8.64699 33.8555C9.62357 34.1196 12.0203 34.8233 12.3661 33.5397C12.5217 32.9622 12.5458 32.6519 12.4904 32.1005C12.7943 31.4222 12.8914 31.314 13.1429 30.9407C13.4881 30.4288 13.4633 30.2339 13.3878 29.5986C13.3732 29.4762 13.3554 29.3427 13.3348 29.2024C14.4978 29.3773 15.6159 29.3752 16.7556 29.2338C16.4096 29.4354 16.0625 29.612 15.6049 29.8473C14.5187 30.4056 15.5423 32.0529 16.0104 32.7743C16.9929 34.2883 17.8739 35.33 19.5336 34.4319C20.0911 34.1301 20.1341 33.8086 20.4821 33.2891C20.6743 33.1836 21.6649 32.3412 22.254 31.8653C22.4773 32.1332 22.9046 32.1825 23.5528 32.2293C23.8789 32.253 25.1578 32.2449 25.4969 32.2471C26.5139 32.2535 27.1243 32.1479 27.2039 31.0395C27.2415 30.5139 27.219 30.4021 26.9604 29.9426C26.9448 29.3628 26.9293 28.7828 26.9139 28.2032C26.8962 27.55 26.7715 27.1494 26.5152 26.5393C26.2821 25.9851 26.1516 25.5122 25.8795 24.9748C25.9168 24.7641 25.9464 24.5468 25.9665 24.3196C26.3123 24.6526 26.658 24.9859 27.0038 25.3191C27.663 25.954 28.2076 26.4725 29.2127 26.4251C30.2593 26.3757 31.4576 25.5512 31.7645 24.5426C31.8668 24.2059 31.9688 23.8693 32.0711 23.5327C33.6495 23.831 35.4942 23.7627 36.8685 23.0295C38.8898 21.9507 39.8356 19.7819 40.068 17.4876C40.2561 15.6317 39.8941 12.5107 39.0092 10.8173C38.7491 10.3193 37.5742 9.68925 37.0591 10.2112C36.671 10.6045 36.4045 11.2037 35.9855 11.5617C35.661 11.839 35.2591 11.9763 34.9069 12.1214C34.6342 11.3852 34.2423 10.813 33.7624 10.2413C33.3808 9.7869 33.0212 9.56044 32.518 9.24533C31.5236 8.62261 30.752 7.83649 29.8472 7.09055C27.1092 4.83298 24.7579 4.90221 21.3465 6.33806C19.7189 7.02319 18.9339 7.95294 17.9356 9.2883C17.3324 9.31976 16.9179 9.43659 16.2803 9.99935C15.8096 10.4147 15.3714 10.8421 14.9472 11.2849C11.7583 11.7931 9.77787 12.4008 7.68265 14.2583C6.83005 15.0142 6.21026 15.8518 5.72682 16.7934C5.27801 17.2894 4.83179 17.7978 4.23922 18.0259C3.82204 18.1864 3.8298 18.1859 3.68282 17.7936C4.17884 17.4208 4.171 16.7191 4.21691 16.0841C4.52983 16.099 4.64713 16.45 4.85991 16.7185C4.98545 16.1569 5.05825 15.2848 4.46721 14.9787C4.56332 14.7218 4.67207 14.4628 4.77166 14.1795C3.89987 14.3308 0.911052 16.3454 2.50578 17.8819C2.61075 18.3085 2.6934 18.6024 2.83208 18.8909C3.19696 19.6497 4.01742 19.7798 4.73236 19.5009C4.53643 20.3992 4.49672 21.3766 4.61465 22.7486C4.64293 23.0776 4.6904 23.4094 4.75426 23.7422Z" fill="#38383A"/>
<path d="M4.94364 23.8117C4.87784 23.991 4.81173 24.1706 4.74585 24.35L4.36704 24.2111C4.43293 24.0317 4.49906 23.8521 4.56483 23.6728L4.94364 23.8117ZM4.74585 24.35C4.64782 24.6167 4.54962 24.8838 4.45165 25.1505L4.07287 25.0116C4.17082 24.7449 4.26901 24.4778 4.36704 24.2111L4.74585 24.35ZM4.45165 25.1505L4.40426 25.2239L4.26227 25.0811L4.45165 25.1505ZM4.40426 25.2239C4.18923 25.4367 3.97396 25.65 3.75885 25.863L3.47484 25.5774C3.68995 25.3644 3.9052 25.1512 4.12025 24.9383L4.40426 25.2239ZM3.75885 25.863C3.56813 26.0519 3.37716 26.2411 3.18636 26.43L2.90235 26.1444C3.09316 25.9555 3.28409 25.7664 3.47484 25.5774L3.75885 25.863ZM3.18636 26.43C3.09913 26.5163 3.06953 26.5448 3.04328 26.5701L2.76393 26.2782C2.82219 26.2221 2.88651 26.1601 2.90235 26.1444L3.18636 26.43ZM3.04328 26.5701C2.78489 26.8189 2.73378 26.8682 2.80819 27.3126L2.41044 27.379C2.30076 26.7242 2.37728 26.6504 2.76393 26.2782L3.04328 26.5701ZM2.80819 27.3126C2.86818 27.6705 2.98718 28.0356 3.17395 28.391L2.81567 28.5788C2.60955 28.1867 2.47764 27.7802 2.41044 27.379L2.80819 27.3126ZM3.17395 28.391C3.34735 28.7211 3.57816 29.0408 3.87275 29.3362L3.58715 29.6202C3.26025 29.2924 3.00559 28.9403 2.81567 28.5788L3.17395 28.391ZM3.87275 29.3362C4.24966 29.7141 4.86496 30.1823 5.50533 30.4256L5.36331 30.8029C4.66349 30.5369 3.99517 30.0292 3.58715 29.6202L3.87275 29.3362ZM5.50533 30.4256C5.95078 30.5949 6.40476 30.6532 6.78412 30.4853L6.94664 30.8546C6.45728 31.0712 5.89918 31.0066 5.36331 30.8029L5.50533 30.4256ZM6.78412 30.4853L7.17386 30.3127L7.06029 30.7236L6.86538 30.6699L6.78412 30.4853ZM7.06029 30.7236C7.00964 30.9069 6.95036 31.0948 6.88223 31.2833L6.50189 31.1459C6.56652 30.967 6.62267 30.7892 6.67047 30.6163L7.06029 30.7236ZM6.88223 31.2833C6.8186 31.4591 6.7466 31.6373 6.66564 31.8148L6.29788 31.6475C6.373 31.4827 6.44097 31.3143 6.50189 31.1459L6.88223 31.2833ZM6.66564 31.8148C6.32436 32.5631 6.68203 32.9571 7.2364 33.21L7.06906 33.5777C6.31054 33.2318 5.82321 32.6884 6.29788 31.6475L6.66564 31.8148ZM7.2364 33.21C7.59065 33.3715 8.01934 33.4831 8.41771 33.5869L8.31672 33.9767C7.89815 33.8677 7.44778 33.7504 7.06906 33.5777L7.2364 33.21ZM8.41771 33.5869C8.52298 33.6142 8.62498 33.6408 8.69824 33.6606L8.59569 34.0505C8.48779 34.0212 8.40217 33.9989 8.31672 33.9767L8.41771 33.5869ZM8.69824 33.6606C9.17864 33.7905 10.0092 34.0287 10.7557 34.076L10.7304 34.48C9.94812 34.4304 9.09163 34.1846 8.59569 34.0505L8.69824 33.6606ZM10.7557 34.076C11.4305 34.1188 12.032 34.0051 12.1712 33.4885L12.561 33.591C12.3545 34.3577 11.5844 34.5341 10.7304 34.48L10.7557 34.076ZM12.1712 33.4885C12.2449 33.2148 12.2876 33.0034 12.3054 32.7938L12.7093 32.8269C12.6901 33.0546 12.6428 33.2873 12.561 33.591L12.1712 33.4885ZM12.3054 32.7938C12.3232 32.5832 12.3159 32.3787 12.29 32.1194L12.6908 32.0815C12.72 32.3735 12.7285 32.6001 12.7093 32.8269L12.3054 32.7938ZM12.29 32.1194L12.3058 32.0184L12.4904 32.1005L12.29 32.1194ZM12.3058 32.0184C12.5775 31.4118 12.6895 31.2479 12.8873 30.9582L13.2203 31.1855C13.0374 31.4533 12.9338 31.605 12.6751 32.1825L12.3058 32.0184ZM12.8873 30.9582C12.9075 30.9286 12.9248 30.9034 12.9756 30.8279L13.3102 31.0536C13.2973 31.0727 13.2552 31.1343 13.2203 31.1855L12.8873 30.9582ZM12.9756 30.8279C13.1299 30.5992 13.2008 30.4463 13.2235 30.2883L13.6228 30.3437C13.5903 30.5699 13.5009 30.7705 13.3102 31.0536L12.9756 30.8279ZM13.2235 30.2883C13.2472 30.1224 13.2233 29.9243 13.1874 29.6216L13.5882 29.5757C13.6277 29.9081 13.654 30.1255 13.6228 30.3437L13.2235 30.2883ZM13.1874 29.6216C13.1775 29.5388 13.1693 29.4734 13.1636 29.4307L13.563 29.3802C13.5751 29.471 13.5834 29.5351 13.5882 29.5757L13.1874 29.6216ZM13.1636 29.4307C13.1592 29.3964 13.1491 29.3275 13.1351 29.2316L13.5344 29.1731C13.5407 29.2161 13.5501 29.2831 13.563 29.3802L13.1636 29.4307ZM13.1351 29.2316L13.0958 28.9621L13.3648 29.0027L13.3348 29.2024L13.1351 29.2316ZM13.3648 29.0027C13.9362 29.0886 14.4969 29.1311 15.0547 29.1348L15.0531 29.5387C14.4765 29.535 13.8963 29.491 13.3048 29.402L13.3648 29.0027ZM15.0547 29.1348C15.6142 29.1383 16.1707 29.103 16.7319 29.0334L16.7792 29.4343C16.2009 29.506 15.6282 29.5424 15.0531 29.5387L15.0547 29.1348ZM16.7319 29.0334L16.8566 29.409L16.7556 29.2338L16.7319 29.0334ZM16.8566 29.409C16.5305 29.5989 16.2051 29.7663 15.7898 29.9796L15.6052 29.6198C16.0151 29.4092 16.3362 29.2441 16.6546 29.0586L16.8566 29.409ZM15.7898 29.9796C15.7595 29.9952 15.7285 30.0112 15.6972 30.0272L15.5126 29.6674C15.5439 29.6513 15.575 29.6353 15.6052 29.6198L15.7898 29.9796ZM15.6972 30.0272C15.2704 30.2466 15.2665 30.7072 15.4172 31.1897L15.0322 31.3096C14.8257 30.6487 14.8533 30.0063 15.5126 29.6674L15.6972 30.0272ZM15.4172 31.1897C15.5882 31.7372 15.9513 32.3134 16.1793 32.6646L15.8415 32.884C15.6014 32.514 15.2184 31.9056 15.0322 31.3096L15.4172 31.1897ZM16.1793 32.6646C16.6564 33.3999 17.1063 34.019 17.623 34.3356L17.4131 34.6796C16.8288 34.3216 16.3467 33.6626 15.8415 32.884L16.1793 32.6646ZM17.623 34.3356C18.1112 34.6349 18.682 34.6626 19.4381 34.2535L19.629 34.6103C18.7255 35.0992 18.0258 35.0552 17.4131 34.6796L17.623 34.3356ZM19.4381 34.2535C19.7954 34.0602 19.9153 33.8502 20.0768 33.5672L20.4287 33.766C20.2336 34.1079 20.0887 34.3614 19.629 34.6103L19.4381 34.2535ZM20.0768 33.5672C20.1411 33.4546 20.2116 33.3312 20.3148 33.177L20.6494 33.4011C20.5667 33.5245 20.4945 33.6509 20.4287 33.766L20.0768 33.5672ZM20.3148 33.177L20.3851 33.1116L20.4821 33.2891L20.3148 33.177ZM20.3851 33.1116C20.503 33.0468 21.0068 32.6307 21.4968 32.2258L21.754 32.5367C21.2474 32.9554 20.7262 33.3859 20.5791 33.4666L20.3851 33.1116ZM21.4968 32.2258C21.749 32.0174 21.9978 31.8118 22.127 31.7075L22.381 32.0231C22.1447 32.214 21.9502 32.3746 21.754 32.5367L21.4968 32.2258ZM22.127 31.7075L22.2817 31.5825L22.4094 31.7359L22.254 31.8653L22.127 31.7075ZM22.4094 31.7359C22.49 31.8325 22.6174 31.8923 22.7905 31.9337L22.6975 32.3267C22.4392 32.2649 22.2411 32.1657 22.0985 31.9947L22.4094 31.7359ZM22.7905 31.9337C22.9893 31.9813 23.2505 32.0046 23.567 32.0273L23.5385 32.4313C23.2069 32.4074 22.93 32.3823 22.6975 32.3267L22.7905 31.9337ZM23.567 32.0273C23.8151 32.0453 24.6078 32.0449 25.1197 32.0447V32.4487C24.5967 32.449 23.7869 32.4493 23.5385 32.4313L23.567 32.0273ZM25.1197 32.0447C25.282 32.0447 25.4169 32.0447 25.4976 32.0451L25.496 32.4491C25.4154 32.4486 25.2813 32.4487 25.1197 32.4487V32.0447ZM25.4976 32.0451C25.9746 32.0481 26.3528 32.0269 26.6025 31.8854L26.8013 32.2373C26.4718 32.424 26.0359 32.4524 25.496 32.4491L25.4976 32.0451ZM26.6025 31.8854C26.8306 31.7561 26.9677 31.5015 27.0019 31.0253L27.4058 31.0537C27.3605 31.6858 27.1525 32.0384 26.8013 32.2373L26.6025 31.8854ZM27.0019 31.0253C27.0193 30.7806 27.0235 30.6347 26.9959 30.5097L27.3905 30.4228C27.4294 30.5998 27.4259 30.7729 27.4058 31.0537L27.0019 31.0253ZM26.9959 30.5097C26.9685 30.3844 26.9037 30.2546 26.7836 30.0413L27.1371 29.844C27.2755 30.0899 27.3516 30.246 27.3905 30.4228L26.9959 30.5097ZM26.7836 30.0413L26.7584 29.9474L26.9604 29.9426L26.7836 30.0413ZM26.7584 29.9474C26.7506 29.6575 26.7427 29.3675 26.7351 29.0776L27.1391 29.0681C27.1466 29.358 27.1546 29.6481 27.1624 29.9379L26.7584 29.9474ZM26.7351 29.0776C26.7274 28.7878 26.7195 28.4977 26.7118 28.2079L27.1158 28.1984C27.1234 28.4882 27.1314 28.7783 27.1391 29.0681L26.7351 29.0776ZM26.7118 28.2079C26.7035 27.8967 26.6698 27.6469 26.6083 27.4041L26.9997 27.3062C27.0689 27.5793 27.1066 27.8567 27.1158 28.1984L26.7118 28.2079ZM26.6083 27.4041C26.5462 27.1594 26.4538 26.9147 26.3289 26.6174L26.7014 26.4611C26.8327 26.7738 26.9309 27.0348 26.9997 27.3062L26.6083 27.4041ZM26.3289 26.6174C26.2405 26.4072 26.1648 26.203 26.0906 26.0028L26.4694 25.8639C26.5401 26.0547 26.6123 26.2494 26.7014 26.4611L26.3289 26.6174ZM26.4694 25.8631V25.8639L26.28 25.9333L26.4694 25.8631ZM26.0906 26.0036C25.9752 25.6922 25.8631 25.3901 25.6987 25.0656L26.0601 24.8841C26.2327 25.2247 26.3493 25.539 26.4694 25.8631L26.0906 26.0036ZM25.6987 25.0656L25.6806 24.9401L25.8794 24.9748L25.6987 25.0656ZM25.6806 24.9401C25.7005 24.8274 25.7171 24.7229 25.7298 24.6282L26.1291 24.6787C26.1126 24.802 26.0956 24.9117 26.0783 25.0095L25.6806 24.9401ZM25.7298 24.6282C25.7412 24.5422 25.7529 24.4345 25.7645 24.3031L26.1685 24.3362C26.16 24.4317 26.1467 24.5467 26.1291 24.6787L25.7298 24.6282ZM25.7645 24.3031L25.8021 23.8807L26.1062 24.1736L25.9665 24.3196L25.7645 24.3031ZM26.1062 24.1736C26.304 24.3641 26.5019 24.5549 26.6997 24.7455L26.4204 25.0374C26.2226 24.8469 26.0246 24.6561 25.8269 24.4656L26.1062 24.1736ZM26.6997 24.7455L27.1435 25.1731L26.8641 25.465L26.4204 25.0374L26.6997 24.7455ZM27.1435 25.1731C27.4638 25.4817 27.7564 25.762 28.0811 25.9536L27.876 26.3024C27.5124 26.0879 27.2028 25.7914 26.8641 25.465L27.1435 25.1731ZM28.0811 25.9536C28.3934 26.1379 28.7456 26.2447 29.2032 26.2231L29.2221 26.6271C28.6748 26.6529 28.2519 26.5242 27.876 26.3024L28.0811 25.9536ZM29.2032 26.2231C29.6969 26.1999 30.2303 25.9879 30.6736 25.6609L30.9135 25.9859C30.4086 26.3584 29.7954 26.6 29.2221 26.6271L29.2032 26.2231ZM30.6736 25.6609C31.0967 25.3488 31.434 24.9347 31.5711 24.4842L31.9578 24.601C31.7941 25.1391 31.402 25.6255 30.9135 25.9859L30.6736 25.6609ZM31.5711 24.4842C31.6183 24.3286 31.6656 24.1729 31.7128 24.0175L32.0995 24.1343C32.0523 24.2898 32.005 24.4455 31.9578 24.601L31.5711 24.4842ZM31.7128 24.0175C31.7676 23.8365 31.8227 23.6552 31.8777 23.4743L32.2644 23.5912C32.2095 23.7721 32.1543 23.9533 32.0995 24.1343L31.7128 24.0175ZM31.8777 23.4743L31.9303 23.3011L32.1081 23.3347L32.0711 23.5327L31.8777 23.4743ZM32.1081 23.3347C32.9261 23.4893 33.8168 23.5433 34.6728 23.4536L34.7123 23.8544C33.8173 23.9483 32.8872 23.8919 32.034 23.7307L32.1081 23.3347ZM34.6728 23.4536C35.4249 23.3747 36.1503 23.1838 36.7738 22.8511L36.9632 23.2078C36.2933 23.5653 35.5165 23.7701 34.7123 23.8544L34.6728 23.4536ZM36.7738 22.8511C37.6871 22.3637 38.373 21.6438 38.8668 20.7883L39.2172 20.9887C38.6865 21.9079 37.9481 22.6822 36.9632 23.2078L36.7738 22.8511ZM38.8668 20.7883V20.7875L39.042 20.8885L38.8668 20.7883ZM38.8668 20.7875C39.4311 19.81 39.7472 18.6567 39.8676 17.4686L40.2684 17.5065C40.1423 18.752 39.8102 19.9622 39.2172 20.9894L38.8668 20.7875ZM39.8676 17.4686C39.9656 16.5004 39.9113 15.18 39.7086 13.9029L40.1064 13.8398C40.3143 15.1495 40.3696 16.5076 40.2684 17.5065L39.8676 17.4686ZM39.7086 13.9029C39.5299 12.7764 39.2358 11.687 38.8301 10.9104L39.1884 10.7241C39.6142 11.5391 39.9212 12.6724 40.1064 13.8398L39.7086 13.9029ZM38.8301 10.9104C38.7983 10.8495 38.7455 10.7831 38.6777 10.7161L38.9601 10.4273C39.0575 10.5235 39.1365 10.6246 39.1884 10.7241L38.8301 10.9104ZM38.6777 10.7161C38.5045 10.5453 38.2472 10.3835 37.9807 10.2918L38.1117 9.9099C38.4354 10.0212 38.7486 10.2185 38.9601 10.4273L38.6777 10.7161ZM37.9807 10.2918C37.7335 10.2067 37.4844 10.1833 37.3065 10.2763L37.1202 9.91798C37.4072 9.76796 37.7688 9.79197 38.1117 9.9099L37.9807 10.2918ZM37.3065 10.2763C37.2692 10.2957 37.2344 10.321 37.2035 10.3524L36.9146 10.0699C36.9765 10.0072 37.0457 9.95682 37.1202 9.91798L37.3065 10.2763ZM37.2035 10.3524C37.0383 10.5198 36.8934 10.7315 36.7481 10.9437L36.4151 10.7164C36.5721 10.4871 36.7287 10.2584 36.9146 10.0699L37.2035 10.3524ZM36.7481 10.9437C36.557 11.2229 36.365 11.5032 36.1165 11.7155L35.8545 11.4078C36.0647 11.2282 36.2403 10.9717 36.4151 10.7164L36.7481 10.9437ZM36.1165 11.7155C35.8123 11.9755 35.4596 12.117 35.1321 12.2483L34.9821 11.8728C35.28 11.7534 35.6006 11.6247 35.8545 11.4078L36.1165 11.7155ZM35.1321 12.2483C35.0749 12.2712 35.0189 12.2937 34.9834 12.3083L34.8303 11.9343C34.8931 11.9085 34.9377 11.8906 34.9821 11.8728L35.1321 12.2483ZM34.9834 12.3083L34.7905 12.3878L34.7174 12.1908L34.9068 12.1213L34.9834 12.3083ZM34.7174 12.1908C34.5868 11.8381 34.4266 11.523 34.2411 11.2269L34.5835 11.0123C34.782 11.3291 34.9543 11.6685 35.0962 12.0519L34.7174 12.1908ZM34.2411 11.2269C34.0536 10.9276 33.8411 10.6488 33.6077 10.3706L33.917 10.1118C34.1633 10.4053 34.387 10.6987 34.5835 11.0123L34.2411 11.2269ZM33.6077 10.3706C33.4274 10.1559 33.2524 9.9951 33.0635 9.85125L33.308 9.53087C33.52 9.69229 33.7158 9.87221 33.917 10.1118L33.6077 10.3706ZM33.0635 9.85125C32.8749 9.70758 32.6607 9.57297 32.4107 9.4165L32.6253 9.07407C32.8784 9.23253 33.0957 9.36904 33.308 9.53087L33.0635 9.85125ZM32.4107 9.4165C31.7064 8.97549 31.1161 8.45762 30.5138 7.92926L30.7789 7.62475C31.3684 8.14199 31.9463 8.64889 32.6253 9.07407L32.4107 9.4165ZM30.5138 7.92926C30.2602 7.70694 30.0044 7.48249 29.7185 7.24671L29.9758 6.93426C30.2404 7.15249 30.511 7.38975 30.7789 7.62475L30.5138 7.92926ZM29.7185 7.24671C28.3844 6.14677 27.149 5.61383 25.8366 5.53118L25.862 5.12721C27.2625 5.21538 28.572 5.77682 29.9758 6.93426L29.7185 7.24671ZM25.8366 5.53118C24.5146 5.44797 23.1018 5.81823 21.4246 6.52424L21.2683 6.15182C23.0022 5.42194 24.4711 5.03973 25.862 5.12721L25.8366 5.53118ZM21.4246 6.52424C20.6341 6.85689 20.0491 7.24828 19.5416 7.71766L19.2686 7.4209C19.8098 6.92036 20.4314 6.50404 21.2683 6.15182L21.4246 6.52424ZM19.5416 7.71766C19.0301 8.19061 18.5904 8.74933 18.0974 9.40897L17.7739 9.16752C18.2789 8.49188 18.7312 7.91786 19.2686 7.4209L19.5416 7.71766ZM18.0974 9.40897L18.0403 9.48532L17.9459 9.49023L17.9356 9.28824L18.0974 9.40897ZM17.9459 9.49023C17.665 9.50483 17.4297 9.53879 17.1958 9.63233L17.0459 9.25678C17.3291 9.14351 17.603 9.10295 17.9254 9.08626L17.9459 9.49023ZM17.1958 9.63233C16.9583 9.72724 16.7135 9.88611 16.4136 10.1508L16.1469 9.84782C16.4844 9.54989 16.7661 9.36865 17.0459 9.25678L17.1958 9.63233ZM16.4136 10.1508C16.1827 10.3546 15.9576 10.5633 15.7367 10.777L15.4558 10.4866C15.6775 10.2722 15.9072 10.0593 16.1469 9.84782L16.4136 10.1508ZM15.7367 10.777L15.7359 10.7778L15.5962 10.6319L15.7367 10.777ZM15.7359 10.7778C15.5171 10.9895 15.3034 11.2051 15.0931 11.4246L14.8012 11.1452C15.0149 10.9221 15.2327 10.7023 15.4566 10.4859L15.7359 10.7778ZM15.0931 11.4246L14.9787 11.4838L14.9472 11.2849L15.0931 11.4246ZM14.9787 11.4838C13.3997 11.7354 12.1202 12.0116 10.9773 12.4542L10.8322 12.077C12.0006 11.6245 13.3059 11.3425 14.9156 11.086L14.9787 11.4838ZM10.9773 12.4542C9.84433 12.8931 8.84442 13.4981 7.81601 14.4098L7.54924 14.1068C8.61588 13.1611 9.65424 12.5333 10.8322 12.077L10.9773 12.4542ZM7.81601 14.4098C7.3993 14.7792 7.03993 15.168 6.72646 15.5785L6.40608 15.3339C6.73632 14.9014 7.11343 14.4931 7.54924 14.1068L7.81601 14.4098ZM6.72646 15.5785C6.41285 15.9891 6.14337 16.424 5.90672 16.885L5.54687 16.7019C5.79353 16.2214 6.07592 15.7663 6.40608 15.3339L6.72646 15.5785ZM5.90672 16.885L5.87673 16.9284L5.72679 16.7934L5.90672 16.885ZM5.87673 16.9284C5.64702 17.1822 5.41776 17.4395 5.17188 17.6608L4.90201 17.3594C5.1394 17.1456 5.35788 16.9005 5.57686 16.6585L5.87673 16.9284ZM5.17188 17.6608C4.91412 17.8928 4.63469 18.0902 4.31174 18.2146L4.16662 17.8373C4.43611 17.7335 4.6764 17.5625 4.90201 17.3594L5.17188 17.6608ZM4.31174 18.2146H4.31097L4.23919 18.0259L4.31174 18.2146ZM4.31097 18.2146C4.05179 18.3142 3.92509 18.3641 3.78154 18.3033L3.93784 17.9308C3.94436 17.9336 4.00948 17.898 4.16739 17.8373L4.31097 18.2146ZM3.78154 18.3033L3.78075 18.3024L3.85968 18.117L3.78154 18.3033ZM3.78075 18.3024C3.62935 18.2382 3.58709 18.1138 3.49339 17.8638L3.8722 17.7233C3.9254 17.8655 3.92433 17.9255 3.9386 17.9316L3.78075 18.3024ZM3.49339 17.8638L3.44072 17.7231L3.56207 17.6318L3.6828 17.7935L3.49339 17.8638ZM3.56207 17.6318C3.93326 17.3529 3.96845 16.7974 4.00224 16.2625L4.40621 16.2878C4.36674 16.9133 4.3255 17.563 3.80352 17.9553L3.56207 17.6318ZM4.00224 16.2625C4.0066 16.1925 4.01109 16.1229 4.0149 16.0698L4.41887 16.0983C4.41358 16.1714 4.40985 16.2298 4.40621 16.2878L4.00224 16.2625ZM4.0149 16.0698L4.02926 15.8727L4.22637 15.8821L4.21689 16.084L4.0149 16.0698ZM4.22637 15.8821C4.55957 15.8979 4.71137 16.133 4.87512 16.3866L4.53578 16.6044C4.43115 16.4423 4.33405 16.292 4.2074 16.286L4.22637 15.8821ZM4.87512 16.3866C4.92081 16.4573 4.96789 16.5302 5.01769 16.5931L4.70211 16.844C4.63935 16.7647 4.58684 16.6835 4.53578 16.6044L4.87512 16.3866ZM5.05716 16.7619L4.96477 17.1753L4.70211 16.844L4.85989 16.7185L5.05716 16.7619ZM4.66265 16.6751C4.73086 16.37 4.78315 15.97 4.70926 15.6426L5.10221 15.5541C5.19249 15.9541 5.1346 16.4155 5.05716 16.7619L4.66265 16.6751ZM4.70926 15.6426C4.66234 15.4344 4.56182 15.2554 4.37491 15.1586L4.55949 14.7987C4.86852 14.9588 5.03057 15.2363 5.10221 15.5541L4.70926 15.6426ZM4.37491 15.1586L4.21519 15.0758L4.27778 14.9084L4.46719 14.9786L4.37491 15.1586ZM4.27778 14.9084C4.30763 14.8286 4.35107 14.7178 4.39571 14.604L4.77125 14.7509C4.73631 14.84 4.70126 14.9296 4.65659 15.0489L4.27778 14.9084ZM4.39571 14.604C4.45524 14.4521 4.51638 14.2963 4.5807 14.1132L4.9626 14.2458C4.90511 14.4093 4.83722 14.5824 4.77125 14.7509L4.39571 14.604ZM4.73771 13.9806L5.07656 13.9218L4.9626 14.2458L4.77164 14.1795L4.73771 13.9806ZM4.8056 14.3784C4.41446 14.4463 3.55306 14.9296 2.92776 15.5786L2.6358 15.2993C3.31797 14.5912 4.28688 14.0588 4.73771 13.9806L4.8056 14.3784ZM2.92776 15.5786C2.70114 15.8138 2.50902 16.0679 2.3877 16.3268L2.02163 16.1579C2.16464 15.8528 2.38249 15.5622 2.6358 15.2993L2.92776 15.5786ZM2.3877 16.3268C2.27193 16.5737 2.21909 16.8264 2.26168 17.0718L1.86391 17.1396C1.8062 16.8071 1.87285 16.4753 2.02163 16.1579L2.3877 16.3268ZM2.26168 17.0718C2.3003 17.2946 2.42001 17.5187 2.64545 17.7359L2.36607 18.0278C2.07384 17.7462 1.91697 17.4458 1.86391 17.1396L2.26168 17.0718ZM2.64545 17.7359L2.70147 17.8337L2.50576 17.8819L2.64545 17.7359ZM2.70147 17.8337C2.75274 18.0424 2.79873 18.2188 2.84875 18.3782L2.46375 18.4982C2.41162 18.332 2.36361 18.1479 2.31008 17.93L2.70147 17.8337ZM2.84875 18.3782C2.8966 18.5307 2.94881 18.6678 3.01431 18.8041L2.64981 18.9776C2.57669 18.8255 2.51804 18.6711 2.46375 18.4982L2.84875 18.3782ZM3.01431 18.8041C3.15959 19.1063 3.38944 19.2902 3.65435 19.3753L3.5313 19.7603C3.1651 19.6427 2.84836 19.3906 2.64981 18.9776L3.01431 18.8041ZM3.65435 19.3753C3.96341 19.4745 4.323 19.4441 4.65892 19.3132L4.80576 19.6887C4.38579 19.8525 3.93014 19.8884 3.5313 19.7603L3.65435 19.3753ZM4.65892 19.3132L5.00969 19.1763L4.92958 19.5435L4.73234 19.5009L4.65892 19.3132ZM4.92958 19.5435C4.83443 19.98 4.77701 20.4375 4.75774 20.9542L4.35378 20.9401C4.37389 20.4005 4.43449 19.9199 4.5351 19.4584L4.92958 19.5435ZM4.75774 20.9542C4.73856 21.4711 4.75813 22.0509 4.81664 22.7321L4.41265 22.7652C4.35331 22.0744 4.33372 21.4793 4.35378 20.9401L4.75774 20.9542ZM4.81664 22.7321C4.83155 22.9055 4.84942 23.0652 4.86992 23.2112L4.47061 23.2648C4.44521 23.0836 4.42564 22.9166 4.41265 22.7652L4.81664 22.7321ZM4.86992 23.2112C4.89253 23.3722 4.92018 23.5369 4.95227 23.7043L4.55623 23.7801C4.52375 23.6109 4.495 23.439 4.47061 23.2648L4.86992 23.2112ZM4.95227 23.7043L4.94364 23.8117L4.75424 23.7422" fill="#38383A"/>
<path fill-rule="evenodd" clip-rule="evenodd" d="M15.058 11.6066L12.3986 12.0388L9.97181 13.1025L7.91071 14.3991L5.94937 16.7926L4.84132 17.9661L3.76993 18.361L3.48655 17.6684L3.98203 16.9532L4.09335 15.9446L4.42524 15.958L4.78787 16.2888L4.69006 15.2614L4.2881 14.9917L4.30029 14.6002L3.3481 15.1389L2.48585 16.1562L2.30609 17.0654L2.67479 17.7935L3.0187 19.0304L3.71813 19.3616L4.4539 19.3255L5.15152 18.9201L4.68617 21.2804L5.15152 23.9065L4.63925 25.1192L2.96137 26.927L3.25968 28.0071L4.05451 29.2587L5.5533 30.3134L6.34826 30.4222L7.23211 30.4522L6.6807 32.7159L8.70856 33.5471L11.2351 33.8795L12.0993 33.3144L12.1658 31.7852L13.1299 30.1895L13.1964 28.9263L15.5234 29.0925L17.6842 28.893L15.5234 30.1895L15.8891 31.7519L17.252 33.8795L18.5818 34.4446L19.6455 34.0125L20.0777 33.1481L22.305 31.4528L22.7372 31.8185L26.2277 31.9514L26.9258 31.3863L26.9923 30.389L26.7596 29.9568L26.5934 27.2642L25.4299 24.9372L25.6293 23.9065L26.3274 24.2722L28.2888 26.1006L29.2528 26.1671L30.3165 25.7349L31.3804 24.9372L31.9122 23.2085L35.0371 23.4079L36.932 22.6765L38.4611 21.2471L39.5581 19.186L39.8241 16.7593L39.5914 13.9336L38.9931 11.4072L38.3946 10.6094L37.5636 10.3434L36.1009 11.939L34.7712 12.4045L33.6077 10.4764L32.4442 9.41258L31.8125 9.01366L29.2861 6.91932L27.2582 5.82231L25.2303 5.65607L22.8702 6.05499L20.8091 6.81959L19.3796 7.98308L18.2494 9.3461L17.0859 9.67851L15.058 11.6066Z" fill="#38383A" stroke="white" stroke-miterlimit="10"/>
<path fill-rule="evenodd" clip-rule="evenodd" d="M7.34494 17.6063C5.06687 20.2633 5.57292 23.4858 6.20428 26.6429C5.86735 25.7916 5.53033 24.9404 5.19343 24.0891C5.06928 23.3087 4.94513 22.5284 4.82098 21.748C4.85642 20.9499 4.89191 20.1519 4.92743 19.3538C5.24663 18.5912 5.56585 17.8287 5.88505 17.066C6.36392 16.3567 6.84278 15.6472 7.32165 14.9378C8.06649 14.3171 8.81136 13.6963 9.5562 13.0757C10.372 12.7387 11.1878 12.4017 12.0036 12.0648C12.9613 11.9406 13.919 11.8165 14.8767 11.6924C13.9899 12.7032 13.1032 13.7142 12.2164 14.725C10.0805 15.4178 8.82076 15.8844 7.34494 17.6063Z" fill="#38383A"/>
<path fill-rule="evenodd" clip-rule="evenodd" d="M18.069 9.51095C16.4853 11.0561 15.6202 12.2214 14.6124 14.0305C13.8915 15.3247 13.0828 16.5711 12.3249 17.8472C11.9415 18.4931 11.9053 19.0347 11.7908 19.7795C11.4183 19.3361 11.0459 18.8928 10.6735 18.4494C10.8508 17.9173 11.0282 17.3853 11.2056 16.8533C11.8085 15.7714 12.4116 14.6895 13.0145 13.6077C14.2914 12.3485 15.5683 11.0894 16.8453 9.83018C17.2531 9.72373 17.661 9.61737 18.069 9.51095Z" fill="#38383A"/>
<path fill-rule="evenodd" clip-rule="evenodd" d="M25.8901 5.68025C24.6217 6.15583 22.5152 6.31245 22.3691 7.76829C22.265 8.80215 22.447 9.32164 23.0702 10.4155C21.531 8.82274 21.1503 9.06923 18.1754 9.56418C18.601 8.96116 19.0266 8.35818 19.4523 7.75516C20.1971 7.29411 20.9421 6.83295 21.6869 6.37187C22.6446 6.15903 23.6023 5.94622 24.56 5.73339C25.0034 5.71566 25.4467 5.69795 25.8901 5.68025Z" fill="#38383A"/>
<path fill-rule="evenodd" clip-rule="evenodd" d="M29.3901 25.3726C29.8124 25.6332 29.8033 25.822 29.7327 26.0007C30.0658 25.8674 30.3989 25.7342 30.732 25.601C30.9478 25.3113 31.1636 25.0216 31.3794 24.7317C31.5395 24.3189 31.6997 23.9061 31.8599 23.4932C31.6552 23.3393 31.4506 23.1854 31.2459 23.0314C30.3513 23.1456 29.4567 23.2598 28.5621 23.374C28.4955 23.5549 28.4289 23.7357 28.3622 23.9165C28.3813 24.1735 28.4004 24.4304 28.4194 24.6874C28.505 24.8396 28.5907 24.992 28.6763 25.1442C28.8096 25.2108 28.9429 25.2775 29.076 25.344C29.1808 25.3536 29.2855 25.3632 29.3901 25.3726Z" fill="#38383A"/>
<path fill-rule="evenodd" clip-rule="evenodd" d="M29.1403 20.783C27.795 21.1713 27.8055 21.2783 27.4083 22.6129C27.9327 21.7714 28.321 21.3468 29.1403 20.783Z" fill="#38383A"/>
<path fill-rule="evenodd" clip-rule="evenodd" d="M38.0851 10.7955C37.846 10.906 37.6132 10.9592 37.4637 11.1779C37.1419 11.6488 36.8661 12.0449 36.3339 12.3755C36.0658 12.542 35.7886 12.6499 35.5043 12.7384C35.2685 12.8118 35.127 12.7463 34.9263 12.8905C35.0453 12.9113 35.1644 12.9321 35.2835 12.953C35.546 12.953 35.8085 12.953 36.071 12.953C36.3946 12.7531 36.7182 12.5532 37.0417 12.3534C37.2322 12.1535 37.4224 11.9537 37.6127 11.7538C37.7702 11.4344 37.9277 11.1149 38.0851 10.7955Z" fill="#38383A"/>
<path fill-rule="evenodd" clip-rule="evenodd" d="M16.6563 13.7809C16.127 15.2291 15.6647 16.4705 14.8629 17.7817C15.8903 16.6748 16.513 15.734 17.1014 14.4826C17.3299 13.9965 17.3731 13.426 18.0098 13.6382C18.0384 14.1236 18.141 14.6089 18.1696 15.0943C18.5136 12.6284 19.4836 11.5973 21.7384 10.6403C21.1008 10.7166 20.4631 10.7926 19.8255 10.8688C19.226 11.0021 18.6264 11.1352 18.0268 11.2684C17.7317 11.6967 17.4367 12.125 17.1417 12.5532C16.9799 12.9625 16.8181 13.3717 16.6563 13.7809Z" fill="#38383A"/>
<path fill-rule="evenodd" clip-rule="evenodd" d="M21.0247 13.7238C21.5109 16.0125 22.211 18.209 22.5152 20.534C22.7127 22.0447 22.7343 22.7706 21.9741 24.0739C21.1434 24.0202 20.6277 24.1139 19.8242 24.3772C16.6253 25.4258 14.7907 26.9676 12.6353 23.861C13.3234 24.1852 14.0115 24.5095 14.6995 24.8339C15.19 24.7374 15.6805 24.641 16.1711 24.5446C17.0371 24.0402 17.9031 23.5358 18.7692 23.0314C19.4449 22.8981 20.1206 22.765 20.7963 22.6318C21.0152 21.7181 21.234 20.8045 21.4529 19.8909C21.2911 18.6822 21.1293 17.4735 20.9676 16.2649C20.9486 15.6939 20.9296 15.1229 20.9105 14.5518C20.9486 14.2758 20.9867 13.9998 21.0247 13.7238Z" fill="#38383A"/>
<path fill-rule="evenodd" clip-rule="evenodd" d="M26.535 27.8851C26.2663 29.7445 27.1537 30.7441 26.7864 31.2576C26.6823 31.403 26.5413 31.6566 26.3839 31.7262C25.8216 31.9745 25.0486 31.6797 24.9933 31.8251C24.3747 31.8251 23.7561 31.8251 23.1374 31.8251C22.8901 31.7203 22.6426 31.6157 22.3951 31.511C22.7758 31.0637 23.1565 30.6164 23.5372 30.1692C23.9083 29.3602 24.2795 28.5512 24.6507 27.7423C24.8887 26.9239 25.1266 26.1055 25.3644 25.287C25.4882 25.287 25.6119 25.287 25.7356 25.287C26.0021 26.153 26.2686 27.0191 26.535 27.8851Z" fill="#38383A"/>
<path fill-rule="evenodd" clip-rule="evenodd" d="M23.4158 22.4796C23.5666 23.3239 23.8284 23.5245 24.2255 24.3417C23.9611 25.6749 23.5365 27.2605 23.0255 28.4369C22.81 28.933 22.636 29.2065 22.2561 29.5899C21.6146 30.2376 20.9661 30.8019 20.2386 31.3634C19.715 31.767 19.3494 31.5646 18.7033 31.4731C18.4286 31.9712 18.3526 32.2479 17.8469 32.5008C17.0691 32.8897 16.373 32.0516 15.7626 31.5587C16.2033 32.2471 16.644 32.9354 17.0846 33.6238C17.3893 33.9093 17.6938 34.1948 17.9983 34.4804C18.2552 34.5184 18.5122 34.5565 18.7692 34.5946C19.1118 34.3852 19.4544 34.1758 19.797 33.9664C19.9778 33.6238 20.1587 33.2812 20.3395 32.9386C20.7201 32.6531 21.1009 32.3676 21.4815 32.0821C21.9479 31.6824 22.4142 31.2827 22.8805 30.883C23.1756 30.4642 23.4706 30.0454 23.7656 29.6267C24.032 29.1318 24.2985 28.6369 24.565 28.142C24.9076 27.1143 25.2502 26.0864 25.5929 25.0586C25.6214 24.6683 25.65 24.2781 25.6785 23.888C25.2502 23.6976 24.822 23.5073 24.3937 23.3169C24.0796 23.0219 23.7299 22.7745 23.4158 22.4796Z" fill="#38383A"/>
<path fill-rule="evenodd" clip-rule="evenodd" d="M13.1732 28.4275C14.6142 28.4275 16.136 28.3476 17.4558 27.7423C17.8294 27.182 18.198 26.7244 18.655 26.2291C18.2391 27.0147 18.1087 27.4587 17.9983 28.3419C17.8555 28.5512 17.7128 28.7606 17.57 28.97C16.4851 28.9986 15.4002 29.0271 14.3152 29.0557C13.9631 29.0175 13.6109 28.9795 13.2588 28.9415C13.2208 28.9033 13.1827 28.8653 13.1447 28.8273C13.1542 28.694 13.1638 28.5607 13.1732 28.4275Z" fill="#38383A"/>
<path fill-rule="evenodd" clip-rule="evenodd" d="M12.9733 27.4283C12.9361 27.0905 12.8988 26.7526 12.8615 26.4146C12.6153 27.8965 12.6745 28.8895 11.9925 30.217C11.483 30.8073 10.8557 31.3444 10.1373 31.6319C10.198 31.9958 10.2161 32.2232 10.1809 32.4901C10.0543 33.4499 8.13424 33.0259 7.34448 32.9877C8.61171 33.3139 9.87894 33.6401 11.1461 33.9664C11.4316 33.8522 11.7171 33.738 12.0026 33.6238C12.0978 33.0719 12.193 32.5198 12.2881 31.9679C12.5546 31.473 12.8211 30.9781 13.0875 30.4833C13.1351 30.1787 13.1827 29.8741 13.2303 29.5696C13.1446 28.8558 13.059 28.142 12.9733 27.4283Z" fill="#38383A"/>
<path fill-rule="evenodd" clip-rule="evenodd" d="M10.832 19.0629C10.7921 19.7834 10.7456 20.0838 11.0633 20.7202C11.4673 21.5291 11.9634 22.289 12.4024 23.0885C12.4499 22.5555 12.4974 22.0226 12.5451 21.4897C11.9741 20.6807 11.403 19.8717 10.832 19.0629Z" fill="#38383A"/>
<path fill-rule="evenodd" clip-rule="evenodd" d="M4.97108 24.5059C4.84748 24.7689 4.72388 25.0321 4.60028 25.2951C4.94047 26.4409 5.24281 27.1667 5.89058 28.1677C5.77778 28.5733 5.69334 28.7507 5.43378 29.0813C4.86371 28.9936 4.35752 28.9683 3.77991 28.97C4.41765 29.4648 5.0553 29.9597 5.69288 30.4547C6.00687 30.3975 6.32097 30.3405 6.63504 30.2833C6.94906 29.9693 7.26313 29.6552 7.57723 29.3412C7.12983 28.6464 6.68259 27.9517 6.23535 27.2569C5.8139 26.3399 5.39245 25.4228 4.97108 24.5059Z" fill="#38383A"/>
<path fill-rule="evenodd" clip-rule="evenodd" d="M38.0893 10.4164C38.4776 12.1636 38.9785 13.7757 38.932 15.5652C38.875 17.7605 38.4471 20.5336 36.413 21.8575C34.1351 23.34 31.4611 22.6388 28.9618 22.0036C29.9802 22.4223 30.9985 22.841 32.0167 23.2598C32.9685 23.3074 33.9202 23.355 34.8719 23.4026C35.5191 23.2122 36.1662 23.0218 36.8133 22.8316C37.3177 22.4128 37.8222 21.9941 38.3265 21.5753C38.7072 20.7759 39.0878 19.9764 39.4686 19.1771C39.6113 18.2538 39.7541 17.3307 39.8968 16.4076C39.7826 15.5034 39.6684 14.5994 39.5542 13.6953C39.3448 12.8006 39.1354 11.906 38.9261 11.0115C38.6472 10.8131 38.3683 10.6148 38.0893 10.4164Z" fill="#38383A"/>
<path fill-rule="evenodd" clip-rule="evenodd" d="M4.09496 15.6238C3.06079 16.2968 2.65463 16.5923 2.76798 17.8398C2.871 18.2134 2.97408 18.587 3.07718 18.9606C3.22314 19.0594 3.36919 19.1582 3.51518 19.257C3.69557 19.3171 3.87595 19.3772 4.05634 19.4373C4.38269 19.36 4.70907 19.2827 5.0355 19.2054C5.20298 18.6858 5.37049 18.1661 5.53797 17.6465C5.07412 17.8741 4.61033 18.1017 4.14654 18.3293C4.03916 18.3293 3.93181 18.3293 3.82443 18.3293C3.70417 18.1447 3.58392 17.96 3.46366 17.7754C3.60971 17.5606 3.7557 17.3459 3.90174 17.1312C3.97903 16.7232 4.05634 16.3152 4.13363 15.9073C4.23237 15.9373 4.3312 15.9673 4.42994 15.9974C4.5502 16.0919 4.67046 16.1864 4.79071 16.2808C4.77353 16.0661 4.75637 15.8514 4.73914 15.6366C4.65755 15.4992 4.57599 15.3618 4.49435 15.2244C4.41276 15.1556 4.3312 15.087 4.24955 15.0182C4.19803 15.2201 4.14653 15.4219 4.09496 15.6238Z" fill="#38383A"/>
<path fill-rule="evenodd" clip-rule="evenodd" d="M27.2961 5.79412C28.2139 6.64634 29.3404 7.38716 30.0745 8.42872C30.3586 8.83198 30.6743 9.03815 30.0696 9.60759C30.7084 9.42512 30.9458 9.44494 31.4571 9.50693C32.3873 9.61949 33.2592 10.9418 33.3148 11.8894C33.3039 11.9781 33.0565 12.1792 32.3372 12.3777C32.3229 12.4054 31.9313 12.3241 31.941 12.3506C32.0158 12.5552 32.1157 12.5865 32.2681 12.6822C32.3013 12.9097 32.3225 13.2604 32.4774 13.5091C32.9301 13.5012 33.3723 13.5504 33.8155 13.6382C33.9647 13.8856 33.9421 14.1329 33.9297 14.3805C34.101 14.352 34.2723 14.3234 34.4436 14.2949C34.396 13.9046 34.3485 13.5145 34.3009 13.1243C34.4531 12.8673 34.6054 12.6103 34.7577 12.3534C34.5387 11.8586 34.3198 11.3637 34.101 10.8688C33.6822 10.4691 33.2635 10.0694 32.8447 9.66959C32.8045 9.66767 32.764 9.66556 32.7238 9.66361C32.2529 9.37453 31.782 9.08562 31.3111 8.79662C30.543 8.16823 29.775 7.53975 29.0069 6.91133C28.4366 6.53891 27.8664 6.16649 27.2961 5.79412Z" fill="#38383A"/>
<path fill-rule="evenodd" clip-rule="evenodd" d="M28.8422 12.8287C28.7938 12.9134 28.7207 13.0487 28.627 13.1424C29.0093 13.504 29.1979 13.7462 29.3341 14.2576C28.902 14.4722 28.4699 14.6867 28.0377 14.9013C27.6721 15.2518 27.3064 15.6024 26.9407 15.9529C26.4594 15.6939 26.3395 15.4949 26.1066 15.001C25.8354 15.0728 25.5784 15.1419 25.3544 15.0597C25.4965 15.0608 25.5839 15.0253 25.7258 14.9375C25.9585 14.6957 26.1912 14.454 26.4239 14.2122C26.8349 13.9009 27.2459 13.5897 27.6569 13.2784C27.9259 13.1907 28.1949 13.1031 28.4638 13.0155C28.5665 12.9732 28.7394 12.871 28.8422 12.8287Z" fill="#38383A"/>
<path fill-rule="evenodd" clip-rule="evenodd" d="M30.0351 14.1184C28.6602 14.8587 27.3433 15.6032 26.6403 17.0092C26.6403 15.2246 28.4322 14.439 30.0351 14.1184Z" fill="#38383A"/>
<path fill-rule="evenodd" clip-rule="evenodd" d="M26.3673 10.6079C25.3465 11.304 24.6245 12.7087 24.7153 14.0778C24.3827 12.8923 24.5005 11.7722 25.5216 10.9534C25.694 10.8696 25.8662 10.7859 26.0384 10.7021C26.1481 10.6707 26.2577 10.6393 26.3673 10.6079Z" fill="#38383A"/>
<path fill-rule="evenodd" clip-rule="evenodd" d="M28.3187 21.176C28.5297 21.0612 28.9128 20.9033 29.1238 20.7884C28.9067 20.8251 28.5176 20.9049 28.3005 20.9415C27.7208 21.0394 27.6526 21.1787 27.5626 21.7496C27.5202 22.0184 27.4618 22.3519 27.4193 22.6208C27.533 22.3168 27.6697 21.9634 27.8022 21.6735C27.9423 21.3669 28.0213 21.338 28.3187 21.176ZM17.5613 6.47457C18.017 5.79114 18.2793 5.56882 18.9804 5.13586C18.0284 5.36519 17.8469 5.54147 17.5613 6.47457ZM17.4114 7.9802C18.2087 6.37738 18.8124 5.78719 20.4816 4.99998C18.5936 5.46276 18.0386 5.79185 17.4114 7.9802ZM0.337542 16.323C0.512503 15.5204 0.675569 15.2176 1.17041 14.5588C0.367689 15.1196 0.263053 15.3499 0.337542 16.323ZM18.2088 29.7558C18.1847 29.561 18.1604 29.3661 18.1361 29.1713C18.0924 28.8185 18.0941 28.5317 18.1222 28.1766C18.1493 27.8328 18.1763 27.4891 18.2033 27.1452C18.1032 27.4946 17.9031 27.8441 17.803 28.1935C17.763 28.3334 17.7298 28.4465 17.7109 28.551C16.2169 28.8563 14.7338 28.8754 13.2394 28.6088C13.1441 28.0555 13.028 27.479 12.9307 27.0658C12.9012 27.5287 12.9202 28.8082 12.9178 29.5247C12.9159 30.0798 12.8925 30.2698 12.6063 30.742C12.3383 31.1841 12.2248 31.2844 11.8497 32.0313C11.8808 32.5025 11.8814 32.8142 11.7562 33.2615C11.5479 34.0051 9.44737 33.429 8.89316 33.2772C8.21075 33.0905 6.79989 32.8128 7.15469 31.903C7.46698 31.1024 7.66485 30.2583 7.81742 29.1379C6.56716 27.3368 5.40435 24.8685 5.18129 22.6816C5.00805 20.9834 5.11201 19.9382 5.47947 18.8996C6.06171 17.2539 6.87619 15.8293 8.18326 14.6821C9.94627 13.1352 11.5944 12.5138 14.1748 12.121C13.5543 12.8156 12.9404 13.5502 12.2712 14.3378C11.5938 15.1353 11.1912 15.9406 10.7611 16.8128C10.1669 18.0174 10.1796 18.4757 10.9674 19.5332C11.6462 20.4445 12.0127 20.8549 12.309 21.7465C12.0642 22.251 11.9753 22.6774 11.8929 23.3664C12.7241 24.2748 13.3417 24.8974 14.1487 25.0892C14.9403 25.2774 15.6014 25.2409 16.3095 24.8789C17.8824 24.0747 19.3377 23.0364 21.112 22.9935C21.9328 20.9754 21.8499 19.2893 21.4557 17.3368C21.1866 16.0034 21.0787 14.7409 20.995 13.3814C20.6622 14.7814 20.5998 16.0126 20.8466 17.4071C21.1443 19.0876 21.3757 20.9444 20.5477 22.4213C18.9434 22.5442 17.5684 23.5202 16.1224 24.2691C15.5412 24.5702 14.9361 24.5995 14.2927 24.4229C13.6955 24.2589 13.2925 23.8639 12.6492 23.1219C12.6392 22.377 12.8072 22.0331 13.1493 21.3586C13.6989 20.2752 14.3056 19.2667 14.9713 18.2006C14.1561 19.1847 13.3838 20.0067 12.7422 20.9959C12.4969 20.2972 12.1463 19.9424 11.5654 19.1557C10.998 18.3873 10.9386 18.0508 11.3628 17.1616C11.7894 16.2679 12.1512 15.4825 12.8772 14.6985C14.1318 13.3438 15.281 11.8359 16.6529 10.5017C17.3978 9.77732 17.7002 9.80234 18.6883 9.65257C19.5813 9.51724 20.4534 9.34631 21.3641 9.1347C20.4833 9.21681 19.6318 9.24704 18.7743 9.26831C18.7654 9.26855 18.7566 9.26886 18.7477 9.26886C19.5914 8.19136 20.0811 7.59098 21.4513 6.99561C24.825 5.53034 26.9686 5.37188 29.6187 7.59961C30.3056 8.17697 30.9055 8.73748 31.6019 9.23561C31.3494 9.25721 31.1318 9.30248 30.844 9.41553C31.1943 9.3488 31.5988 9.41499 31.9623 9.48142C32.0644 9.5476 32.1692 9.61214 32.2767 9.67554C32.7682 9.96516 33.0473 10.1251 33.3798 10.5884C33.7312 11.078 34.0241 11.5672 34.2823 12.1064C34.1131 12.046 33.9713 11.9949 33.8448 11.9573C33.7517 11.9146 33.6505 11.8864 33.5432 11.8761C33.3305 11.8557 33.127 11.9079 32.9575 12.0123C32.9507 12.0155 32.9439 12.0186 32.937 12.0219C32.6651 12.1543 32.2438 12.3052 31.9619 12.351C32.1056 12.4006 32.4237 12.4192 32.5737 12.3598C32.5938 12.3518 32.6142 12.3458 32.6352 12.3407C32.5675 12.4559 32.5233 12.5867 32.5098 12.7279C32.4917 12.9152 32.5298 13.095 32.6104 13.2511C32.6106 13.2516 32.6109 13.2522 32.6112 13.2527C32.6367 13.3126 32.672 13.3679 32.7109 13.4077C32.582 13.4551 32.4505 13.5094 32.315 13.5683C32.9436 13.4725 33.5105 13.456 34.1241 13.5369C34.1646 13.7303 34.2054 13.9353 34.2432 14.1438C34.1671 14.1498 34.0913 14.1556 34.0153 14.1615C34.0092 14.1621 34.0029 14.1626 33.9968 14.1632C33.7065 13.9311 33.383 13.9701 32.9411 14.071C31.5973 14.3775 31.9131 15.1316 31.2948 16.2677C31.9367 15.483 31.8892 14.662 32.9352 14.4143C33.179 14.3566 33.345 14.2844 33.5099 14.3092C33.213 14.4586 32.956 14.7062 32.8542 14.9937C32.5671 15.8045 32.7454 16.4877 32.4299 17.2449C32.8207 16.568 32.8442 15.9073 33.1936 15.195C33.3191 14.9391 33.7848 14.5296 34.0707 14.5233C34.1492 14.5216 34.2275 14.5199 34.306 14.5182C34.3749 14.969 34.4168 15.4164 34.3901 15.7875C34.3414 16.4648 34.1654 17.4701 34.0601 17.8547C34.414 17.3998 34.5752 16.4361 34.7306 15.7579C34.8925 15.0515 34.8517 14.2039 34.71 13.4452C34.5155 12.404 35.5877 12.5733 36.2103 12.0827C36.6678 11.7219 36.9828 11.146 37.4023 10.7379C37.8185 10.3333 38.4735 10.9279 38.6372 11.3235C39.347 13.0405 39.6703 15.7419 39.4829 17.4727C39.2725 19.415 38.3343 21.5353 36.6212 22.4915C34.4374 23.7103 31.8625 22.9657 29.6929 22.2347C29.2298 22.0787 28.9078 21.8514 28.5007 21.5949C28.6116 22.094 28.6619 22.6222 28.5145 23.1206C28.2804 23.9114 27.9024 25.2053 28.9761 25.4439C29.3847 25.5347 29.57 25.5216 30.147 25.2239C29.68 25.3295 29.4446 25.3036 29.1237 25.2443C28.8328 25.1907 28.6786 25.0059 28.5974 24.7881C28.699 24.8615 28.8647 24.9014 29.1479 24.9696C29.9438 25.1614 30.7023 24.7783 30.8507 24.2263C30.9372 23.9038 30.9224 23.7345 31.1057 23.2951C31.2703 23.3458 31.4407 23.3923 31.6153 23.4345C31.5168 23.7559 31.4182 24.0776 31.3196 24.399C31.0638 25.2335 30.0671 25.9064 29.187 25.891C28.3735 25.8765 27.8577 25.3669 27.2961 24.8673C26.9092 24.523 26.5368 24.1936 26.1677 23.8674C25.1552 23.548 24.3437 23.1746 23.404 22.4789C24.0727 23.2649 24.5264 23.6999 25.459 24.091C25.3233 25.4745 24.8425 26.4833 24.4325 27.8073C24.2471 28.4062 22.7823 30.8051 22.3764 31.039C22.0869 31.2058 20.274 32.7328 19.9329 32.9342C19.679 33.2716 19.456 33.7376 19.0742 33.9394C17.9106 34.5547 17.1629 33.3766 16.5366 32.3815C16.2514 31.9282 15.4598 30.6226 16.15 30.2569C16.8025 29.9112 17.168 29.6643 17.8338 29.2272C17.9316 29.4055 18.0995 29.5776 18.2088 29.7558ZM22.254 31.8653C21.665 32.3412 20.6743 33.1836 20.4821 33.2891C20.1341 33.8086 20.0911 34.1301 19.5336 34.4319C17.8738 35.33 16.9929 34.2884 16.0104 32.7743C15.5423 32.0528 14.5187 30.4056 15.6049 29.8472C16.0625 29.612 16.4094 29.4356 16.7554 29.2341C15.6159 29.3755 14.4975 29.3772 13.3346 29.2023C13.3552 29.3426 13.3732 29.4761 13.3877 29.5986C13.4633 30.2339 13.4881 30.4288 13.1429 30.9407C12.8913 31.3141 12.7943 31.4221 12.4904 32.1004C12.5457 32.6519 12.5217 32.9622 12.3661 33.5397C12.0203 34.8232 9.62356 34.1197 8.64697 33.8555C7.47189 33.5378 5.79277 33.2419 6.48176 31.7311C6.64321 31.3772 6.76999 31.0152 6.86539 30.6699C5.83791 31.1247 4.41003 30.16 3.72997 29.4782C3.08313 28.8297 2.73176 28.0766 2.60934 27.3458C2.50509 26.7238 2.60054 26.7269 3.04438 26.2872C3.45043 25.8852 3.85634 25.4828 4.26228 25.0811C4.4262 24.6349 4.59041 24.189 4.75425 23.7431C4.69039 23.41 4.64292 23.0777 4.61464 22.7486C4.49671 21.3766 4.53634 20.3995 4.73235 19.5013C4.01741 19.7803 3.19703 19.6496 2.83215 18.8909C2.69339 18.6024 2.61074 18.3086 2.50594 17.882C0.911096 16.3454 3.89978 14.3309 4.77165 14.1794C4.67197 14.4627 4.56276 14.7218 4.46665 14.9787C5.05793 15.2848 4.98544 16.1569 4.8599 16.7185C4.6472 16.45 4.52965 16.099 4.21681 16.084C4.17099 16.719 4.17891 17.4207 3.68297 17.7936C3.82978 18.186 3.82208 18.1863 4.23934 18.0259C4.83194 17.7978 5.27817 17.2895 5.72705 16.7935C6.21049 15.8518 6.8302 15.0141 7.68272 14.2583C9.77769 12.4009 11.7579 11.7932 14.9465 11.2851C15.3709 10.8422 15.8095 10.4148 16.2803 9.99928C16.9181 9.43645 17.3322 9.31958 17.9355 9.28812C18.9337 7.95293 19.7191 7.0231 21.3465 6.33805C24.7578 4.9022 27.1091 4.83297 29.8471 7.09054C30.752 7.83648 31.5236 8.6226 32.518 9.24532C33.0212 9.56043 33.3809 9.78694 33.7624 10.2413C34.2422 10.813 34.634 11.3848 34.9068 12.1207C35.2592 11.9757 35.661 11.839 35.9855 11.5617C36.4045 11.2037 36.671 10.6045 37.0591 10.2112C37.5741 9.68924 38.7491 10.3193 39.0092 10.8173C39.8941 12.5107 40.2561 15.6317 40.068 17.4876C39.8356 19.7819 38.8898 21.9507 36.8685 23.0295C35.4942 23.7627 33.6496 23.831 32.071 23.5326C31.9687 23.8693 31.8668 24.2059 31.7644 24.5425C31.4575 25.5512 30.2593 26.3757 29.2127 26.4251C28.2077 26.4725 27.663 25.9539 27.0039 25.319C26.6581 24.9859 26.3121 24.653 25.9663 24.3199C25.9462 24.5468 25.9165 24.7644 25.8791 24.975C26.1514 25.5126 26.2821 25.9851 26.5151 26.5392C26.7714 27.1495 26.8962 27.55 26.9138 28.2031C26.9293 28.7829 26.9448 29.3629 26.9604 29.9426C27.219 30.4021 27.2416 30.5139 27.2039 31.0396C27.1243 32.1478 26.514 32.2535 25.4968 32.2471C25.158 32.2449 23.8789 32.2529 23.5528 32.2293C22.9047 32.1825 22.4774 32.133 22.254 31.8653ZM25.6838 25.8204C25.4791 26.5511 25.2041 27.2408 24.9531 28.0314C24.7155 28.7799 23.4969 30.9532 22.7796 31.4799C22.9192 31.5838 23.1755 31.6245 23.632 31.6639C23.9549 31.6918 25.2281 31.6977 25.5478 31.7032C26.2516 31.7155 26.5187 31.6626 26.5899 30.8612C26.6247 30.4689 26.594 30.3955 26.3978 30.0516C26.3804 29.4382 26.363 28.8246 26.3457 28.2112C26.3293 27.6297 26.2177 27.2947 25.9891 26.7527C25.8522 26.4284 25.7779 26.1257 25.6838 25.8204ZM4.24573 15.782C4.40372 15.7641 4.50145 15.847 4.62366 15.9691C4.60105 15.6773 4.54714 15.461 4.34228 15.3417C4.32792 15.3891 4.31441 15.4365 4.30166 15.4847C4.27686 15.5786 4.25916 15.6784 4.24573 15.782ZM5.23848 17.8903C5.12475 18.1845 5.01924 18.4878 4.91989 18.8012C4.90342 18.853 4.88763 18.9052 4.87226 18.9571C4.27127 19.212 3.48104 19.3739 3.17854 18.7423C3.03164 18.4358 2.94874 18.135 2.84161 17.7475C1.85189 16.7222 3.33135 15.3686 4.1372 14.883C4.02059 15.1337 3.93776 15.3235 3.88123 15.5189C3.63619 16.3657 3.99214 17.1214 3.22359 17.7353C3.58478 18.4641 3.56814 18.7548 4.40846 18.418C4.73265 18.2881 4.99997 18.1058 5.23848 17.8903ZM5.0069 24.7903C5.46245 26.3658 6.23823 27.9138 7.09829 29.2152C7.0982 29.2228 7.09812 29.2302 7.09807 29.2379C7.04421 29.4617 6.98184 29.6797 6.85117 29.8547C6.23645 30.6771 4.67269 29.4699 4.22007 29.0078C3.72529 28.5026 3.39411 27.9043 3.31526 27.3432C3.25793 26.9339 3.31357 26.924 3.59914 26.6344C3.984 26.2448 4.36925 25.8549 4.75395 25.4654C4.83816 25.2403 4.92268 25.0154 5.0069 24.7903ZM34.1162 12.1449C34.2039 12.2316 34.2747 12.3348 34.3235 12.449C34.3501 12.4246 34.3785 12.4016 34.4083 12.3797C34.3722 12.2985 34.3355 12.2185 34.2981 12.1396C34.2358 12.141 34.1753 12.1427 34.1162 12.1449ZM26.5862 14.9788C26.5061 14.8107 26.4677 14.6333 26.4663 14.4582C26.1713 14.6939 25.8505 14.9173 25.5176 15.0464C25.9772 14.636 26.6015 13.668 27.0538 13.3625C27.5672 13.0156 28.2639 13.0831 28.8624 12.8062C28.6581 12.9919 28.3962 13.1415 28.1295 13.2839C28.4233 13.3914 28.6771 13.609 28.8219 13.9126C28.883 14.0406 28.9195 14.1743 28.9342 14.3081C29.3363 14.176 29.7312 14.1135 30.0647 14.1183C28.8717 14.4532 27.6027 15.2364 26.7277 16.2736C26.826 16.0031 26.9633 15.759 27.1288 15.541C26.8995 15.4212 26.7059 15.2295 26.5862 14.9788ZM21.0539 10.6629C20.3951 10.92 19.7942 11.1129 19.152 11.2743C18.566 12.0444 18.209 12.4434 18.0741 13.4757C17.9155 12.4602 17.8825 12.2717 18.3345 11.5137C18.2035 11.5803 18.0817 11.6718 17.9071 11.821C17.2757 12.3609 16.4526 14.4827 16.1235 15.2413C16.3324 14.3283 16.9858 12.046 17.6588 11.3808C18.1014 10.9432 18.2018 10.9533 18.8258 10.8942C19.5691 10.8238 20.311 10.7469 21.0539 10.6629ZM34.8047 12.8769C35.3391 12.9274 35.6446 13.0099 36.1232 12.7732C37.0152 12.3318 37.6715 11.6112 38.097 10.7493C37.8367 11.7776 37.3128 12.6513 36.226 13.0389C35.6923 13.2291 35.3482 13.0327 34.8047 12.8769ZM24.548 12.9773C24.7493 12.0856 25.1069 11.2265 26.4917 10.5618C24.6562 11.0214 24.3121 11.7923 24.548 12.9773ZM0.747345 17.7795C0.90482 15.9963 1.25162 15.2265 2.5186 13.8845C0.92943 15.0043 0.532865 15.5131 0.747345 17.7795Z" fill="black"/>
<path fill-rule="evenodd" clip-rule="evenodd" d="M26.8257 15.2659C26.703 15.0094 26.8127 14.7003 27.0698 14.5779C27.327 14.4554 27.6368 14.5649 27.7594 14.8215C27.7711 14.8458 27.7803 14.8709 27.7879 14.8959C27.5423 15.0781 27.3171 15.2929 27.1284 15.5417C27.0011 15.4906 26.8887 15.3976 26.8257 15.2659Z" fill="white"/>
<path fill-rule="evenodd" clip-rule="evenodd" d="M32.5721 13.0429C32.5926 12.8303 32.7739 12.6736 32.9863 12.6942C33.1988 12.7147 33.3557 12.9047 33.3352 13.1172C33.3309 13.1624 33.3186 13.2049 33.3003 13.2439C33.1057 13.277 32.9113 13.3341 32.7109 13.4078C32.627 13.322 32.5603 13.1654 32.5721 13.0429Z" fill="#38383A"/>
</svg>
