<svg width="41" height="40" viewBox="0 0 41 40" fill="none" xmlns="http://www.w3.org/2000/svg">
<path d="M21.0889 0.00886179C20.146 0.0885629 19.4393 0.219393 18.7746 0.434436C18.3686 0.566769 17.4828 0.902116 17.161 1.04498C16.9008 1.15926 15.7655 1.78334 15.0467 2.2029C13.7925 2.93675 13.1444 3.63451 12.8421 4.5819C12.782 4.76687 12.7564 4.81198 12.6962 4.84506C12.3985 5.00747 12.1158 5.26011 11.9248 5.53531C11.6316 5.96389 11.421 6.62706 11.3549 7.33685C11.3398 7.50227 11.3203 7.69475 11.3143 7.76694L11.3022 7.89626L11.009 8.15341C10.2029 8.86471 9.33977 9.83465 8.70216 10.7505C7.38033 12.6467 6.49309 14.9115 6.17729 17.1822C6.0645 18.0003 6.03894 18.3852 6.03894 19.3221C6.03894 20.259 6.0645 20.6424 6.17729 21.462C6.38181 22.9432 6.85851 24.4966 7.52619 25.8831C8.30967 27.5072 9.46308 29.0682 10.7548 30.2577L11.1233 30.596L11.1533 31.0667C11.1714 31.3239 11.1955 31.8442 11.206 32.2231C11.233 33.0984 11.2691 33.2487 11.4857 33.4337C11.6105 33.5405 11.8105 33.6382 12.2195 33.7916C12.385 33.8548 12.9083 34.0939 13.3835 34.3239C14.5895 34.9119 14.9805 35.0698 15.5805 35.2142C16.0016 35.3164 16.0978 35.3285 16.6467 35.3465L17.1715 35.3616L17.3415 35.9495C17.6497 37.0007 17.9069 37.8533 18.0497 38.2895C18.2272 38.8278 18.4603 39.4579 18.4979 39.4925C18.5355 39.5331 18.9054 39.6429 19.2934 39.7301C20.6919 40.0459 22.8724 40.088 24.9567 39.8384C25.662 39.7526 26.1477 39.488 26.3206 39.0955C26.3657 38.9947 26.3687 38.9601 26.3462 38.8098C26.3342 38.7165 26.3131 38.497 26.3056 38.324L26.2875 38.0082L26.5101 37.9661C27.2379 37.8263 27.6019 37.6353 27.7613 37.3105C27.8139 37.2007 27.8289 37.1285 27.8395 36.918C27.8575 36.5947 27.8274 36.3871 27.6695 35.6864C27.456 34.7631 27.4139 34.4127 27.4695 34.0803L27.5011 33.8999L27.659 33.8472C27.9973 33.7345 28.1477 33.5675 28.1477 33.2999V33.1705L28.3056 33.0984C28.6816 32.9284 29.0936 32.8502 29.6996 32.8307L30.1373 32.8186L30.2079 32.942C30.2485 33.0066 30.3207 33.1119 30.3733 33.172C30.4666 33.2803 30.4711 33.2818 30.7282 33.3269C31.5147 33.4623 32.3223 33.4638 32.9373 33.3344C33.4155 33.2337 33.5749 33.154 33.8185 32.8938C34.2712 32.4051 34.584 31.4667 34.5825 30.584C34.5825 30.193 34.5599 30.0562 34.402 29.5073C34.1825 28.7449 33.8967 27.9689 33.6832 27.5554C33.5509 27.2982 33.3448 27.0726 33.1223 26.9403C33.0426 26.8952 32.9779 26.8471 32.9779 26.835C32.9779 26.8245 33.0351 26.7147 33.1057 26.5899C33.3057 26.235 33.7058 25.3914 33.8772 24.9733C34.4622 23.5147 34.7975 22.068 34.9328 20.4108C34.9704 19.9462 34.9704 18.704 34.9328 18.2333C34.8005 16.5897 34.4652 15.1355 33.8772 13.6723C33.6817 13.1866 33.1945 12.1941 32.9283 11.74C32.3223 10.7114 31.5839 9.74292 30.7508 8.88726L30.3613 8.48725L30.3162 7.99251C30.1643 6.25562 29.7553 4.83755 29.1402 3.89617C28.6921 3.21044 27.7673 2.21944 26.9357 1.53672C25.9477 0.723164 24.7507 0.266011 23.0694 0.0554796C22.7717 0.0178848 21.3701 -0.0151988 21.0919 0.00735811L21.0889 0.00886179ZM22.9792 0.953245C23.9371 1.10814 24.886 1.40589 25.7386 1.82394C26.3387 2.11869 26.6424 2.34125 27.1327 2.84803C27.4755 3.20292 28.3537 4.29618 28.4034 4.43152C28.4214 4.47363 28.4109 4.47664 28.3026 4.4616C27.8455 4.40145 27.6199 4.41949 27.3567 4.54431C27.0334 4.69468 26.8515 4.95033 26.8379 5.26763C26.8349 5.32477 26.8409 5.38041 26.8484 5.38793C26.856 5.39545 26.9041 5.3729 26.9567 5.33831C27.1537 5.20297 27.3071 5.16237 27.6319 5.16237C27.9041 5.16237 27.9552 5.16988 28.1703 5.24507C28.5132 5.36087 28.7688 5.52027 29.0335 5.78494C29.5162 6.26465 29.6816 6.83609 29.7718 8.35041C29.8169 9.08125 29.832 10.5444 29.7989 11.0031C29.656 13.0227 29.1207 14.8949 28.2831 16.3175C28.0981 16.6333 27.453 17.5987 27.2966 17.7942C27.0891 18.0514 26.8184 18.295 26.5176 18.4905C25.6138 19.0785 24.6634 19.4619 23.7747 19.6018C23.4123 19.6574 22.7356 19.6574 22.4138 19.6018C22.0709 19.5416 21.5611 19.3612 21.0994 19.1371C19.8964 18.5491 19.0874 17.7702 17.7896 15.9461L17.6302 15.7205L17.6452 15.8453C17.7219 16.4062 18.0482 16.9807 18.7084 17.7341C19.4708 18.6003 20.0302 19.1101 20.513 19.3807C20.6032 19.4304 20.6934 19.489 20.713 19.5086C20.7461 19.5386 20.7325 19.5416 20.6257 19.5266C20.5551 19.5191 20.3611 19.5041 20.1881 19.4965C19.6799 19.471 19.343 19.5762 19.1746 19.8093L19.0994 19.9146L18.8362 19.8995C17.3776 19.8168 16.4948 19.5462 15.9685 19.0183C15.3956 18.4454 14.5745 16.5431 14.394 15.3671C14.3339 14.9867 14.3489 14.9491 14.6346 14.6393C14.9504 14.2994 15.0046 14.1746 14.9294 13.9566C14.9023 13.8784 14.8963 13.8769 14.7895 13.8919C14.6437 13.9114 14.5624 13.955 14.2948 14.1596C14.1715 14.2528 14.0376 14.343 13.994 14.3566C13.7609 14.4468 13.379 14.4318 13.1083 14.322C12.4346 14.0498 11.827 13.1686 11.6451 12.2046C11.5925 11.9324 11.5925 11.4437 11.6451 11.2317C11.7654 10.7429 12.0857 10.3038 12.4962 10.0632C12.794 9.88729 13.2045 9.80759 13.5579 9.84969C14.1233 9.92187 14.4361 10.3008 14.6662 11.1956L14.7489 11.5159L15.0196 11.5114C15.4677 11.5069 15.8301 11.3866 15.9685 11.1986C16.0181 11.1339 16.0181 11.1264 15.976 10.8482C15.9505 10.6933 15.8843 10.373 15.8241 10.1399C15.5384 9.01057 15.5414 8.83162 15.8723 7.24963C16.0256 6.51879 16.0647 6.21803 16.0677 5.83607C16.0708 5.47816 16.0256 5.19545 15.9249 4.8977C15.8903 4.79694 15.8617 4.68566 15.8617 4.64957C15.8617 4.56686 16.0286 4.26159 16.2377 3.96685C16.4452 3.6691 17.1039 3.00592 17.4888 2.71118C17.8543 2.42847 18.528 1.98334 18.9656 1.73522C20.2724 0.993847 20.734 0.861513 21.9551 0.882566C22.4724 0.890085 22.6484 0.902116 22.9807 0.954748L22.9792 0.953245ZM17.9746 1.64649C18.1069 1.75176 18.0046 1.93673 17.7715 2.01192C17.6813 2.03898 17.6016 2.09162 17.5039 2.18485C17.4257 2.25703 17.2482 2.40441 17.1054 2.50967C16.7129 2.80442 16.582 2.95329 16.2873 3.44353C15.967 3.97437 15.8121 4.17888 15.6662 4.27212C15.5189 4.36686 15.3835 4.3849 15.0978 4.35032C14.797 4.30971 14.6421 4.33528 14.1023 4.51273C13.6316 4.66461 13.4572 4.7007 13.4572 4.64506C13.4572 4.62551 13.5128 4.51423 13.582 4.40295C14.0647 3.5894 14.9715 2.82848 16.1715 2.22545C16.6046 2.0074 16.8648 1.89763 17.3475 1.7292C17.7685 1.58183 17.8708 1.5698 17.9731 1.64649H17.9746ZM15.4121 4.9398C15.5098 5.19695 15.5429 5.39696 15.555 5.80599C15.567 6.28119 15.5444 6.55187 15.4226 7.33685C15.2873 8.21807 15.2752 8.33988 15.2752 8.78801C15.2752 9.26171 15.2933 9.379 15.4377 9.87225C15.5504 10.2572 15.585 10.555 15.5354 10.6783C15.5008 10.7625 15.4196 10.8151 15.2828 10.8407L15.1925 10.8587L15.1745 10.6888C15.1294 10.2407 14.9038 9.83766 14.5384 9.54743C14.1775 9.26171 13.7805 9.12185 13.3203 9.12185C13 9.12185 12.7744 9.17148 12.4601 9.31735C12.3474 9.36697 12.2526 9.40457 12.2451 9.39705C12.212 9.36397 12.1744 8.68876 12.1729 8.12634C12.1729 7.61355 12.1804 7.43761 12.218 7.24061C12.3413 6.57292 12.5564 6.18946 13.0406 5.78193C13.5489 5.35635 14.1113 5.08417 14.7519 4.95033C15.0692 4.88567 15.0978 4.87965 15.2557 4.87514C15.376 4.87213 15.388 4.87815 15.4136 4.9398H15.4121ZM11.3985 9.04215C11.424 9.06471 11.4391 9.12937 11.4406 9.21509C11.4406 9.29028 11.4511 9.35194 11.4631 9.35194C11.4737 9.35194 11.4812 9.40758 11.4812 9.47675C11.4812 9.54442 11.4706 9.60157 11.4586 9.60157C11.4481 9.60157 11.4436 9.62863 11.4481 9.65871C11.4556 9.6933 11.4436 9.73691 11.421 9.75946C11.3985 9.77901 11.3804 9.80909 11.3804 9.82413C11.3804 9.83916 11.3699 9.8512 11.3549 9.8512C11.3428 9.8512 11.3293 9.86623 11.3293 9.88578C11.3293 9.90533 11.3112 9.92639 11.2917 9.93541C11.2721 9.94293 11.2541 9.96548 11.2541 9.98503C11.2541 10.0046 11.2391 10.0332 11.2195 10.0422C11.1864 10.0617 11.0045 10.585 11.0045 10.6632C11.0045 10.6828 10.997 10.7008 10.9864 10.7008C10.9744 10.7008 10.9669 10.7384 10.9639 10.7805C10.9639 10.8257 10.9488 10.9986 10.9308 11.164C10.8526 11.8949 11.0556 12.9054 11.4331 13.6663C11.8661 14.5355 12.609 15.1446 13.4421 15.316L13.5925 15.3491L13.6 15.4468C13.6376 15.9792 13.8632 16.6423 14.1685 17.1205C14.4812 17.6108 14.579 17.901 14.5068 18.1221C14.4542 18.2845 14.3113 18.3897 13.6181 18.7852C12.1519 19.6229 11.1263 20.2409 10.6406 20.5838C10.5037 20.6815 10.1879 20.8665 9.94279 20.9913C9.30217 21.3221 9.10518 21.5221 9.06157 21.8876C9.03149 22.1447 9.15931 22.6575 9.44203 23.4259C9.53226 23.6741 9.67211 24.0636 9.75181 24.2921C9.83151 24.5222 10.0044 24.9824 10.1353 25.3177C10.4751 26.1929 10.5639 26.4892 10.7263 27.2742C10.836 27.7975 11.0285 29.0802 11.0285 29.2727C11.0285 29.4156 10.3172 28.6441 9.72023 27.8531C8.442 26.1613 7.56379 24.1989 7.15325 22.1176C7.04799 21.5853 6.96829 21.0394 6.98483 20.9687C6.99535 20.9312 6.98934 20.9086 6.9728 20.9086C6.95325 20.9086 6.94723 20.871 6.95776 20.7838C6.96829 20.7011 6.96227 20.659 6.94573 20.659C6.92919 20.659 6.92317 20.6063 6.9352 20.4966C6.94723 20.3823 6.94272 20.3341 6.92317 20.3341C6.90362 20.3341 6.90062 20.2695 6.91265 20.0965C6.92468 19.9311 6.92317 19.8589 6.90212 19.8589C6.88107 19.8589 6.87505 19.6935 6.87505 19.3206C6.87505 18.9476 6.88257 18.7822 6.90212 18.7822C6.92167 18.7822 6.92468 18.71 6.91265 18.5446C6.90062 18.3717 6.90212 18.307 6.92317 18.307C6.94423 18.307 6.94874 18.2589 6.9352 18.1446C6.92317 18.0348 6.92768 17.9822 6.94573 17.9822C6.96377 17.9822 6.96829 17.9401 6.95776 17.8574C6.94723 17.7792 6.95325 17.7326 6.96829 17.7326C6.98633 17.7326 6.99084 17.6875 6.98032 17.6198C6.97581 17.5566 6.98032 17.507 6.99235 17.507C7.00438 17.507 7.01039 17.4664 7.00438 17.4198C6.99987 17.3717 7.00438 17.3326 7.01641 17.3326C7.02844 17.3326 7.03445 17.292 7.02844 17.2454C7.02393 17.1972 7.02844 17.1581 7.04047 17.1581C7.0525 17.1581 7.06002 17.1235 7.0525 17.0829C7.04799 17.0408 7.0525 17.0078 7.06302 17.0078C7.07506 17.0078 7.08859 16.9431 7.09009 16.8649C7.0931 16.7852 7.10513 16.7175 7.11716 16.713C7.12919 16.71 7.13521 16.6784 7.12769 16.6453C7.12318 16.6108 7.12769 16.5822 7.13821 16.5822C7.15024 16.5822 7.16378 16.5295 7.16378 16.4649C7.16679 16.4002 7.17882 16.3416 7.19385 16.3371C7.20889 16.3325 7.21641 16.3145 7.20889 16.2965C7.17431 16.2092 7.63747 14.5851 7.70214 14.5596C7.71417 14.5551 7.72469 14.5265 7.72469 14.4994C7.72469 14.4272 7.82695 14.1536 7.85252 14.1536C7.86455 14.1536 7.87507 14.1265 7.87507 14.0904C7.87507 14.0543 7.8871 14.0272 7.90064 14.0272C7.91568 14.0272 7.9262 14.0002 7.9262 13.9641C7.9262 13.928 7.93823 13.9009 7.95177 13.9009C7.96681 13.9009 7.97733 13.8738 7.97733 13.8408C7.97733 13.8062 7.99538 13.7626 8.01493 13.74C8.03448 13.7205 8.05252 13.6904 8.05252 13.6723C8.05252 13.6197 8.11267 13.4753 8.13222 13.4753C8.14275 13.4753 8.15177 13.4573 8.15177 13.4377C8.15177 13.3896 8.2826 13.1174 8.31418 13.0949C8.32922 13.0844 8.36681 13.0167 8.3999 12.9445C8.55028 12.5986 8.58787 12.5264 8.62096 12.5144C8.639 12.5069 8.65404 12.4768 8.65404 12.4498C8.65404 12.4227 8.6766 12.3791 8.70366 12.3565C8.73073 12.331 8.75329 12.2934 8.75329 12.2693C8.75329 12.2467 8.77284 12.2061 8.80141 12.1821C8.82698 12.1565 8.85404 12.1069 8.86457 12.0678C8.87209 12.0302 8.89164 12.0001 8.90517 12.0001C8.92021 12.0001 8.93074 11.9821 8.93074 11.9625C8.93074 11.943 8.94126 11.9249 8.95329 11.9249C8.96532 11.9249 8.98337 11.8979 8.99089 11.8618C9.00142 11.8272 9.01796 11.7986 9.03149 11.7986C9.04653 11.7986 9.05706 11.7806 9.05706 11.761C9.05706 11.7415 9.06758 11.7234 9.07961 11.7234C9.09164 11.7234 9.10969 11.6964 9.11721 11.6603C9.12773 11.6257 9.14428 11.5971 9.15781 11.5971C9.17285 11.5971 9.18338 11.5791 9.18338 11.5595C9.18338 11.54 9.1954 11.5219 9.20894 11.5219C9.22398 11.5219 9.2345 11.5039 9.2345 11.4843C9.2345 11.4648 9.24653 11.4467 9.26007 11.4467C9.27511 11.4467 9.28563 11.4287 9.28563 11.4091C9.28563 11.3896 9.29766 11.3715 9.3112 11.3715C9.32624 11.3715 9.33676 11.3535 9.33676 11.3339C9.33676 11.3114 9.35481 11.2888 9.37436 11.2813C9.39391 11.2708 9.41195 11.2512 9.41195 11.2317C9.41195 11.2121 9.42398 11.1971 9.43752 11.1971C9.45255 11.1971 9.46308 11.1821 9.46308 11.1625C9.46308 11.143 9.48113 11.1219 9.50068 11.1129C9.52022 11.1054 9.53827 11.0828 9.53827 11.0602C9.53827 11.0407 9.5503 11.0227 9.56383 11.0227C9.57887 11.0227 9.5894 11.0076 9.5894 10.9881C9.5894 10.9685 9.60745 10.9475 9.627 10.9384C9.64654 10.9309 9.66459 10.9084 9.66459 10.8888C9.66459 10.8708 9.68263 10.8482 9.70218 10.8392C9.72173 10.8317 9.73978 10.8091 9.73978 10.7896C9.73978 10.7715 9.75782 10.749 9.77737 10.7399C9.79692 10.7324 9.81497 10.7099 9.81497 10.6903C9.81497 10.6678 9.83753 10.6407 9.86459 10.6256C9.89166 10.6106 9.91422 10.585 9.91422 10.5685C9.91422 10.552 9.93678 10.5234 9.96385 10.5053C9.99091 10.4873 10.0135 10.4602 10.0135 10.4422C10.0135 10.4241 10.036 10.3971 10.0631 10.379C10.0902 10.361 10.1127 10.3339 10.1127 10.3159C10.1127 10.2978 10.1473 10.2587 10.1879 10.2286C10.23 10.1956 10.2631 10.1595 10.2631 10.1414C10.2631 10.1234 10.3037 10.0783 10.3503 10.0407C10.3984 10.0031 10.4375 9.95797 10.4375 9.94293C10.4375 9.92789 10.5052 9.8527 10.5879 9.78052C10.6706 9.70533 10.7383 9.63315 10.7383 9.61961C10.7383 9.58502 11.221 9.09629 11.2541 9.09629C11.2721 9.09629 11.2887 9.07373 11.2962 9.04667C11.3112 8.98651 11.3534 8.982 11.406 9.03614L11.3985 9.04215ZM30.7358 10.1204C32.5944 12.2919 33.7118 14.8949 34.0411 17.8348C34.0937 18.3251 34.1163 19.7672 34.0787 20.3266C33.9539 22.1282 33.5027 23.8395 32.7328 25.4666C32.5854 25.7749 32.2471 26.405 32.1177 26.608L32.0531 26.7102L31.811 26.7433C31.1854 26.8215 30.2801 27.1268 29.4741 27.5313C29.232 27.6531 29.1989 27.6621 29.1989 27.6065C29.1989 27.5869 29.2816 27.3418 29.3838 27.0636C29.7673 26.0125 30.1418 24.8816 30.5523 23.5402C30.6771 23.1342 30.8801 22.4816 31.0034 22.0891C31.2756 21.2214 31.3343 20.9627 31.3207 20.6379C31.3057 20.1522 31.1553 19.9853 29.4515 18.5206C28.9793 18.1145 28.6034 17.7416 28.5357 17.6078C28.438 17.4198 28.5282 17.1401 28.8756 16.5521C29.1387 16.11 29.2786 15.8017 29.4455 15.2934C29.8215 14.1671 30.0906 12.934 30.2335 11.6918C30.2891 11.2332 30.3478 10.4302 30.3478 10.1775C30.3478 9.91436 30.3703 9.77751 30.4094 9.77751C30.4245 9.77751 30.5733 9.9324 30.7358 10.1204ZM28.0831 18.4619C28.1658 18.5326 28.5207 18.8694 28.8711 19.2123C29.2214 19.5552 29.635 19.9311 29.7839 20.0484C30.1869 20.3642 30.3824 20.5612 30.4741 20.7522C30.5538 20.9116 30.5538 20.9146 30.5388 21.1943C30.5207 21.4845 30.4335 21.9282 30.2335 22.7583C29.9763 23.8124 29.5583 25.0576 28.9402 26.605C28.5372 27.611 28.447 27.7479 28.1372 27.8381C27.8816 27.9103 27.8274 27.9178 27.1567 27.9433C26.5387 27.9689 26.3311 27.999 26.1432 28.0937C26.0259 28.1539 25.9928 28.1569 25.9928 28.1043C25.9928 28.0516 26.1702 27.7494 27.1191 26.1929C27.859 24.9794 28.4034 24.0681 28.5026 23.8726C28.5402 23.8049 28.5372 23.7929 28.4951 23.7252C28.4695 23.6846 28.3778 23.5703 28.2876 23.4696C28.1252 23.2861 28.044 23.1568 28.044 23.0771C28.044 23.0545 28.0846 22.9192 28.1297 22.7823C28.4831 21.7432 28.3026 20.0469 27.7793 19.4634C27.665 19.3356 27.4635 19.2108 27.3733 19.2108C27.3056 19.2108 27.1176 19.08 27.1176 19.0334C27.1176 19.0078 27.2274 18.9055 27.3748 18.7913C27.5146 18.683 27.68 18.5356 27.7432 18.4664C27.8064 18.3988 27.874 18.3416 27.8936 18.3386C27.9131 18.3386 27.9989 18.3942 28.0816 18.4634L28.0831 18.4619ZM15.0512 19.2153C15.1128 19.2755 15.3143 19.4905 15.4918 19.698C15.6692 19.9041 15.8798 20.1462 15.9565 20.2334C16.2121 20.5266 16.7866 20.871 18.0633 21.4966L18.8513 21.8846L18.8844 22.0876C18.9626 22.5898 19.4197 24.1793 19.6002 24.5568C19.8378 25.0621 20.1235 25.2094 20.5581 25.0515C20.6528 25.017 20.7461 24.9884 20.7611 24.9884C20.8483 24.9884 20.7415 25.229 20.5265 25.5132C20.2438 25.8892 20.1836 26.1283 20.319 26.3343C20.3912 26.4441 20.6167 26.602 20.9265 26.7599C21.6874 27.1508 22.6077 27.59 23.0604 27.7779C23.3506 27.8982 23.5912 28.0125 23.5912 28.0276C23.5912 28.0501 23.4815 28.0621 23.1987 28.0757C21.0994 28.1629 19.8603 28.2606 17.9009 28.4937C17.3475 28.5584 17.0121 28.5885 16.9896 28.5734C16.9324 28.5388 16.8648 28.3328 16.8347 28.1103C16.7926 27.7644 16.8046 26.6696 16.8602 25.9628C16.8873 25.6125 16.9099 25.2275 16.9099 25.1102C16.9099 24.4801 16.6076 24.4846 16.4918 25.1177C16.4512 25.3508 16.4572 25.5328 16.5339 26.3734C16.5896 26.9418 16.5986 27.6291 16.5595 27.8892C16.5444 27.9794 16.5114 28.1268 16.4813 28.22C16.4362 28.3779 16.4256 28.39 16.364 28.39C16.2617 28.387 16.1038 28.3073 15.8317 28.1148C15.5083 27.8877 15.3835 27.8245 15.3565 27.8697C15.2963 27.9629 15.3534 28.1193 15.5174 28.3103C15.6753 28.4907 15.6993 28.6486 15.5865 28.7734C15.5294 28.8441 15.4813 28.8607 15.2783 28.9043C14.9504 28.9749 14.8076 29.0787 14.8076 29.2547C14.8076 29.3148 14.8121 29.3178 14.9655 29.3178C15.0512 29.3178 15.3354 29.3058 15.6016 29.2877C16.0813 29.2607 16.3189 29.2727 16.5625 29.3434L16.6527 29.3689L16.6708 29.5765C16.7264 30.2291 16.9309 31.9284 17.1384 33.4021C17.2181 33.9901 17.2858 34.4833 17.2858 34.4954C17.2858 34.5555 16.6572 34.4954 16.1354 34.3856C15.2948 34.2082 14.6091 33.9269 13.1955 33.1841C12.7429 32.9465 12.2827 32.7089 12.1774 32.6562L11.9819 32.5615V32.3344C11.9819 31.8141 11.8812 30.4246 11.7789 29.4938C11.4917 26.8756 10.9007 24.4861 10.0766 22.6079C9.98189 22.3928 9.90369 22.2004 9.90369 22.1823C9.90369 22.1628 10.1368 21.9718 10.421 21.7597C12.0782 20.5161 13.1955 19.8183 14.3955 19.28C14.6031 19.1867 14.8091 19.1131 14.8542 19.1101C14.9173 19.1101 14.964 19.1356 15.0527 19.2153H15.0512ZM27.3131 19.9973C27.5688 20.1281 27.7492 20.7131 27.8259 21.653C27.8665 22.1658 27.7928 22.6665 27.6515 22.859L27.6064 22.9162L27.1958 22.8891C26.5327 22.847 25.692 22.7222 25.2965 22.6064L25.1868 22.5763L25.1898 22.1883C25.1928 21.9763 25.1943 21.7928 25.1943 21.7823C25.1943 21.7567 25.3672 21.6725 25.4574 21.6515C25.5552 21.6319 25.8379 21.6033 25.9281 21.6064C25.9657 21.6094 25.9958 21.5988 25.9958 21.5883C25.9958 21.5627 25.7236 21.483 25.5823 21.471C25.5266 21.4635 25.468 21.453 25.4499 21.4485C25.4349 21.4439 25.3672 21.4485 25.3025 21.459C25.1477 21.4891 25.1101 21.4635 25.0695 21.3191C25.0514 21.2545 25.0138 21.1567 24.9898 21.1011C24.9492 21.0214 24.9477 21.0003 24.9747 20.9838C24.9928 20.9718 25.0168 20.9612 25.0304 20.9612C25.0409 20.9612 25.2484 20.8319 25.4935 20.668C26.2274 20.1853 26.5417 20.0123 26.7778 19.9732C26.8229 19.9627 26.8605 19.9552 26.8635 19.9537C26.8891 19.9281 27.2545 19.9642 27.3161 19.9958L27.3131 19.9973ZM25.4183 19.9988C25.4183 20.0183 25.3958 20.0469 25.3702 20.062C25.3432 20.074 25.1146 20.2499 24.8649 20.4499L24.4063 20.8124L24.2664 20.8169C23.7311 20.8349 23.3236 20.7687 23.0078 20.6169C22.7656 20.4966 22.5145 20.3236 22.5145 20.274C22.5145 20.2244 22.6273 20.2018 22.71 20.2334C22.8348 20.283 23.1251 20.3356 23.301 20.3356C23.5431 20.3356 23.9371 20.2725 24.4288 20.1552C24.8394 20.0574 25.2815 19.9672 25.3747 19.9627C25.3973 19.9597 25.4168 19.9777 25.4168 19.9973L25.4183 19.9988ZM17.1685 20.1221C17.3505 20.1823 17.6708 20.2304 18.1926 20.274C18.9039 20.3311 18.8889 20.3296 18.8889 20.4169C18.8889 20.4575 18.8663 20.5778 18.8407 20.6815C18.8137 20.7898 18.7836 20.9342 18.7731 21.0048C18.758 21.1281 18.7505 21.1372 18.6904 21.1372C18.5761 21.1372 18.1294 21.0169 17.8497 20.9146C17.1715 20.659 16.7655 20.3447 16.8242 20.1161C16.8542 19.9988 16.8813 19.9838 16.97 20.0364C17.0151 20.062 17.1054 20.0996 17.17 20.1221H17.1685ZM20.2318 20.2093C20.2588 20.2214 20.2874 20.2289 20.2949 20.2244C20.3295 20.1898 21.313 20.5146 21.6543 20.674C22.1792 20.9221 22.3175 20.9943 22.5957 21.1778C22.7536 21.283 23.0213 21.3853 23.1687 21.4003C23.2033 21.4033 23.2439 21.4079 23.2589 21.4079C23.2739 21.4109 23.286 21.4575 23.289 21.5101C23.2935 21.6033 23.286 21.6124 23.1792 21.6725C23.0724 21.7327 22.8363 21.8154 22.7987 21.8079C22.7807 21.8049 22.7085 21.8229 22.4228 21.9026C22.2904 21.9402 22.2604 22.0034 22.3882 21.9778C22.5341 21.9477 23.2634 22.1537 23.3386 22.2455C23.3536 22.2635 23.3581 22.3733 23.3506 22.5252L23.3356 22.7778L23.2333 22.85C23.1777 22.8921 22.9401 23.0831 22.7055 23.2786C22.4724 23.4711 22.1897 23.6966 22.0799 23.7733C21.6152 24.1087 20.6242 24.4891 20.2137 24.4891C20.0934 24.4891 20.0663 24.4786 20.0062 24.4169C19.9656 24.3748 19.931 24.3162 19.9265 24.2846C19.919 24.232 19.7656 23.7944 19.7144 23.6771C19.6062 23.4335 19.4272 22.8891 19.4017 22.7312C19.3941 22.6861 19.3836 22.6229 19.3761 22.5883C19.319 22.3011 19.2904 21.5567 19.3265 21.1627C19.334 21.0605 19.3415 20.9582 19.3445 20.9372C19.3596 20.7522 19.5024 20.4063 19.6047 20.3116C19.7099 20.2138 19.8348 20.1717 20.0182 20.1762C20.1115 20.1793 20.2077 20.1943 20.2363 20.2093H20.2318ZM24.3627 21.2876C24.4995 21.3477 24.5296 21.3808 24.6048 21.5432C24.698 21.7417 24.692 22.0079 24.5943 22.1913C24.4935 22.3868 24.3491 22.462 24.086 22.4635C23.7807 22.4635 23.7882 22.468 23.7085 22.1026C23.6679 21.9297 23.6454 21.7748 23.6529 21.7628C23.6604 21.7477 23.6559 21.7372 23.6424 21.7372C23.6243 21.7372 23.6153 21.674 23.6153 21.5793C23.6153 21.4334 23.6198 21.4214 23.686 21.3883C24.0018 21.2304 24.1732 21.2063 24.3612 21.286L24.3627 21.2876ZM24.9086 22.862C24.9657 22.8891 25.104 22.9718 25.2138 23.05C25.462 23.2229 25.6514 23.3132 25.8168 23.3327L25.9447 23.3477V23.4981C25.9447 23.5823 25.9341 23.7763 25.9191 23.9267C25.9071 24.0801 25.8845 24.4801 25.8695 24.817C25.8319 25.6696 25.7898 26.0877 25.6665 26.8441C25.6138 27.1794 25.5341 27.4576 25.492 27.4651C25.4439 27.4727 25.1537 26.8817 24.7311 25.9057C24.1988 24.6771 23.901 24.1117 23.5281 23.6094C23.4378 23.4861 23.3687 23.3718 23.3732 23.3538C23.3777 23.3342 23.4378 23.2515 23.5055 23.1658L23.6303 23.0124L23.7431 23.0304C23.9281 23.0575 24.0033 23.0455 24.274 22.9282C24.5687 22.8004 24.7341 22.7838 24.9101 22.8635L24.9086 22.862ZM27.2334 23.3026C27.4214 23.3523 27.6409 23.4696 27.7883 23.6004C27.9387 23.7327 28.0966 23.9327 28.0966 23.9914C28.0966 24.041 27.3507 25.3373 26.9086 26.0576C26.486 26.7463 25.9071 27.5734 25.8304 27.6035C25.7808 27.623 25.7853 27.5885 25.871 27.2606C26.0514 26.5568 26.1958 25.5207 26.2845 24.3147C26.3041 24.032 26.3221 23.7087 26.3221 23.5944C26.3221 23.3914 26.3251 23.3868 26.3928 23.3613C26.6575 23.259 26.9838 23.2365 27.2364 23.3011L27.2334 23.3026ZM23.0709 23.9327C23.6108 24.6967 23.9446 25.3388 24.6319 26.9734C24.7747 27.3163 24.892 27.611 24.892 27.6321C24.892 27.6922 24.8198 27.6772 24.3867 27.5298C23.6108 27.2621 22.8905 26.9569 22.0363 26.5313C21.4378 26.2335 20.8633 25.9207 20.8633 25.8967C20.8633 25.8862 20.8859 25.8034 20.916 25.7162C21.0513 25.2982 21.3416 24.8936 21.7491 24.5493C21.9897 24.3463 22.8529 23.7432 22.9055 23.7417C22.9205 23.7417 22.9957 23.8275 23.0709 23.9327ZM32.5102 27.5163C32.7674 27.6411 33.0275 27.8997 33.1509 28.1539C33.3087 28.4787 33.4757 29.0441 33.7193 30.0456C33.82 30.4607 33.8321 30.5479 33.8441 30.8968C33.8546 31.2352 33.8486 31.3118 33.8035 31.5043C33.6727 32.0547 33.3584 32.4773 32.9328 32.6773C32.5147 32.8743 31.4606 32.9555 30.9207 32.8322C30.7824 32.8021 30.7478 32.7841 30.7478 32.7465C30.7478 32.6668 31.0681 32.566 31.6681 32.4562C32.1508 32.369 32.3719 32.3179 32.3869 32.2938C32.399 32.2743 32.3523 32.2592 32.0862 32.1931C31.9283 32.1525 31.1298 32.1525 30.6726 32.1901C30.4876 32.2081 30.1523 32.2277 29.9297 32.2352L29.5267 32.2532L29.5117 32.1179C29.5042 32.0427 29.462 31.6322 29.4184 31.2066C29.3102 30.1058 29.1989 29.39 29.056 28.8922L29.0154 28.7554L29.1237 28.6622C29.3312 28.4847 29.8094 28.2712 30.6681 27.9809C31.1538 27.8155 31.4666 27.6877 31.6621 27.5734C31.8922 27.4381 31.9674 27.4155 32.1629 27.423C32.2982 27.4306 32.3779 27.4501 32.5102 27.5133V27.5163ZM28.3462 28.808C28.441 28.8652 28.6771 29.5043 28.7838 29.984C28.9056 30.5344 29.0094 31.5735 28.9914 32.0938L28.9838 32.351L28.659 32.4607C28.4816 32.5209 28.2635 32.578 28.1793 32.5856L28.0259 32.6036L28.0109 32.4953C28.0034 32.4352 27.9778 32.2096 27.9582 31.9976C27.9357 31.7855 27.85 31.1765 27.7673 30.6457C27.6169 29.6727 27.5191 28.9659 27.5191 28.8561C27.5191 28.799 27.5297 28.796 27.7146 28.7855C27.9718 28.7704 28.3071 28.7825 28.3447 28.805L28.3462 28.808ZM23.304 28.8201C23.877 28.8546 24.9086 28.9734 24.9612 29.008C24.9732 29.0155 25.0409 29.5765 25.0665 29.8712C25.101 30.2817 25.1146 30.5118 25.1567 31.56C25.1943 32.4051 25.2048 32.5465 25.2815 33.3615C25.3296 33.8623 25.3642 34.5179 25.3943 35.5014C25.4394 36.9781 25.495 37.703 25.6093 38.3887C25.6424 38.5932 25.6665 38.7646 25.665 38.7662C25.6394 38.7812 25.2364 38.8834 24.9943 38.9391C24.2755 39.097 23.5732 39.1647 22.704 39.1647C21.6949 39.1616 20.928 39.0865 20.0137 38.9045C19.6002 38.8218 18.925 38.6519 18.9009 38.6248C18.8964 38.6203 18.8212 38.3797 18.731 38.0894C18.0873 36.0142 17.6377 33.9736 17.2888 31.5615C17.149 30.6036 17.0061 29.3674 17.0287 29.3464C17.0557 29.3208 18.352 29.1118 18.9385 29.0336C19.746 28.9313 20.6558 28.8516 21.4528 28.814C21.8483 28.7945 22.9476 28.7975 23.304 28.8201ZM26.6996 28.9825C26.8349 29.4847 26.9251 30.2141 27.0454 31.7855C27.0876 32.3209 27.1312 32.8517 27.1432 32.9615C27.1582 33.0923 27.1582 33.166 27.1402 33.1765C27.1146 33.1916 26.4199 33.3194 25.9522 33.3946C25.7642 33.4247 25.6695 33.4292 25.6695 33.4141C25.6695 33.3991 25.6514 33.166 25.6319 32.8983C25.5492 31.8006 25.5176 31.0818 25.5011 30.0757C25.4935 29.4953 25.4935 29.0201 25.5011 29.0201C25.5086 29.0201 25.5868 29.002 25.671 28.9795C25.859 28.9313 26.2018 28.8998 26.4785 28.9043C26.6785 28.9073 26.68 28.9073 26.6996 28.9825ZM26.6349 33.9901C26.68 34.0021 26.6921 34.0307 26.7056 34.157C26.7161 34.2412 26.7853 34.6052 26.8605 34.9631C27.0485 35.8593 27.0981 36.1796 27.1131 36.6142L27.1282 36.9902L26.8424 37.0834C26.6845 37.133 26.5026 37.1857 26.4319 37.2007C26.2951 37.2278 25.8695 37.2654 25.8695 37.2503C25.8695 37.2458 25.8469 36.8744 25.8168 36.4278C25.7898 35.9796 25.7597 35.2789 25.7522 34.8683L25.7371 34.1254H25.8168C25.862 34.1254 26.0078 34.0984 26.1402 34.0653C26.2725 34.0307 26.4184 33.9976 26.4575 33.9931C26.4996 33.9886 26.5447 33.9811 26.5567 33.9811C26.5718 33.9781 26.6063 33.9841 26.6349 33.9916V33.9901ZM20.3641 4.76536C20.1536 4.79995 19.8588 4.93228 19.5761 5.12026C19.3385 5.27515 18.9535 5.66614 18.7926 5.91125C18.5776 6.23908 18.4377 6.67669 18.4753 6.90225C18.4934 7.00301 18.6077 7.15038 18.6678 7.15038C18.6859 7.15038 18.746 7.05715 18.8001 6.94286C19.0137 6.50676 19.3385 6.0872 19.6363 5.86614C19.8092 5.73832 20.0799 5.61651 20.3069 5.56087C20.4498 5.52628 20.5581 5.52027 20.8453 5.53079C21.0408 5.53831 21.2288 5.55034 21.2603 5.56087C21.3085 5.57591 21.3205 5.56538 21.3536 5.48869C21.4137 5.34884 21.4017 5.24357 21.3115 5.10823C21.1355 4.84807 20.7385 4.7022 20.3656 4.76536H20.3641ZM28.447 7.46768C28.447 7.80754 28.5297 8.14289 28.7523 8.69929C28.8199 8.86922 28.8726 9.03163 28.8665 9.0617C28.8545 9.1414 28.6289 9.19705 28.1883 9.22712C27.8004 9.25419 27.7628 9.2602 27.5778 9.30682C27.48 9.33239 27.4695 9.34141 27.4695 9.40908C27.4695 9.64969 27.6425 9.86924 27.8846 9.94142C28.2771 10.0542 28.9508 9.84819 29.3057 9.51134C29.5237 9.30081 29.5207 9.31585 29.3432 9.0211C29.1989 8.7835 28.9086 8.20304 28.6049 7.54438C28.5372 7.394 28.4741 7.27369 28.465 7.27369C28.453 7.27369 28.4455 7.36091 28.4455 7.46618L28.447 7.46768ZM22.0529 7.42257C21.9927 7.77596 22.2153 8.45868 22.6153 9.14441C22.7055 9.2963 22.7656 9.42713 22.7611 9.46021C22.7431 9.58954 22.3581 9.69781 22.0303 9.66472C21.9325 9.6542 21.6995 9.61961 21.5145 9.58653C21.0634 9.50683 21.0032 9.50683 20.9671 9.59405C20.8964 9.76398 20.8919 9.82864 20.9325 9.92939C21.0423 10.2091 21.4874 10.3775 22.1205 10.3775C22.6438 10.3775 22.8469 10.3099 23.1416 10.0377C23.2649 9.92187 23.2995 9.87225 23.3311 9.75796C23.3762 9.60307 23.3657 9.44818 23.301 9.32186C23.2784 9.27675 23.1326 9.11133 22.9807 8.95193C22.6649 8.62109 22.5972 8.51131 22.3506 7.93085C22.2574 7.7128 22.1581 7.48723 22.128 7.42558L22.0709 7.3158L22.0529 7.42257ZM25.289 7.87822C25.2514 7.89777 25.2439 7.93837 25.2439 8.08574C25.2439 8.77147 25.6424 9.67224 26.3402 10.5775C26.5206 10.8076 27.1267 11.5354 27.3733 11.8167C27.6229 12.1024 27.7086 12.3445 27.6455 12.6092C27.6049 12.7791 27.5056 12.9776 27.45 12.9971C27.4274 13.0047 27.1718 13.1219 26.8815 13.2573C26.2108 13.5671 25.9853 13.6603 25.7056 13.74C25.3732 13.8332 25.1221 13.8648 24.8529 13.8483C24.4168 13.8227 24.3281 13.7385 24.1943 13.2197C24.1521 13.0573 24.1161 12.9174 24.1161 12.9144C24.1161 12.9099 24.107 12.9039 24.0905 12.9039C24.0484 12.9039 23.9431 13.1445 23.9145 13.3144C23.8619 13.6092 23.9672 13.9806 24.1717 14.2182L24.2589 14.319L24.6364 14.3265C25.6574 14.3521 26.6003 14.0468 27.7522 13.3235L28.1252 13.0889L28.1673 12.9159C28.1898 12.8212 28.238 12.6633 28.2725 12.5686C28.3071 12.4708 28.3507 12.3279 28.3658 12.2513C28.4154 12.0106 28.3959 11.973 27.9733 11.558C26.8845 10.4918 25.698 8.84365 25.5567 8.19552C25.5296 8.07371 25.492 7.97596 25.4484 7.92784C25.3838 7.84814 25.3537 7.84062 25.286 7.87972L25.289 7.87822ZM12.9399 10.6001C12.6992 10.6828 12.5188 10.8783 12.4241 11.1625C12.3639 11.3384 12.3684 11.3475 12.4767 11.2497C12.6271 11.1039 12.6812 11.0768 12.8241 11.0768C12.8947 11.0768 12.9624 11.0873 12.9699 11.1024C12.9774 11.1144 12.9549 11.2196 12.9173 11.3324C12.8617 11.5054 12.8481 11.5971 12.8376 11.8798C12.8256 12.2723 12.8647 12.5249 12.9805 12.7655C13.1278 13.0738 13.1248 13.0783 13.1384 12.4257C13.1504 11.9159 13.1579 11.8197 13.206 11.6723C13.2932 11.4001 13.4632 11.2843 13.6707 11.352C13.7955 11.3941 13.8933 11.5204 14.0632 11.8678C14.1489 12.0407 14.2527 12.2212 14.2978 12.2738L14.3775 12.367L14.3955 12.1941C14.4737 11.4753 14.0647 10.7956 13.4376 10.6031C13.2406 10.5429 13.1098 10.5399 12.9399 10.6001ZM28.3086 14.0708C27.3552 14.5761 27.0229 14.7069 26.4845 14.7942C26.3627 14.8137 26.2514 14.8438 26.2394 14.8618C26.2169 14.8994 26.2123 15.5025 26.2349 15.6378C26.2499 15.731 26.2544 15.7325 26.3552 15.7325C26.5251 15.7325 26.9011 15.6423 27.1312 15.5506C27.7086 15.316 28.2771 14.7475 28.6846 13.9987C28.7342 13.9054 28.7718 13.8317 28.7673 13.8317C28.7643 13.8317 28.5568 13.94 28.3086 14.0723V14.0708ZM22.1055 14.5596C22.2784 14.8799 22.7356 15.2303 23.2544 15.4303C23.877 15.6754 24.8559 15.8273 25.6183 15.8032L25.8559 15.7957L25.8514 15.4573C25.8484 15.2724 25.8364 15.0694 25.8259 15.0062L25.8033 14.8934L24.9431 14.8784C23.5266 14.8528 22.7987 14.7415 22.0799 14.4423C22.0393 14.4242 22.0423 14.4408 22.1055 14.5596ZM21.5731 15.31C21.4453 15.3476 21.4288 15.4107 21.513 15.522C21.5536 15.5776 21.6438 15.6754 21.716 15.7446C21.7867 15.8122 21.9461 16.0122 22.0709 16.1867C22.1957 16.3611 22.3656 16.5867 22.4514 16.6874C22.8935 17.2047 23.3822 17.3837 24.3552 17.3837C25.1537 17.3837 25.886 17.2363 26.1372 17.0228C26.2154 16.9581 26.3943 16.707 26.3943 16.6649C26.3943 16.6529 25.9868 16.6468 25.486 16.6529C23.9897 16.6709 23.3672 16.5852 22.7536 16.2844C22.3386 16.0799 22.0483 15.8017 21.8829 15.4513C21.8107 15.2964 21.7957 15.2814 21.728 15.2844C21.6874 15.2844 21.6152 15.2964 21.5731 15.31ZM24.7777 23.7372C24.6273 23.8275 24.6078 24.047 24.7356 24.1748C24.9206 24.3598 25.2183 24.2245 25.2183 23.9553C25.2183 23.8801 25.2003 23.8425 25.1326 23.7748C25.0319 23.6741 24.9025 23.6605 24.7777 23.7372ZM25.1567 25.0621C25.0213 25.1072 24.9446 25.2125 24.9446 25.3493C24.9446 25.4275 24.9627 25.4636 25.0304 25.5328C25.1025 25.6049 25.1326 25.6185 25.2304 25.6185C25.3206 25.6185 25.3612 25.6034 25.4259 25.5463C25.498 25.4816 25.5086 25.4591 25.5086 25.3463C25.5086 25.238 25.4995 25.2079 25.4334 25.1463C25.3552 25.0711 25.2439 25.0365 25.1582 25.0636L25.1567 25.0621ZM31.3749 28.6201C30.7598 28.7298 30.2591 28.981 29.9733 29.3208L29.8681 29.4456H29.9854C30.2485 29.4456 30.5237 29.3313 31.1237 28.9704C31.4862 28.7524 31.7012 28.6396 31.8501 28.5945C31.9749 28.5539 31.6425 28.5719 31.3749 28.6201ZM30.8561 29.6697C30.6816 29.7028 30.4756 29.784 30.3854 29.8577C30.3222 29.9103 30.3147 29.9253 30.3478 29.9479C30.4034 29.9855 31.2305 29.9554 31.811 29.8953C32.0741 29.8682 32.3087 29.8456 32.3358 29.8426C32.4185 29.8381 32.1253 29.7524 31.8726 29.7103C31.5869 29.6607 31.035 29.6381 30.8561 29.6697ZM30.6305 30.7088C30.4906 30.7464 30.3102 30.8306 30.2876 30.8667C30.2651 30.9028 30.641 30.9224 31.6606 30.9374C32.5132 30.9464 32.6035 30.9449 32.5313 30.9118C32.414 30.8562 31.9734 30.7524 31.6847 30.7088C31.3689 30.6607 30.8049 30.6607 30.6305 30.7088Z" fill="#444444"/>
</svg>
