<svg width="41" height="40" viewBox="0 0 41 40" fill="none" xmlns="http://www.w3.org/2000/svg">
<path d="M34.9431 17.1156V17.4226H6.29718V17.3626C6.29718 17.3826 6.29681 17.4026 6.29681 17.4226C6.29681 25.3341 12.7101 31.7475 20.6216 31.7475C28.5331 31.7475 34.9464 25.3341 34.9464 17.4226C34.9464 17.32 34.9453 17.2178 34.9431 17.1156Z" fill="#FFF700"/>
<path d="M6.05384 17.7115H34.6998V18.0185C34.702 17.9163 34.7031 17.8141 34.7031 17.7115C34.7031 9.79999 28.2898 3.38666 20.3783 3.38666C12.4668 3.38666 6.05347 9.79999 6.05347 17.7115C6.05347 17.7315 6.05384 17.7511 6.05384 17.7711V17.7115Z" fill="#0071BC"/>
<path opacity="0.2196" d="M6.29307 17.4356C5.9827 9.53002 12.3397 3.70668 20.2286 3.11076C22.3516 2.95039 10.2479 4.12113 8.52862 16.8356C8.01159 20.6585 9.90825 27.4867 9.90825 27.4867C9.90825 27.4867 6.64233 26.3359 6.29307 17.4356Z" fill="#757778"/>
<path d="M20.3783 32.0363C28.2897 32.0363 34.7031 25.6228 34.7031 17.7115C34.7031 9.8001 28.2897 3.38666 20.3783 3.38666C12.4669 3.38666 6.05347 9.8001 6.05347 17.7115C6.05347 25.6228 12.4669 32.0363 20.3783 32.0363Z" stroke="black" stroke-width="0.740741" stroke-miterlimit="10" stroke-linecap="round" stroke-linejoin="round"/>
<path d="M23.8909 14.9726C23.8909 14.9726 21.2379 15.2007 20.8164 16.1237Z" fill="#F7E4CD"/>
<path d="M25.6712 19.4337L23.6205 19.7426L20.8409 20.0515L19.0372 20.1008L17.2953 20.0515L15.9487 19.6315L14.7627 18.3467L13.8361 15.7278L13.6383 15.1596L12.4027 14.7396L11.6738 13.5659L11.1672 11.8611L11.7353 10.3663L13.082 9.89668L14.169 10.4033L14.6757 11.5274L15.2935 11.4163L15.4912 11.1571L15.2935 9.97113L15.2442 8.47631L15.5531 6.42557L15.5409 5.25187L16.4798 3.75705L18.1353 2.57113L21.0261 1.33557L24.2257 1.8052L27.0053 3.80668L28.2901 5.85742L29.1053 7.35224L29.3031 11.0585L28.6853 14.2582L27.5612 17.0871L26.4742 18.5815" fill="#F0D6B7"/>
<path d="M23.9172 28.3286L16.5542 28.6375V29.873L17.172 34.1967L16.8631 34.5549L11.7238 32.813L11.3657 32.1952L10.859 26.3763L9.67308 22.8926L9.41382 22.0775L13.5401 19.236L14.8249 18.7293L15.949 20.113L16.9249 20.99L18.049 21.3482L18.5557 21.4963L19.1734 24.1649L19.6431 24.733L20.829 24.313L20.026 25.9189L24.4983 28.0315L23.9172 28.3286Z" fill="#335061"/>
<path d="M11.7112 10.366L13.0579 9.89632L14.1449 10.403L14.6516 11.5271L15.2694 11.416L15.4175 10.7982L15.1086 9.61225L15.4175 6.78336L15.1583 5.23928L16.0849 4.15225L18.0864 2.55854L17.5183 1.7804L14.6894 3.1641L13.5034 4.09077L12.8364 5.52373L11.7986 6.90743L11.4897 8.56299L11.7112 10.366Z" fill="#6D6B6D"/>
<path d="M13.836 5.5356C13.836 5.5356 14.602 3.63301 17.6905 2.70672C20.779 1.78042 17.8386 2.03968 17.8386 2.03968L14.4908 3.32449L13.206 4.60931L12.6379 5.64709L13.836 5.5356Z" fill="#DCD9D8"/>
<path d="M12.292 10.02C12.292 10.02 11.205 6.42483 15.3313 5.89372L15.1831 5.27594L12.3542 5.94298L11.5142 8.63631L11.712 10.3782L12.292 10.02Z" fill="#DCD9D8"/>
<path d="M13.9227 14.8012L14.6024 14.1589C14.6024 14.1589 14.9112 14.1837 14.9605 14.5541C15.0098 14.9123 15.1583 18.1493 17.382 19.9156C17.5798 20.0637 15.7264 19.6563 15.7264 19.6563L14.0709 17.0741" fill="#F7E4CD"/>
<path d="M23.4105 13.8126C23.4105 13.8126 23.5342 12.256 23.9542 12.3797C24.3742 12.5034 24.3742 12.9234 24.3742 12.9234C24.3742 12.9234 23.3486 13.5782 23.4105 13.8126Z" fill="#F7E4CD"/>
<path d="M14.4538 11.5026C14.4538 11.5026 12.4894 10.3167 12.292 11.4534C12.0942 12.5774 11.625 13.4178 12.6009 14.5911L11.9338 14.3934L11.3161 12.7996L11.1183 11.2556L12.3042 10.02L13.6509 10.1311L14.4168 10.7489L14.4538 11.5026Z" fill="#F7E4CD"/>
<path d="M15.3805 8.25333C15.3805 8.25333 16.2575 3.73185 20.6805 2.84222C24.3249 2.11333 26.2397 2.99037 26.9686 3.81814C26.9686 3.81814 23.732 -0.048522 20.6434 1.14963C17.5549 2.34777 15.282 4.4974 15.3434 5.8937C15.4053 8.25333 15.3805 8.25333 15.3805 8.25333Z" fill="#F7E4CD"/>
<path d="M22.8668 7.43336C23.7205 6.3004 22.4553 4.71929 20.3782 5.07484C19.0375 5.30484 18.4323 6.12595 18.5527 6.39818C18.6505 6.66003 18.4312 7.02151 18.6901 6.84114C18.949 6.6604 19.2938 5.78596 19.9075 5.78077C20.5045 5.78188 21.482 5.90188 21.6075 6.48892" fill="#F7E4CD"/>
<path d="M25.8079 7.66484C24.9542 6.53187 26.1057 4.95447 28.3268 5.45076C29.2571 5.65854 27.0108 5.97076 26.8849 6.5578" fill="#F7E4CD"/>
<path d="M15.9364 20.1011L11.1061 22.263C11.1061 22.263 13.1075 30.2437 12.082 32.7145L11.3531 32.4552L11.3038 29.4159L9.96976 23.6589L9.40161 22.0652L14.4542 18.6678L15.9364 20.1011Z" fill="#49728B"/>
<path d="M16.4431 24.5115L17.1223 25.3515V28.4401H16.3072C16.3072 28.4401 16.196 26.2782 16.196 26.0186C16.196 25.7593 16.3072 24.8326 16.3072 24.8326" fill="#49728B"/>
<path d="M16.4553 28.897L14.1327 29.0081L14.7997 29.4778L16.4553 29.737" fill="#49728B"/>
<path d="M24.3742 28.3904L26.2768 28.3411L26.7464 33.0852L24.7946 33.3322L24.3742 28.3904Z" fill="#335061"/>
<path d="M24.9053 28.3904L27.7961 28.2422C27.7961 28.2422 28.982 25.2648 28.982 25.1045C28.982 24.9437 30.0198 20.7808 30.0198 20.7808L27.6972 18.3593L27.2276 17.9393L25.992 19.1748V23.9682L24.9053 28.3904Z" fill="#335061"/>
<path d="M26.1901 28.02L24.3864 28.3782L24.6457 29.8111C25.3127 30.12 26.4494 29.3045 26.4494 29.3045" fill="#49728B"/>
<path d="M26.2272 19.0137L29.8224 21.6823L29.9335 20.4467L27.2031 17.9263L26.2272 19.0137Z" fill="#49728B"/>
<path d="M18.2464 38.5208L17.1838 34.1967L16.6649 30.9971L16.566 28.6374L21.3842 28.3782H24.3738L24.102 33.7893L24.5716 37.9648L24.5223 38.7308L20.6186 39.0397L18.2464 38.5208Z" fill="white"/>
<path d="M23.7194 28.3286C23.7194 28.3286 23.4601 33.69 24.226 37.483C24.226 37.483 22.682 38.4589 20.4086 38.7186L24.7327 38.5704L25.2394 38.2615L24.6212 29.8112L24.4731 28.0074" fill="#DCD9D8"/>
<path d="M26.8327 32.6526L28.8342 32.0845L32.6516 31.8867L33.2198 30.1449L32.182 27.1056L30.9961 26.9575L29.3405 27.4641L27.759 28.2301L26.919 28.0819L26.2768 28.3412" fill="white"/>
<path d="M26.8079 31.6396C26.8079 31.6396 28.1546 31.0219 28.352 31.0715L27.7838 28.2426L28.4509 27.9833C28.4509 27.9833 28.9205 30.6519 28.9205 30.9607C28.9205 30.9607 31.8113 31.1215 32.0583 31.1215C32.0583 31.1215 32.6761 29.9356 32.5279 28.7L33.0961 30.3556L33.1453 31.2822L32.3301 32.5178L31.4035 32.7156L29.8594 32.6663L29.3527 31.9993L27.549 32.2585L26.9809 32.4563" fill="#DCD9D8"/>
<path d="M24.782 27.9704L23.6579 25.0796L22.472 23.3748C22.472 23.3748 22.7312 22.6459 23.0898 22.6459C23.4479 22.6459 24.2757 22.6459 24.2757 22.6459L25.3998 23.0659L25.2887 24.9685L24.782 27.9704Z" fill="white"/>
<path d="M24.992 27.0067C24.992 27.0067 23.559 24.2271 23.559 23.8071C23.559 23.8071 23.8183 23.1893 24.1768 23.3375C24.5353 23.4856 25.3009 23.9056 25.3009 23.9056V22.9419L23.559 22.5712L22.3731 22.7193L24.3746 27.4634L24.7946 27.5127" fill="#DCD9D8"/>
<path d="M18.7161 20.2123L17.2953 20.0641L15.9487 19.6441V20.1137L16.5909 20.8426L18.6416 21.7693" fill="white"/>
<path d="M16.4057 20.3604C16.4057 20.3604 17.9994 21.0274 18.5182 20.8671L18.5675 21.4849L17.1345 21.176L16.2575 20.5582L16.4057 20.3604Z" fill="#DCD9D8"/>
<path d="M26.8327 22.8434C25.9557 22.8186 25.165 22.7197 24.4853 22.5223C24.5346 22.2504 24.4361 21.9663 24.5101 21.7563C24.6953 21.6204 25.0168 21.6204 25.3131 21.5834C25.0661 21.4597 24.7079 21.4104 24.4235 21.4723C24.4235 21.2745 24.3246 21.1512 24.2753 20.9904C24.7694 20.8175 25.9309 19.6564 26.5731 20.0515C26.882 20.2367 27.0179 21.2745 27.0427 21.7686C27.0672 22.2012 27.0057 22.6334 26.8327 22.8434Z" fill="#D33833"/>
<path d="M26.8327 22.8434C25.9557 22.8186 25.165 22.7197 24.4853 22.5223C24.5346 22.2504 24.4361 21.9663 24.5101 21.7563C24.6953 21.6204 25.0168 21.6204 25.3131 21.5834C25.0661 21.4597 24.7079 21.4104 24.4235 21.4723C24.4235 21.2745 24.3246 21.1512 24.2753 20.9904C24.7694 20.8175 25.9309 19.6564 26.5731 20.0515C26.882 20.2367 27.0179 21.2745 27.0427 21.7686C27.0672 22.2012 27.0057 22.6334 26.8327 22.8434Z" stroke="#D33833" stroke-width="0.0740741"/>
<path d="M22.6446 21.4104C22.6446 21.4723 22.6446 21.5463 22.6323 21.6082C22.3605 21.7934 21.9157 21.7812 21.6194 21.9293C22.0642 21.9415 22.4101 22.053 22.719 22.2012C22.719 22.3741 22.7068 22.5471 22.7068 22.6952C22.2127 23.0412 21.7431 23.5478 21.1627 23.8689C20.8909 24.0171 19.9149 24.4126 19.6186 24.3508C19.4457 24.3015 19.4335 24.1038 19.3716 23.906C19.2357 23.486 18.8898 22.8189 18.8775 22.1889C18.8527 21.386 18.7538 20.0641 19.6186 20.2123C20.3105 20.3482 21.1135 20.6571 21.6572 20.9534C21.9653 21.1634 22.1505 21.386 22.6446 21.4104Z" fill="#D33833"/>
<path d="M22.6446 21.4104C22.6446 21.4723 22.6446 21.5463 22.6323 21.6082C22.3605 21.7934 21.9157 21.7812 21.6194 21.9293C22.0642 21.9415 22.4101 22.053 22.719 22.2012C22.719 22.3741 22.7068 22.5471 22.7068 22.6952C22.2127 23.0412 21.7431 23.5478 21.1627 23.8689C20.8909 24.0171 19.9149 24.4126 19.6186 24.3508C19.4457 24.3015 19.4335 24.1038 19.3716 23.906C19.2357 23.486 18.8898 22.8189 18.8775 22.1889C18.8527 21.386 18.7538 20.0641 19.6186 20.2123C20.3105 20.3482 21.1135 20.6571 21.6572 20.9534C21.9653 21.1634 22.1505 21.386 22.6446 21.4104Z" stroke="#D33833" stroke-width="0.0740741"/>
<path d="M23.1386 22.3741C23.0646 21.9418 22.9657 21.8181 23.0149 21.4352C24.1764 20.657 24.399 22.757 23.1386 22.3741Z" fill="#D33833"/>
<path d="M23.1386 22.3741C23.0646 21.9418 22.9657 21.8181 23.0149 21.4352C24.1764 20.657 24.399 22.757 23.1386 22.3741Z" stroke="#D33833" stroke-width="0.0740741"/>
<path d="M24.8312 22.72C24.8312 22.72 24.4731 22.2134 24.7201 22.053C24.9672 21.9049 25.2268 22.053 25.3872 21.7938C25.5353 21.5345 25.3872 21.3738 25.4364 21.0649C25.4857 20.756 25.7453 20.7067 26.0046 20.6449C26.2638 20.583 26.9805 20.4967 27.0916 20.756L26.7827 19.8293L26.165 19.6315L24.2131 20.7556L24.102 21.3238V22.4478" fill="#EF3D3A"/>
<path d="M19.4201 24.4248C19.3583 23.6219 19.2964 22.8189 19.2224 22.0159C19.1112 20.8052 19.519 21.0278 20.5564 21.0278C20.7046 21.0278 21.5324 21.213 21.5942 21.3367C21.8661 21.9048 21.1246 21.7815 21.9153 22.2137C22.5824 22.5845 23.7683 21.9915 23.4968 21.1759C23.3487 20.9908 22.7061 21.1141 22.4838 21.003C22.0887 20.8052 21.6809 20.583 21.2731 20.373C20.7664 20.1137 19.5683 19.7308 19.0372 20.1011C17.6535 21.04 19.1361 23.3874 19.6301 24.3634" fill="#EF3D3A"/>
<path d="M22.7405 7.66485C21.589 5.95485 19.9764 6.23041 18.6094 6.78448C18.3075 6.30744 18.9564 5.92559 19.3127 5.75226C20.2457 5.27374 22.1924 5.31263 22.9327 6.24967C23.2824 6.65004 23.4568 7.443 22.7405 7.66485Z" fill="black"/>
<path d="M26.0608 7.76262C26.599 6.63928 27.4468 6.30373 28.3331 6.30373C28.736 6.30373 28.4412 5.5704 28.2334 5.55558C27.3327 5.49225 26.1382 5.81743 25.7127 6.55632C25.4601 6.94928 25.4094 7.66114 26.0608 7.76262Z" fill="black"/>
<path d="M26.8568 16.5949C26.7764 16.166 26.0075 14.6871 24.6068 14.8901C24.5838 15.1641 24.5334 15.3712 24.579 15.5197C25.5494 15.6223 25.9579 16.1226 26.7001 16.4652" fill="#F7E4CD"/>
<path d="M27.3638 13.3926C26.3631 14.0348 25.239 14.7393 23.5835 14.5785C23.2253 14.2696 23.0894 13.5904 23.4475 13.1456C23.6327 13.4545 23.5094 14.0104 24.0035 14.1093C24.9423 14.2574 26.0294 13.5411 26.709 13.2693C27.129 12.5526 26.6842 12.3056 26.289 11.8485C25.5231 10.9219 24.4853 9.76075 24.5346 8.37705C24.8435 8.14223 24.8805 8.72297 24.9175 8.82186C25.3127 9.76075 26.3383 10.9715 27.0672 11.7745C27.2523 11.9722 27.549 12.1574 27.5738 12.2933C27.6727 12.6885 27.3268 13.1456 27.3638 13.3926Z" fill="black"/>
<path d="M14.0957 12.7134C13.7868 12.5282 13.7127 11.7374 13.3419 11.7252C12.7982 11.7004 12.9097 12.763 12.9097 13.3808C12.539 13.0597 12.4775 12.0341 12.7616 11.5152C12.4527 11.3671 12.3168 11.6882 12.1438 11.7871C12.3538 10.2056 14.4538 11.0456 14.0957 12.7134Z" fill="black"/>
<path d="M26.885 16.6478C26.4513 15.8259 25.8461 14.9237 24.5787 14.8896C24.5557 15.1637 24.5331 15.5634 24.5787 15.7115C25.5494 15.8145 26.1431 16.3056 26.885 16.6478Z" fill="black"/>
<path d="M20.8535 16.0545C21.6642 15.6208 23.0831 15.4622 24.1905 15.4848C24.2475 15.2452 24.2475 15.13 24.2475 14.833C22.7079 14.5537 20.9157 15.1296 20.8264 16.103" fill="#F7E4CD"/>
<path d="M20.7886 16.123C21.5994 15.6893 23.0834 15.6548 24.1909 15.6778C24.2479 15.4382 24.2479 15.1411 24.2479 14.8445C22.8435 14.7641 21.1746 15.1945 20.7886 16.123Z" fill="black"/>
<path d="M27.6612 23.9126C26.7064 25.3137 25.8179 26.7434 24.6819 27.9889C25.1594 26.8 25.3568 24.8041 25.4227 23.2897C26.3938 22.8793 27.2497 23.3463 27.6612 23.9126Z" fill="#81B0C4"/>
<path d="M31.1316 28.2793C30.3286 28.4274 29.7727 29.206 29.0068 29.1563C29.4146 28.5634 30.1557 28.3041 31.1316 28.2793Z" fill="black"/>
<path d="M31.4653 29.5148C30.8231 29.5767 30.0568 29.6878 29.3898 29.6385C29.7113 29.1689 30.9094 29.3293 31.4653 29.5148Z" fill="black"/>
<path d="M31.7001 30.6019C30.9712 30.6141 30.0694 30.6019 29.3653 30.54C29.7853 30.1078 31.2183 30.3793 31.7001 30.6019Z" fill="black"/>
<path d="M25.9183 33.5297C26.0294 34.4437 26.3879 35.3704 26.3383 36.3712C25.9431 36.5071 25.7083 36.6304 25.1646 36.6182C25.1397 35.7656 25.0164 34.4563 25.0408 33.6534C25.3008 33.6904 25.7083 33.4926 25.9183 33.5297Z" fill="#DCD9D8"/>
<path d="M24.7323 20.0393C24.3742 20.2741 24.0653 20.583 23.7194 20.83C22.9286 20.8549 22.5086 20.7808 21.9405 20.3234C21.9527 20.2986 22.0023 20.3112 22.0023 20.2615C22.8298 20.6445 23.9046 20.1134 24.7323 20.0393Z" fill="#F0D6B7"/>
<path d="M20.3468 25.7345C20.5816 24.7463 21.4709 24.2148 22.2987 23.6837C23.1512 24.7463 23.6575 26.1296 24.2257 27.4515C22.8794 27.0437 21.5205 26.3893 20.3468 25.7345Z" fill="#81B0C4"/>
<path d="M25.0412 33.6778C25.0164 34.493 25.1153 35.7904 25.1649 36.6426C25.7086 36.6426 25.9309 36.5189 26.3386 36.3956C26.3879 35.3948 26.0175 34.4685 25.9186 33.5541C25.7083 33.4926 25.3009 33.6904 25.0412 33.6778ZM16.6283 29.0574C16.9864 32.3311 17.5053 35.0985 18.4568 38.0019C20.5568 38.6319 23.0894 38.6937 24.9549 38.1256C24.609 36.4948 24.7698 34.4934 24.572 32.7515C24.4238 31.4419 24.4979 30.1078 24.3001 28.7859C22.0146 28.2793 18.8398 28.6374 16.6283 29.0574ZM24.7942 28.7611C24.782 30.1697 24.856 31.553 24.9672 32.9615C25.5109 32.8874 25.8812 32.8256 26.3757 32.7145C26.2027 31.3556 26.2398 29.8237 25.8938 28.6378C25.5231 28.6374 25.1772 28.6374 24.7942 28.7611ZM27.549 28.5511C27.2898 28.4893 26.9931 28.5511 26.746 28.5511C26.8572 29.6878 27.1412 30.96 27.2401 32.1585C27.6231 32.1708 27.8331 31.9856 28.1542 31.9237C28.1668 30.8737 28.0557 29.416 27.549 28.5511ZM31.7001 32.3315C32.5031 32.1337 33.0098 31.1578 32.7872 30.1448C32.639 29.4652 32.3672 28.1804 32.0705 27.7482C31.8483 27.4271 31.2798 27.0071 30.8227 27.3034C30.0816 27.7852 28.7472 27.9211 28.216 28.5141C28.4879 29.4282 28.5742 30.676 28.6979 31.8374C29.6368 31.8993 30.7857 31.5782 31.5516 31.9115C31.0079 32.0845 30.3038 32.0845 29.8346 32.3437C30.2175 32.5167 31.1072 32.4674 31.7001 32.3315ZM24.226 27.4515C23.6579 26.1297 23.139 24.746 22.299 23.6711C21.4838 24.2148 20.582 24.7337 20.3472 25.7219C21.5205 26.3893 22.8794 27.0437 24.226 27.4515ZM25.6094 23.3252C25.5601 24.6593 25.4116 26.4015 25.0535 27.4267C25.906 26.3397 26.5853 25.0919 27.2894 23.8689C26.9931 23.3993 26.3509 22.9919 25.6094 23.3252ZM24.0405 22.7693C23.7194 22.7445 23.4353 23.14 23.0398 22.9671C22.9409 23.0782 22.8546 23.1893 22.7679 23.2882C23.682 24.3878 24.102 25.9567 24.8064 27.2537C25.1894 26.006 25.1523 24.6348 25.2264 23.2634C24.6831 23.313 24.399 22.8189 24.0405 22.7693ZM23.0153 21.423C22.9905 21.806 23.0646 21.9297 23.139 22.3619C24.399 22.7571 24.1764 20.6571 23.0153 21.423ZM21.6438 20.9782C21.1001 20.6815 20.2972 20.3604 19.6053 20.2371C18.7405 20.0641 18.8394 21.4108 18.8642 22.2137C18.889 22.8437 19.2223 23.5108 19.3583 23.9308C19.4201 24.1285 19.4323 24.326 19.6053 24.3756C19.902 24.4374 20.8653 24.0545 21.1494 23.8937C21.7423 23.5726 22.1994 23.0537 22.6935 22.72C22.6935 22.5471 22.7057 22.3741 22.7057 22.226C22.409 22.0778 22.0635 21.9667 21.606 21.9541C21.9027 21.806 22.3472 21.806 22.619 21.633C22.619 21.5711 22.619 21.4971 22.6312 21.4352C22.1505 21.386 21.9653 21.1634 21.6438 20.9782ZM16.5046 20.0515C16.0598 20.4963 17.7523 21.1141 18.296 21.1511C18.296 20.8545 18.469 20.5952 18.4198 20.3974C17.7894 20.2737 16.9494 20.3482 16.5046 20.0515ZM22.0023 20.2493C22.0023 20.2985 21.9405 20.2741 21.9405 20.3111C22.5086 20.756 22.9412 20.8548 23.7194 20.8178C24.0775 20.5708 24.3864 20.2619 24.7323 20.0271C23.9046 20.1134 22.8298 20.6445 22.0023 20.2493ZM27.0301 21.7811C27.0053 21.2745 26.882 20.2493 26.5605 20.0641C25.9183 19.6811 24.7568 20.83 24.2627 21.003C24.312 21.1511 24.3986 21.2748 24.4109 21.4848C24.7075 21.4108 25.0531 21.4726 25.3005 21.596C25.0038 21.6208 24.6827 21.6208 24.4975 21.7689C24.4235 21.9667 24.5098 22.2508 24.4727 22.5348C25.1646 22.7326 25.9553 22.8315 26.8201 22.856C27.0057 22.6334 27.0672 22.2011 27.0301 21.7811ZM15.7635 20.4841C15.6275 20.3852 14.6764 19.15 14.5405 19.1993C12.8235 19.8789 11.2172 21.04 9.79642 22.1519C11.1553 25.0922 11.7112 28.6748 11.7979 32.1215C13.3546 32.8504 14.7383 33.913 16.8631 34.0241C16.616 32.2945 16.3935 30.7378 16.2579 29.0948C15.7142 28.86 14.9609 29.1071 14.4664 29.0208C14.4664 28.4156 15.2201 28.7615 15.2816 28.3537C15.3309 28.0448 14.8616 28.0326 15.0223 27.5508C15.4053 27.6867 15.6275 27.9956 16.0231 28.1189C16.406 27.2789 16.0231 25.8211 16.0723 25.1171C16.0846 24.9934 16.1342 24.3882 16.4305 24.4993C16.6898 24.5982 16.4183 26.0808 16.4427 26.7352C16.4675 27.3404 16.3686 27.9211 16.6157 28.3167C18.6664 28.0448 20.7542 27.8471 22.9657 27.7978C22.4716 27.5756 21.9031 27.4026 21.2609 27.0319C20.9149 26.8341 19.8279 26.4267 19.729 26.1052C19.5809 25.5863 20.149 25.3022 20.2357 24.8574C19.1979 25.4256 19.0001 24.3137 18.7531 23.5234C18.5309 22.8067 18.3949 22.2878 18.3579 21.8678C17.4805 21.46 16.5294 21.0274 15.7635 20.4841ZM26.1409 19.3597C27.5616 18.6678 27.8209 21.9541 27.2649 23.0041C27.3638 23.313 27.6479 23.4363 27.7716 23.733C26.9686 25.1537 26.0916 26.5004 25.276 27.9085C25.8812 27.5378 26.746 27.8467 27.4505 27.5504C27.7098 27.4393 27.8953 26.8585 28.0927 26.3767C28.6364 25.0671 29.2046 23.4119 29.4516 22.1641C29.5135 21.8922 29.6738 21.25 29.6368 21.003C29.5749 20.5582 28.9572 20.2122 28.6486 19.9404C28.0805 19.4215 27.7098 18.9645 27.1046 18.4704C26.8698 18.8163 26.3383 19.0634 26.1409 19.3597ZM12.4898 6.69706C11.8101 7.43817 11.946 8.84669 12.0449 9.84743C13.2805 9.08151 14.8986 9.90928 14.8864 11.2185C15.4794 11.2063 15.1086 10.4897 14.9975 10.0326C14.6516 8.52558 15.5905 6.88225 15.0468 5.51114C13.9846 5.57262 13.1198 6.00521 12.4898 6.69706ZM17.3694 2.36077C15.8253 2.79299 13.8609 3.91743 13.2309 5.30114C13.7249 5.22706 14.0709 4.98003 14.5405 4.94299C14.7257 4.93077 14.9605 5.01706 15.1705 4.9678C15.5905 4.85669 15.9364 3.93003 16.2575 3.5841C16.5664 3.23817 16.9372 3.10225 17.1842 2.78114C17.3572 2.70706 17.5794 2.70706 17.6042 2.46003C17.5175 2.38521 17.4435 2.32373 17.3694 2.36077ZM25.3872 2.75595C23.7935 1.8541 21.0757 1.18706 19.3831 2.02706C18.012 2.70669 16.1586 3.85558 15.5286 5.26373C16.1216 6.64743 15.3557 7.91966 15.3064 9.32817C15.2816 10.0693 15.6646 10.7367 15.6894 11.5397C15.4916 11.8856 14.8742 11.9104 14.4416 11.8978C14.3057 11.1689 14.0464 10.366 13.3049 10.2919C12.2549 10.1808 11.4764 11.0456 11.4394 11.9597C11.3775 13.0222 12.2546 14.8011 13.4901 14.6774C13.972 14.6282 14.0953 14.1585 14.6142 14.1585C14.886 14.7267 14.182 14.8997 14.1075 15.2952C14.0953 15.4063 14.1694 15.8019 14.2186 16.0119C14.4535 16.9385 14.9475 18.1367 15.4416 18.8534C16.0716 19.743 17.3072 19.8911 18.6412 19.9774C18.876 19.4708 19.7531 19.5078 20.3212 19.6315C19.6416 19.3722 19.0116 18.7048 18.4805 18.1367C17.8753 17.4697 17.2575 16.7656 17.2327 15.8882C18.3694 17.4697 19.3205 18.853 21.3838 19.5448C22.9653 20.0637 24.7812 19.2978 25.9794 18.4578C26.4735 18.0997 26.7823 17.5437 27.1405 17.0371C28.4746 15.1222 29.0923 12.3919 28.969 9.74817C28.9072 8.64854 28.8312 7.61188 28.549 6.83262C27.8064 4.78003 27.109 3.9641 25.3872 2.75595ZM28.352 27.4022C29.5998 26.7845 31.9346 25.7345 32.7253 27.4022C33.022 28.02 33.3553 29.0578 33.4912 29.7C33.7135 30.6019 33.2564 32.4797 32.3301 32.7885C31.5149 33.0478 30.5757 33.0356 29.5875 32.8378C29.4764 32.7389 29.3405 32.5785 29.2416 32.4056C28.5498 32.3808 27.8827 32.4304 27.3268 32.7267C27.376 33.2456 27.0301 33.3319 26.6968 33.4434C26.4498 34.4193 27.1909 35.6671 27.0057 36.5441C26.882 37.1741 26.116 37.273 25.5357 37.3967C25.5235 37.7548 25.5605 38.0267 25.5975 38.3356C25.4738 38.8174 24.8809 39.0893 24.3375 39.1508C22.509 39.3608 19.7664 39.4597 18.0246 38.8419C17.5305 37.656 17.1598 36.186 16.7398 34.8267C15.0349 35.0119 13.6512 34.0856 12.3542 33.48C11.9094 33.2822 11.2916 33.1589 11.1186 32.8004C10.9457 32.4545 11.0198 31.7997 10.9827 31.1697C10.8716 29.5637 10.7975 28.0193 10.3649 26.3763C10.1798 25.6352 9.84605 24.9926 9.61123 24.2763C9.38901 23.6093 9.01827 22.8063 8.9316 22.1515C8.79568 21.1756 9.69753 21.1385 10.2905 20.6937C11.2046 20.0515 11.909 19.693 12.8849 19.0878C13.1816 18.9148 14.046 18.47 14.1449 18.2726C14.3427 17.8774 13.799 17.2967 13.6631 16.9878C13.4283 16.4937 13.3172 16.0611 13.2801 15.5671C12.4649 15.4434 11.8223 14.9493 11.4516 14.3934C10.8338 13.4793 10.4016 11.7989 10.9449 10.5019C10.9942 10.3908 11.192 10.2052 11.2168 10.0571C11.2786 9.74817 11.1057 9.3404 11.0931 9.01928C11.0312 7.35151 11.3649 5.91854 12.5016 5.41188C12.9712 3.58336 14.5894 2.9904 16.1338 2.08854C16.702 1.75484 17.3446 1.53262 17.9994 1.2978C20.3468 0.432988 23.8242 0.743729 25.7886 2.20151C26.6286 2.81928 27.9383 4.14114 28.4075 5.10484C29.6553 7.62521 29.6864 11.7 28.8216 14.7763C28.6979 15.1963 28.5249 15.7893 28.3027 16.2834C28.1298 16.6293 27.6231 17.3211 27.6849 17.63C27.7468 17.9389 28.8586 18.7911 29.0935 19.0137C29.5257 19.4337 30.329 19.9774 30.4031 20.4963C30.4772 21.0522 30.156 21.806 30.0079 22.3493C29.4764 24.1656 28.9698 25.8085 28.352 27.4022Z" fill="black"/>
<path d="M24.5349 23.8811C24.5349 24.0293 24.4112 24.153 24.2631 24.153C24.1149 24.153 23.9912 24.0293 23.9912 23.8811C23.9912 23.733 24.1149 23.597 24.2631 23.597C24.4112 23.597 24.5349 23.733 24.5349 23.8811Z" fill="black"/>
<path d="M24.8312 25.1908C24.8312 25.3389 24.7075 25.4626 24.5594 25.4626C24.4112 25.4626 24.2875 25.3389 24.2875 25.1908C24.2875 25.0426 24.4112 24.9067 24.5594 24.9067C24.6831 24.9189 24.8312 25.0426 24.8312 25.1908Z" fill="black"/>
<path d="M21.0805 16.9448C21.1561 16.8852 21.2338 16.83 21.3131 16.7797C21.3924 16.7282 21.4731 16.6804 21.5546 16.6334L21.6775 16.5656C21.7194 16.5448 21.7616 16.5259 21.8038 16.5059C21.8461 16.4859 21.8887 16.4678 21.9316 16.4493C21.9742 16.4308 22.0172 16.4115 22.0601 16.3948C22.2309 16.32 22.4105 16.2682 22.5901 16.2163C22.6801 16.1908 22.7701 16.1667 22.8631 16.1489L23.1413 16.0989C23.5161 16.0485 23.9024 16.0285 24.2927 16.1063C24.3168 16.1093 24.3413 16.1156 24.3657 16.1222L24.4383 16.1415C24.4864 16.1545 24.5346 16.1667 24.5816 16.1822C24.6294 16.2011 24.6768 16.2189 24.7231 16.2393C24.7464 16.2493 24.7694 16.2589 24.792 16.2697C24.815 16.2822 24.8375 16.2941 24.8598 16.3074C24.9487 16.3567 25.0346 16.4174 25.1072 16.4919C25.1801 16.5641 25.2435 16.6515 25.2679 16.7541L25.2683 16.7563C25.2705 16.7663 25.2646 16.7763 25.2546 16.7785C25.2468 16.7804 25.239 16.7771 25.2346 16.7708C25.2127 16.7374 25.182 16.7037 25.1483 16.6767C25.1309 16.6634 25.1146 16.6485 25.0964 16.6359L25.0401 16.6015C24.9638 16.5574 24.8816 16.5222 24.7961 16.4974L24.7327 16.4763C24.7113 16.4708 24.689 16.4667 24.6675 16.4615L24.5368 16.4326L24.4035 16.4163C24.359 16.4119 24.315 16.4034 24.2698 16.4022C23.9113 16.3752 23.5505 16.4156 23.1946 16.4659C23.0168 16.4959 22.8379 16.5185 22.662 16.5608C22.4857 16.5989 22.3083 16.6337 22.1342 16.6834C21.7835 16.7708 21.4387 16.8797 21.0913 16.9815C21.0816 16.9845 21.0716 16.9789 21.0687 16.9693C21.0664 16.9619 21.069 16.9545 21.075 16.95L21.0805 16.9448Z" fill="black"/>
<path d="M26.2538 9.00743C26.2538 9.00743 26.6564 10.7689 27.7964 10.6682C28.6772 10.5904 29.6635 8.5241 28.2205 7.9041C27.4064 7.55447 26.2538 9.00743 26.2538 9.00743Z" fill="#F7E4CD"/>
<path d="M26.0245 8.83111C26.0245 8.83111 26.4271 10.5926 27.5671 10.4919C28.4479 10.4141 29.6853 8.15667 28.1934 7.75555C27.3379 7.52592 26.0245 8.83111 26.0245 8.83111Z" fill="#F0F0F0" stroke="black" stroke-width="0.259259" stroke-miterlimit="10"/>
<path d="M26.0245 8.83114C26.0245 8.83114 26.4242 10.5452 27.5671 10.4919C28.2605 10.4597 29.1656 8.4541 27.8231 8.04854C26.9753 7.79225 26.0245 8.83114 26.0245 8.83114Z" fill="white"/>
<path d="M26.0245 8.83111C26.0245 8.83111 26.4271 10.5926 27.5671 10.4919C28.4479 10.4141 29.6853 8.15667 28.1934 7.75555C27.3379 7.52592 26.0245 8.83111 26.0245 8.83111Z" stroke="black" stroke-width="0.296296" stroke-miterlimit="10"/>
<path d="M27.3372 7.38778C27.5442 7.32445 27.7627 7.30111 27.9831 7.32111C28.2023 7.34185 28.4268 7.40519 28.622 7.53222C28.6468 7.54667 28.6694 7.56556 28.6931 7.58259L28.7279 7.60889L28.7609 7.63741C28.7827 7.65667 28.8042 7.6763 28.8238 7.69778C28.8438 7.71926 28.8649 7.73889 28.8823 7.76259C28.9564 7.85222 29.0164 7.95296 29.0579 8.05963C29.1405 8.27185 29.1616 8.50408 29.1027 8.71445C29.0531 8.50482 28.9783 8.31482 28.8753 8.15037C28.7731 7.98593 28.639 7.85259 28.4809 7.74963C28.3231 7.6463 28.1401 7.57593 27.9472 7.52111C27.7538 7.46519 27.5494 7.43185 27.3372 7.38778Z" fill="black"/>
<path d="M27.3372 7.38778C27.5442 7.32445 27.7627 7.30111 27.9831 7.32111C28.2023 7.34185 28.4268 7.40519 28.622 7.53222C28.6468 7.54667 28.6694 7.56556 28.6931 7.58259L28.7279 7.60889L28.7609 7.63741C28.7827 7.65667 28.8042 7.6763 28.8238 7.69778C28.8438 7.71926 28.8649 7.73889 28.8823 7.76259C28.9564 7.85222 29.0164 7.95296 29.0579 8.05963C29.1405 8.27185 29.1616 8.50408 29.1027 8.71445C29.0531 8.50482 28.9783 8.31482 28.8753 8.15037C28.7731 7.98593 28.639 7.85259 28.4809 7.74963C28.3231 7.6463 28.1401 7.57593 27.9472 7.52111C27.7538 7.46519 27.5494 7.43185 27.3372 7.38778Z" fill="black"/>
<path d="M26.7897 10.7774C26.892 10.6619 27.0238 10.5682 27.1712 10.5141L27.2264 10.4922C27.2449 10.4856 27.2642 10.4819 27.2831 10.4767C27.3212 10.4667 27.3597 10.4574 27.3986 10.4496C27.4375 10.4441 27.4768 10.4404 27.5164 10.4359C27.5557 10.4307 27.5953 10.4341 27.6345 10.433C27.792 10.4356 27.9479 10.4663 28.0927 10.5226C28.1286 10.5378 28.1642 10.5526 28.199 10.57C28.2334 10.5885 28.2675 10.6059 28.3001 10.6274C28.3653 10.6689 28.4271 10.7167 28.479 10.7763C28.3245 10.757 28.1831 10.7359 28.0427 10.7204C27.9027 10.7045 27.766 10.6952 27.6301 10.6922C27.562 10.6882 27.4945 10.6937 27.4264 10.6933C27.3923 10.6952 27.359 10.6996 27.3245 10.7008C27.3075 10.7019 27.2901 10.7022 27.2731 10.7041L27.222 10.7107C27.0816 10.7211 26.9464 10.7559 26.7897 10.7774Z" fill="black"/>
<path d="M22.6208 8.9904C22.6208 8.9904 22.4397 11.1993 20.8838 11.1993C19.1342 11.1993 18.319 8.40818 19.536 7.83929C20.7175 7.2867 22.6208 8.9904 22.6208 8.9904Z" fill="#F7E4CD"/>
<path d="M27.4805 10.2329C27.9254 10.2329 28.286 9.8101 28.286 9.2885C28.286 8.7669 27.9254 8.34406 27.4805 8.34406C27.0356 8.34406 26.6749 8.7669 26.6749 9.2885C26.6749 9.8101 27.0356 10.2329 27.4805 10.2329Z" fill="black"/>
<path d="M28.0235 8.38776L27.6342 9.03183L28.3872 8.84368" fill="white"/>
<path d="M23.0612 8.88554C23.0612 8.88554 22.8801 11.0944 21.3242 11.0944C19.5745 11.0944 18.7594 8.30332 19.9764 7.73443C21.1579 7.18184 23.0612 8.88554 23.0612 8.88554Z" fill="#F0F0F0"/>
<path d="M23.0612 8.88554C23.0612 8.88554 22.8801 11.0944 21.3242 11.0944C20.1494 11.0852 19.2601 8.71036 20.4775 8.14147C21.659 7.58887 23.0612 8.88554 23.0612 8.88554Z" fill="white"/>
<path d="M21.3435 10.7774C21.8661 10.7774 22.2897 10.2597 22.2897 9.62114C22.2897 8.98253 21.8661 8.46484 21.3435 8.46484C20.8208 8.46484 20.3972 8.98253 20.3972 9.62114C20.3972 10.2597 20.8208 10.7774 21.3435 10.7774Z" fill="black"/>
<path d="M22.0127 8.46448L21.6368 9.37707L22.5283 9.12337" fill="white"/>
<path d="M23.0612 8.88554C23.0612 8.88554 22.8801 11.0944 21.3242 11.0944C19.5745 11.0944 18.7594 8.30332 19.9764 7.73443C21.1579 7.18184 23.0612 8.88554 23.0612 8.88554Z" stroke="black" stroke-width="0.296296" stroke-miterlimit="10"/>
<path d="M18.8057 9.25445C18.7886 9.0963 18.7864 8.93297 18.8135 8.77186L18.8235 8.71112C18.8264 8.69075 18.8301 8.67075 18.836 8.65075L18.8683 8.53112C18.8786 8.49075 18.8964 8.45297 18.9105 8.41408L18.9331 8.35556C18.9412 8.3363 18.9516 8.31816 18.9609 8.29927C19.0323 8.14705 19.1338 8.00816 19.2516 7.88667C19.3697 7.76519 19.5053 7.66038 19.6516 7.57742C19.9446 7.41149 20.2697 7.3226 20.5923 7.29038C20.7542 7.27445 20.916 7.2726 21.0764 7.28445C21.1564 7.29038 21.2364 7.29964 21.3153 7.31297C21.3942 7.32667 21.4731 7.3426 21.5494 7.36667C21.3905 7.38408 21.2357 7.40445 21.0823 7.42964C20.9294 7.45445 20.7783 7.48334 20.6309 7.51964C20.3357 7.59149 20.0523 7.69112 19.7983 7.83445L19.7046 7.89001L19.6149 7.95149C19.5842 7.97112 19.5579 7.99556 19.5286 8.01705C19.4994 8.03853 19.4735 8.06334 19.4464 8.08742C19.3394 8.18408 19.242 8.29223 19.1616 8.41482C19.1512 8.43001 19.1401 8.44482 19.1301 8.46001L19.1023 8.50779L19.0742 8.55556C19.0649 8.57149 19.0546 8.58742 19.0472 8.60445L18.9975 8.70556C18.979 8.7389 18.9686 8.77519 18.9531 8.81001C18.9212 8.87964 18.9001 8.95334 18.8735 9.02705C18.859 9.06371 18.8509 9.10186 18.8401 9.13964C18.8286 9.17779 18.8183 9.2163 18.8057 9.25445Z" fill="black"/>
<path d="M20.1776 11.47C20.2105 11.4274 20.2438 11.383 20.2838 11.3459C20.3031 11.3267 20.3227 11.3067 20.3438 11.2893L20.4087 11.2378C20.4983 11.173 20.5964 11.1174 20.7005 11.0767C20.8046 11.0359 20.9135 11.0059 21.0235 10.9882C21.1338 10.9708 21.2453 10.9641 21.3561 10.9652C21.5776 10.9704 21.7953 11.0108 22.0013 11.08C22.2064 11.1504 22.4042 11.2445 22.5746 11.3808C22.3613 11.3437 22.1572 11.3071 21.9538 11.2782C21.7509 11.2489 21.5498 11.2297 21.3505 11.2245C21.2509 11.2222 21.1516 11.2252 21.0531 11.2319C20.9542 11.2389 20.8568 11.253 20.759 11.2715C20.6613 11.2896 20.5653 11.3178 20.4683 11.35C20.3713 11.3819 20.2776 11.4256 20.1776 11.47Z" fill="black"/>
</svg>
