<svg width="41" height="40" viewBox="0 0 41 40" fill="none" xmlns="http://www.w3.org/2000/svg">
<path d="M27.5977 22.1362C26.0413 22.1362 24.646 22.8257 23.6906 23.9113L21.2422 22.178C21.5021 21.4624 21.6513 20.694 21.6513 19.8898C21.6513 19.0995 21.5073 18.344 21.2559 17.639L23.6988 15.9241C24.6542 17.0042 26.0458 17.69 27.5977 17.69C30.4703 17.69 32.8077 15.353 32.8077 12.48C32.8077 9.60702 30.4703 7.27 27.5977 7.27C24.7251 7.27 22.3877 9.60702 22.3877 12.48C22.3877 12.9942 22.4654 13.4901 22.6048 13.9597L20.1603 15.6755C19.1391 14.4087 17.6688 13.5241 15.9936 13.2541V10.308C18.3536 9.81231 20.1318 7.71548 20.1318 5.21C20.1318 2.33702 17.7944 0 14.9218 0C12.0492 0 9.71181 2.33702 9.71181 5.21C9.71181 7.68192 11.4439 9.75289 13.7567 10.2839V13.2684C10.6004 13.8224 8.19229 16.577 8.19229 19.8898C8.19229 23.2188 10.6242 25.9835 13.8033 26.5187V29.67C11.4669 30.1836 9.71181 32.2672 9.71181 34.756C9.71181 37.6289 12.0492 39.966 14.9218 39.966C17.7944 39.966 20.1318 37.6289 20.1318 34.756C20.1318 32.2672 18.3767 30.1836 16.0403 29.67V26.5186C17.6494 26.2475 19.1052 25.4009 20.1364 24.1363L22.6011 25.8808C22.4643 26.3462 22.3877 26.8371 22.3877 27.3462C22.3877 30.2191 24.7251 32.5562 27.5977 32.5562C30.4703 32.5562 32.8077 30.2191 32.8077 27.3462C32.8077 24.4732 30.4703 22.1362 27.5977 22.1362ZM27.5977 9.95394C28.9907 9.95394 30.1236 11.0874 30.1236 12.48C30.1236 13.8726 28.9907 15.006 27.5977 15.006C26.2047 15.006 25.0717 13.8726 25.0717 12.48C25.0717 11.0874 26.2047 9.95394 27.5977 9.95394ZM12.3958 5.21C12.3958 3.8174 13.5288 2.68404 14.9218 2.68404C16.3148 2.68404 17.4478 3.8174 17.4478 5.21C17.4478 6.6026 16.3148 7.73596 14.9218 7.73596C13.5288 7.73596 12.3958 6.6026 12.3958 5.21ZM17.4478 34.756C17.4478 36.1486 16.3148 37.2819 14.9218 37.2819C13.5288 37.2819 12.3958 36.1486 12.3958 34.756C12.3958 33.3634 13.5288 32.23 14.9218 32.23C16.3148 32.23 17.4478 33.3634 17.4478 34.756ZM14.9216 23.4127C12.9788 23.4127 11.3983 21.8325 11.3983 19.8898C11.3983 17.947 12.9788 16.3665 14.9216 16.3665C16.8643 16.3665 18.4448 17.947 18.4448 19.8898C18.4448 21.8325 16.8643 23.4127 14.9216 23.4127ZM27.5977 29.8722C26.2047 29.8722 25.0717 28.7387 25.0717 27.3462C25.0717 25.9536 26.2047 24.8202 27.5977 24.8202C28.9907 24.8202 30.1236 25.9536 30.1236 27.3462C30.1236 28.7387 28.9907 29.8722 27.5977 29.8722Z" fill="#231F20"/>
</svg>
