<svg width="78" height="40" viewBox="0 0 78 40" fill="none" xmlns="http://www.w3.org/2000/svg">
<path d="M77.7778 6.00902C77.6984 6.11025 77.606 6.20429 77.5404 6.31428C74.4901 11.436 71.4405 16.5568 68.4015 21.6849C68.2873 21.8778 68.2217 22.1288 68.2208 22.3528C68.2095 26.0239 68.2127 29.6942 68.2127 33.3653V33.873H64.5037C64.5037 33.7335 64.5037 33.5813 64.5037 33.4291C64.5037 29.7715 64.5078 26.114 64.4948 22.4564C64.494 22.1934 64.4219 21.9025 64.2939 21.6721C61.455 16.5712 58.6031 11.4774 55.7545 6.38123C55.6848 6.2561 55.6217 6.12698 55.5325 5.95722C55.6589 5.94765 55.7456 5.9357 55.8315 5.9357C57.0063 5.9341 58.181 5.93809 59.3558 5.93171C59.5592 5.93092 59.6953 5.96041 59.8022 6.17002C61.9719 10.4477 64.1513 14.7205 66.3291 18.9941C66.3995 19.132 66.466 19.2723 66.5656 19.4748C66.6531 19.3122 66.7082 19.2117 66.7609 19.1105C69.0002 14.793 71.2404 10.4763 73.4716 6.15488C73.5835 5.93889 73.735 5.93331 73.9286 5.93331C75.2111 5.9341 76.4936 5.93092 77.7762 5.92932V6.00902H77.7778Z" fill="#38383A"/>
<path d="M0 5.93011H3.65312V30.8873H15.8213V33.9065H15.3441C10.4044 33.9065 5.46551 33.9065 0.52581 33.9065C0.35081 33.9065 0.17581 33.9152 0 33.92L0 5.93011Z" fill="#38383A"/>
<path d="M31.5478 5.9365C32.8271 5.9365 34.0553 5.92853 35.282 5.95085C35.3873 5.95244 35.542 6.14214 35.585 6.27205C36.3287 8.53959 37.0692 10.8079 37.7879 13.0834C39.2527 17.7221 40.7102 22.3632 42.1531 27.0082C42.4318 27.9057 42.6295 28.8278 42.8661 29.738C42.9009 29.8711 42.9422 30.0035 43.0135 30.2497C45.3072 21.932 48.4458 14.0151 51.1195 5.93571C52.3631 5.93571 53.563 5.93571 54.7637 5.9365C54.8406 5.9365 54.9176 5.94846 55.0359 5.95802C54.9832 6.12062 54.9427 6.2577 54.8941 6.39081C51.6112 15.4139 48.3259 24.4362 45.0544 33.4633C44.9288 33.81 44.7781 33.9264 44.4022 33.916C43.3368 33.8874 42.269 33.8977 41.2028 33.9121C40.9362 33.9152 40.8042 33.8563 40.7134 33.5845C37.6931 24.4737 34.6622 15.3661 31.6337 6.2577C31.6045 6.17083 31.5859 6.08156 31.547 5.9365H31.5478Z" fill="#38383A"/>
<path d="M21.2325 30.0497V9.82361C21.1166 9.89614 21.0332 9.92961 20.9749 9.9878C19.1357 11.8178 17.2982 13.6485 15.4632 15.4825C15.2363 15.7088 15.0435 15.9711 14.7964 16.1711C14.704 16.246 14.4423 16.2556 14.3589 16.1823C13.8849 15.7702 13.4401 15.3255 12.9872 14.8903C12.7879 14.699 12.779 14.53 12.9945 14.3196C16.0562 11.3276 19.1098 8.32839 22.1674 5.33317C22.6187 4.89082 22.7962 4.88764 23.2434 5.3252C26.2087 8.22398 29.1715 11.1252 32.1335 14.0271C32.5232 14.4089 32.5402 14.5763 32.1821 14.9676C31.8767 15.3016 31.5421 15.6116 31.2034 15.9145C30.9328 16.156 30.6387 16.1488 30.3738 15.8945C30.0943 15.6259 29.8269 15.3446 29.5515 15.072C27.825 13.356 26.0977 11.6408 24.3695 9.92643C24.295 9.8531 24.2115 9.78854 24.0714 9.66659C24.0519 9.83317 24.0276 9.93918 24.0276 10.046C24.026 16.5258 24.0252 23.0056 24.0317 29.4846C24.0317 29.6113 24.1143 29.7373 24.1581 29.864C24.2999 29.801 24.4757 29.7707 24.5794 29.6695C26.3974 27.8945 28.209 26.1124 30.0181 24.3287C30.7797 23.5787 30.8551 23.5755 31.6288 24.3334C31.82 24.5207 32.0169 24.7033 32.1902 24.9057C32.4827 25.2484 32.4746 25.4859 32.1514 25.8119C31.6798 26.2861 31.1929 26.7444 30.7149 27.2131C28.2017 29.6751 25.6893 32.1371 23.1769 34.5999C22.6325 35.1339 22.5571 35.1339 22.0095 34.5975C19.1058 31.7505 16.2021 28.9036 13.2983 26.0566C12.758 25.5266 12.7515 25.3975 13.2781 24.8459C13.5179 24.5949 13.7683 24.3526 14.0308 24.1238C14.4585 23.7516 14.6149 23.7588 15.02 24.1565C16.6728 25.7761 18.3223 27.3996 19.9767 29.0176C20.3551 29.3874 20.7496 29.7428 21.1361 30.1047C21.1685 30.0864 21.2009 30.0688 21.2333 30.0505L21.2325 30.0497Z" fill="#38383A"/>
</svg>
