<svg width="67" height="40" viewBox="0 0 67 40" fill="none" xmlns="http://www.w3.org/2000/svg">
<g clip-path="url(#clip0_3_393)">
<path fill-rule="evenodd" clip-rule="evenodd" d="M61.4893 19.6457C61.4311 19.5212 61.4049 19.4586 61.3735 19.3989C60.5312 17.7967 59.6912 16.1945 58.8403 14.5923C58.755 14.4316 58.7658 14.3368 58.8825 14.1982C60.2227 12.6329 61.5456 11.0588 62.888 9.49995C62.9354 9.44495 62.9776 9.38671 62.9954 9.28863C62.6056 9.39018 62.2159 9.49064 61.824 9.59391C60.2067 10.0226 58.5764 10.4491 56.9742 10.8843C56.8237 10.9248 56.7555 10.8809 56.6797 10.7557C55.7617 9.22065 54.8372 7.68125 53.9084 6.16567C53.861 6.08621 53.8092 6.00913 53.7079 5.94266C53.6334 6.35187 53.5581 6.75891 53.4849 7.16812C53.2272 8.61225 52.9696 10.0477 52.7141 11.4983C52.6862 11.654 52.6481 11.8101 52.6346 11.966C52.6219 12.115 52.545 12.17 52.4095 12.2128C50.502 12.8126 48.5989 13.4166 46.6936 14.0207C46.61 14.0469 46.5279 14.0815 46.4381 14.1627C47.997 14.782 49.5558 15.4012 51.1364 16.0312C51.0788 16.0769 51.0407 16.1124 50.9985 16.1395C50.0242 16.7695 49.0477 17.3996 48.0755 18.0318C47.9588 18.108 47.8666 18.1188 47.7356 18.0597C46.5708 17.5358 45.3973 17.0205 44.2281 16.5009C43.7042 16.267 43.2343 15.9574 42.8684 15.5071C42.0392 14.4938 42.2038 13.3419 43.308 12.6275C43.6695 12.3958 44.0809 12.2247 44.4901 12.0905C46.3586 11.4821 48.2358 10.8954 50.0978 10.3065C50.255 10.2564 50.3273 10.1863 50.3576 10.0163C50.6087 8.57003 50.8664 7.11507 51.1284 5.6861C51.2678 4.91315 51.3414 4.12288 51.7173 3.41272C51.8613 3.13992 52.0334 2.87361 52.2412 2.64627C52.986 1.8192 54.0231 1.78889 54.8177 2.57526C55.084 2.84157 55.3114 3.15334 55.5084 3.47595C56.3744 4.88977 57.2275 6.31225 58.0849 7.74122C58.1856 7.90945 58.2761 7.94323 58.4616 7.8943C60.5509 7.33353 62.6403 6.78143 64.7404 6.22932C65.1735 6.11522 65.6087 6.07387 66.0525 6.15679C67.016 6.33693 67.4382 7.07047 67.1112 8.00364C66.9634 8.428 66.7064 8.78524 66.4184 9.12517C64.9591 10.8421 63.4955 12.5677 62.0449 14.2781C61.9256 14.4184 61.9232 14.5185 62.0059 14.6765C62.8806 16.3242 63.7467 17.9675 64.6257 19.6346C64.8338 20.0287 64.9938 20.4401 64.9981 20.8926C65.0083 21.9232 64.2533 22.7676 63.2292 22.9191C62.6554 23.0029 62.1228 22.8804 61.5837 22.7145C60.2738 22.3096 58.9639 21.9113 57.6432 21.515C57.5213 21.4787 57.4747 21.4304 57.4529 21.2994C57.3022 20.3749 57.1368 19.4526 56.9766 18.528C56.9724 18.5027 56.98 18.4757 56.9843 18.4189C58.4804 18.8325 59.9722 19.2395 61.5094 19.666" fill="#E25A1C"/>
<path fill-rule="evenodd" clip-rule="evenodd" d="M58.8912 33.1776C57.709 33.1759 56.5312 33.1701 55.3404 33.1753C55.1838 33.1753 55.0957 33.1304 55.0091 32.9975C53.6105 30.867 52.1945 28.7322 50.8088 26.6104C50.764 26.5429 50.7166 26.4777 50.6371 26.3636C50.3361 28.6586 50.0395 30.9103 49.7429 33.1621H46.6468C46.6832 32.8611 46.7154 32.5688 46.7535 32.2787C47.0545 29.962 47.3598 27.667 47.6629 25.3503C47.953 23.1419 48.241 20.9335 48.5354 18.7251C48.5439 18.6599 48.5878 18.5761 48.6411 18.5415C49.7063 17.8465 50.7759 17.158 51.8454 16.4694C51.8608 16.4593 51.8827 16.4584 51.9377 16.4424C51.6151 18.9106 51.2946 21.3572 50.972 23.8038C50.9848 23.8122 50.9974 23.8215 51.0101 23.83C52.6881 21.9723 54.3661 20.106 56.0765 18.2223C56.1257 18.5081 56.1688 18.7528 56.211 18.9974C56.3311 19.6968 56.447 20.4004 56.5747 21.0998C56.6009 21.2409 56.5628 21.3271 56.4691 21.4267C55.3843 22.5612 54.3039 23.7001 53.2214 24.8476C53.174 24.8976 53.1291 24.9491 53.075 25.0084C53.1097 25.0632 53.1393 25.1167 53.174 25.1656C55.0381 27.7854 56.898 30.4052 58.76 33.025C58.7937 33.0724 58.8427 33.1097 58.8842 33.1519V33.1932" fill="#3C3A3E"/>
<path fill-rule="evenodd" clip-rule="evenodd" d="M22.3007 26.2493C22.2533 26.0089 22.2195 25.6539 22.1121 25.3226C21.5925 23.7226 19.9535 22.8544 18.2582 23.2419C16.3941 23.6749 15.0539 25.1407 14.8807 27.0525C14.7378 28.4598 15.4955 29.8239 16.9029 30.3218C18.0374 30.7311 19.1329 30.56 20.1505 29.9516C21.4951 29.1462 22.2226 27.9489 22.3157 26.2493H22.3007ZM14.1166 32.2033C14.0252 32.8918 13.9373 33.5392 13.8524 34.1887C13.7392 35.0505 13.6251 35.9143 13.5168 36.7869C13.5043 36.8876 13.4738 36.9324 13.3655 36.9315C12.5146 36.9283 11.6637 36.9291 10.8107 36.9274C10.7912 36.9274 10.7717 36.9172 10.726 36.9038C10.7775 36.4968 10.8276 36.0876 10.8808 35.6805C11.0685 34.2515 11.2554 32.8226 11.4459 31.3936C11.6646 29.7567 11.8356 28.1243 12.1149 26.5004C12.6086 23.6208 15.0595 21.1526 17.9174 20.5247C19.5781 20.1653 21.1651 20.3318 22.6157 21.2673C24.062 22.1983 24.8891 23.5624 25.084 25.2511C25.3525 27.6544 24.4669 29.6463 22.7673 31.3135C21.6458 32.3982 20.2991 33.0867 18.7618 33.3205C17.1662 33.5609 15.6657 33.2952 14.3234 32.3549C14.2742 32.3202 14.2209 32.2899 14.1365 32.2367" fill="#3C3A3E"/>
<path fill-rule="evenodd" clip-rule="evenodd" d="M12.6876 18.5632C11.7349 19.2733 10.8148 19.9575 9.89459 20.6438C9.74585 20.41 9.61313 20.1762 9.45724 19.9575C9.05669 19.3967 8.55872 18.9789 7.83557 18.9291C7.23367 18.8866 6.71837 19.0845 6.30916 19.5288C5.94326 19.925 5.89562 20.4901 6.23728 20.9383C6.61401 21.4319 7.02538 21.8996 7.44758 22.3564C8.14691 23.1142 8.87656 23.8417 9.56939 24.6082C10.1994 25.301 10.7039 26.0761 10.8598 27.0331C11.0451 28.1589 10.8202 29.2199 10.2882 30.2158C9.30308 32.0453 7.75503 33.1171 5.69817 33.4418C4.79315 33.588 3.89246 33.5594 3.01342 33.2996C1.84209 32.9553 1.02584 32.1867 0.501886 31.1128C0.316769 30.7296 0.174954 30.3247 0.00823975 29.9133C1.03234 29.3656 2.03046 28.8308 3.0394 28.2917C3.07404 28.3755 3.09938 28.4456 3.13164 28.5125C3.3042 28.8568 3.44558 29.2227 3.65776 29.5409C4.29214 30.4828 5.31407 30.7686 6.3425 30.3031C6.60881 30.1829 6.86646 30.0151 7.08514 29.8202C7.75199 29.227 7.87757 28.3999 7.38393 27.6551C7.10029 27.2264 6.74522 26.841 6.3988 26.4578C5.57172 25.5398 4.71001 24.6499 3.90891 23.7081C3.35248 23.0629 2.97358 22.3138 2.85234 21.4564C2.72135 20.5124 2.90993 19.6247 3.40011 18.8366C4.61907 16.8642 6.38797 15.8487 8.7263 15.9137C10.0622 15.962 11.1296 16.587 11.9523 17.6263C12.197 17.9338 12.4265 18.252 12.6755 18.5855" fill="#3C3A3E"/>
<path fill-rule="evenodd" clip-rule="evenodd" d="M35.2914 29.0639C35.1357 30.2526 34.9883 31.3806 34.8367 32.5065C34.8283 32.5641 34.7835 32.6418 34.7352 32.6639C32.4185 33.7334 29.3873 33.584 27.5037 31.4319C26.4861 30.2757 26.0596 28.8987 26.1223 27.3831C26.2702 23.854 29.1968 20.7579 32.7043 20.3249C34.7503 20.0737 36.5366 20.6258 37.9222 22.2172C38.8662 23.2997 39.3036 24.5988 39.2386 26.0278C39.1964 26.9718 39.0483 27.9093 38.9312 28.8424C38.7645 30.1718 38.5826 31.5055 38.4072 32.8263C38.4005 32.8726 38.3912 32.92 38.3802 32.9802H35.6305C35.6668 32.6749 35.7006 32.3761 35.7396 32.0773C35.9392 30.5423 36.1596 29.0029 36.335 27.4656C36.4441 26.5087 36.3755 25.5582 35.9366 24.6726C35.4711 23.7308 34.6917 23.2307 33.6632 23.1224C31.5371 22.8972 29.5062 24.3739 29.0732 26.4567C28.7744 27.838 29.2457 29.1631 30.3463 29.8992C31.418 30.6116 32.5547 30.6137 33.7239 30.1525C34.3171 29.9187 34.8194 29.5463 35.3001 29.0462" fill="#3C3A3E"/>
<path fill-rule="evenodd" clip-rule="evenodd" d="M46.983 20.6849C46.857 21.6419 46.7319 22.5837 46.6063 23.5429C46.0217 23.5429 45.4501 23.5396 44.8785 23.5437C44.4152 23.5472 43.993 23.8469 43.8523 24.2799C43.7982 24.449 43.778 24.6306 43.7542 24.8082C43.4641 27.0166 43.1761 29.2034 42.8882 31.3901C42.8154 31.9444 42.7453 32.4987 42.6725 33.0616H39.7929C39.8462 32.6394 39.8968 32.2302 39.9501 31.821C40.1369 30.3963 40.3247 28.963 40.513 27.5557C40.6763 26.3238 40.8226 25.0875 41.0153 23.8534C41.273 22.2079 42.9098 20.7356 44.5661 20.6706C45.3586 20.636 46.1532 20.6648 46.9694 20.6648" fill="#3C3A3E"/>
<path d="M62.3554 33.1776V31.9652H62.3487L61.8723 33.1776H61.721L61.2447 31.9652H61.2371V33.1776H60.9989V31.7249H61.3692L61.8022 32.8291L62.2287 31.7249H62.5968V33.1776H62.3554ZM60.2466 31.9197V33.1776H60.0084V31.9197H59.5537V31.7251H60.7034V31.9197H60.2487" fill="#3C3A3E"/>
<path d="M16.5198 16.5279H17.2322L17.0637 15.4497L16.5198 16.5279ZM17.3447 17.2251H16.1604L15.7837 17.9634H14.9436L16.7948 14.4992H17.6046L18.2346 17.9634H17.4573L17.3456 17.2251" fill="#3C3A3E"/>
<path d="M21.5862 15.2072H21.164L21.022 16.0061H21.4442C21.6997 16.0061 21.901 15.8388 21.901 15.5233C21.901 15.3144 21.7742 15.2072 21.5849 15.2072H21.5862ZM20.5643 14.51H21.6728C22.2531 14.51 22.658 14.8565 22.658 15.4497C22.658 16.1988 22.1297 16.7011 21.3762 16.7011H20.8977L20.6726 17.9677H19.9494L20.56 14.5035" fill="#3C3A3E"/>
<path d="M25.1154 16.5279H25.8277L25.6595 15.4497L25.1154 16.5279ZM25.9381 17.2251H24.7538L24.3771 17.9634H23.537L25.3882 14.4992H26.1979L26.828 17.9634H26.0507L25.939 17.2251" fill="#3C3A3E"/>
<path d="M30.5282 17.8487C30.2835 17.9604 30.015 18.0271 29.7444 18.0271C28.8285 18.0271 28.2548 17.3407 28.2548 16.4812C28.2548 15.3813 29.1793 14.4568 30.2792 14.4568C30.5541 14.4568 30.8031 14.5228 31.0067 14.6343L30.9051 15.4636C30.7529 15.2953 30.5067 15.1778 30.2036 15.1778C29.5736 15.1778 29.0128 15.7472 29.0128 16.4076C29.0128 16.9099 29.3289 17.3039 29.8269 17.3039C30.1322 17.3039 30.4266 17.1863 30.6258 17.0246L30.5295 17.8474" fill="#3C3A3E"/>
<path d="M35.0749 16.5712H33.5701L33.3255 17.9634H32.6045L33.2151 14.4992H33.9382L33.6957 15.8676H35.2005L35.4451 14.4992H36.1683L35.5577 17.9634H34.8346L35.0771 16.5712" fill="#3C3A3E"/>
<path d="M37.673 17.9569L38.2836 14.4927H40.2019L40.08 15.1899H38.8849L38.763 15.8611H39.8607L39.7388 16.5583H38.6411L38.5192 17.2554H39.7143L39.5924 17.9526H37.6741" fill="#3C3A3E"/>
</g>
<defs>
<clipPath id="clip0_3_393">
<rect width="67" height="40" fill="white"/>
</clipPath>
</defs>
</svg>
