<svg width="40" height="40" viewBox="0 0 40 40" fill="none" xmlns="http://www.w3.org/2000/svg">
<path fill-rule="evenodd" clip-rule="evenodd" d="M5.57476 36.0015L2.36499 0H37.635L34.4218 35.9958L19.9784 40L5.57476 36.0015ZM9.72346 16.2961L10.1192 20.7115H19.9847H20H25.4219L24.9094 26.438L19.9847 27.7671V27.7675L19.9806 27.7686L15.0631 26.4408L14.7488 22.9192H10.3163L10.935 29.8521L19.9797 32.363L20 32.3573V32.3566L29.0366 29.8521L29.103 29.1061L30.1405 17.4817L30.2483 16.2961L31.0454 7.35913H20H19.9847H8.92822L9.32963 11.7746H19.9847H20H26.2065L25.8047 16.2961H20H19.9847H9.72346Z" fill="#38383A"/>
</svg>
