<svg width="40" height="40" viewBox="0 0 40 40" fill="none" xmlns="http://www.w3.org/2000/svg">
<g clip-path="url(#clip0_1_331)">
<path d="M20 24.1595C21.969 24.1595 23.5652 22.5633 23.5652 20.5943C23.5652 18.6253 21.969 17.0291 20 17.0291C18.031 17.0291 16.4348 18.6253 16.4348 20.5943C16.4348 22.5633 18.031 24.1595 20 24.1595Z" fill="#38383A"/>
<path d="M20.0001 27.8987C30.5655 27.8987 39.1305 24.6284 39.1305 20.5943C39.1305 16.5602 30.5655 13.29 20.0001 13.29C9.43462 13.29 0.869629 16.5602 0.869629 20.5943C0.869629 24.6284 9.43462 27.8987 20.0001 27.8987Z" stroke="#38383A"/>
<path d="M13.6743 24.2465C18.9571 33.3964 26.0717 39.1788 29.5653 37.1618C33.0589 35.1447 31.6086 26.0921 26.3258 16.9421C21.0431 7.79219 13.9285 2.00983 10.4349 4.02687C6.94125 6.04391 8.39161 15.0965 13.6743 24.2465Z" stroke="#38383A"/>
<path d="M13.6743 16.9421C8.39155 26.0921 6.94119 35.1447 10.4348 37.1618C13.9284 39.1788 21.0431 33.3964 26.3258 24.2465C31.6085 15.0965 33.0589 6.04391 29.5652 4.02687C26.0716 2.00983 18.957 7.79219 13.6743 16.9421Z" stroke="#38383A"/>
</g>
<defs>
<clipPath id="clip0_1_331">
<rect width="40" height="40" fill="white"/>
</clipPath>
</defs>
</svg>
