<svg width="40" height="40" viewBox="0 0 40 40" fill="none" xmlns="http://www.w3.org/2000/svg">
<path fill-rule="evenodd" clip-rule="evenodd" d="M5.54688 35.9375L2.34375 0H37.5781L34.375 35.9375L19.9219 40L5.54688 35.9375ZM19.9219 16.25H14.1406L13.75 11.7188H19.9219H20H30.625L30.7031 10.7812L30.9375 8.51562L31.0156 7.34375H20H19.9219H8.90625L8.98438 8.51562L10.0781 20.7031H19.9219H20H25.3906L24.8438 26.4062L19.9219 27.7344L15 26.4062L14.6875 22.8906H12.3438H10.3125L10.8594 29.8438L19.9219 32.3438H20V32.3222L28.9844 29.8438L29.0625 29.0625L30.0781 17.4219L30.2344 16.25H28.9844H20H19.9219Z" fill="#38383A"/>
</svg>
