<svg width="40" height="40" viewBox="0 0 40 40" fill="none" xmlns="http://www.w3.org/2000/svg">
<g clip-path="url(#clip0_1_312)">
<path fill-rule="evenodd" clip-rule="evenodd" d="M0 0H40V40H0V0ZM30.5778 33.5327C28.7239 33.5327 27.6756 32.5657 26.8699 31.2501L23.8153 33.0247C24.9188 35.2051 27.174 36.8686 30.6648 36.8686C34.235 36.8686 36.8934 35.0146 36.8934 31.6305C36.8934 28.4914 35.0902 27.0952 31.8965 25.7257L30.9569 25.3232C29.3442 24.6247 28.6458 24.1682 28.6458 23.0406C28.6458 22.1282 29.3435 21.4298 30.4445 21.4298C31.5239 21.4298 32.2191 21.8851 32.8635 23.0406L35.7905 21.1613C34.5524 18.9835 32.8343 18.1517 30.4445 18.1517C27.0877 18.1517 24.9397 20.2978 24.9397 23.1168C24.9397 26.1771 26.7416 27.6247 29.454 28.7803L30.3937 29.1835C32.108 29.9333 33.1302 30.3898 33.1302 31.6787C33.1302 32.7543 32.1353 33.5327 30.5778 33.5327ZM16.0108 33.5092C14.7194 33.5092 14.1823 32.6235 13.5918 31.5759L10.5321 33.4282C11.4185 35.3041 13.1613 36.8616 16.1708 36.8616C19.5016 36.8616 21.7835 35.0901 21.7835 31.1981V18.3663H18.0248V31.1473C18.0248 33.026 17.2458 33.5092 16.0108 33.5092Z" fill="#38383A"/>
</g>
<defs>
<clipPath id="clip0_1_312">
<rect width="40" height="40" fill="white"/>
</clipPath>
</defs>
</svg>
