<svg width="120" height="40" viewBox="0 0 120 40" fill="none" xmlns="http://www.w3.org/2000/svg">
<path d="M18.2272 24.4025C15.9878 26.6798 13.6963 27.8185 11.3531 27.8185C10.6728 27.8185 10.0183 27.7308 9.39002 27.5559C8.76145 27.3814 7.99619 27.0862 7.09397 26.6703C6.19149 26.2547 5.39536 25.9526 4.70583 25.7639C3.42996 27.1625 2.27718 27.8618 1.24738 27.8618C0.888099 27.8618 0.590307 27.7443 0.354395 27.5082C0.11822 27.2705 0 26.9829 0 26.6425C0 25.9247 0.351888 25.2934 1.05593 24.7505C1.75971 24.2069 2.75428 23.8312 4.03939 23.6237C4.57798 22.8861 4.92274 22.1657 5.07408 21.4617C5.22515 20.7584 5.34324 19.5987 5.42848 17.9824C5.58905 14.6571 6.47952 12.0513 8.10029 10.1662C9.72054 8.28123 11.4806 7.33864 13.3798 7.33864C14.6838 7.33864 15.7538 7.75215 16.5899 8.57889C17.4265 9.40577 17.8444 10.4617 17.8444 11.7468C17.8444 13.2301 17.4051 14.5295 16.5264 15.6444C15.6476 16.7593 14.6364 17.3167 13.4933 17.3167C12.898 17.3167 12.4302 17.1531 12.0901 16.8272C11.7499 16.5013 11.5799 16.054 11.5799 15.488C11.5799 15.1951 11.6366 14.8547 11.7501 14.4668C12.0051 14.7597 12.3261 14.9062 12.7138 14.9062C13.355 14.9062 13.9184 14.5235 14.4 13.7583C14.8816 12.993 15.123 12.0813 15.123 11.0218C15.123 10.209 14.9383 9.56912 14.5702 9.10072C14.2021 8.63233 13.6967 8.39879 13.0555 8.39879C12.281 8.39879 11.6793 8.67719 11.2492 9.2353C10.8191 9.79342 10.5196 10.4587 10.3494 11.2342C10.1792 12.0087 9.99841 13.2608 9.80577 14.9906C9.61314 16.719 9.29252 18.2522 8.8426 19.589C8.39136 20.9256 7.55089 22.2364 6.31855 23.5209C7.12208 23.4642 7.81873 23.5117 8.40851 23.6634C8.99829 23.8142 9.84403 24.1001 10.9457 24.5203C12.0461 24.9412 12.9935 25.151 13.7865 25.151C15.3354 25.151 16.8145 24.3581 18.2223 22.7708V24.4003L18.2272 24.4025ZM28.8147 24.4025C27.6146 25.5838 26.5374 26.4555 25.5832 27.0173C24.6288 27.5794 23.5751 27.8618 22.4226 27.8618C21.1374 27.8618 20.1004 27.4514 19.3114 26.6294C18.5224 25.8074 18.1279 24.7255 18.1279 23.3837C18.1279 21.3808 18.8225 19.5692 20.2115 17.949C21.6004 16.3288 23.1406 15.5186 24.8321 15.5186C25.7108 15.5186 26.4146 15.7456 26.9439 16.1994C27.473 16.6533 27.7382 17.2484 27.7382 17.9859C27.7382 19.9426 25.6601 21.5299 21.5027 22.749C21.8813 24.5923 22.8683 25.5132 24.4648 25.5132C25.0888 25.5132 25.6839 25.3456 26.2512 25.0105C26.8186 24.6754 27.6736 23.9312 28.8175 22.7781V24.4089L28.8147 24.4025ZM21.3877 21.7804C23.8066 21.1002 25.0161 19.8435 25.0161 18.0102C25.0161 17.1031 24.6854 16.6495 24.0239 16.6495C23.4004 16.6495 22.8052 17.1245 22.2382 18.0739C21.6713 19.0235 21.3877 20.2592 21.3877 21.7804ZM43.952 24.4025C42.44 25.839 41.3583 26.7744 40.7062 27.2089C40.0542 27.6434 39.4306 27.8607 38.8353 27.8607C37.3423 27.8607 36.6385 26.5426 36.7234 23.9064C35.7787 25.2578 34.9079 26.2546 34.1097 26.897C33.3114 27.5382 32.4868 27.8602 31.6371 27.8602C30.8059 27.8602 30.1 27.4696 29.5181 26.6899C28.9376 25.9101 28.6473 24.9535 28.6473 23.8201C28.6473 22.4018 29.0378 21.0507 29.8176 19.7656C30.5974 18.4805 31.5962 17.4408 32.8153 16.6465C34.0345 15.8522 35.1111 15.455 36.0466 15.455C37.2275 15.455 38.0547 15.9986 38.5271 17.0845L41.4245 15.4827H42.2201L40.9706 19.6363C40.3268 21.7249 40.0048 23.1565 40.0048 23.931C40.0048 24.7424 40.2925 25.1488 40.8691 25.1488C41.2372 25.1488 41.6436 24.9522 42.0869 24.5603C42.5302 24.1685 43.1543 23.5708 43.9565 22.7672V24.398L43.952 24.4025ZM33.577 25.182C34.5217 25.182 35.4123 24.3772 36.2489 22.7662C37.085 21.1552 37.5031 19.6695 37.5031 18.3092C37.5031 17.7801 37.3849 17.3671 37.1487 17.0689C36.9125 16.7721 36.5959 16.623 36.1991 16.623C35.2541 16.623 34.3588 17.4265 33.5133 19.0336C32.6676 20.6406 32.2453 22.1197 32.2453 23.4708C32.2453 23.9814 32.3707 24.3943 32.6214 24.711C32.8721 25.0277 33.1901 25.186 33.578 25.186L33.577 25.182ZM55.4466 24.4036C54.465 25.5093 53.4928 26.3616 52.5302 26.9619C51.5675 27.5623 50.7086 27.8618 49.9534 27.8618C49.5948 27.8618 49.1041 27.7259 48.4813 27.4528C48.0828 29.5308 47.7316 31.7752 47.428 34.1831C46.4443 34.3164 45.2619 34.5195 43.8811 34.794C44.1833 32.2053 44.7079 28.8461 45.4542 24.7176C45.3499 24.5382 45.1657 24.0856 44.9013 23.3573L43.952 24.4062H43.6261V23.1303L46.328 20.3292C46.8415 17.7946 47.259 15.9593 47.5804 14.8259C47.9015 13.6926 48.3504 12.4378 48.9269 11.063C49.5031 9.68813 49.867 8.89912 50.018 8.69593C50.1692 8.49274 50.5355 8.29878 51.1166 8.11538C51.6976 7.93198 52.3188 7.7565 52.9804 7.59158C53.6417 7.42665 53.9959 7.34353 54.0434 7.34353C54.4036 7.34353 54.6965 7.57706 54.9222 8.04545C55.1491 8.51253 55.2626 9.1287 55.2626 9.89356C55.2626 11.2156 54.9142 12.4898 54.2163 13.7168C53.5183 14.9439 52.1989 16.4533 50.258 18.2469L49.0666 24.1711C49.5284 25.162 50.2224 25.6577 51.146 25.6577C52.4667 25.6577 53.9009 24.6985 55.4473 22.78V24.4104L55.4466 24.4036ZM50.6867 16.3247C51.7913 15.3608 52.6575 14.3239 53.2857 13.2135C53.9137 12.1032 54.2278 11.0802 54.2278 10.1445C54.2278 9.74777 54.1547 9.42174 54.0087 9.16683C53.8627 8.91152 53.6815 8.7842 53.4649 8.7842C53.0503 8.7842 52.6286 9.3278 52.2001 10.415C51.7713 11.5022 51.2668 13.4721 50.6867 16.3247ZM64.8153 24.4034C63.5302 25.5843 62.4034 26.4565 61.4349 27.018C60.4662 27.5801 59.5429 27.8618 58.6642 27.8618C57.6528 27.8618 56.8378 27.4699 56.2193 26.6862C55.6002 25.9024 55.2908 24.8482 55.2908 23.5262C55.2908 21.5418 55.7207 19.1615 56.5805 16.3828C57.4403 13.6055 58.4845 11.0445 59.7128 8.7012L63.3129 7.36859C63.4263 7.33165 63.5113 7.31186 63.568 7.31186C63.8412 7.31186 64.0655 7.51373 64.2409 7.91483C64.4151 8.31725 64.5022 8.85822 64.5022 9.53771C64.5022 11.4654 64.0575 13.3324 63.1696 15.1373C62.2816 16.9423 60.8923 18.8699 59.0029 20.9203C58.9263 21.9033 58.8894 22.5788 58.8894 22.9469C58.8894 23.7689 59.0398 24.4207 59.3433 24.9036C59.6454 25.3852 60.0465 25.6267 60.5479 25.6267C61.0585 25.6267 61.6008 25.442 62.1774 25.0738C62.7526 24.7057 63.6314 23.9405 64.8136 22.7781V24.4083L64.8153 24.4034ZM59.3869 18.8606C60.5867 17.5266 61.56 16.0315 62.3065 14.3754C63.0528 12.7195 63.4262 11.2956 63.4262 10.1031C63.4262 9.75304 63.3741 9.47161 63.2702 9.25866C63.166 9.0457 63.0341 8.93936 62.8734 8.93936C62.5237 8.93936 62.0157 9.80978 61.3497 11.5509C60.6837 13.2912 60.0292 15.7282 59.3868 18.8604L59.3869 18.8606ZM75.4169 24.4025C74.2168 25.5838 73.1396 26.4555 72.1854 27.0173C71.2315 27.5794 70.1786 27.8618 69.0254 27.8618C67.7403 27.8618 66.7032 27.4514 65.9142 26.6294C65.1252 25.8074 64.7307 24.7255 64.7307 23.3837C64.7307 21.3808 65.426 19.5692 66.8141 17.949C68.2034 16.3288 69.7432 15.5186 71.4347 15.5186C72.3134 15.5186 73.018 15.7456 73.5471 16.1994C74.0761 16.6533 74.3413 17.2484 74.3413 17.9859C74.3413 19.9426 72.2633 21.5299 68.1058 22.749C68.4844 24.5923 69.4714 25.5132 71.0679 25.5132C71.6919 25.5132 72.287 25.3456 72.8544 25.0105C73.4217 24.6754 74.2767 23.9312 75.4206 22.7781V24.4089L75.4169 24.4025ZM67.9899 21.7804C70.4088 21.1002 71.6183 19.8435 71.6183 18.0102C71.6183 17.1031 71.2875 16.6495 70.6261 16.6495C70.0026 16.6495 69.4074 17.1245 68.8404 18.0739C68.2731 19.0235 67.9894 20.2592 67.9894 21.7804H67.9899ZM83.5808 24.4025C82.3903 25.5838 81.3602 26.4555 80.491 27.0173C79.6215 27.5794 78.7949 27.8618 78.0105 27.8618C77.1977 27.8618 76.5388 27.52 76.0335 26.8339C75.5279 26.1492 75.2752 25.2493 75.2752 24.1344C75.2752 23.1528 75.5167 21.8545 76.0022 20.2421L76.6039 18.0968L75.5154 18.1535L75.9692 15.929L77.3164 15.8722L78.6463 11.4495L82.4317 10.6724L80.9672 15.6018L82.9687 15.4883L82.5003 17.6719L80.3009 17.8421L79.3562 21.018C79.0276 22.1223 78.864 22.9997 78.864 23.6528C78.864 24.0975 78.9749 24.459 79.1965 24.7387C79.4184 25.0184 79.7045 25.157 80.0555 25.157C80.5374 25.157 81.016 25.0039 81.4883 24.6965C81.962 24.3904 82.6574 23.7492 83.5757 22.7767V24.4062L83.5808 24.4025Z" fill="#6F6F6E"/>
<path d="M88.9706 16.1907C89.2654 16.5348 95.0527 18.4625 97.0648 20.8047C99.0769 23.1472 99.9553 25.2377 99.6712 27.2477C99.3875 29.2577 98.1578 29.2245 97.6208 29.9565C97.0838 30.6884 96.3423 31.591 94.9173 31.4949C93.0517 31.3698 91.128 30.4375 89.7386 27.2015C88.3493 23.9654 88.4562 20.9255 88.567 19.2389C88.6778 17.5526 88.9681 16.1907 88.9681 16.1907H88.9706Z" fill="url(#paint0_linear_1_459)"/>
<path d="M88.623 17.2736L97.2903 30.1942L96.8908 30.6402" fill="url(#paint1_linear_1_459)"/>
<path fill-rule="evenodd" clip-rule="evenodd" d="M55.4052 35.2323L55.4868 34.6601C57.7984 33.4284 60.6779 32.9535 63.0213 31.7646C63.7243 32.0813 64.0368 31.6248 64.7867 31.667C65.0587 31.9124 64.4444 32.2409 65.1791 32.1908C66.8481 32.4124 68.4737 32.1011 70.115 31.9612C71.8461 31.8134 73.5653 31.9784 75.2634 31.8781C75.8057 31.8464 76.6408 31.0957 77.3058 31.4691C77.6067 32.014 76.3242 32.0615 76.6685 32.6631C80.0674 33.4627 88.5684 36.8431 90.0224 33.1658C90.0422 33.3901 89.7677 33.8335 90.1688 33.7714C93.0346 32.489 97.9046 29.7195 98.7622 28.9938C99.7042 28.1969 100.96 28.222 102.193 27.9383C104.412 27.4277 106.78 26.9078 108.701 25.789C109.889 26.6136 112.375 27.024 113.703 26.7363C115.09 26.4355 117.242 24.1331 118.394 23.319C118.846 22.9997 119.509 22.3783 119.996 22.7306C119.668 22.9549 120.054 23.6119 119.652 23.4985C119.443 23.0974 119.024 23.5605 118.72 23.4826C117.56 24.4339 116.355 25.3245 115.173 26.2455C114.622 26.5846 115.705 26.9356 115.058 27.0464C112.005 27.6533 107.356 26.1333 105.431 28.2431C102.381 29.2868 99.496 29.552 96.4904 31.1722C94.7633 32.1037 92.6499 33.7978 90.852 34.6884C90.5472 34.8402 90.1009 34.893 89.7407 35.1146C89.3026 35.3838 89.195 35.7215 88.8254 35.8012C87.9044 35.9995 86.0018 35.5189 84.8038 35.3447C80.8086 34.7642 76.5429 33.1352 72.7728 32.9289C71.2819 32.8471 69.5218 33.0832 67.8366 33.159C64.2544 33.3207 62.0141 33.4057 59.1417 34.3715C57.9674 34.7669 56.1611 35.8136 55.3993 35.2397L55.4052 35.2323Z" fill="#3C3C3B"/>
<path d="M110.76 4C110.357 4.65232 101.181 9.38414 98.4265 13.826C95.6724 18.2678 94.8867 21.7652 95.8853 25.0529C96.8835 28.3401 98.7919 28.192 99.8798 29.2761C100.968 30.3606 102.444 31.6765 104.801 31.1451C107.888 30.4492 110.863 28.3889 112.342 22.6151C113.822 16.8411 112.852 11.785 112.226 8.9932C111.601 6.20171 110.76 4 110.76 4H110.76Z" fill="url(#paint2_linear_1_459)"/>
<path d="M110.604 4.97504L99.476 28.8424L100.129 29.4981" fill="url(#paint3_linear_1_459)"/>
<defs>
<linearGradient id="paint0_linear_1_459" x1="88.8299" y1="24.394" x2="101.073" y2="26.4647" gradientUnits="userSpaceOnUse">
<stop stop-color="#89C442"/>
<stop offset="1" stop-color="#74B844"/>
</linearGradient>
<linearGradient id="paint1_linear_1_459" x1="88.0303" y1="23.0508" x2="98.5949" y2="24.8377" gradientUnits="userSpaceOnUse">
<stop stop-color="#74B844"/>
<stop offset="1" stop-color="#4A9634"/>
</linearGradient>
<linearGradient id="paint2_linear_1_459" x1="-16.4812" y1="-375.684" x2="-36.2133" y2="-369.066" gradientUnits="userSpaceOnUse">
<stop stop-color="#C1EA71"/>
<stop offset="1" stop-color="#ACDA55"/>
</linearGradient>
<linearGradient id="paint3_linear_1_459" x1="-16.5754" y1="-374.46" x2="-33.7691" y2="-368.693" gradientUnits="userSpaceOnUse">
<stop stop-color="#ACDA55"/>
<stop offset="1" stop-color="#89C442"/>
</linearGradient>
</defs>
</svg>
