<svg width="40" height="40" viewBox="0 0 40 40" fill="none" xmlns="http://www.w3.org/2000/svg">
<g clip-path="url(#clip0_1_191)">
<path d="M20 24.1595C21.969 24.1595 23.5652 22.5633 23.5652 20.5943C23.5652 18.6253 21.969 17.0291 20 17.0291C18.031 17.0291 16.4348 18.6253 16.4348 20.5943C16.4348 22.5633 18.031 24.1595 20 24.1595Z" fill="#61DAFB"/>
<path d="M20 27.8987C30.5654 27.8987 39.1304 24.6284 39.1304 20.5943C39.1304 16.5602 30.5654 13.29 20 13.29C9.43456 13.29 0.869568 16.5602 0.869568 20.5943C0.869568 24.6284 9.43456 27.8987 20 27.8987Z" stroke="#61DAFB"/>
<path d="M13.6743 24.2465C18.957 33.3964 26.0716 39.1788 29.5652 37.1618C33.0589 35.1447 31.6085 26.0921 26.3258 16.9421C21.0431 7.79219 13.9284 2.00983 10.4348 4.02687C6.94119 6.04391 8.39155 15.0965 13.6743 24.2465Z" stroke="#61DAFB"/>
<path d="M13.6743 16.9421C8.39155 26.0921 6.94119 35.1447 10.4348 37.1618C13.9284 39.1788 21.0431 33.3964 26.3258 24.2465C31.6085 15.0965 33.0589 6.04391 29.5652 4.02687C26.0716 2.00983 18.957 7.79219 13.6743 16.9421Z" stroke="#61DAFB"/>
</g>
<defs>
<clipPath id="clip0_1_191">
<rect width="40" height="40" fill="white"/>
</clipPath>
</defs>
</svg>
