<svg width="40" height="40" viewBox="0 0 40 40" fill="none" xmlns="http://www.w3.org/2000/svg">
<g clip-path="url(#clip0_1_434)">
<path fill-rule="evenodd" clip-rule="evenodd" d="M12.3105 29.2852C10.9631 30.7095 10.5863 32.4969 11.3389 32.9321C12.0349 33.3361 13.6588 32.8561 14.8203 31.5886C15.2009 31.1729 15.5124 30.7231 15.7442 30.2422C15.7909 30.1458 15.8337 30.0484 15.8736 29.9501C15.9135 29.8518 15.9505 29.7515 15.9836 29.6502C16.2845 28.741 16.3166 27.7372 16.0255 26.6615C15.9632 26.6955 15.9028 26.7286 15.8425 26.7608L15.8454 26.7666C15.8454 26.7666 13.7601 27.7518 12.3105 29.2842V29.2852Z" fill="#CC6699"/>
<path fill-rule="evenodd" clip-rule="evenodd" d="M20.0005 0C8.95466 0 0 8.95466 0 20.0005C0 31.0463 8.95466 40.001 20.0005 40.001C31.0463 40.001 40.001 31.0463 40.001 20.0005C40.001 8.95466 31.0453 0 20.0005 0ZM26.5213 17.7331C23.0545 19.0737 20.1874 18.8614 19.0094 18.4749C17.6708 18.0359 16.8851 17.1529 16.6943 16.6544C16.6194 16.4587 16.4899 16.1316 16.6943 16.0177C16.8199 15.9476 16.8705 15.9651 17.2074 16.3361C17.5277 16.6885 18.8128 17.6348 21.2544 17.3612C27.6632 16.6427 31.5233 11.6631 30.3035 8.98386C29.4497 7.10882 24.509 6.26183 18.3377 9.33726C10.8044 13.0912 10.3955 16.1861 10.3312 17.3612C10.1541 20.5943 14.3208 22.2951 16.5756 24.6998C16.6291 24.7562 16.6797 24.8137 16.7304 24.8711C17.4128 24.617 18.3562 24.4749 19.8583 24.4486C23.5043 24.3863 25.5633 26.789 25.4786 28.9376C25.4124 30.6296 23.8586 31.3267 23.5695 31.3754C23.3602 31.4114 23.2463 31.4172 23.2161 31.2527C23.1957 31.1398 23.2706 31.0872 23.5169 30.9344C23.7632 30.7825 24.4992 30.2782 24.6307 29.3611C24.7621 28.444 24.0738 26.2536 20.5651 25.8437C19.3219 25.6986 18.3435 25.7979 17.5043 26.0189C18.1128 27.3605 18.2296 30.0562 16.8297 32.1445C15.3791 34.3077 12.6794 35.6249 10.0499 34.8928C9.20096 34.6562 7.91881 32.9019 9.02475 30.4563C10.0733 28.1383 14.5535 25.871 15.1649 25.5701V25.5594C13.0893 23.772 8.03953 21.3634 7.32786 17.6786C7.12634 16.634 7.61603 14.1349 10.6856 11.2629C13.2675 8.84757 16.8589 6.99783 20.1767 5.81887C25.7512 3.83868 31.6411 5.00596 32.5465 8.55842C33.4373 12.0505 30.4047 16.229 26.5223 17.7312L26.5213 17.7331Z" fill="#CC6699"/>
</g>
<defs>
<clipPath id="clip0_1_434">
<rect width="40" height="40" fill="white"/>
</clipPath>
</defs>
</svg>
