<svg width="40" height="40" viewBox="0 0 40 40" fill="none" xmlns="http://www.w3.org/2000/svg">
<g clip-path="url(#clip0_1_323)">
<path fill-rule="evenodd" clip-rule="evenodd" d="M1.98271 0.740753H38.0173C38.8241 0.740753 39.4781 1.38745 39.4781 2.1852V37.8148C39.4781 38.6126 38.8241 39.2593 38.0173 39.2593H1.98271C1.1759 39.2593 0.521851 38.6126 0.521851 37.8148V2.1852C0.521851 1.38745 1.1759 0.740753 1.98271 0.740753ZM22.1774 21.2332V18.0741H8.31309V21.2332H13.2629V35.2993H17.2033V21.2332H22.1774ZM23.7484 34.9279C24.3838 35.2482 25.1353 35.4885 26.0029 35.6486C26.8706 35.8088 27.785 35.8889 28.7463 35.8889C29.6832 35.8889 30.5731 35.8008 31.4164 35.6246C32.2595 35.4485 32.9987 35.1581 33.6341 34.7536C34.2696 34.3492 34.7727 33.8208 35.1433 33.168C35.514 32.5153 35.6993 31.7085 35.6993 30.7474C35.6993 30.0507 35.5934 29.4402 35.3816 28.9156C35.1698 28.391 34.8644 27.9245 34.4651 27.516C34.066 27.1076 33.5873 26.7412 33.0293 26.4169C32.4712 26.0926 31.842 25.7862 31.1414 25.4979C30.6281 25.2896 30.1678 25.0874 29.7605 24.8913C29.3531 24.6951 29.0069 24.4948 28.7218 24.2907C28.4367 24.0864 28.2168 23.8702 28.062 23.6419C27.9072 23.4138 27.8298 23.1554 27.8298 22.8671C27.8298 22.6028 27.899 22.3646 28.0376 22.1525C28.1761 21.9402 28.3715 21.7579 28.6241 21.6058C28.8767 21.4536 29.1861 21.3356 29.5528 21.2514C29.9193 21.1674 30.3267 21.1253 30.7747 21.1253C31.1007 21.1253 31.4448 21.1493 31.8073 21.1973C32.1699 21.2455 32.5344 21.3196 32.901 21.4196C33.2676 21.5197 33.6241 21.6458 33.9703 21.7981C34.3165 21.9502 34.6362 22.1264 34.9296 22.3265V18.7348C34.3347 18.5105 33.6851 18.3443 32.9804 18.2363C32.2758 18.1282 31.4672 18.0741 30.5547 18.0741C29.6261 18.0741 28.7463 18.1722 27.9153 18.3685C27.0844 18.5646 26.3533 18.871 25.7218 19.2874C25.0904 19.7039 24.5915 20.2344 24.225 20.879C23.8583 21.5237 23.675 22.2945 23.675 23.1914C23.675 24.3368 24.011 25.3138 24.6832 26.1225C25.3553 26.9314 26.3756 27.6162 27.7442 28.1768C28.282 28.3931 28.7829 28.6052 29.2473 28.8135C29.7116 29.0216 30.1128 29.2379 30.4509 29.4621C30.789 29.6864 31.0558 29.9305 31.2513 30.1948C31.4469 30.4591 31.5447 30.7594 31.5447 31.0959C31.5447 31.3442 31.4835 31.5744 31.3613 31.7865C31.239 31.9988 31.0537 32.183 30.8053 32.3391C30.5568 32.4953 30.2473 32.6175 29.8767 32.7055C29.506 32.7936 29.0721 32.8376 28.5752 32.8376C27.7279 32.8376 26.8888 32.6916 26.0578 32.3993C25.227 32.107 24.4571 31.6685 23.7484 31.0839V34.9279Z" fill="#2F74C0"/>
</g>
<defs>
<clipPath id="clip0_1_323">
<rect width="40" height="40" fill="white"/>
</clipPath>
</defs>
</svg>
